<svg xmlns="http://www.w3.org/2000/svg" xmlns:xlink="http://www.w3.org/1999/xlink" width="1024" zoomAndPan="magnify" viewBox="0 0 768 767.999994" height="1024" preserveAspectRatio="xMidYMid meet" version="1.0"><path fill="#ffffff" d="M 384 230.175781 C 298.875 230.175781 230.175781 298.875 230.175781 384 C 230.175781 469.125 298.875 537.824219 384 537.824219 C 469.125 537.824219 537.824219 469.125 537.824219 384 C 537.824219 298.875 469.125 230.175781 384 230.175781 Z M 384 483.976562 C 328.949219 483.976562 284.023438 439.050781 284.023438 384 C 284.023438 328.949219 328.949219 284.023438 384 284.023438 C 439.050781 284.023438 483.976562 328.949219 483.976562 384 C 483.976562 439.050781 439.050781 483.976562 384 483.976562 Z M 544.125 188.023438 C 524.25 188.023438 508.199219 204.074219 508.199219 223.949219 C 508.199219 243.824219 524.25 259.875 544.125 259.875 C 564 259.875 580.050781 243.898438 580.050781 223.949219 C 580.050781 222.773438 579.996094 221.597656 579.882812 220.425781 C 579.765625 219.253906 579.59375 218.09375 579.367188 216.9375 C 579.136719 215.785156 578.855469 214.644531 578.511719 213.515625 C 578.171875 212.390625 577.777344 211.28125 577.328125 210.195312 C 576.878906 209.105469 576.375 208.042969 575.820312 207.007812 C 575.265625 205.96875 574.664062 204.960938 574.007812 203.980469 C 573.355469 203 572.65625 202.058594 571.910156 201.148438 C 571.164062 200.238281 570.375 199.367188 569.539062 198.535156 C 568.707031 197.703125 567.835938 196.914062 566.925781 196.164062 C 566.019531 195.417969 565.074219 194.71875 564.09375 194.066406 C 563.117188 193.410156 562.105469 192.808594 561.070312 192.253906 C 560.03125 191.699219 558.96875 191.199219 557.878906 190.746094 C 556.792969 190.296875 555.683594 189.902344 554.558594 189.5625 C 553.433594 189.222656 552.292969 188.9375 551.136719 188.707031 C 549.980469 188.480469 548.820312 188.308594 547.648438 188.195312 C 546.476562 188.078125 545.300781 188.023438 544.125 188.023438 Z M 683.851562 384 C 683.851562 342.601562 684.226562 301.574219 681.898438 260.25 C 679.574219 212.25 668.625 169.648438 633.523438 134.550781 C 598.351562 99.375 555.824219 88.5 507.824219 86.175781 C 466.425781 83.851562 425.398438 84.226562 384.074219 84.226562 C 342.675781 84.226562 301.648438 83.851562 260.324219 86.175781 C 212.324219 88.5 169.726562 99.449219 134.625 134.550781 C 99.449219 169.726562 88.574219 212.25 86.25 260.25 C 83.925781 301.648438 84.300781 342.675781 84.300781 384 C 84.300781 425.324219 83.925781 466.425781 86.25 507.75 C 88.574219 555.75 99.523438 598.351562 134.625 633.449219 C 169.800781 668.625 212.324219 679.5 260.324219 681.824219 C 301.726562 684.148438 342.75 683.773438 384.074219 683.773438 C 425.476562 683.773438 466.5 684.148438 507.824219 681.824219 C 555.824219 679.5 598.425781 668.550781 633.523438 633.449219 C 668.699219 598.273438 679.574219 555.75 681.898438 507.75 C 684.300781 466.425781 683.851562 425.398438 683.851562 384 Z M 617.851562 560.851562 C 612.375 574.5 605.773438 584.699219 595.199219 595.199219 C 584.625 605.773438 574.5 612.375 560.851562 617.851562 C 521.398438 633.523438 427.726562 630 384 630 C 340.273438 630 246.523438 633.523438 207.074219 617.925781 C 193.425781 612.449219 183.226562 605.851562 172.726562 595.273438 C 162.148438 584.699219 155.550781 574.574219 150.074219 560.925781 C 134.476562 521.398438 138 427.726562 138 384 C 138 340.273438 134.476562 246.523438 150.074219 207.074219 C 155.550781 193.425781 162.148438 183.226562 172.726562 172.726562 C 183.300781 162.226562 193.425781 155.550781 207.074219 150.074219 C 246.523438 134.476562 340.273438 138 384 138 C 427.726562 138 521.476562 134.476562 560.925781 150.074219 C 574.574219 155.550781 584.773438 162.148438 595.273438 172.726562 C 605.851562 183.300781 612.449219 193.425781 617.925781 207.074219 C 633.523438 246.523438 630 340.273438 630 384 C 630 427.726562 633.523438 521.398438 617.851562 560.851562 Z M 617.851562 560.851562 " fill-opacity="1" fill-rule="nonzero"/></svg>