<svg xmlns="http://www.w3.org/2000/svg" xmlns:xlink="http://www.w3.org/1999/xlink" width="1024" zoomAndPan="magnify" viewBox="0 0 768 767.999994" height="1024" preserveAspectRatio="xMidYMid meet" version="1.0"><path stroke-linecap="round" transform="matrix(32.000001, 0, 0, 32.000001, 0.000003, 0.00002)" fill="none" stroke-linejoin="round" d="M 7 2.999999 L 16.999999 2.999999 C 17.065429 2.999999 17.130859 3.001586 17.196288 3.00476 C 17.261718 3.008056 17.326904 3.012817 17.392089 3.019286 C 17.457275 3.025634 17.522216 3.033691 17.586913 3.043334 C 17.651733 3.052856 17.716186 3.064086 17.780395 3.076904 C 17.844604 3.089599 17.908447 3.104003 17.971923 3.119872 C 18.0354 3.135741 18.09851 3.153198 18.161132 3.17224 C 18.223754 3.191283 18.285888 3.211791 18.347534 3.233764 C 18.409179 3.255859 18.470214 3.279418 18.530761 3.304443 C 18.591186 3.329589 18.651 3.356078 18.710204 3.384032 C 18.769409 3.411987 18.82788 3.441406 18.885619 3.472289 C 18.943359 3.503173 19.000243 3.5354 19.056396 3.569091 C 19.112548 3.602782 19.167846 3.637695 19.222289 3.674072 C 19.276733 3.710448 19.3302 3.748168 19.382812 3.787231 C 19.435424 3.826171 19.486938 3.866454 19.537597 3.907958 C 19.588134 3.949462 19.637695 3.992187 19.686279 4.036254 C 19.734741 4.080199 19.782104 4.125243 19.828368 4.17163 C 19.874755 4.217895 19.919799 4.265258 19.963744 4.31372 C 20.007812 4.362304 20.050536 4.411864 20.09204 4.462402 C 20.133544 4.513061 20.173827 4.564574 20.212768 4.617187 C 20.25183 4.669799 20.28955 4.723266 20.325927 4.777709 C 20.362304 4.832153 20.397216 4.88745 20.430907 4.943603 C 20.464599 4.999755 20.496825 5.05664 20.527709 5.114379 C 20.558593 5.172118 20.588012 5.23059 20.615966 5.289794 C 20.64392 5.348998 20.670409 5.408813 20.695556 5.469237 C 20.72058 5.529784 20.74414 5.59082 20.766113 5.652465 C 20.788207 5.714111 20.808715 5.776244 20.827758 5.838866 C 20.846801 5.901488 20.864257 5.964599 20.880126 6.028075 C 20.895995 6.091552 20.9104 6.155395 20.923095 6.219604 C 20.935912 6.283813 20.947143 6.348266 20.956664 6.413085 C 20.966308 6.477782 20.974365 6.542724 20.980712 6.607909 C 20.987182 6.673095 20.991943 6.738402 20.995239 6.80371 C 20.998412 6.86914 20.999999 6.934569 20.999999 6.999999 L 20.999999 16.999999 C 20.999999 17.065429 20.998412 17.130858 20.995239 17.196288 C 20.991943 17.261718 20.987182 17.326903 20.980712 17.392089 C 20.974365 17.457274 20.966308 17.522216 20.956664 17.586913 C 20.947143 17.651732 20.935912 17.716185 20.923095 17.780394 C 20.9104 17.844603 20.895995 17.908446 20.880126 17.971923 C 20.864257 18.035399 20.846801 18.09851 20.827758 18.161132 C 20.808715 18.223754 20.788207 18.285887 20.766113 18.347533 C 20.74414 18.409179 20.72058 18.470214 20.695556 18.530761 C 20.670409 18.591185 20.64392 18.651 20.615966 18.710204 C 20.588012 18.769408 20.558593 18.82788 20.527709 18.885619 C 20.496825 18.943358 20.464599 19.000243 20.430907 19.056395 C 20.397216 19.112548 20.362304 19.167845 20.325927 19.222289 C 20.28955 19.276732 20.25183 19.330199 20.212768 19.382811 C 20.173827 19.435424 20.133544 19.486937 20.09204 19.537596 C 20.050536 19.588134 20.007812 19.637694 19.963866 19.686278 C 19.919799 19.73474 19.874755 19.782103 19.828368 19.828368 C 19.782104 19.874755 19.734741 19.919799 19.686279 19.963744 C 19.637695 20.007811 19.588134 20.050536 19.537597 20.09204 C 19.486938 20.133544 19.435424 20.173827 19.382812 20.212767 C 19.3302 20.25183 19.276733 20.28955 19.222289 20.325926 C 19.167846 20.362303 19.112548 20.397216 19.056396 20.430907 C 19.000243 20.464598 18.943359 20.496825 18.885619 20.527709 C 18.82788 20.558592 18.769409 20.588011 18.710204 20.615966 C 18.651 20.64392 18.591186 20.670409 18.530761 20.695555 C 18.470214 20.72058 18.409179 20.744139 18.347534 20.766112 C 18.285888 20.788207 18.223754 20.808715 18.161132 20.827758 C 18.09851 20.8468 18.0354 20.864257 17.971923 20.880126 C 17.908447 20.895995 17.844604 20.910399 17.780395 20.923094 C 17.716186 20.935912 17.651733 20.947142 17.586913 20.956664 C 17.522216 20.966307 17.457275 20.974364 17.392089 20.980712 C 17.326904 20.987181 17.261718 20.991942 17.196288 20.995238 C 17.130859 20.998412 17.065429 20.999999 16.999999 20.999999 L 7 20.999999 C 6.93457 20.999999 6.86914 20.998412 6.803711 20.995238 C 6.738403 20.991942 6.673095 20.987181 6.60791 20.980712 C 6.542724 20.974364 6.477783 20.966307 6.413086 20.956664 C 6.348266 20.947142 6.283813 20.935912 6.219604 20.923094 C 6.155395 20.910399 6.091552 20.895995 6.028076 20.880126 C 5.964599 20.864257 5.901489 20.8468 5.838867 20.827758 C 5.776245 20.808715 5.714111 20.788207 5.652466 20.766112 C 5.59082 20.744139 5.529785 20.72058 5.469238 20.695555 C 5.408813 20.670409 5.348999 20.64392 5.289795 20.615966 C 5.230591 20.588011 5.172119 20.558592 5.11438 20.527709 C 5.05664 20.496825 4.999756 20.464598 4.943603 20.430907 C 4.887451 20.397216 4.832153 20.362303 4.77771 20.325926 C 4.723266 20.28955 4.6698 20.25183 4.617187 20.212767 C 4.564575 20.173827 4.513061 20.133544 4.462402 20.09204 C 4.411865 20.050536 4.362304 20.007811 4.31372 19.963866 C 4.265259 19.919799 4.217895 19.874755 4.171631 19.828368 C 4.125244 19.782103 4.0802 19.73474 4.036255 19.686278 C 3.992187 19.637694 3.949463 19.588134 3.907959 19.537596 C 3.866455 19.486937 3.826172 19.435424 3.787109 19.382811 C 3.748169 19.330199 3.710449 19.276732 3.674072 19.222289 C 3.637695 19.167845 3.602783 19.112548 3.569092 19.056395 C 3.5354 19.000243 3.503174 18.943358 3.47229 18.885619 C 3.441406 18.82788 3.411987 18.769408 3.384033 18.710204 C 3.356079 18.651 3.32959 18.591185 3.304443 18.530761 C 3.279419 18.470214 3.255859 18.409179 3.233764 18.347533 C 3.211792 18.285887 3.191284 18.223754 3.172241 18.161132 C 3.153198 18.09851 3.135742 18.035399 3.119873 17.971923 C 3.104004 17.908446 3.089599 17.844603 3.076904 17.780394 C 3.064087 17.716185 3.052856 17.651732 3.043335 17.586913 C 3.033691 17.522216 3.025635 17.457274 3.019287 17.392089 C 3.012817 17.326903 3.008056 17.261718 3.004761 17.196288 C 3.001587 17.130858 3 17.065429 3 16.999999 L 3 6.999999 C 3 6.934569 3.001587 6.86914 3.004761 6.80371 C 3.008056 6.738402 3.012817 6.673095 3.019287 6.607909 C 3.025635 6.542724 3.033691 6.477782 3.043335 6.413085 C 3.052856 6.348266 3.064087 6.283813 3.076904 6.219604 C 3.089599 6.155395 3.104004 6.091552 3.119873 6.028075 C 3.135742 5.964599 3.153198 5.901488 3.172241 5.838866 C 3.191284 5.776244 3.211792 5.714111 3.233764 5.652465 C 3.255859 5.59082 3.279419 5.529784 3.304443 5.469237 C 3.32959 5.408813 3.356079 5.348998 3.384033 5.289794 C 3.411987 5.23059 3.441406 5.172118 3.47229 5.114379 C 3.503174 5.05664 3.5354 4.999755 3.569092 4.943603 C 3.602783 4.88745 3.637695 4.832153 3.674072 4.777709 C 3.710449 4.723266 3.748169 4.669799 3.787109 4.617187 C 3.826172 4.564574 3.866455 4.513061 3.907959 4.462402 C 3.949463 4.411864 3.992187 4.362304 4.036255 4.31372 C 4.0802 4.265258 4.125244 4.217895 4.171631 4.17163 C 4.217895 4.125243 4.265259 4.080199 4.31372 4.036254 C 4.362304 3.992187 4.411865 3.949462 4.462402 3.907958 C 4.513061 3.866454 4.564575 3.826171 4.617187 3.787109 C 4.6698 3.748168 4.723266 3.710448 4.77771 3.674072 C 4.832153 3.637695 4.887451 3.602782 4.943603 3.569091 C 4.999756 3.5354 5.05664 3.503173 5.11438 3.472289 C 5.172119 3.441406 5.230591 3.411987 5.289795 3.384032 C 5.348999 3.356078 5.408813 3.329589 5.469238 3.304443 C 5.529785 3.279418 5.59082 3.255859 5.652466 3.233764 C 5.714111 3.211791 5.776245 3.191283 5.838867 3.17224 C 5.901489 3.153198 5.964599 3.135741 6.028076 3.119872 C 6.091552 3.104003 6.155395 3.089599 6.219604 3.076904 C 6.283813 3.064086 6.348266 3.052856 6.413086 3.043334 C 6.477783 3.033691 6.542724 3.025634 6.60791 3.019286 C 6.673095 3.012817 6.738403 3.008056 6.803711 3.00476 C 6.86914 3.001586 6.93457 2.999999 7 2.999999 Z M 7 2.999999 " stroke="#ffffff" stroke-width="2" stroke-opacity="1" stroke-miterlimit="4"/><path fill="#ffffff" d="M 214.355469 242.667969 C 214.355469 235.160156 217.339844 227.957031 222.648438 222.648438 C 227.957031 217.339844 235.160156 214.355469 242.667969 214.355469 L 524.960938 214.355469 C 528.679688 214.355469 532.363281 215.089844 535.796875 216.511719 C 539.234375 217.933594 542.355469 220.019531 544.984375 222.648438 C 547.613281 225.277344 549.699219 228.398438 551.121094 231.835938 C 552.542969 235.269531 553.277344 238.953125 553.277344 242.667969 L 553.277344 524.960938 C 553.277344 528.683594 552.542969 532.363281 551.121094 535.796875 C 549.699219 539.234375 547.613281 542.355469 544.984375 544.984375 C 542.355469 547.613281 539.234375 549.699219 535.796875 551.121094 C 532.363281 552.542969 528.679688 553.277344 524.960938 553.277344 L 242.667969 553.277344 C 235.160156 553.277344 227.957031 550.292969 222.648438 544.984375 C 217.339844 539.675781 214.355469 532.472656 214.355469 524.960938 Z M 348.511719 343.570312 L 394.410156 343.570312 L 394.410156 366.632812 C 401.023438 353.371094 417.976562 341.453125 443.445312 341.453125 C 492.265625 341.453125 503.851562 367.84375 503.851562 416.273438 L 503.851562 505.96875 L 454.425781 505.96875 L 454.425781 427.304688 C 454.425781 399.726562 447.808594 384.167969 430.984375 384.167969 C 407.648438 384.167969 397.9375 400.9375 397.9375 427.304688 L 397.9375 505.96875 L 348.511719 505.96875 Z M 263.78125 503.851562 L 313.207031 503.851562 L 313.207031 341.453125 L 263.78125 341.453125 Z M 320.269531 288.496094 C 320.269531 292.667969 319.445312 296.800781 317.851562 300.652344 C 316.253906 304.507812 313.914062 308.011719 310.960938 310.960938 C 308.011719 313.914062 304.507812 316.253906 300.652344 317.851562 C 296.800781 319.445312 292.667969 320.269531 288.496094 320.269531 C 284.320312 320.269531 280.191406 319.445312 276.335938 317.851562 C 272.480469 316.253906 268.976562 313.914062 266.027344 310.960938 C 263.078125 308.011719 260.734375 304.507812 259.140625 300.652344 C 257.542969 296.800781 256.722656 292.667969 256.722656 288.496094 C 256.722656 280.066406 260.070312 271.984375 266.027344 266.027344 C 271.984375 260.070312 280.066406 256.722656 288.496094 256.722656 C 296.921875 256.722656 305.003906 260.070312 310.960938 266.027344 C 316.921875 271.984375 320.269531 280.066406 320.269531 288.496094 Z M 320.269531 288.496094 " fill-opacity="1" fill-rule="evenodd"/></svg>