<svg xmlns="http://www.w3.org/2000/svg" xmlns:xlink="http://www.w3.org/1999/xlink" width="1024" zoomAndPan="magnify" viewBox="0 0 768 767.999994" height="1024" preserveAspectRatio="xMidYMid meet" version="1.0"><defs><clipPath id="86551a8111"><path d="M 198.828125 198.828125 L 569.328125 198.828125 L 569.328125 569.328125 L 198.828125 569.328125 Z M 198.828125 198.828125 " clip-rule="nonzero"/></clipPath></defs><path stroke-linecap="round" transform="matrix(32.000001, 0, 0, 32.000001, 0.000003, 0.00002)" fill="none" stroke-linejoin="round" d="M 7 2.999999 L 16.999999 2.999999 C 17.065429 2.999999 17.130859 3.001586 17.196288 3.00476 C 17.261718 3.008056 17.326904 3.012817 17.392089 3.019286 C 17.457275 3.025634 17.522216 3.033691 17.586913 3.043334 C 17.651733 3.052856 17.716186 3.064086 17.780395 3.076904 C 17.844604 3.089599 17.908447 3.104003 17.971923 3.119872 C 18.0354 3.135741 18.09851 3.153198 18.161132 3.17224 C 18.223754 3.191283 18.285888 3.211791 18.347534 3.233764 C 18.409179 3.255859 18.470214 3.279418 18.530761 3.304443 C 18.591186 3.329589 18.651 3.356078 18.710204 3.384032 C 18.769409 3.411987 18.82788 3.441406 18.885619 3.472289 C 18.943359 3.503173 19.000243 3.5354 19.056396 3.569091 C 19.112548 3.602782 19.167846 3.637695 19.222289 3.674072 C 19.276733 3.710448 19.3302 3.748168 19.382812 3.787231 C 19.435424 3.826171 19.486938 3.866454 19.537597 3.907958 C 19.588134 3.949462 19.637695 3.992187 19.686279 4.036254 C 19.734741 4.080199 19.782104 4.125243 19.828368 4.17163 C 19.874755 4.217895 19.919799 4.265258 19.963744 4.31372 C 20.007812 4.362304 20.050536 4.411864 20.09204 4.462402 C 20.133544 4.513061 20.173827 4.564574 20.212768 4.617187 C 20.25183 4.669799 20.28955 4.723266 20.325927 4.777709 C 20.362304 4.832153 20.397216 4.88745 20.430907 4.943603 C 20.464599 4.999755 20.496825 5.05664 20.527709 5.114379 C 20.558593 5.172118 20.588012 5.23059 20.615966 5.289794 C 20.64392 5.348998 20.670409 5.408813 20.695556 5.469237 C 20.72058 5.529784 20.74414 5.59082 20.766113 5.652465 C 20.788207 5.714111 20.808715 5.776244 20.827758 5.838866 C 20.846801 5.901488 20.864257 5.964599 20.880126 6.028075 C 20.895995 6.091552 20.9104 6.155395 20.923095 6.219604 C 20.935912 6.283813 20.947143 6.348266 20.956664 6.413085 C 20.966308 6.477782 20.974365 6.542724 20.980712 6.607909 C 20.987182 6.673095 20.991943 6.738402 20.995239 6.80371 C 20.998412 6.86914 20.999999 6.934569 20.999999 6.999999 L 20.999999 16.999999 C 20.999999 17.065429 20.998412 17.130858 20.995239 17.196288 C 20.991943 17.261718 20.987182 17.326903 20.980712 17.392089 C 20.974365 17.457274 20.966308 17.522216 20.956664 17.586913 C 20.947143 17.651732 20.935912 17.716185 20.923095 17.780394 C 20.9104 17.844603 20.895995 17.908446 20.880126 17.971923 C 20.864257 18.035399 20.846801 18.09851 20.827758 18.161132 C 20.808715 18.223754 20.788207 18.285887 20.766113 18.347533 C 20.74414 18.409179 20.72058 18.470214 20.695556 18.530761 C 20.670409 18.591185 20.64392 18.651 20.615966 18.710204 C 20.588012 18.769408 20.558593 18.82788 20.527709 18.885619 C 20.496825 18.943358 20.464599 19.000243 20.430907 19.056395 C 20.397216 19.112548 20.362304 19.167845 20.325927 19.222289 C 20.28955 19.276732 20.25183 19.330199 20.212768 19.382811 C 20.173827 19.435424 20.133544 19.486937 20.09204 19.537596 C 20.050536 19.588134 20.007812 19.637694 19.963866 19.686278 C 19.919799 19.73474 19.874755 19.782103 19.828368 19.828368 C 19.782104 19.874755 19.734741 19.919799 19.686279 19.963744 C 19.637695 20.007811 19.588134 20.050536 19.537597 20.09204 C 19.486938 20.133544 19.435424 20.173827 19.382812 20.212767 C 19.3302 20.25183 19.276733 20.28955 19.222289 20.325926 C 19.167846 20.362303 19.112548 20.397216 19.056396 20.430907 C 19.000243 20.464598 18.943359 20.496825 18.885619 20.527709 C 18.82788 20.558592 18.769409 20.588011 18.710204 20.615966 C 18.651 20.64392 18.591186 20.670409 18.530761 20.695555 C 18.470214 20.72058 18.409179 20.744139 18.347534 20.766112 C 18.285888 20.788207 18.223754 20.808715 18.161132 20.827758 C 18.09851 20.8468 18.0354 20.864257 17.971923 20.880126 C 17.908447 20.895995 17.844604 20.910399 17.780395 20.923094 C 17.716186 20.935912 17.651733 20.947142 17.586913 20.956664 C 17.522216 20.966307 17.457275 20.974364 17.392089 20.980712 C 17.326904 20.987181 17.261718 20.991942 17.196288 20.995238 C 17.130859 20.998412 17.065429 20.999999 16.999999 20.999999 L 7 20.999999 C 6.93457 20.999999 6.86914 20.998412 6.803711 20.995238 C 6.738403 20.991942 6.673095 20.987181 6.60791 20.980712 C 6.542724 20.974364 6.477783 20.966307 6.413086 20.956664 C 6.348266 20.947142 6.283813 20.935912 6.219604 20.923094 C 6.155395 20.910399 6.091552 20.895995 6.028076 20.880126 C 5.964599 20.864257 5.901489 20.8468 5.838867 20.827758 C 5.776245 20.808715 5.714111 20.788207 5.652466 20.766112 C 5.59082 20.744139 5.529785 20.72058 5.469238 20.695555 C 5.408813 20.670409 5.348999 20.64392 5.289795 20.615966 C 5.230591 20.588011 5.172119 20.558592 5.11438 20.527709 C 5.05664 20.496825 4.999756 20.464598 4.943603 20.430907 C 4.887451 20.397216 4.832153 20.362303 4.77771 20.325926 C 4.723266 20.28955 4.6698 20.25183 4.617187 20.212767 C 4.564575 20.173827 4.513061 20.133544 4.462402 20.09204 C 4.411865 20.050536 4.362304 20.007811 4.31372 19.963866 C 4.265259 19.919799 4.217895 19.874755 4.171631 19.828368 C 4.125244 19.782103 4.0802 19.73474 4.036255 19.686278 C 3.992187 19.637694 3.949463 19.588134 3.907959 19.537596 C 3.866455 19.486937 3.826172 19.435424 3.787109 19.382811 C 3.748169 19.330199 3.710449 19.276732 3.674072 19.222289 C 3.637695 19.167845 3.602783 19.112548 3.569092 19.056395 C 3.5354 19.000243 3.503174 18.943358 3.47229 18.885619 C 3.441406 18.82788 3.411987 18.769408 3.384033 18.710204 C 3.356079 18.651 3.32959 18.591185 3.304443 18.530761 C 3.279419 18.470214 3.255859 18.409179 3.233764 18.347533 C 3.211792 18.285887 3.191284 18.223754 3.172241 18.161132 C 3.153198 18.09851 3.135742 18.035399 3.119873 17.971923 C 3.104004 17.908446 3.089599 17.844603 3.076904 17.780394 C 3.064087 17.716185 3.052856 17.651732 3.043335 17.586913 C 3.033691 17.522216 3.025635 17.457274 3.019287 17.392089 C 3.012817 17.326903 3.008056 17.261718 3.004761 17.196288 C 3.001587 17.130858 3 17.065429 3 16.999999 L 3 6.999999 C 3 6.934569 3.001587 6.86914 3.004761 6.80371 C 3.008056 6.738402 3.012817 6.673095 3.019287 6.607909 C 3.025635 6.542724 3.033691 6.477782 3.043335 6.413085 C 3.052856 6.348266 3.064087 6.283813 3.076904 6.219604 C 3.089599 6.155395 3.104004 6.091552 3.119873 6.028075 C 3.135742 5.964599 3.153198 5.901488 3.172241 5.838866 C 3.191284 5.776244 3.211792 5.714111 3.233764 5.652465 C 3.255859 5.59082 3.279419 5.529784 3.304443 5.469237 C 3.32959 5.408813 3.356079 5.348998 3.384033 5.289794 C 3.411987 5.23059 3.441406 5.172118 3.47229 5.114379 C 3.503174 5.05664 3.5354 4.999755 3.569092 4.943603 C 3.602783 4.88745 3.637695 4.832153 3.674072 4.777709 C 3.710449 4.723266 3.748169 4.669799 3.787109 4.617187 C 3.826172 4.564574 3.866455 4.513061 3.907959 4.462402 C 3.949463 4.411864 3.992187 4.362304 4.036255 4.31372 C 4.0802 4.265258 4.125244 4.217895 4.171631 4.17163 C 4.217895 4.125243 4.265259 4.080199 4.31372 4.036254 C 4.362304 3.992187 4.411865 3.949462 4.462402 3.907958 C 4.513061 3.866454 4.564575 3.826171 4.617187 3.787109 C 4.6698 3.748168 4.723266 3.710448 4.77771 3.674072 C 4.832153 3.637695 4.887451 3.602782 4.943603 3.569091 C 4.999756 3.5354 5.05664 3.503173 5.11438 3.472289 C 5.172119 3.441406 5.230591 3.411987 5.289795 3.384032 C 5.348999 3.356078 5.408813 3.329589 5.469238 3.304443 C 5.529785 3.279418 5.59082 3.255859 5.652466 3.233764 C 5.714111 3.211791 5.776245 3.191283 5.838867 3.17224 C 5.901489 3.153198 5.964599 3.135741 6.028076 3.119872 C 6.091552 3.104003 6.155395 3.089599 6.219604 3.076904 C 6.283813 3.064086 6.348266 3.052856 6.413086 3.043334 C 6.477783 3.033691 6.542724 3.025634 6.60791 3.019286 C 6.673095 3.012817 6.738403 3.008056 6.803711 3.00476 C 6.86914 3.001586 6.93457 2.999999 7 2.999999 Z M 7 2.999999 " stroke="#ffffff" stroke-width="2" stroke-opacity="1" stroke-miterlimit="4"/><g clip-path="url(#86551a8111)"><path fill="#ffffff" d="M 569.328125 384.078125 C 569.328125 486.390625 486.390625 569.328125 384.078125 569.328125 C 281.769531 569.328125 198.828125 486.390625 198.828125 384.078125 C 198.828125 281.769531 281.769531 198.828125 384.078125 198.828125 C 486.390625 198.828125 569.328125 281.769531 569.328125 384.078125 Z M 502.761719 369.542969 C 505.757812 373.816406 507.453125 378.863281 507.640625 384.078125 C 507.722656 389.183594 506.355469 394.207031 503.699219 398.566406 C 501.042969 402.925781 497.207031 406.445312 492.636719 408.71875 C 492.84375 411.429688 492.84375 414.15625 492.636719 416.867188 C 492.636719 458.363281 444.285156 492.078125 384.636719 492.078125 C 324.984375 492.078125 276.636719 458.363281 276.636719 416.867188 C 276.425781 414.15625 276.425781 411.429688 276.636719 408.71875 C 273.070312 407.082031 269.90625 404.6875 267.359375 401.707031 C 264.8125 398.722656 262.945312 395.222656 261.886719 391.449219 C 260.828125 387.675781 260.601562 383.714844 261.222656 379.84375 C 261.847656 375.972656 263.304688 372.28125 265.496094 369.027344 C 267.6875 365.777344 270.558594 363.039062 273.910156 361.007812 C 277.265625 358.976562 281.019531 357.699219 284.917969 357.261719 C 288.8125 356.824219 292.757812 357.242188 296.480469 358.480469 C 300.199219 359.722656 303.605469 361.753906 306.460938 364.441406 C 327.804688 349.964844 352.917969 342.046875 378.707031 341.65625 L 392.417969 277.375 C 392.570312 276.628906 392.871094 275.925781 393.300781 275.296875 C 393.730469 274.667969 394.277344 274.132812 394.914062 273.71875 C 395.550781 273.304688 396.265625 273.023438 397.015625 272.886719 C 397.761719 272.75 398.527344 272.765625 399.269531 272.929688 L 444.65625 282.003906 C 446.875 278.199219 450.375 275.304688 454.53125 273.84375 C 458.691406 272.386719 463.230469 272.457031 467.339844 274.042969 C 471.453125 275.632812 474.863281 278.632812 476.957031 282.507812 C 479.054688 286.382812 479.703125 290.875 478.785156 295.1875 C 477.867188 299.496094 475.441406 303.335938 471.949219 306.019531 C 468.453125 308.703125 464.117188 310.050781 459.714844 309.824219 C 455.316406 309.597656 451.140625 307.8125 447.9375 304.785156 C 444.738281 301.757812 442.71875 297.6875 442.25 293.304688 L 402.605469 284.96875 L 390.5625 342.769531 C 416.039062 343.3125 440.8125 351.226562 461.886719 365.554688 C 465.652344 361.941406 470.378906 359.492188 475.503906 358.507812 C 480.625 357.523438 485.925781 358.039062 490.761719 359.996094 C 495.597656 361.957031 499.765625 365.269531 502.761719 369.542969 Z M 325.515625 392.3125 C 323.476562 395.355469 322.390625 398.941406 322.390625 402.605469 C 322.390625 405.035156 322.871094 407.445312 323.800781 409.691406 C 324.734375 411.941406 326.097656 413.984375 327.816406 415.703125 C 329.539062 417.421875 331.582031 418.785156 333.828125 419.71875 C 336.074219 420.648438 338.484375 421.128906 340.917969 421.128906 C 344.582031 421.128906 348.164062 420.042969 351.210938 418.007812 C 354.253906 415.972656 356.628906 413.078125 358.03125 409.691406 C 359.433594 406.308594 359.800781 402.582031 359.085938 398.988281 C 358.371094 395.394531 356.609375 392.09375 354.015625 389.503906 C 351.425781 386.914062 348.125 385.148438 344.53125 384.433594 C 340.9375 383.71875 337.210938 384.085938 333.828125 385.488281 C 330.441406 386.890625 327.550781 389.265625 325.515625 392.3125 Z M 384.265625 467.8125 C 400.707031 468.492188 416.878906 464.191406 430.023438 454.289062 C 430.507812 453.816406 430.898438 453.246094 431.164062 452.625 C 431.433594 452 431.574219 451.328125 431.585938 450.648438 C 431.59375 449.96875 431.46875 449.292969 431.214844 448.664062 C 430.964844 448.03125 430.589844 447.457031 430.113281 446.972656 C 429.640625 446.484375 429.074219 446.097656 428.449219 445.828125 C 427.824219 445.558594 427.15625 445.417969 426.476562 445.410156 C 425.105469 445.390625 423.78125 445.917969 422.796875 446.878906 C 411.554688 454.941406 397.898438 458.929688 384.082031 458.179688 C 370.28125 458.792969 356.6875 454.675781 345.546875 446.507812 C 344.589844 445.71875 343.371094 445.316406 342.128906 445.378906 C 340.890625 445.441406 339.714844 445.960938 338.839844 446.835938 C 337.960938 447.714844 337.441406 448.886719 337.378906 450.128906 C 337.320312 451.371094 337.722656 452.585938 338.507812 453.546875 C 351.652344 463.453125 367.824219 468.492188 384.265625 467.8125 Z M 416.394531 418.75 C 419.441406 420.78125 422.839844 422.609375 426.503906 422.609375 C 429.015625 422.636719 431.503906 422.152344 433.824219 421.1875 C 436.144531 420.222656 438.242188 418.792969 439.992188 416.992188 C 441.742188 415.191406 443.105469 413.050781 444.003906 410.707031 C 444.902344 408.359375 445.3125 405.855469 445.210938 403.34375 C 445.210938 399.679688 444.125 396.097656 442.089844 393.050781 C 440.054688 390.007812 437.160156 387.632812 433.777344 386.230469 C 430.390625 384.828125 426.667969 384.460938 423.074219 385.175781 C 419.480469 385.890625 416.179688 387.652344 413.589844 390.246094 C 411 392.835938 409.234375 396.136719 408.519531 399.730469 C 407.804688 403.324219 408.171875 407.046875 409.570312 410.433594 C 410.976562 413.820312 413.351562 416.710938 416.394531 418.75 Z M 416.394531 418.75 " fill-opacity="1" fill-rule="evenodd"/></g></svg>