<svg xmlns="http://www.w3.org/2000/svg" xmlns:xlink="http://www.w3.org/1999/xlink" width="1024" zoomAndPan="magnify" viewBox="0 0 768 767.999994" height="1024" preserveAspectRatio="xMidYMid meet" version="1.0"><defs><clipPath id="da9534e180"><path d="M 31.113281 61 L 736.863281 61 L 736.863281 727.832031 L 31.113281 727.832031 Z M 31.113281 61 " clip-rule="nonzero"/></clipPath></defs><path fill="#163172" d="M 384 536.316406 C 382.441406 536.316406 380.882812 536.238281 379.332031 536.085938 C 377.777344 535.933594 376.238281 535.703125 374.707031 535.402344 C 373.175781 535.097656 371.667969 534.71875 370.171875 534.265625 C 368.679688 533.8125 367.214844 533.285156 365.773438 532.691406 C 364.332031 532.09375 362.921875 531.425781 361.546875 530.691406 C 360.171875 529.957031 358.835938 529.15625 357.539062 528.289062 C 356.242188 527.421875 354.988281 526.492188 353.785156 525.503906 C 352.578125 524.515625 351.421875 523.46875 350.320312 522.363281 C 349.214844 521.261719 348.171875 520.105469 347.179688 518.902344 C 346.191406 517.695312 345.261719 516.445312 344.394531 515.148438 C 343.53125 513.851562 342.730469 512.511719 341.992188 511.136719 C 341.257812 509.761719 340.589844 508.355469 339.996094 506.914062 C 339.398438 505.472656 338.871094 504.003906 338.421875 502.511719 C 337.96875 501.019531 337.589844 499.507812 337.285156 497.976562 C 336.980469 496.445312 336.75 494.90625 336.597656 493.351562 C 336.445312 491.800781 336.367188 490.246094 336.367188 488.683594 C 336.367188 487.125 336.445312 485.570312 336.597656 484.015625 C 336.75 482.464844 336.980469 480.921875 337.285156 479.390625 C 337.589844 477.863281 337.96875 476.351562 338.421875 474.859375 C 338.871094 473.367188 339.398438 471.898438 339.996094 470.457031 C 340.589844 469.015625 341.257812 467.609375 341.992188 466.230469 C 342.730469 464.855469 343.53125 463.519531 344.394531 462.222656 C 345.261719 460.925781 346.191406 459.675781 347.179688 458.46875 C 348.171875 457.261719 349.214844 456.109375 350.320312 455.003906 C 351.421875 453.902344 352.578125 452.855469 353.785156 451.867188 C 354.988281 450.875 356.242188 449.949219 357.539062 449.082031 C 358.835938 448.214844 360.171875 447.414062 361.546875 446.679688 C 362.921875 445.941406 364.332031 445.277344 365.773438 444.679688 C 367.214844 444.082031 368.679688 443.558594 370.171875 443.105469 C 371.667969 442.652344 373.175781 442.273438 374.707031 441.96875 C 376.238281 441.664062 377.777344 441.4375 379.332031 441.285156 C 380.882812 441.128906 382.441406 441.054688 384 441.054688 C 385.558594 441.054688 387.117188 441.128906 388.667969 441.285156 C 390.222656 441.4375 391.761719 441.664062 393.292969 441.96875 C 394.820312 442.273438 396.332031 442.652344 397.828125 443.105469 C 399.320312 443.558594 400.785156 444.082031 402.226562 444.679688 C 403.667969 445.277344 405.078125 445.941406 406.453125 446.679688 C 407.828125 447.414062 409.164062 448.214844 410.460938 449.082031 C 411.757812 449.949219 413.011719 450.875 414.214844 451.867188 C 415.421875 452.855469 416.578125 453.902344 417.679688 455.003906 C 418.78125 456.109375 419.828125 457.261719 420.820312 458.46875 C 421.808594 459.675781 422.738281 460.925781 423.601562 462.222656 C 424.46875 463.519531 425.269531 464.855469 426.007812 466.230469 C 426.742188 467.609375 427.40625 469.015625 428.003906 470.457031 C 428.601562 471.898438 429.125 473.367188 429.578125 474.859375 C 430.03125 476.351562 430.410156 477.863281 430.714844 479.390625 C 431.019531 480.921875 431.25 482.464844 431.402344 484.015625 C 431.554688 485.570312 431.628906 487.125 431.628906 488.683594 C 431.628906 490.246094 431.550781 491.800781 431.398438 493.351562 C 431.242188 494.902344 431.011719 496.445312 430.707031 497.972656 C 430.402344 499.503906 430.023438 501.015625 429.570312 502.503906 C 429.113281 503.996094 428.589844 505.464844 427.992188 506.90625 C 427.394531 508.34375 426.726562 509.753906 425.992188 511.128906 C 425.257812 512.503906 424.453125 513.839844 423.589844 515.136719 C 422.722656 516.433594 421.792969 517.683594 420.804688 518.886719 C 419.8125 520.09375 418.769531 521.246094 417.664062 522.351562 C 416.5625 523.453125 415.410156 524.5 414.203125 525.488281 C 412.996094 526.476562 411.746094 527.40625 410.449219 528.273438 C 409.152344 529.140625 407.816406 529.941406 406.441406 530.675781 C 405.066406 531.414062 403.660156 532.078125 402.21875 532.675781 C 400.777344 533.273438 399.3125 533.800781 397.820312 534.253906 C 396.328125 534.707031 394.816406 535.085938 393.289062 535.390625 C 391.757812 535.699219 390.21875 535.925781 388.667969 536.082031 C 387.113281 536.234375 385.558594 536.3125 384 536.316406 Z M 384 468.152344 C 383.328125 468.152344 382.65625 468.183594 381.988281 468.25 C 381.316406 468.316406 380.652344 468.414062 379.992188 468.546875 C 379.335938 468.675781 378.683594 468.839844 378.039062 469.035156 C 377.394531 469.230469 376.761719 469.457031 376.140625 469.714844 C 375.519531 469.972656 374.914062 470.257812 374.320312 470.574219 C 373.726562 470.890625 373.152344 471.238281 372.589844 471.609375 C 372.03125 471.984375 371.492188 472.386719 370.972656 472.8125 C 370.453125 473.238281 369.957031 473.691406 369.480469 474.164062 C 369.003906 474.640625 368.554688 475.136719 368.125 475.65625 C 367.699219 476.179688 367.300781 476.71875 366.925781 477.277344 C 366.550781 477.835938 366.207031 478.410156 365.890625 479.003906 C 365.574219 479.597656 365.285156 480.207031 365.027344 480.828125 C 364.769531 481.449219 364.546875 482.082031 364.351562 482.722656 C 364.15625 483.367188 363.992188 484.019531 363.859375 484.679688 C 363.730469 485.339844 363.628906 486.003906 363.566406 486.671875 C 363.5 487.339844 363.464844 488.011719 363.464844 488.683594 C 363.464844 489.359375 363.5 490.027344 363.566406 490.699219 C 363.628906 491.367188 363.730469 492.03125 363.859375 492.691406 C 363.992188 493.351562 364.15625 494.003906 364.351562 494.644531 C 364.546875 495.289062 364.769531 495.921875 365.027344 496.542969 C 365.285156 497.164062 365.574219 497.773438 365.890625 498.363281 C 366.207031 498.957031 366.550781 499.535156 366.925781 500.09375 C 367.300781 500.652344 367.699219 501.191406 368.125 501.710938 C 368.554688 502.230469 369.003906 502.730469 369.480469 503.203125 C 369.957031 503.679688 370.453125 504.132812 370.972656 504.558594 C 371.492188 504.984375 372.03125 505.386719 372.589844 505.757812 C 373.152344 506.132812 373.726562 506.476562 374.320312 506.792969 C 374.914062 507.113281 375.519531 507.398438 376.140625 507.65625 C 376.761719 507.914062 377.394531 508.140625 378.039062 508.335938 C 378.683594 508.53125 379.335938 508.691406 379.992188 508.824219 C 380.652344 508.957031 381.316406 509.054688 381.988281 509.121094 C 382.65625 509.1875 383.328125 509.21875 384 509.21875 C 384.671875 509.21875 385.34375 509.1875 386.011719 509.121094 C 386.683594 509.054688 387.347656 508.957031 388.007812 508.824219 C 388.664062 508.691406 389.316406 508.53125 389.960938 508.335938 C 390.605469 508.140625 391.238281 507.914062 391.859375 507.65625 C 392.480469 507.398438 393.085938 507.113281 393.679688 506.792969 C 394.273438 506.476562 394.847656 506.132812 395.40625 505.757812 C 395.96875 505.386719 396.507812 504.984375 397.027344 504.558594 C 397.546875 504.132812 398.042969 503.679688 398.519531 503.203125 C 398.996094 502.730469 399.445312 502.230469 399.871094 501.710938 C 400.300781 501.191406 400.699219 500.652344 401.074219 500.09375 C 401.445312 499.535156 401.792969 498.957031 402.109375 498.363281 C 402.425781 497.773438 402.714844 497.164062 402.972656 496.542969 C 403.226562 495.921875 403.453125 495.289062 403.648438 494.644531 C 403.84375 494.003906 404.007812 493.351562 404.140625 492.691406 C 404.269531 492.03125 404.371094 491.367188 404.433594 490.699219 C 404.5 490.027344 404.535156 489.359375 404.535156 488.683594 C 404.535156 488.011719 404.5 487.34375 404.433594 486.671875 C 404.367188 486.003906 404.265625 485.339844 404.136719 484.679688 C 404.003906 484.019531 403.839844 483.371094 403.644531 482.726562 C 403.449219 482.082031 403.222656 481.453125 402.964844 480.832031 C 402.707031 480.210938 402.417969 479.601562 402.101562 479.011719 C 401.785156 478.417969 401.4375 477.839844 401.066406 477.28125 C 400.691406 476.722656 400.292969 476.183594 399.867188 475.664062 C 399.4375 475.144531 398.988281 474.648438 398.511719 474.171875 C 398.035156 473.695312 397.539062 473.246094 397.019531 472.820312 C 396.5 472.394531 395.960938 471.992188 395.402344 471.621094 C 394.84375 471.246094 394.265625 470.898438 393.675781 470.582031 C 393.082031 470.265625 392.476562 469.976562 391.855469 469.71875 C 391.234375 469.464844 390.601562 469.234375 389.957031 469.039062 C 389.316406 468.84375 388.664062 468.679688 388.003906 468.550781 C 387.34375 468.417969 386.679688 468.320312 386.011719 468.25 C 385.34375 468.183594 384.671875 468.152344 384 468.152344 Z M 384 468.152344 " fill-opacity="1" fill-rule="nonzero"/><path fill="#163172" d="M 226.644531 339.222656 C 225.308594 339.222656 224 339.027344 222.722656 338.640625 C 221.445312 338.257812 220.25 337.691406 219.136719 336.953125 C 218.023438 336.214844 217.042969 335.328125 216.195312 334.296875 C 215.34375 333.269531 214.660156 332.136719 214.144531 330.90625 C 213.628906 329.671875 213.300781 328.394531 213.164062 327.0625 C 213.027344 325.734375 213.085938 324.414062 213.339844 323.105469 C 213.59375 321.792969 214.03125 320.546875 214.652344 319.363281 C 215.273438 318.183594 216.054688 317.113281 216.992188 316.164062 C 308.347656 223.425781 458.125 222.308594 550.863281 313.675781 C 551.511719 314.296875 552.089844 314.972656 552.601562 315.710938 C 553.113281 316.449219 553.546875 317.226562 553.90625 318.050781 C 554.261719 318.871094 554.535156 319.722656 554.722656 320.597656 C 554.910156 321.476562 555.011719 322.363281 555.023438 323.257812 C 555.035156 324.15625 554.960938 325.042969 554.796875 325.925781 C 554.632812 326.808594 554.382812 327.664062 554.046875 328.496094 C 553.714844 329.328125 553.300781 330.121094 552.808594 330.871094 C 552.316406 331.621094 551.757812 332.316406 551.125 332.953125 C 550.496094 333.59375 549.8125 334.164062 549.066406 334.664062 C 548.324219 335.167969 547.539062 335.59375 546.714844 335.9375 C 545.886719 336.285156 545.035156 336.546875 544.152344 336.722656 C 543.273438 336.902344 542.386719 336.992188 541.492188 336.992188 C 540.59375 336.992188 539.707031 336.90625 538.824219 336.730469 C 537.945312 336.554688 537.09375 336.292969 536.265625 335.949219 C 535.4375 335.605469 534.652344 335.179688 533.90625 334.679688 C 533.164062 334.179688 532.476562 333.609375 531.847656 332.972656 C 529.40625 330.574219 526.910156 328.242188 524.359375 325.96875 C 521.804688 323.695312 519.199219 321.484375 516.539062 319.335938 C 513.875 317.191406 511.164062 315.113281 508.398438 313.097656 C 505.636719 311.085938 502.824219 309.140625 499.96875 307.265625 C 497.109375 305.390625 494.207031 303.585938 491.257812 301.855469 C 488.3125 300.121094 485.324219 298.460938 482.296875 296.875 C 479.269531 295.289062 476.203125 293.777344 473.101562 292.339844 C 469.996094 290.90625 466.863281 289.546875 463.691406 288.261719 C 460.523438 286.980469 457.324219 285.777344 454.097656 284.648438 C 450.867188 283.523438 447.613281 282.476562 444.335938 281.511719 C 441.054688 280.546875 437.753906 279.660156 434.433594 278.855469 C 431.109375 278.050781 427.769531 277.328125 424.410156 276.6875 C 421.054688 276.046875 417.679688 275.488281 414.296875 275.011719 C 410.910156 274.539062 407.515625 274.144531 404.109375 273.835938 C 400.707031 273.527344 397.296875 273.300781 393.878906 273.160156 C 390.464844 273.019531 387.046875 272.960938 383.628906 272.984375 C 380.210938 273.011719 376.792969 273.121094 373.378906 273.3125 C 369.964844 273.507812 366.558594 273.78125 363.160156 274.144531 C 359.761719 274.503906 356.371094 274.945312 352.992188 275.472656 C 349.617188 275.996094 346.253906 276.605469 342.902344 277.296875 C 339.554688 277.988281 336.226562 278.761719 332.917969 279.613281 C 329.605469 280.46875 326.316406 281.402344 323.054688 282.417969 C 319.789062 283.433594 316.550781 284.527344 313.339844 285.703125 C 310.128906 286.875 306.949219 288.128906 303.800781 289.457031 C 300.652344 290.789062 297.535156 292.195312 294.453125 293.675781 C 291.375 295.160156 288.332031 296.714844 285.328125 298.347656 C 282.324219 299.980469 279.359375 301.683594 276.441406 303.460938 C 273.519531 305.238281 270.644531 307.085938 267.8125 309.003906 C 264.984375 310.921875 262.203125 312.90625 259.46875 314.960938 C 256.734375 317.015625 254.054688 319.136719 251.425781 321.320312 C 248.796875 323.507812 246.222656 325.753906 243.703125 328.066406 C 241.1875 330.378906 238.726562 332.75 236.324219 335.183594 C 235.046875 336.480469 233.570312 337.480469 231.890625 338.179688 C 230.214844 338.882812 228.464844 339.226562 226.644531 339.222656 Z M 226.644531 339.222656 " fill-opacity="1" fill-rule="nonzero"/><path fill="#163172" d="M 278.8125 388.4375 C 277.476562 388.4375 276.171875 388.242188 274.894531 387.855469 C 273.613281 387.46875 272.417969 386.90625 271.308594 386.167969 C 270.195312 385.425781 269.214844 384.542969 268.363281 383.511719 C 267.511719 382.484375 266.828125 381.351562 266.3125 380.121094 C 265.796875 378.886719 265.472656 377.605469 265.335938 376.277344 C 265.199219 374.949219 265.253906 373.628906 265.507812 372.316406 C 265.761719 371.007812 266.199219 369.761719 266.820312 368.578125 C 267.445312 367.394531 268.222656 366.328125 269.160156 365.378906 C 331.972656 301.617188 434.941406 300.855469 498.695312 363.683594 C 499.367188 364.300781 499.972656 364.976562 500.511719 365.710938 C 501.046875 366.449219 501.503906 367.230469 501.882812 368.058594 C 502.261719 368.890625 502.554688 369.746094 502.761719 370.636719 C 502.96875 371.523438 503.082031 372.421875 503.105469 373.335938 C 503.128906 374.246094 503.0625 375.152344 502.902344 376.046875 C 502.746094 376.945312 502.5 377.820312 502.164062 378.667969 C 501.828125 379.515625 501.414062 380.320312 500.917969 381.085938 C 500.417969 381.847656 499.851562 382.554688 499.210938 383.203125 C 498.570312 383.851562 497.871094 384.433594 497.113281 384.941406 C 496.359375 385.449219 495.558594 385.875 494.714844 386.222656 C 493.871094 386.570312 493.003906 386.828125 492.105469 387 C 491.210938 387.171875 490.308594 387.25 489.398438 387.238281 C 488.484375 387.226562 487.582031 387.125 486.691406 386.933594 C 485.800781 386.738281 484.941406 386.460938 484.105469 386.09375 C 483.269531 385.726562 482.480469 385.277344 481.738281 384.753906 C 480.992188 384.226562 480.308594 383.628906 479.683594 382.964844 C 476.566406 379.882812 473.308594 376.957031 469.90625 374.195312 C 466.503906 371.429688 462.972656 368.839844 459.316406 366.421875 C 455.65625 364.003906 451.890625 361.769531 448.015625 359.71875 C 444.140625 357.671875 440.171875 355.816406 436.113281 354.15625 C 432.058594 352.496094 427.929688 351.039062 423.726562 349.78125 C 419.527344 348.527344 415.273438 347.476562 410.972656 346.640625 C 406.667969 345.800781 402.335938 345.171875 397.96875 344.757812 C 393.605469 344.34375 389.230469 344.144531 384.847656 344.15625 L 383.804688 344.15625 C 379.375 344.175781 374.957031 344.410156 370.554688 344.867188 C 366.148438 345.320312 361.773438 345.992188 357.4375 346.878906 C 353.097656 347.765625 348.8125 348.867188 344.582031 350.175781 C 340.351562 351.488281 336.195312 353.007812 332.113281 354.730469 C 328.035156 356.453125 324.050781 358.371094 320.160156 360.488281 C 316.269531 362.605469 312.492188 364.910156 308.832031 367.402344 C 305.167969 369.894531 301.640625 372.558594 298.242188 375.398438 C 294.84375 378.242188 291.59375 381.242188 288.492188 384.40625 C 287.214844 385.699219 285.738281 386.695312 284.058594 387.394531 C 282.378906 388.09375 280.632812 388.441406 278.8125 388.4375 Z M 278.8125 388.4375 " fill-opacity="1" fill-rule="nonzero"/><path fill="#163172" d="M 323.726562 433.578125 C 322.390625 433.578125 321.085938 433.382812 319.804688 432.996094 C 318.527344 432.613281 317.332031 432.046875 316.21875 431.308594 C 315.109375 430.570312 314.125 429.683594 313.277344 428.652344 C 312.425781 427.625 311.742188 426.492188 311.226562 425.261719 C 310.710938 424.027344 310.382812 422.75 310.246094 421.417969 C 310.109375 420.089844 310.167969 418.769531 310.421875 417.460938 C 310.675781 416.148438 311.113281 414.902344 311.734375 413.71875 C 312.355469 412.539062 313.136719 411.472656 314.074219 410.519531 C 315.210938 409.371094 316.371094 408.246094 317.5625 407.15625 C 318.753906 406.0625 319.96875 404.996094 321.214844 403.964844 C 322.457031 402.929688 323.722656 401.929688 325.015625 400.957031 C 326.308594 399.984375 327.621094 399.046875 328.960938 398.140625 C 330.296875 397.230469 331.65625 396.359375 333.039062 395.519531 C 334.417969 394.679688 335.820312 393.871094 337.238281 393.101562 C 338.660156 392.328125 340.097656 391.59375 341.554688 390.890625 C 343.011719 390.191406 344.484375 389.523438 345.972656 388.894531 C 347.460938 388.265625 348.964844 387.675781 350.484375 387.121094 C 352 386.566406 353.53125 386.046875 355.074219 385.566406 C 356.621094 385.085938 358.171875 384.644531 359.738281 384.242188 C 361.304688 383.835938 362.878906 383.472656 364.460938 383.144531 C 366.042969 382.816406 367.632812 382.53125 369.230469 382.28125 C 370.828125 382.03125 372.429688 381.824219 374.039062 381.652344 C 375.644531 381.480469 377.257812 381.351562 378.871094 381.261719 C 380.484375 381.167969 382.097656 381.117188 383.714844 381.105469 C 385.332031 381.09375 386.945312 381.121094 388.5625 381.1875 C 390.175781 381.253906 391.789062 381.359375 393.398438 381.507812 C 395.007812 381.652344 396.613281 381.839844 398.214844 382.0625 C 399.816406 382.289062 401.410156 382.550781 402.996094 382.855469 C 404.585938 383.15625 406.164062 383.5 407.734375 383.878906 C 409.308594 384.261719 410.867188 384.679688 412.417969 385.136719 C 413.96875 385.59375 415.507812 386.085938 417.03125 386.621094 C 418.558594 387.152344 420.070312 387.722656 421.570312 388.328125 C 423.066406 388.933594 424.550781 389.578125 426.015625 390.257812 C 427.484375 390.9375 428.933594 391.652344 430.363281 392.402344 C 431.796875 393.152344 433.210938 393.9375 434.601562 394.753906 C 435.996094 395.574219 437.367188 396.425781 438.71875 397.3125 C 440.070312 398.203125 441.398438 399.121094 442.707031 400.074219 C 444.011719 401.023438 445.296875 402.007812 446.554688 403.023438 C 447.8125 404.035156 449.042969 405.082031 450.25 406.15625 C 451.457031 407.230469 452.636719 408.335938 453.789062 409.46875 C 454.464844 410.082031 455.070312 410.757812 455.609375 411.492188 C 456.144531 412.230469 456.605469 413.011719 456.984375 413.839844 C 457.363281 414.667969 457.65625 415.527344 457.863281 416.414062 C 458.070312 417.300781 458.1875 418.203125 458.210938 419.113281 C 458.238281 420.023438 458.171875 420.929688 458.011719 421.828125 C 457.855469 422.722656 457.609375 423.597656 457.277344 424.445312 C 456.941406 425.292969 456.527344 426.101562 456.03125 426.863281 C 455.535156 427.628906 454.96875 428.335938 454.328125 428.984375 C 453.691406 429.636719 452.992188 430.214844 452.234375 430.722656 C 451.480469 431.234375 450.679688 431.660156 449.839844 432.007812 C 448.996094 432.359375 448.128906 432.617188 447.230469 432.789062 C 446.335938 432.960938 445.433594 433.042969 444.523438 433.035156 C 443.613281 433.023438 442.710938 432.921875 441.820312 432.730469 C 440.929688 432.539062 440.066406 432.261719 439.230469 431.894531 C 438.394531 431.53125 437.605469 431.085938 436.859375 430.558594 C 436.117188 430.035156 435.429688 429.4375 434.804688 428.777344 C 433.96875 427.953125 433.113281 427.152344 432.238281 426.371094 C 431.363281 425.59375 430.46875 424.832031 429.554688 424.097656 C 428.640625 423.359375 427.710938 422.648438 426.761719 421.957031 C 425.816406 421.265625 424.851562 420.597656 423.871094 419.957031 C 422.890625 419.3125 421.894531 418.691406 420.882812 418.097656 C 419.871094 417.503906 418.847656 416.933594 417.808594 416.390625 C 416.769531 415.84375 415.71875 415.328125 414.652344 414.835938 C 413.589844 414.339844 412.511719 413.875 411.425781 413.433594 C 410.339844 412.996094 409.242188 412.582031 408.132812 412.195312 C 407.027344 411.808594 405.910156 411.449219 404.785156 411.117188 C 403.660156 410.785156 402.527344 410.484375 401.386719 410.207031 C 400.246094 409.929688 399.101562 409.683594 397.949219 409.464844 C 396.796875 409.242188 395.640625 409.050781 394.476562 408.886719 C 393.316406 408.726562 392.152344 408.589844 390.984375 408.484375 C 389.816406 408.378906 388.644531 408.300781 387.472656 408.253906 C 386.300781 408.203125 385.128906 408.183594 383.957031 408.191406 C 382.785156 408.203125 381.613281 408.238281 380.441406 408.304688 C 379.269531 408.371094 378.101562 408.46875 376.933594 408.589844 C 375.769531 408.714844 374.605469 408.867188 373.445312 409.046875 C 372.289062 409.226562 371.132812 409.4375 369.984375 409.671875 C 368.835938 409.910156 367.695312 410.175781 366.558594 410.46875 C 365.421875 410.761719 364.296875 411.082031 363.175781 411.429688 C 362.054688 411.78125 360.945312 412.15625 359.84375 412.558594 C 358.742188 412.960938 357.648438 413.390625 356.570312 413.847656 C 355.488281 414.304688 354.421875 414.785156 353.363281 415.292969 C 352.308594 415.804688 351.261719 416.335938 350.234375 416.898438 C 349.203125 417.457031 348.1875 418.042969 347.183594 418.652344 C 346.183594 419.261719 345.195312 419.894531 344.222656 420.554688 C 343.253906 421.210938 342.300781 421.894531 341.363281 422.597656 C 340.425781 423.304688 339.503906 424.03125 338.601562 424.78125 C 337.703125 425.53125 336.816406 426.304688 335.953125 427.097656 C 335.089844 427.890625 334.246094 428.703125 333.421875 429.539062 C 332.144531 430.835938 330.664062 431.835938 328.980469 432.535156 C 327.300781 433.234375 325.546875 433.582031 323.726562 433.578125 Z M 323.726562 433.578125 " fill-opacity="1" fill-rule="nonzero"/><g clip-path="url(#da9534e180)"><path fill="#163172" d="M 384 727.878906 C 381.578125 727.882812 379.320312 727.277344 377.226562 726.058594 L 295.222656 678.640625 C 286.816406 673.789062 278.558594 668.703125 270.441406 663.378906 C 262.328125 658.054688 254.375 652.5 246.578125 646.71875 C 238.785156 640.933594 231.160156 634.933594 223.710938 628.714844 C 216.261719 622.492188 208.996094 616.066406 201.914062 609.425781 C 194.832031 602.789062 187.949219 595.953125 181.261719 588.921875 C 174.570312 581.886719 168.089844 574.667969 161.816406 567.261719 C 155.546875 559.855469 149.488281 552.277344 143.652344 544.523438 C 137.8125 536.769531 132.203125 528.855469 126.820312 520.777344 C 121.4375 512.703125 116.292969 504.480469 111.382812 496.105469 C 106.472656 487.734375 101.804688 479.230469 97.382812 470.589844 C 92.960938 461.949219 88.792969 453.191406 84.875 444.308594 C 80.957031 435.429688 77.296875 426.445312 73.894531 417.355469 C 70.492188 408.265625 67.355469 399.085938 64.480469 389.816406 C 61.605469 380.546875 59 371.199219 56.664062 361.78125 C 54.328125 352.359375 52.261719 342.882812 50.46875 333.34375 C 48.675781 323.804688 47.160156 314.222656 45.917969 304.597656 L 31.851562 195.363281 C 31.679688 194.023438 31.703125 192.691406 31.929688 191.359375 C 32.152344 190.03125 32.566406 188.761719 33.171875 187.554688 C 33.773438 186.347656 34.539062 185.253906 35.46875 184.277344 C 36.398438 183.300781 37.453125 182.476562 38.628906 181.816406 L 134.472656 127.621094 C 139.207031 124.945312 143.980469 122.347656 148.792969 119.824219 C 153.609375 117.304688 158.464844 114.859375 163.359375 112.492188 C 168.253906 110.128906 173.183594 107.839844 178.152344 105.632812 C 183.117188 103.425781 188.121094 101.296875 193.15625 99.253906 C 198.191406 97.207031 203.257812 95.242188 208.359375 93.359375 C 213.457031 91.472656 218.585938 89.671875 223.742188 87.953125 C 228.898438 86.234375 234.082031 84.601562 239.292969 83.050781 C 244.503906 81.496094 249.734375 80.03125 254.992188 78.648438 C 260.25 77.261719 265.527344 75.964844 270.828125 74.75 C 276.125 73.539062 281.441406 72.410156 286.777344 71.367188 C 292.113281 70.324219 297.460938 69.367188 302.828125 68.496094 C 308.195312 67.625 313.570312 66.84375 318.964844 66.144531 C 324.355469 65.449219 329.753906 64.835938 335.164062 64.3125 C 340.574219 63.789062 345.992188 63.351562 351.417969 63.003906 C 356.84375 62.65625 362.273438 62.390625 367.703125 62.21875 C 373.136719 62.042969 378.574219 61.957031 384.007812 61.957031 C 389.445312 61.957031 394.878906 62.042969 400.3125 62.21875 C 405.746094 62.390625 411.171875 62.65625 416.597656 63.003906 C 422.023438 63.351562 427.441406 63.789062 432.851562 64.3125 C 438.261719 64.835938 443.664062 65.449219 449.054688 66.144531 C 454.445312 66.84375 459.824219 67.625 465.1875 68.496094 C 470.554688 69.367188 475.90625 70.324219 481.238281 71.367188 C 486.574219 72.410156 491.890625 73.539062 497.191406 74.75 C 502.488281 75.964844 507.765625 77.261719 513.023438 78.648438 C 518.28125 80.03125 523.515625 81.496094 528.722656 83.050781 C 533.933594 84.601562 539.117188 86.234375 544.273438 87.953125 C 549.429688 89.671875 554.558594 91.472656 559.660156 93.359375 C 564.757812 95.242188 569.824219 97.207031 574.859375 99.253906 C 579.898438 101.296875 584.898438 103.425781 589.867188 105.632812 C 594.832031 107.839844 599.765625 110.128906 604.660156 112.492188 C 609.550781 114.859375 614.40625 117.304688 619.222656 119.824219 C 624.039062 122.347656 628.8125 124.945312 633.542969 127.621094 L 729.390625 181.816406 C 730.5625 182.476562 731.617188 183.300781 732.546875 184.277344 C 733.476562 185.253906 734.242188 186.347656 734.847656 187.554688 C 735.449219 188.761719 735.863281 190.03125 736.089844 191.359375 C 736.3125 192.691406 736.335938 194.023438 736.164062 195.363281 L 722.105469 304.597656 C 719.601562 324.082031 715.96875 343.351562 711.214844 362.410156 C 706.457031 381.472656 700.613281 400.191406 693.671875 418.570312 C 686.734375 436.945312 678.75 454.859375 669.722656 472.304688 C 660.695312 489.753906 650.683594 506.617188 639.691406 522.894531 C 628.945312 538.8125 617.335938 554.078125 604.859375 568.679688 C 592.386719 583.285156 579.128906 597.140625 565.082031 610.246094 C 551.039062 623.347656 536.300781 635.617188 520.871094 647.050781 C 505.4375 658.484375 489.410156 669.011719 472.785156 678.632812 L 390.773438 726.050781 C 388.679688 727.269531 386.421875 727.878906 384 727.878906 Z M 308.789062 655.175781 L 384 698.683594 L 459.21875 655.167969 C 467.175781 650.578125 474.996094 645.761719 482.675781 640.722656 C 490.355469 635.679688 497.886719 630.425781 505.265625 624.949219 C 512.640625 619.476562 519.859375 613.796875 526.910156 607.910156 C 533.960938 602.023438 540.839844 595.9375 547.542969 589.65625 C 554.242188 583.371094 560.761719 576.902344 567.089844 570.246094 C 573.421875 563.585938 579.554688 556.753906 585.492188 549.746094 C 591.433594 542.734375 597.164062 535.558594 602.691406 528.222656 C 608.214844 520.882812 613.527344 513.390625 618.621094 505.746094 C 623.71875 498.101562 628.589844 490.320312 633.238281 482.394531 C 637.886719 474.46875 642.300781 466.417969 646.488281 458.242188 C 650.671875 450.0625 654.621094 441.773438 658.328125 433.367188 C 662.039062 424.964844 665.503906 416.457031 668.722656 407.855469 C 671.945312 399.25 674.914062 390.5625 677.636719 381.789062 C 680.359375 373.011719 682.824219 364.167969 685.039062 355.25 C 687.25 346.335938 689.207031 337.363281 690.902344 328.335938 C 692.601562 319.304688 694.039062 310.234375 695.214844 301.125 L 708.109375 200.933594 L 620.199219 151.203125 C 615.71875 148.671875 611.199219 146.210938 606.644531 143.824219 C 602.085938 141.4375 597.488281 139.125 592.859375 136.882812 C 588.226562 134.644531 583.558594 132.480469 578.855469 130.390625 C 574.15625 128.300781 569.421875 126.289062 564.652344 124.351562 C 559.886719 122.414062 555.089844 120.554688 550.261719 118.773438 C 545.4375 116.988281 540.582031 115.285156 535.703125 113.65625 C 530.820312 112.03125 525.914062 110.484375 520.984375 109.015625 C 516.050781 107.546875 511.097656 106.15625 506.121094 104.847656 C 501.144531 103.539062 496.152344 102.308594 491.136719 101.160156 C 486.121094 100.011719 481.085938 98.945312 476.039062 97.957031 C 470.988281 96.96875 465.921875 96.066406 460.84375 95.242188 C 455.765625 94.417969 450.675781 93.675781 445.570312 93.015625 C 440.46875 92.355469 435.355469 91.777344 430.234375 91.28125 C 425.113281 90.785156 419.988281 90.371094 414.851562 90.039062 C 409.71875 89.710938 404.578125 89.460938 399.4375 89.296875 C 394.292969 89.132812 389.148438 89.046875 384.003906 89.046875 C 378.859375 89.046875 373.714844 89.132812 368.574219 89.296875 C 363.429688 89.460938 358.292969 89.710938 353.15625 90.039062 C 348.023438 90.371094 342.894531 90.785156 337.773438 91.28125 C 332.652344 91.777344 327.539062 92.355469 322.4375 93.015625 C 317.332031 93.675781 312.242188 94.417969 307.164062 95.242188 C 302.085938 96.066406 297.019531 96.96875 291.972656 97.957031 C 286.921875 98.945312 281.890625 100.011719 276.875 101.160156 C 271.859375 102.308594 266.863281 103.539062 261.886719 104.847656 C 256.910156 106.15625 251.957031 107.546875 247.027344 109.015625 C 242.09375 110.484375 237.1875 112.03125 232.308594 113.65625 C 227.425781 115.285156 222.570312 116.988281 217.746094 118.773438 C 212.917969 120.554688 208.121094 122.414062 203.355469 124.351562 C 198.589844 126.289062 193.855469 128.300781 189.152344 130.390625 C 184.449219 132.480469 179.78125 134.644531 175.152344 136.882812 C 170.519531 139.125 165.921875 141.4375 161.363281 143.824219 C 156.808594 146.210938 152.289062 148.671875 147.808594 151.203125 L 59.890625 200.933594 L 72.785156 301.132812 C 75.160156 319.574219 78.597656 337.8125 83.101562 355.851562 C 87.601562 373.890625 93.136719 391.609375 99.703125 409.003906 C 106.269531 426.394531 113.824219 443.351562 122.371094 459.863281 C 130.914062 476.375 140.386719 492.335938 150.789062 507.746094 C 160.964844 522.816406 171.957031 537.261719 183.765625 551.089844 C 195.574219 564.914062 208.125 578.027344 221.417969 590.433594 C 234.710938 602.839844 248.664062 614.453125 263.269531 625.277344 C 277.878906 636.101562 293.054688 646.070312 308.789062 655.175781 Z M 308.789062 655.175781 " fill-opacity="1" fill-rule="nonzero"/></g><path fill="#163172" d="M 384 670.273438 C 381.578125 670.273438 379.320312 669.667969 377.226562 668.453125 L 320.195312 635.429688 C 312.617188 631.058594 305.167969 626.472656 297.851562 621.671875 C 290.535156 616.871094 283.363281 611.867188 276.332031 606.652344 C 269.304688 601.441406 262.429688 596.03125 255.714844 590.425781 C 248.996094 584.816406 242.445312 579.019531 236.058594 573.039062 C 229.675781 567.054688 223.464844 560.890625 217.4375 554.550781 C 211.40625 548.210938 205.5625 541.703125 199.90625 535.027344 C 194.246094 528.351562 188.789062 521.515625 183.523438 514.527344 C 178.257812 507.535156 173.199219 500.402344 168.347656 493.121094 C 163.492188 485.839844 158.851562 478.425781 154.421875 470.878906 C 149.996094 463.332031 145.785156 455.664062 141.800781 447.875 C 137.8125 440.085938 134.050781 432.1875 130.519531 424.183594 C 126.984375 416.175781 123.683594 408.078125 120.617188 399.882812 C 117.546875 391.6875 114.71875 383.410156 112.125 375.050781 C 109.53125 366.695312 107.183594 358.269531 105.074219 349.777344 C 102.964844 341.285156 101.101562 332.738281 99.484375 324.136719 C 97.867188 315.539062 96.5 306.898438 95.378906 298.222656 L 85.597656 222.222656 C 85.421875 220.886719 85.449219 219.550781 85.671875 218.21875 C 85.898438 216.890625 86.3125 215.621094 86.914062 214.414062 C 87.519531 213.207031 88.285156 212.113281 89.214844 211.136719 C 90.144531 210.160156 91.195312 209.339844 92.371094 208.675781 L 159.03125 170.960938 C 163.296875 168.546875 167.601562 166.207031 171.941406 163.933594 C 176.285156 161.660156 180.660156 159.457031 185.074219 157.324219 C 189.484375 155.191406 193.929688 153.128906 198.410156 151.140625 C 202.890625 149.152344 207.398438 147.234375 211.9375 145.390625 C 216.480469 143.542969 221.046875 141.773438 225.644531 140.074219 C 230.242188 138.378906 234.867188 136.753906 239.515625 135.207031 C 244.167969 133.65625 248.839844 132.183594 253.535156 130.785156 C 258.234375 129.386719 262.953125 128.0625 267.691406 126.816406 C 272.429688 125.570312 277.191406 124.398438 281.964844 123.304688 C 286.742188 122.210938 291.539062 121.195312 296.347656 120.253906 C 301.15625 119.316406 305.980469 118.453125 310.820312 117.667969 C 315.65625 116.882812 320.503906 116.175781 325.367188 115.550781 C 330.226562 114.921875 335.09375 114.371094 339.972656 113.898438 C 344.851562 113.425781 349.734375 113.03125 354.625 112.71875 C 359.515625 112.402344 364.410156 112.167969 369.308594 112.007812 C 374.207031 111.851562 379.109375 111.773438 384.007812 111.773438 C 388.910156 111.773438 393.808594 111.851562 398.707031 112.007812 C 403.605469 112.167969 408.5 112.402344 413.390625 112.71875 C 418.28125 113.03125 423.164062 113.425781 428.042969 113.898438 C 432.921875 114.371094 437.792969 114.921875 442.652344 115.550781 C 447.511719 116.175781 452.359375 116.882812 457.199219 117.667969 C 462.035156 118.453125 466.859375 119.316406 471.667969 120.253906 C 476.480469 121.195312 481.273438 122.210938 486.050781 123.304688 C 490.828125 124.398438 495.585938 125.570312 500.324219 126.816406 C 505.066406 128.0625 509.78125 129.386719 514.480469 130.785156 C 519.175781 132.183594 523.851562 133.65625 528.5 135.207031 C 533.148438 136.753906 537.773438 138.378906 542.371094 140.074219 C 546.96875 141.773438 551.535156 143.542969 556.078125 145.390625 C 560.617188 147.234375 565.128906 149.152344 569.605469 151.140625 C 574.085938 153.128906 578.53125 155.191406 582.945312 157.324219 C 587.355469 159.457031 591.734375 161.660156 596.074219 163.933594 C 600.417969 166.207031 604.71875 168.546875 608.988281 170.960938 L 675.644531 208.675781 C 676.820312 209.339844 677.871094 210.160156 678.800781 211.136719 C 679.730469 212.113281 680.5 213.207031 681.101562 214.414062 C 681.707031 215.621094 682.121094 216.890625 682.34375 218.21875 C 682.566406 219.550781 682.59375 220.886719 682.417969 222.222656 L 672.640625 298.179688 C 670.378906 315.742188 667.105469 333.113281 662.820312 350.292969 C 658.535156 367.472656 653.265625 384.347656 647.007812 400.910156 C 640.753906 417.476562 633.558594 433.625 625.421875 449.351562 C 617.285156 465.078125 608.261719 480.277344 598.351562 494.949219 C 588.660156 509.3125 578.1875 523.078125 566.9375 536.253906 C 555.683594 549.429688 543.726562 561.925781 531.0625 573.75 C 518.394531 585.570312 505.101562 596.636719 491.183594 606.953125 C 477.265625 617.269531 462.808594 626.769531 447.8125 635.445312 L 390.773438 668.472656 C 388.675781 669.675781 386.417969 670.277344 384 670.273438 Z M 333.761719 612.007812 L 384 641.070312 L 434.246094 612.007812 C 444.859375 605.871094 455.1875 599.292969 465.238281 592.273438 C 475.289062 585.257812 485.023438 577.824219 494.4375 569.976562 C 503.855469 562.128906 512.917969 553.890625 521.632812 545.269531 C 530.347656 536.648438 538.679688 527.671875 546.628906 518.339844 C 554.574219 509.007812 562.113281 499.355469 569.238281 489.382812 C 576.363281 479.40625 583.050781 469.148438 589.300781 458.601562 C 595.550781 448.058594 601.339844 437.265625 606.671875 426.226562 C 612 415.1875 616.851562 403.945312 621.222656 392.492188 C 633.261719 360.882812 641.449219 328.304688 645.777344 294.757812 L 654.390625 227.863281 L 595.660156 194.644531 C 591.644531 192.375 587.597656 190.171875 583.511719 188.03125 C 579.429688 185.894531 575.3125 183.820312 571.160156 181.8125 C 567.011719 179.808594 562.828125 177.867188 558.613281 175.996094 C 554.402344 174.125 550.160156 172.320312 545.890625 170.585938 C 541.617188 168.851562 537.320312 167.183594 532.996094 165.585938 C 528.671875 163.988281 524.320312 162.460938 519.949219 161.003906 C 515.574219 159.546875 511.175781 158.160156 506.757812 156.847656 C 502.339844 155.53125 497.902344 154.285156 493.445312 153.113281 C 488.984375 151.9375 484.507812 150.839844 480.015625 149.808594 C 475.523438 148.78125 471.011719 147.824219 466.488281 146.9375 C 461.964844 146.054688 457.425781 145.242188 452.875 144.503906 C 448.324219 143.765625 443.761719 143.101562 439.191406 142.511719 C 434.617188 141.917969 430.039062 141.402344 425.449219 140.957031 C 420.859375 140.515625 416.265625 140.144531 411.664062 139.847656 C 407.0625 139.550781 402.460938 139.328125 397.851562 139.179688 C 393.246094 139.03125 388.636719 138.957031 384.023438 138.957031 C 379.414062 138.957031 374.804688 139.03125 370.199219 139.179688 C 365.589844 139.328125 360.984375 139.550781 356.386719 139.847656 C 351.785156 140.144531 347.191406 140.515625 342.601562 140.957031 C 338.011719 141.402344 333.433594 141.917969 328.859375 142.511719 C 324.289062 143.101562 319.726562 143.765625 315.175781 144.503906 C 310.625 145.242188 306.085938 146.054688 301.5625 146.9375 C 297.039062 147.824219 292.527344 148.78125 288.035156 149.808594 C 283.542969 150.839844 279.066406 151.9375 274.605469 153.113281 C 270.148438 154.285156 265.710938 155.53125 261.292969 156.847656 C 256.875 158.160156 252.476562 159.546875 248.101562 161.003906 C 243.730469 162.460938 239.378906 163.988281 235.054688 165.585938 C 230.730469 167.183594 226.433594 168.851562 222.160156 170.585938 C 217.890625 172.320312 213.648438 174.125 209.433594 175.996094 C 205.222656 177.867188 201.039062 179.808594 196.890625 181.8125 C 192.738281 183.820312 188.621094 185.894531 184.539062 188.03125 C 180.453125 190.171875 176.40625 192.375 172.390625 194.644531 L 113.660156 227.871094 L 122.273438 294.808594 C 123.335938 302.96875 124.632812 311.09375 126.164062 319.179688 C 127.695312 327.265625 129.457031 335.300781 131.449219 343.285156 C 133.4375 351.269531 135.65625 359.191406 138.101562 367.050781 C 140.546875 374.910156 143.214844 382.691406 146.105469 390.394531 C 148.996094 398.101562 152.105469 405.714844 155.433594 413.242188 C 158.757812 420.769531 162.300781 428.195312 166.050781 435.519531 C 169.804688 442.84375 173.765625 450.054688 177.929688 457.152344 C 182.09375 464.25 186.460938 471.222656 191.027344 478.070312 C 195.59375 484.917969 200.347656 491.628906 205.300781 498.203125 C 210.25 504.777344 215.382812 511.207031 220.703125 517.488281 C 226.019531 523.765625 231.511719 529.890625 237.183594 535.855469 C 242.851562 541.820312 248.6875 547.621094 254.6875 553.25 C 260.6875 558.882812 266.847656 564.339844 273.160156 569.617188 C 279.472656 574.894531 285.933594 579.988281 292.539062 584.898438 C 299.144531 589.804688 305.886719 594.519531 312.761719 599.042969 C 319.636719 603.566406 326.636719 607.886719 333.761719 612.007812 Z M 333.761719 612.007812 " fill-opacity="1" fill-rule="nonzero"/></svg>