<svg xmlns="http://www.w3.org/2000/svg" xmlns:xlink="http://www.w3.org/1999/xlink" width="1024" zoomAndPan="magnify" viewBox="0 0 768 767.999994" height="1024" preserveAspectRatio="xMidYMid meet" version="1.0"><defs><clipPath id="bfa21f3f2b"><path d="M 16.269531 189 L 569 189 L 569 743 L 16.269531 743 Z M 16.269531 189 " clip-rule="nonzero"/></clipPath><clipPath id="35d7f0d34a"><path d="M 528 16.269531 L 751.726562 16.269531 L 751.726562 751.726562 L 528 751.726562 Z M 528 16.269531 " clip-rule="nonzero"/></clipPath></defs><g clip-path="url(#bfa21f3f2b)"><path fill="#163172" d="M 23.265625 272.734375 C 23.265625 272.734375 5.351562 259.679688 26.847656 242.253906 L 76.929688 196.988281 C 76.929688 196.988281 91.261719 181.746094 106.414062 195.027344 L 568.570312 548.707031 L 568.570312 718.304688 C 568.570312 718.304688 568.34375 744.9375 534.53125 741.996094 Z M 23.265625 272.734375 " fill-opacity="1" fill-rule="nonzero"/></g><path fill="#163172" d="M 142.386719 382.058594 L 23.261719 491.523438 C 23.261719 491.523438 11.023438 500.730469 23.261719 517.175781 L 78.570312 568.023438 C 78.570312 568.023438 91.707031 582.28125 111.113281 566.0625 L 237.398438 469.269531 Z M 142.386719 382.058594 " fill-opacity="1" fill-rule="nonzero"/><path fill="#163172" d="M 351.515625 382.957031 L 569.980469 214.339844 L 568.558594 45.644531 C 568.558594 45.644531 559.230469 8.828125 528.105469 27.992188 L 237.390625 295.441406 Z M 351.515625 382.957031 " fill-opacity="1" fill-rule="nonzero"/><g clip-path="url(#35d7f0d34a)"><path fill="#163172" d="M 534.523438 742.226562 C 547.210938 755.351562 562.585938 751.050781 562.585938 751.050781 L 732.84375 666.253906 C 754.640625 651.238281 751.578125 632.601562 751.578125 632.601562 L 751.578125 126.21875 C 751.578125 103.964844 729.035156 96.269531 729.035156 96.269531 L 581.46875 24.371094 C 549.226562 4.226562 528.105469 27.992188 528.105469 27.992188 C 528.105469 27.992188 555.273438 8.226562 568.558594 45.644531 L 568.558594 715.214844 C 568.558594 719.820312 567.589844 724.34375 565.648438 728.417969 C 561.765625 736.339844 553.332031 743.734375 533.105469 740.640625 Z M 534.523438 742.226562 " fill-opacity="1" fill-rule="nonzero"/></g></svg>