<svg xmlns="http://www.w3.org/2000/svg" xmlns:xlink="http://www.w3.org/1999/xlink" width="1024" zoomAndPan="magnify" viewBox="0 0 768 767.999994" height="1024" preserveAspectRatio="xMidYMid meet" version="1.0"><defs><clipPath id="f13dd5b712"><path d="M 15.058594 15.058594 L 752.929688 15.058594 L 752.929688 752.929688 L 15.058594 752.929688 Z M 15.058594 15.058594 " clip-rule="nonzero"/></clipPath></defs><g clip-path="url(#f13dd5b712)"><path fill="#163172" d="M 364.6875 20.882812 C 376.390625 13.117188 391.601562 13.117188 403.304688 20.882812 L 737.320312 242.550781 C 747.070312 249.019531 752.929688 259.945312 752.929688 271.644531 L 752.929688 496.347656 C 752.929688 508.046875 747.070312 518.972656 737.320312 525.441406 L 403.304688 747.109375 C 391.601562 754.871094 376.390625 754.871094 364.6875 747.109375 L 30.671875 525.441406 C 20.921875 518.972656 15.058594 508.046875 15.058594 496.347656 L 15.058594 271.644531 C 15.058594 259.945312 20.921875 249.019531 30.671875 242.550781 Z M 84.898438 336.730469 L 84.898438 430.769531 L 155.269531 383.429688 Z M 218.257812 425.226562 L 112.835938 496.148438 L 349.078125 652.929688 L 349.078125 512.046875 Z M 418.914062 512.046875 L 418.914062 652.929688 L 655.15625 496.148438 L 549.738281 425.226562 Z M 612.71875 383.429688 L 683.09375 430.769531 L 683.09375 336.730469 Z M 654.859375 271.644531 L 550 341.234375 L 418.914062 253.050781 L 418.914062 115.0625 Z M 349.078125 115.0625 L 349.078125 253.050781 L 217.992188 341.234375 L 113.132812 271.644531 Z M 383.996094 313.730469 L 280.976562 383.035156 L 383.996094 451.402344 L 487.015625 383.035156 Z M 383.996094 313.730469 " fill-opacity="1" fill-rule="evenodd"/></g></svg>