<svg xmlns="http://www.w3.org/2000/svg" xmlns:xlink="http://www.w3.org/1999/xlink" width="1024" zoomAndPan="magnify" viewBox="0 0 768 767.999994" height="1024" preserveAspectRatio="xMidYMid meet" version="1.0"><path fill="#163172" d="M 305.476562 591.929688 C 323.554688 374.21875 0 119.566406 391.933594 17.652344 C 635.582031 -45.484375 646.324219 204.710938 511.398438 382.339844 C 435.683594 482.15625 422.0625 484.25 432.28125 603.980469 C 396.910156 492.898438 429.921875 463.03125 495.15625 369.761719 C 588.949219 235.101562 630.339844 -5.140625 400.839844 49.355469 C 28.035156 137.644531 370.1875 386.007812 305.476562 591.929688 Z M 305.476562 591.929688 " fill-opacity="1" fill-rule="evenodd"/><path fill="#163172" d="M 299.191406 579.875 C 297.878906 622.582031 430.707031 618.390625 413.15625 576.207031 C 411.320312 572.015625 411.320312 572.542969 410.273438 567.824219 C 421.015625 564.679688 431.492188 577.257812 434.898438 585.902344 C 467.910156 670.785156 203.566406 606.597656 299.191406 579.875 Z M 299.191406 579.875 " fill-opacity="1" fill-rule="evenodd"/><path fill="#163172" d="M 286.351562 591.929688 C 294.738281 647.207031 286.875 636.464844 392.71875 633.585938 C 403.460938 633.320312 411.84375 609.21875 416.558594 600.835938 C 450.617188 692.007812 225.046875 693.839844 286.351562 591.929688 Z M 286.351562 591.929688 " fill-opacity="1" fill-rule="evenodd"/><path fill="#163172" d="M 276.921875 633.847656 C 301.546875 668.167969 294.472656 655.589844 307.574219 681.527344 C 400.054688 682.574219 400.578125 676.027344 425.992188 603.980469 C 440.925781 645.636719 433.066406 686.765625 387.21875 705.105469 C 299.976562 739.425781 283.210938 698.558594 276.921875 633.847656 Z M 276.921875 633.847656 " fill-opacity="1" fill-rule="evenodd"/><path fill="#163172" d="M 286.351562 675.765625 C 353.421875 732.878906 278.492188 737.332031 406.34375 710.085938 C 413.417969 690.695312 416.824219 676.289062 422.847656 657.949219 C 440.402344 663.1875 434.113281 725.015625 423.894531 731.304688 C 327.746094 790.777344 300.5 752.003906 286.351562 675.765625 Z M 286.351562 675.765625 " fill-opacity="1" fill-rule="evenodd"/><path fill="#163172" d="M 321.195312 615.769531 C 325.914062 578.304688 367.570312 379.980469 340.320312 293 C 272.46875 279.902344 223.476562 248.464844 290.019531 225.933594 C 329.84375 212.308594 351.585938 231.433594 361.542969 267.589844 C 378.835938 268.113281 397.171875 267.589844 413.941406 265.492188 C 442.496094 213.09375 483.890625 163.578125 500.921875 223.050781 C 514.804688 272.304688 476.292969 293.523438 425.992188 298.242188 C 388.265625 402.773438 353.421875 592.714844 346.609375 627.820312 C 350.277344 524.597656 358.136719 427.925781 387.21875 326.796875 C 389.3125 319.199219 392.980469 309.769531 397.433594 299.289062 C 387.21875 299.027344 377 298.242188 366.78125 297.191406 C 378.308594 406.964844 326.699219 599 321.195312 615.769531 Z M 324.863281 264.183594 C 318.578125 257.632812 310.980469 253.441406 301.546875 252.394531 C 299.976562 252.917969 297.878906 253.964844 296.832031 255.273438 C 301.546875 258.941406 311.765625 262.085938 324.863281 264.183594 Z M 296.308594 256.0625 L 296.308594 256.324219 Z M 441.972656 259.992188 C 462.40625 253.964844 474.722656 244.007812 469.480469 229.339844 C 460.574219 230.125 451.144531 241.652344 441.972656 259.992188 Z M 470.792969 229.339844 L 471.316406 229.339844 Z M 470.792969 229.339844 " fill-opacity="1" fill-rule="evenodd"/></svg>