<svg xmlns="http://www.w3.org/2000/svg" xmlns:xlink="http://www.w3.org/1999/xlink" width="1024" zoomAndPan="magnify" viewBox="0 0 768 767.999994" height="1024" preserveAspectRatio="xMidYMid meet" version="1.0"><path fill="#163172" d="M 313.621094 13.957031 C 146.652344 15.785156 12.773438 152.652344 14.613281 319.625 C 16.433594 486.574219 153.292969 620.457031 320.269531 618.625 C 381.933594 617.953125 441.910156 598.425781 492.1875 562.675781 L 664.871094 735.328125 C 684.644531 754.84375 716.523438 754.640625 736.039062 734.839844 C 755.355469 715.261719 755.355469 683.761719 736.039062 664.15625 L 563.351562 491.503906 C 660.132812 355.441406 628.261719 166.667969 492.1875 69.878906 C 440.058594 32.839844 377.554688 13.253906 313.621094 13.957031 Z M 309.984375 66.285156 C 447.871094 62.433594 562.789062 171.070312 566.640625 308.984375 C 566.699219 311.410156 566.75 313.835938 566.75 316.253906 C 566.804688 454.195312 455.011719 566.074219 317.082031 566.152344 C 179.136719 566.207031 67.25 454.4375 67.183594 316.484375 C 67.183594 316.414062 67.183594 316.347656 67.183594 316.269531 C 67.035156 180.929688 174.6875 70.070312 309.984375 66.285156 Z M 309.984375 66.285156 " fill-opacity="1" fill-rule="nonzero"/><path fill="#163172" d="M 249.53125 131.027344 C 263.203125 126.136719 278.25 133.238281 283.152344 146.910156 C 288.015625 160.480469 281.050781 175.449219 267.515625 180.457031 C 210.410156 201.242188 172.398438 255.519531 172.398438 316.28125 C 172.398438 330.8125 160.625 342.585938 146.105469 342.585938 C 131.585938 342.585938 119.816406 330.8125 119.816406 316.28125 C 119.820312 233.410156 171.648438 159.371094 249.53125 131.027344 Z M 249.53125 131.027344 " fill-opacity="1" fill-rule="nonzero"/></svg>