<svg xmlns="http://www.w3.org/2000/svg" xmlns:xlink="http://www.w3.org/1999/xlink" width="1024" zoomAndPan="magnify" viewBox="0 0 768 767.999994" height="1024" preserveAspectRatio="xMidYMid meet" version="1.0"><path fill="#163172" d="M 286.25 41.890625 L 481.738281 41.890625 L 481.738281 726.097656 L 286.25 726.097656 Z M 286.25 41.890625 " fill-opacity="1" fill-rule="nonzero"/><path fill="#163172" d="M 41.890625 286.25 L 237.378906 286.25 L 237.378906 726.097656 L 41.890625 726.097656 Z M 41.890625 286.25 " fill-opacity="1" fill-rule="nonzero"/><path fill="#163172" d="M 139.632812 41.890625 C 85.652344 41.890625 41.890625 85.652344 41.890625 139.632812 C 41.890625 193.617188 85.652344 237.378906 139.632812 237.378906 C 193.617188 237.378906 237.378906 193.617188 237.378906 139.632812 C 237.378906 85.652344 193.617188 41.890625 139.632812 41.890625 Z M 139.632812 41.890625 " fill-opacity="1" fill-rule="nonzero"/><path fill="#163172" d="M 530.609375 41.890625 L 726.097656 41.890625 L 726.097656 237.378906 L 530.609375 237.378906 Z M 530.609375 41.890625 " fill-opacity="1" fill-rule="nonzero"/><path fill="#163172" d="M 726.097656 286.25 L 530.609375 286.25 L 530.609375 481.738281 L 726.097656 481.738281 Z M 726.097656 286.25 " fill-opacity="1" fill-rule="nonzero"/></svg>