<svg xmlns="http://www.w3.org/2000/svg" xmlns:xlink="http://www.w3.org/1999/xlink" width="1024" zoomAndPan="magnify" viewBox="0 0 768 767.999994" height="1024" preserveAspectRatio="xMidYMid meet" version="1.0"><path fill="#163172" d="M 379.527344 128.835938 C 344.261719 133.15625 310.84375 145.675781 296.738281 157.269531 C 214.46875 225.285156 168.015625 315.199219 143.902344 393.59375 C 133.488281 426.890625 126.570312 460.898438 123.152344 495.621094 C 121.894531 509.761719 120.75 524.570312 122.894531 538.710938 C 137.035156 554.738281 157.050781 566.371094 175.625 576.339844 C 214.433594 597.203125 272.738281 618.839844 351.132812 627.554688 C 395.515625 632.503906 451.570312 635.3125 503.265625 631.175781 C 556.917969 626.855469 598.054688 615.59375 619.398438 598.496094 C 655.363281 569.730469 664.445312 536.164062 661.160156 506.773438 C 657.652344 475.164062 639.890625 448.429688 622.019531 436.503906 C 591.1875 415.972656 556.476562 413.902344 523.757812 422.46875 C 490.082031 431.332031 462.425781 450.535156 449.355469 466.265625 C 448.535156 467.25 447.667969 468.191406 446.753906 469.089844 C 445.839844 469.984375 444.878906 470.832031 443.875 471.628906 C 442.871094 472.425781 441.828125 473.167969 440.746094 473.855469 C 439.667969 474.542969 438.554688 475.171875 437.40625 475.742188 C 436.261719 476.316406 435.085938 476.828125 433.886719 477.277344 C 432.6875 477.726562 431.46875 478.113281 430.226562 478.433594 C 428.988281 478.757812 427.734375 479.015625 426.46875 479.207031 C 425.199219 479.402344 423.925781 479.527344 422.648438 479.585938 C 421.367188 479.644531 420.085938 479.640625 418.808594 479.566406 C 417.527344 479.492188 416.257812 479.351562 414.992188 479.148438 C 413.726562 478.941406 412.476562 478.671875 411.242188 478.335938 C 410.003906 478 408.789062 477.597656 407.59375 477.136719 C 406.398438 476.675781 405.230469 476.152344 404.089844 475.566406 C 402.949219 474.984375 401.84375 474.339844 400.769531 473.640625 C 399.695312 472.941406 398.660156 472.1875 397.667969 471.382812 C 396.671875 470.574219 395.71875 469.71875 394.816406 468.8125 C 374.503906 448.503906 339.980469 442.59375 293.710938 473.429688 C 293.082031 473.847656 292.445312 474.246094 291.789062 474.628906 C 291.136719 475.007812 290.476562 475.367188 289.800781 475.707031 C 289.125 476.046875 288.441406 476.363281 287.746094 476.660156 C 287.054688 476.957031 286.351562 477.234375 285.640625 477.488281 C 284.929688 477.742188 284.210938 477.976562 283.484375 478.1875 C 282.757812 478.394531 282.027344 478.582031 281.292969 478.75 C 280.554688 478.914062 279.8125 479.058594 279.066406 479.175781 C 278.324219 479.296875 277.574219 479.394531 276.824219 479.46875 C 276.070312 479.542969 275.316406 479.59375 274.5625 479.621094 C 273.808594 479.648438 273.054688 479.652344 272.296875 479.632812 C 271.542969 479.617188 270.789062 479.574219 270.039062 479.507812 C 269.285156 479.445312 268.535156 479.355469 267.789062 479.246094 C 267.042969 479.132812 266.296875 479 265.558594 478.84375 C 264.820312 478.6875 264.089844 478.507812 263.359375 478.308594 C 262.632812 478.105469 261.910156 477.882812 261.195312 477.636719 C 260.484375 477.390625 259.777344 477.125 259.078125 476.835938 C 258.382812 476.546875 257.695312 476.238281 257.015625 475.90625 C 256.335938 475.574219 255.667969 475.222656 255.011719 474.851562 C 254.355469 474.480469 253.710938 474.085938 253.074219 473.675781 C 252.441406 473.265625 251.824219 472.832031 251.214844 472.382812 C 250.609375 471.933594 250.015625 471.464844 249.4375 470.980469 C 248.863281 470.492188 248.300781 469.992188 247.75 469.46875 C 247.203125 468.949219 246.675781 468.414062 246.160156 467.859375 C 245.644531 467.304688 245.148438 466.738281 244.671875 466.15625 C 244.191406 465.570312 243.730469 464.972656 243.289062 464.363281 C 242.84375 463.75 242.421875 463.125 242.015625 462.488281 C 241.613281 461.847656 241.226562 461.199219 240.863281 460.539062 C 240.5 459.875 240.15625 459.203125 239.832031 458.523438 C 239.507812 457.839844 239.207031 457.148438 238.925781 456.445312 C 238.644531 455.746094 238.386719 455.035156 238.148438 454.320312 C 237.914062 453.601562 237.699219 452.878906 237.503906 452.148438 C 237.3125 451.417969 237.140625 450.683594 236.992188 449.941406 C 226.433594 396.992188 231.933594 340.714844 241.683594 294.300781 C 251.503906 247.8125 266.277344 207.820312 277.132812 186.183594 C 277.894531 184.660156 278.761719 183.195312 279.726562 181.789062 C 280.695312 180.386719 281.753906 179.054688 282.902344 177.796875 C 284.054688 176.539062 285.285156 175.367188 286.601562 174.28125 C 287.914062 173.195312 289.296875 172.203125 290.746094 171.308594 C 292.195312 170.410156 293.703125 169.621094 295.261719 168.933594 C 296.820312 168.246094 298.421875 167.671875 300.0625 167.203125 C 301.703125 166.738281 303.367188 166.390625 305.054688 166.152344 C 306.742188 165.917969 308.4375 165.800781 310.144531 165.800781 C 311.847656 165.800781 313.546875 165.917969 315.234375 166.152344 C 316.921875 166.390625 318.585938 166.738281 320.226562 167.203125 C 321.867188 167.671875 323.464844 168.246094 325.027344 168.933594 C 326.585938 169.621094 328.089844 170.410156 329.542969 171.308594 C 330.992188 172.203125 332.375 173.195312 333.6875 174.28125 C 335 175.367188 336.234375 176.539062 337.382812 177.796875 C 338.535156 179.054688 339.59375 180.386719 340.558594 181.789062 C 341.527344 183.195312 342.390625 184.660156 343.15625 186.183594 C 350.652344 201.101562 364.351562 214.46875 380.300781 220.082031 C 392.671875 212.289062 403.417969 201.394531 412.132812 189.765625 C 428.160156 168.421875 433.511719 148.222656 426.386719 130.386719 C 411.910156 125.21875 394.371094 127.027344 379.492188 128.835938 Z M 434.289062 56.3125 C 452.160156 59.75 478.265625 68.683594 490.859375 93.867188 C 518.441406 149.035156 495.660156 201.46875 471.214844 234.074219 C 455.261719 255.34375 434.730469 275.359375 410.839844 287.617188 C 405.855469 290.203125 395.699219 295.003906 383.996094 295.003906 C 362.171875 295.003906 340.792969 285.070312 323.253906 272.664062 C 319.929688 283.960938 316.714844 296.367188 313.945312 309.515625 C 308.457031 334.796875 305.503906 360.375 305.085938 386.246094 C 343.96875 373.691406 383.738281 375.019531 418.003906 394.371094 C 430.871094 384.242188 444.632812 375.53125 459.292969 368.238281 C 473.953125 360.941406 489.199219 355.214844 505.039062 351.054688 C 553.042969 338.464844 610.644531 340.199219 662.96875 375.058594 C 700.449219 400.054688 728.84375 447.136719 734.570312 498.648438 C 740.550781 552.339844 721.902344 611.050781 665.515625 656.171875 C 625.710938 688.003906 565.042969 700.300781 509.210938 704.769531 C 451.421875 709.421875 390.382812 706.246094 343.007812 700.964844 C 255.199219 691.214844 187.773438 666.699219 140.65625 641.402344 C 109.746094 624.785156 67.46875 601.820312 54.0625 566.628906 C 45.015625 542.773438 47.378906 513.824219 49.59375 489.011719 C 52.550781 456.480469 59.785156 415.859375 73.339844 371.84375 C 100.367188 284 153.28125 180.050781 249.695312 100.367188 C 279.347656 75.847656 328.976562 60.632812 370.515625 55.539062 C 391.933594 52.917969 414.460938 52.546875 434.289062 56.3125 Z M 434.289062 56.3125 " fill-opacity="1" fill-rule="evenodd"/></svg>