<svg xmlns="http://www.w3.org/2000/svg" xmlns:xlink="http://www.w3.org/1999/xlink" width="1024" zoomAndPan="magnify" viewBox="0 0 768 767.999994" height="1024" preserveAspectRatio="xMidYMid meet" version="1.0"><path fill="#163172" d="M 383.996094 29.234375 C 406.414062 29.234375 426.707031 36.363281 440.507812 55.132812 C 448.84375 66.484375 453.492188 80.035156 454.664062 93.480469 L 454.945312 100.1875 C 454.945312 101.488281 454.980469 102.789062 455.054688 104.089844 C 455.125 105.390625 455.230469 106.691406 455.375 107.984375 C 455.519531 109.28125 455.695312 110.570312 455.910156 111.855469 C 456.125 113.140625 456.375 114.417969 456.65625 115.6875 C 456.941406 116.960938 457.261719 118.222656 457.617188 119.476562 C 457.96875 120.730469 458.359375 121.972656 458.78125 123.207031 C 459.203125 124.4375 459.65625 125.65625 460.148438 126.863281 C 460.636719 128.074219 461.160156 129.265625 461.714844 130.445312 C 462.269531 131.621094 462.859375 132.785156 463.476562 133.929688 C 464.097656 135.078125 464.746094 136.203125 465.429688 137.316406 C 466.109375 138.425781 466.820312 139.515625 467.5625 140.585938 C 468.304688 141.660156 469.074219 142.707031 469.875 143.738281 C 470.671875 144.765625 471.5 145.773438 472.355469 146.753906 C 473.210938 147.738281 474.089844 148.695312 475 149.632812 C 475.90625 150.566406 476.839844 151.472656 477.796875 152.359375 C 478.753906 153.242188 479.734375 154.097656 480.738281 154.925781 C 481.746094 155.753906 482.769531 156.554688 483.820312 157.328125 C 484.867188 158.101562 485.9375 158.84375 487.027344 159.558594 C 488.117188 160.273438 489.226562 160.957031 490.355469 161.609375 C 491.480469 162.261719 492.625 162.882812 493.789062 163.472656 C 494.949219 164.0625 496.125 164.617188 497.320312 165.144531 C 498.511719 165.667969 499.71875 166.160156 500.9375 166.617188 C 502.15625 167.074219 503.386719 167.5 504.628906 167.890625 C 505.871094 168.28125 507.125 168.636719 508.386719 168.957031 C 509.648438 169.28125 510.921875 169.566406 512.199219 169.816406 C 513.476562 170.070312 514.761719 170.285156 516.050781 170.46875 C 517.339844 170.648438 518.636719 170.792969 519.933594 170.902344 C 521.230469 171.011719 522.53125 171.085938 523.835938 171.125 C 525.136719 171.160156 526.4375 171.164062 527.742188 171.128906 C 529.042969 171.097656 530.34375 171.027344 531.640625 170.921875 C 532.941406 170.816406 534.234375 170.675781 535.527344 170.496094 C 536.816406 170.320312 538.101562 170.109375 539.378906 169.859375 L 545.800781 168.335938 C 571.273438 160.851562 596.851562 180.007812 596.851562 206.613281 C 596.851562 208.828125 596.953125 211.035156 597.160156 213.238281 C 597.363281 215.441406 597.671875 217.632812 598.085938 219.804688 C 598.496094 221.980469 599.007812 224.132812 599.617188 226.257812 C 600.230469 228.382812 600.941406 230.476562 601.746094 232.539062 C 602.554688 234.597656 603.457031 236.617188 604.453125 238.59375 C 605.453125 240.570312 606.539062 242.492188 607.714844 244.367188 C 608.890625 246.242188 610.152344 248.058594 611.5 249.8125 C 612.847656 251.570312 614.273438 253.257812 615.777344 254.882812 C 617.28125 256.503906 618.859375 258.054688 620.507812 259.527344 C 622.160156 261.003906 623.875 262.398438 625.652344 263.710938 C 627.433594 265.027344 629.273438 266.257812 631.167969 267.398438 C 633.0625 268.542969 635.007812 269.59375 637 270.554688 C 638.992188 271.515625 641.027344 272.378906 643.101562 273.152344 C 645.175781 273.921875 647.285156 274.59375 649.421875 275.167969 C 651.558594 275.738281 653.71875 276.210938 655.898438 276.582031 C 658.082031 276.953125 660.273438 277.222656 662.480469 277.390625 L 667.804688 277.566406 C 692.496094 277.566406 729 292.183594 734.816406 330.957031 C 737.40625 348.269531 738.753906 365.972656 738.753906 383.996094 C 738.753906 579.929688 579.929688 738.753906 383.996094 738.753906 C 188.058594 738.753906 29.234375 579.929688 29.234375 383.996094 C 29.234375 188.058594 188.058594 29.234375 383.996094 29.234375 Z M 383.996094 100.1875 C 379.226562 100.1875 374.460938 100.308594 369.699219 100.546875 C 364.9375 100.789062 360.183594 101.148438 355.441406 101.628906 C 350.695312 102.109375 345.96875 102.707031 341.253906 103.425781 C 336.539062 104.144531 331.847656 104.980469 327.175781 105.9375 C 322.503906 106.890625 317.859375 107.964844 313.242188 109.152344 C 308.625 110.34375 304.039062 111.648438 299.488281 113.066406 C 294.9375 114.488281 290.421875 116.023438 285.949219 117.667969 C 281.472656 119.316406 277.042969 121.078125 272.65625 122.949219 C 268.273438 124.820312 263.9375 126.800781 259.648438 128.886719 C 255.363281 130.976562 251.132812 133.175781 246.957031 135.476562 C 242.78125 137.78125 238.667969 140.1875 234.613281 142.695312 C 230.558594 145.207031 226.570312 147.816406 222.648438 150.527344 C 218.726562 153.238281 214.875 156.046875 211.09375 158.953125 C 207.3125 161.859375 203.609375 164.855469 199.976562 167.949219 C 196.347656 171.042969 192.800781 174.222656 189.328125 177.492188 C 185.859375 180.765625 182.476562 184.121094 179.175781 187.5625 C 175.875 191.003906 172.664062 194.527344 169.539062 198.128906 C 166.417969 201.734375 163.386719 205.414062 160.449219 209.167969 C 157.515625 212.925781 154.671875 216.753906 151.929688 220.652344 C 149.183594 224.550781 146.539062 228.519531 143.996094 232.550781 C 141.453125 236.582031 139.011719 240.679688 136.671875 244.832031 C 134.335938 248.988281 132.101562 253.203125 129.976562 257.46875 C 127.851562 261.738281 125.832031 266.054688 123.925781 270.425781 C 122.019531 274.796875 120.222656 279.210938 118.535156 283.671875 C 116.851562 288.132812 115.277344 292.632812 113.820312 297.171875 C 112.359375 301.710938 111.015625 306.285156 109.789062 310.890625 C 108.5625 315.5 107.449219 320.136719 106.453125 324.796875 C 105.460938 329.460938 104.582031 334.148438 103.824219 338.855469 C 103.066406 343.5625 102.425781 348.285156 101.90625 353.027344 C 101.386719 357.765625 100.988281 362.515625 100.707031 367.273438 C 100.425781 372.035156 100.265625 376.800781 100.222656 381.566406 C 100.183594 386.335938 100.261719 391.101562 100.460938 395.863281 C 100.660156 400.628906 100.980469 405.386719 101.417969 410.132812 C 101.859375 414.882812 102.417969 419.613281 103.09375 424.335938 C 103.773438 429.054688 104.566406 433.753906 105.484375 438.433594 C 106.398438 443.113281 107.429688 447.765625 108.578125 452.394531 C 109.726562 457.023438 110.992188 461.617188 112.375 466.183594 C 113.753906 470.746094 115.25 475.273438 116.859375 479.761719 C 118.46875 484.25 120.1875 488.695312 122.019531 493.097656 C 123.855469 497.5 125.796875 501.851562 127.847656 506.15625 C 129.902344 510.460938 132.0625 514.707031 134.328125 518.902344 C 136.59375 523.097656 138.964844 527.234375 141.441406 531.308594 C 143.914062 535.386719 146.492188 539.394531 149.167969 543.339844 C 151.84375 547.289062 154.621094 551.164062 157.492188 554.96875 C 160.367188 558.773438 163.332031 562.507812 166.394531 566.164062 C 169.453125 569.820312 172.605469 573.394531 175.84375 576.894531 C 179.085938 580.390625 182.414062 583.804688 185.824219 587.132812 C 189.238281 590.464844 192.734375 593.707031 196.308594 596.859375 C 199.886719 600.011719 203.539062 603.074219 207.269531 606.042969 C 211 609.015625 214.804688 611.886719 218.679688 614.664062 C 222.554688 617.445312 226.496094 620.121094 230.507812 622.703125 C 234.519531 625.28125 238.589844 627.757812 242.726562 630.132812 C 246.863281 632.503906 251.054688 634.773438 255.304688 636.9375 C 259.554688 639.097656 263.855469 641.152344 268.207031 643.097656 C 272.5625 645.042969 276.960938 646.878906 281.40625 648.601562 C 285.851562 650.328125 290.339844 651.9375 294.863281 653.4375 C 299.390625 654.933594 303.953125 656.316406 308.550781 657.585938 C 313.148438 658.851562 317.773438 660.003906 322.425781 661.039062 C 327.082031 662.074219 331.757812 662.992188 336.460938 663.789062 C 341.160156 664.589844 345.878906 665.269531 350.613281 665.832031 C 355.347656 666.390625 360.09375 666.832031 364.851562 667.15625 C 369.609375 667.476562 374.371094 667.679688 379.140625 667.761719 C 383.90625 667.84375 388.671875 667.804688 393.4375 667.648438 C 398.203125 667.488281 402.964844 667.210938 407.714844 666.8125 C 412.464844 666.414062 417.207031 665.898438 421.929688 665.261719 C 426.65625 664.621094 431.363281 663.867188 436.050781 662.992188 C 440.738281 662.121094 445.398438 661.128906 450.039062 660.019531 C 454.675781 658.910156 459.28125 657.683594 463.855469 656.34375 C 468.433594 655 472.972656 653.546875 477.472656 651.976562 C 481.976562 650.40625 486.4375 648.722656 490.855469 646.929688 C 495.269531 645.132812 499.640625 643.226562 503.960938 641.214844 C 508.285156 639.199219 512.550781 637.074219 516.765625 634.84375 C 520.980469 632.613281 525.136719 630.28125 529.234375 627.839844 C 533.332031 625.402344 537.363281 622.859375 541.332031 620.214844 C 545.300781 617.574219 549.199219 614.832031 553.03125 611.992188 C 556.859375 609.152344 560.617188 606.21875 564.300781 603.191406 C 567.984375 600.160156 571.585938 597.042969 575.113281 593.832031 C 578.636719 590.621094 582.082031 587.324219 585.441406 583.941406 C 588.800781 580.554688 592.070312 577.089844 595.253906 573.539062 C 598.441406 569.992188 601.53125 566.363281 604.535156 562.660156 C 607.535156 558.953125 610.441406 555.175781 613.253906 551.324219 C 616.066406 547.472656 618.777344 543.554688 621.390625 539.566406 C 624.003906 535.578125 626.515625 531.527344 628.925781 527.414062 C 631.335938 523.296875 633.640625 519.125 635.839844 514.894531 C 638.039062 510.664062 640.128906 506.378906 642.113281 502.042969 C 644.097656 497.707031 645.96875 493.324219 647.730469 488.894531 C 649.496094 484.464844 651.144531 479.992188 652.679688 475.476562 C 654.21875 470.964844 655.640625 466.414062 656.949219 461.828125 C 658.257812 457.242188 659.449219 452.628906 660.523438 447.980469 C 661.597656 443.335938 662.554688 438.667969 663.394531 433.972656 C 664.234375 429.28125 664.957031 424.566406 665.558594 419.835938 C 666.160156 415.109375 666.640625 410.367188 667.003906 405.609375 C 667.367188 400.855469 667.613281 396.097656 667.734375 391.328125 C 667.859375 386.5625 667.863281 381.796875 667.746094 377.03125 C 667.628906 372.261719 667.390625 367.5 667.035156 362.746094 C 666.675781 357.992188 666.199219 353.25 665.605469 348.519531 C 661.75 348.457031 657.902344 348.238281 654.066406 347.867188 C 650.230469 347.492188 646.414062 346.960938 642.621094 346.277344 C 638.828125 345.59375 635.070312 344.753906 631.34375 343.765625 C 627.617188 342.773438 623.9375 341.632812 620.304688 340.339844 C 616.675781 339.050781 613.101562 337.613281 609.585938 336.03125 C 606.070312 334.449219 602.625 332.726562 599.25 330.863281 C 595.875 329.003906 592.578125 327.007812 589.367188 324.875 C 586.15625 322.746094 583.035156 320.484375 580.003906 318.101562 C 576.976562 315.714844 574.050781 313.210938 571.226562 310.589844 C 568.402344 307.964844 565.6875 305.230469 563.085938 302.386719 C 560.484375 299.542969 558.003906 296.597656 555.640625 293.550781 C 553.277344 290.503906 551.042969 287.367188 548.9375 284.136719 C 546.832031 280.910156 544.859375 277.601562 543.023438 274.210938 C 541.1875 270.820312 539.492188 267.363281 537.933594 263.835938 C 536.378906 260.308594 534.972656 256.722656 533.707031 253.082031 C 532.445312 249.441406 531.332031 245.753906 530.367188 242.019531 C 451.398438 244.46875 383.996094 179.226562 383.996094 100.1875 Z M 295.304688 454.945312 C 297.046875 454.945312 298.785156 455.03125 300.519531 455.203125 C 302.253906 455.375 303.976562 455.628906 305.6875 455.96875 C 307.394531 456.308594 309.085938 456.730469 310.75 457.238281 C 312.417969 457.742188 314.058594 458.332031 315.667969 458.996094 C 317.277344 459.664062 318.851562 460.410156 320.390625 461.230469 C 321.925781 462.050781 323.417969 462.945312 324.867188 463.914062 C 326.316406 464.882812 327.714844 465.921875 329.0625 467.027344 C 330.410156 468.132812 331.699219 469.300781 332.933594 470.53125 C 334.164062 471.765625 335.335938 473.054688 336.441406 474.402344 C 337.546875 475.75 338.582031 477.148438 339.550781 478.597656 C 340.519531 480.046875 341.414062 481.539062 342.234375 483.074219 C 343.058594 484.613281 343.800781 486.1875 344.46875 487.796875 C 345.136719 489.40625 345.722656 491.046875 346.226562 492.714844 C 346.734375 494.382812 347.15625 496.070312 347.496094 497.78125 C 347.835938 499.488281 348.089844 501.210938 348.261719 502.945312 C 348.433594 504.679688 348.519531 506.417969 348.519531 508.160156 C 348.519531 509.902344 348.433594 511.640625 348.261719 513.375 C 348.089844 515.109375 347.835938 516.832031 347.496094 518.542969 C 347.15625 520.25 346.734375 521.941406 346.226562 523.609375 C 345.722656 525.277344 345.136719 526.914062 344.46875 528.523438 C 343.800781 530.136719 343.058594 531.707031 342.234375 533.246094 C 341.414062 534.78125 340.519531 536.277344 339.550781 537.726562 C 338.582031 539.175781 337.546875 540.574219 336.441406 541.917969 C 335.335938 543.265625 334.164062 544.554688 332.933594 545.789062 C 331.699219 547.019531 330.410156 548.191406 329.0625 549.296875 C 327.714844 550.402344 326.316406 551.4375 324.867188 552.40625 C 323.417969 553.375 321.925781 554.269531 320.390625 555.089844 C 318.851562 555.914062 317.277344 556.65625 315.667969 557.324219 C 314.058594 557.992188 312.417969 558.578125 310.75 559.082031 C 309.085938 559.589844 307.394531 560.011719 305.6875 560.351562 C 303.976562 560.691406 302.253906 560.949219 300.519531 561.117188 C 298.785156 561.289062 297.046875 561.375 295.304688 561.375 C 293.5625 561.375 291.824219 561.289062 290.089844 561.117188 C 288.355469 560.949219 286.632812 560.691406 284.921875 560.351562 C 283.214844 560.011719 281.523438 559.589844 279.855469 559.082031 C 278.191406 558.578125 276.550781 557.992188 274.941406 557.324219 C 273.332031 556.65625 271.757812 555.914062 270.21875 555.089844 C 268.683594 554.269531 267.191406 553.375 265.742188 552.40625 C 264.292969 551.4375 262.894531 550.402344 261.546875 549.296875 C 260.199219 548.191406 258.910156 547.019531 257.675781 545.789062 C 256.445312 544.554688 255.273438 543.265625 254.167969 541.917969 C 253.0625 540.574219 252.027344 539.175781 251.058594 537.726562 C 250.089844 536.277344 249.195312 534.78125 248.375 533.246094 C 247.550781 531.707031 246.808594 530.136719 246.140625 528.523438 C 245.472656 526.914062 244.886719 525.277344 244.382812 523.609375 C 243.875 521.941406 243.453125 520.25 243.113281 518.542969 C 242.773438 516.832031 242.515625 515.109375 242.347656 513.375 C 242.175781 511.640625 242.089844 509.902344 242.089844 508.160156 C 242.089844 506.417969 242.175781 504.679688 242.347656 502.945312 C 242.515625 501.210938 242.773438 499.488281 243.113281 497.78125 C 243.453125 496.070312 243.875 494.382812 244.382812 492.714844 C 244.886719 491.046875 245.472656 489.40625 246.140625 487.796875 C 246.808594 486.1875 247.550781 484.613281 248.375 483.074219 C 249.195312 481.539062 250.089844 480.046875 251.058594 478.597656 C 252.027344 477.148438 253.0625 475.75 254.167969 474.402344 C 255.273438 473.054688 256.445312 471.765625 257.675781 470.53125 C 258.910156 469.300781 260.199219 468.132812 261.546875 467.027344 C 262.894531 465.921875 264.292969 464.882812 265.742188 463.914062 C 267.191406 462.945312 268.683594 462.050781 270.21875 461.230469 C 271.757812 460.410156 273.332031 459.664062 274.941406 458.996094 C 276.550781 458.332031 278.191406 457.742188 279.855469 457.238281 C 281.523438 456.730469 283.214844 456.308594 284.921875 455.96875 C 286.632812 455.628906 288.355469 455.375 290.089844 455.203125 C 291.824219 455.03125 293.5625 454.945312 295.304688 454.945312 Z M 508.160156 383.996094 C 509.902344 383.996094 511.640625 384.082031 513.375 384.25 C 515.113281 384.421875 516.832031 384.675781 518.542969 385.015625 C 520.25 385.355469 521.941406 385.78125 523.609375 386.285156 C 525.277344 386.792969 526.914062 387.378906 528.523438 388.046875 C 530.136719 388.710938 531.710938 389.457031 533.246094 390.277344 C 534.78125 391.101562 536.277344 391.996094 537.726562 392.960938 C 539.175781 393.929688 540.574219 394.96875 541.917969 396.074219 C 543.265625 397.179688 544.558594 398.347656 545.789062 399.582031 C 547.019531 400.8125 548.191406 402.101562 549.296875 403.449219 C 550.402344 404.796875 551.4375 406.195312 552.40625 407.644531 C 553.375 409.09375 554.269531 410.585938 555.089844 412.125 C 555.914062 413.660156 556.65625 415.234375 557.324219 416.84375 C 557.992188 418.453125 558.578125 420.09375 559.082031 421.761719 C 559.589844 423.429688 560.011719 425.117188 560.351562 426.828125 C 560.691406 428.535156 560.949219 430.257812 561.117188 431.992188 C 561.289062 433.726562 561.375 435.464844 561.375 437.207031 C 561.375 438.953125 561.289062 440.691406 561.117188 442.425781 C 560.949219 444.160156 560.691406 445.882812 560.351562 447.589844 C 560.011719 449.300781 559.589844 450.988281 559.082031 452.65625 C 558.578125 454.324219 557.992188 455.960938 557.324219 457.574219 C 556.65625 459.183594 555.914062 460.757812 555.089844 462.292969 C 554.269531 463.832031 553.375 465.324219 552.40625 466.773438 C 551.4375 468.222656 550.402344 469.621094 549.296875 470.96875 C 548.191406 472.316406 547.019531 473.605469 545.789062 474.835938 C 544.558594 476.070312 543.265625 477.238281 541.917969 478.34375 C 540.574219 479.449219 539.175781 480.488281 537.726562 481.453125 C 536.277344 482.421875 534.78125 483.316406 533.246094 484.140625 C 531.707031 484.960938 530.136719 485.707031 528.523438 486.371094 C 526.914062 487.039062 525.277344 487.625 523.609375 488.132812 C 521.941406 488.636719 520.25 489.058594 518.542969 489.398438 C 516.832031 489.742188 515.113281 489.996094 513.378906 490.167969 C 511.640625 490.335938 509.902344 490.421875 508.160156 490.421875 C 506.417969 490.421875 504.679688 490.335938 502.945312 490.167969 C 501.210938 489.996094 499.488281 489.742188 497.78125 489.398438 C 496.070312 489.058594 494.382812 488.636719 492.714844 488.132812 C 491.046875 487.625 489.40625 487.039062 487.796875 486.371094 C 486.1875 485.707031 484.613281 484.960938 483.074219 484.140625 C 481.539062 483.316406 480.046875 482.421875 478.597656 481.453125 C 477.148438 480.488281 475.75 479.449219 474.402344 478.34375 C 473.054688 477.238281 471.765625 476.070312 470.53125 474.835938 C 469.300781 473.605469 468.132812 472.316406 467.027344 470.96875 C 465.921875 469.621094 464.882812 468.222656 463.914062 466.773438 C 462.945312 465.324219 462.050781 463.832031 461.230469 462.292969 C 460.410156 460.757812 459.664062 459.183594 458.996094 457.574219 C 458.332031 455.960938 457.746094 454.324219 457.238281 452.65625 C 456.730469 450.988281 456.308594 449.300781 455.96875 447.589844 C 455.628906 445.882812 455.375 444.160156 455.203125 442.425781 C 455.03125 440.691406 454.945312 438.953125 454.945312 437.207031 C 454.945312 435.464844 455.03125 433.726562 455.203125 431.992188 C 455.375 430.257812 455.628906 428.535156 455.96875 426.828125 C 456.308594 425.117188 456.730469 423.429688 457.238281 421.761719 C 457.746094 420.09375 458.332031 418.453125 458.996094 416.84375 C 459.664062 415.234375 460.410156 413.660156 461.230469 412.125 C 462.050781 410.585938 462.945312 409.09375 463.914062 407.644531 C 464.882812 406.195312 465.921875 404.796875 467.027344 403.449219 C 468.132812 402.101562 469.300781 400.8125 470.53125 399.582031 C 471.765625 398.347656 473.054688 397.179688 474.402344 396.074219 C 475.75 394.96875 477.148438 393.929688 478.597656 392.960938 C 480.046875 391.996094 481.539062 391.101562 483.074219 390.277344 C 484.613281 389.457031 486.1875 388.710938 487.796875 388.046875 C 489.40625 387.378906 491.046875 386.792969 492.714844 386.285156 C 494.382812 385.78125 496.070312 385.355469 497.78125 385.015625 C 499.488281 384.675781 501.210938 384.421875 502.945312 384.25 C 504.679688 384.078125 506.417969 383.996094 508.160156 383.996094 Z M 295.304688 242.089844 C 297.046875 242.089844 298.785156 242.175781 300.519531 242.347656 C 302.253906 242.515625 303.976562 242.773438 305.6875 243.113281 C 307.394531 243.453125 309.085938 243.875 310.75 244.382812 C 312.417969 244.886719 314.058594 245.472656 315.667969 246.140625 C 317.277344 246.808594 318.851562 247.550781 320.390625 248.375 C 321.925781 249.195312 323.417969 250.089844 324.867188 251.058594 C 326.316406 252.027344 327.714844 253.0625 329.0625 254.167969 C 330.410156 255.273438 331.699219 256.445312 332.933594 257.675781 C 334.164062 258.910156 335.335938 260.199219 336.441406 261.546875 C 337.546875 262.894531 338.582031 264.292969 339.550781 265.738281 C 340.519531 267.1875 341.414062 268.683594 342.234375 270.21875 C 343.058594 271.757812 343.800781 273.332031 344.46875 274.941406 C 345.136719 276.550781 345.722656 278.1875 346.226562 279.855469 C 346.734375 281.523438 347.15625 283.214844 347.496094 284.921875 C 347.835938 286.632812 348.089844 288.355469 348.261719 290.089844 C 348.433594 291.824219 348.519531 293.5625 348.519531 295.304688 C 348.519531 297.046875 348.433594 298.785156 348.261719 300.519531 C 348.089844 302.253906 347.835938 303.976562 347.496094 305.6875 C 347.15625 307.394531 346.734375 309.082031 346.226562 310.75 C 345.722656 312.417969 345.136719 314.058594 344.46875 315.667969 C 343.800781 317.277344 343.058594 318.851562 342.234375 320.390625 C 341.414062 321.925781 340.519531 323.417969 339.550781 324.867188 C 338.582031 326.316406 337.546875 327.714844 336.441406 329.0625 C 335.335938 330.410156 334.164062 331.699219 332.933594 332.933594 C 331.699219 334.164062 330.410156 335.332031 329.0625 336.441406 C 327.714844 337.546875 326.316406 338.582031 324.867188 339.550781 C 323.417969 340.519531 321.925781 341.414062 320.390625 342.234375 C 318.851562 343.058594 317.277344 343.800781 315.667969 344.46875 C 314.058594 345.136719 312.417969 345.722656 310.75 346.226562 C 309.085938 346.734375 307.394531 347.15625 305.6875 347.496094 C 303.976562 347.835938 302.253906 348.089844 300.519531 348.261719 C 298.785156 348.433594 297.046875 348.519531 295.304688 348.519531 C 293.5625 348.519531 291.824219 348.433594 290.089844 348.261719 C 288.355469 348.089844 286.632812 347.835938 284.921875 347.496094 C 283.214844 347.15625 281.523438 346.734375 279.855469 346.226562 C 278.191406 345.722656 276.550781 345.136719 274.941406 344.46875 C 273.332031 343.800781 271.757812 343.054688 270.21875 342.234375 C 268.683594 341.414062 267.191406 340.519531 265.742188 339.550781 C 264.292969 338.582031 262.894531 337.546875 261.546875 336.441406 C 260.199219 335.332031 258.910156 334.164062 257.675781 332.933594 C 256.445312 331.699219 255.273438 330.410156 254.167969 329.0625 C 253.0625 327.714844 252.027344 326.316406 251.058594 324.867188 C 250.089844 323.417969 249.195312 321.925781 248.375 320.390625 C 247.550781 318.851562 246.808594 317.277344 246.140625 315.667969 C 245.472656 314.058594 244.886719 312.417969 244.382812 310.75 C 243.875 309.082031 243.453125 307.394531 243.113281 305.6875 C 242.773438 303.976562 242.515625 302.253906 242.347656 300.519531 C 242.175781 298.785156 242.089844 297.046875 242.089844 295.304688 C 242.089844 293.5625 242.175781 291.824219 242.347656 290.089844 C 242.515625 288.355469 242.773438 286.632812 243.113281 284.921875 C 243.453125 283.214844 243.875 281.523438 244.382812 279.855469 C 244.886719 278.1875 245.472656 276.550781 246.140625 274.941406 C 246.808594 273.332031 247.550781 271.757812 248.375 270.21875 C 249.195312 268.683594 250.089844 267.1875 251.058594 265.742188 C 252.027344 264.292969 253.0625 262.894531 254.167969 261.546875 C 255.273438 260.199219 256.445312 258.910156 257.675781 257.675781 C 258.910156 256.445312 260.199219 255.273438 261.546875 254.167969 C 262.894531 253.0625 264.292969 252.027344 265.742188 251.058594 C 267.191406 250.089844 268.683594 249.195312 270.21875 248.375 C 271.757812 247.550781 273.332031 246.808594 274.941406 246.140625 C 276.550781 245.472656 278.191406 244.886719 279.855469 244.382812 C 281.523438 243.875 283.214844 243.453125 284.921875 243.113281 C 286.632812 242.773438 288.355469 242.515625 290.089844 242.347656 C 291.824219 242.175781 293.5625 242.089844 295.304688 242.089844 Z M 295.304688 242.089844 " fill-opacity="1" fill-rule="nonzero"/></svg>