<svg xmlns="http://www.w3.org/2000/svg" xmlns:xlink="http://www.w3.org/1999/xlink" width="1024" zoomAndPan="magnify" viewBox="0 0 768 767.999994" height="1024" preserveAspectRatio="xMidYMid meet" version="1.0"><path fill="#163172" d="M 384 335.894531 C 357.457031 335.894531 335.898438 357.457031 335.898438 383.996094 C 335.898438 410.539062 357.457031 432.097656 384 432.097656 C 410.539062 432.097656 432.101562 410.539062 432.101562 383.996094 C 432.101562 357.457031 410.539062 335.894531 384 335.894531 " fill-opacity="1" fill-rule="evenodd"/><path fill="#163172" d="M 145.929688 145.925781 C 82.746094 209.0625 47.28125 294.695312 47.28125 383.996094 C 47.28125 473.296875 82.746094 558.933594 145.929688 622.066406 C 155.277344 631.507812 170.542969 631.507812 179.890625 622.066406 C 189.285156 612.71875 189.285156 597.453125 179.890625 588.105469 C 125.777344 533.941406 95.382812 460.519531 95.382812 383.996094 C 95.382812 307.472656 125.777344 234.050781 179.890625 179.890625 C 189.285156 170.542969 189.285156 155.273438 179.890625 145.925781 C 170.542969 136.484375 155.277344 136.484375 145.929688 145.925781 " fill-opacity="1" fill-rule="evenodd"/><path fill="#163172" d="M 213.949219 213.945312 C 168.804688 259.042969 143.484375 320.203125 143.484375 383.996094 C 143.484375 447.789062 168.804688 508.949219 213.949219 554.046875 C 223.296875 563.441406 238.5625 563.441406 247.957031 554.046875 C 257.355469 544.699219 257.355469 529.433594 247.957031 520.039062 C 211.882812 483.960938 191.589844 435.011719 191.589844 383.996094 C 191.589844 332.980469 211.882812 284.035156 247.957031 247.957031 C 257.355469 238.5625 257.355469 223.292969 247.957031 213.945312 C 238.5625 204.550781 223.296875 204.550781 213.949219 213.945312 " fill-opacity="1" fill-rule="evenodd"/><path fill="#163172" d="M 281.96875 281.96875 C 254.910156 309.023438 239.691406 345.710938 239.691406 383.996094 C 239.691406 422.28125 254.910156 458.96875 281.96875 486.027344 C 291.316406 495.421875 306.585938 495.421875 315.980469 486.027344 C 325.375 476.679688 325.375 461.414062 315.980469 452.015625 C 297.941406 433.980469 287.792969 409.503906 287.792969 383.996094 C 287.792969 358.488281 297.941406 334.015625 315.980469 315.976562 C 325.375 306.582031 325.375 291.316406 315.980469 281.96875 C 306.585938 272.570312 291.316406 272.570312 281.96875 281.96875 " fill-opacity="1" fill-rule="evenodd"/><path fill="#163172" d="M 588.105469 179.890625 C 642.222656 234.050781 672.613281 307.472656 672.613281 383.996094 C 672.613281 460.519531 642.222656 533.941406 588.105469 588.105469 C 578.710938 597.453125 578.710938 612.71875 588.105469 622.066406 C 597.453125 631.507812 612.722656 631.507812 622.070312 622.066406 C 685.25 558.933594 720.71875 473.296875 720.71875 383.996094 C 720.71875 294.695312 685.25 209.0625 622.070312 145.925781 C 612.722656 136.484375 597.453125 136.484375 588.105469 145.925781 C 578.710938 155.273438 578.710938 170.542969 588.105469 179.890625 " fill-opacity="1" fill-rule="evenodd"/><path fill="#163172" d="M 520.039062 247.957031 C 556.117188 284.035156 576.410156 332.980469 576.410156 383.996094 C 576.410156 435.011719 556.117188 483.960938 520.039062 520.039062 C 510.644531 529.433594 510.644531 544.699219 520.039062 554.046875 C 529.433594 563.441406 544.703125 563.441406 554.050781 554.046875 C 599.191406 508.949219 624.511719 447.789062 624.511719 383.996094 C 624.511719 320.203125 599.191406 259.042969 554.050781 213.945312 C 544.703125 204.550781 529.433594 204.550781 520.039062 213.945312 C 510.644531 223.292969 510.644531 238.5625 520.039062 247.957031 " fill-opacity="1" fill-rule="evenodd"/><path fill="#163172" d="M 452.019531 315.976562 C 470.058594 334.015625 480.203125 358.488281 480.203125 383.996094 C 480.203125 409.503906 470.058594 433.980469 452.019531 452.015625 C 442.625 461.414062 442.625 476.679688 452.019531 486.027344 C 461.414062 495.421875 476.679688 495.421875 486.03125 486.027344 C 513.085938 458.96875 528.308594 422.28125 528.308594 383.996094 C 528.308594 345.710938 513.085938 309.023438 486.03125 281.96875 C 476.679688 272.570312 461.414062 272.570312 452.019531 281.96875 C 442.625 291.316406 442.625 306.582031 452.019531 315.976562 " fill-opacity="1" fill-rule="evenodd"/></svg>