<svg xmlns="http://www.w3.org/2000/svg" xmlns:xlink="http://www.w3.org/1999/xlink" width="1024" zoomAndPan="magnify" viewBox="0 0 768 767.999994" height="1024" preserveAspectRatio="xMidYMid meet" version="1.0"><defs><clipPath id="5a37eaf296"><path d="M 166 34 L 608.441406 34 L 608.441406 734 L 166 734 Z M 166 34 " clip-rule="nonzero"/></clipPath></defs><g clip-path="url(#5a37eaf296)"><path fill="#163172" d="M 320.554688 598.238281 C 319.890625 593.78125 318.414062 589.941406 316.914062 586.121094 C 311.613281 572.609375 305.34375 559.527344 299.1875 546.394531 C 290.25 527.324219 282.046875 507.894531 272.125 489.292969 C 259.964844 466.492188 245.992188 444.78125 231.992188 423.09375 C 218.738281 402.554688 205.6875 381.898438 195.03125 359.84375 C 184.507812 338.058594 175.457031 315.695312 170.664062 291.902344 C 159.175781 234.921875 169.71875 182.371094 203.015625 134.535156 C 228.898438 97.351562 263.824219 71.914062 305.632812 55.40625 C 327.03125 46.957031 349.234375 41.496094 371.921875 37.9375 C 386.125 35.710938 400.367188 33.96875 414.800781 34.183594 C 436.660156 34.507812 457.390625 39.246094 477.195312 48.667969 C 506.25 62.492188 530.757812 81.992188 551.714844 106.246094 C 562.726562 118.992188 573.144531 132.113281 581.828125 146.601562 C 595.394531 169.246094 603.535156 193.667969 606.328125 219.863281 C 608.75 242.585938 608.703125 265.328125 606.324219 288.0625 C 603.449219 315.5625 595.476562 341.542969 583.222656 366.28125 C 565.195312 402.675781 544.003906 437.015625 518.601562 468.800781 C 498.472656 493.988281 478.933594 519.648438 460.054688 545.796875 C 452.066406 556.859375 445.839844 568.945312 439.921875 581.191406 C 437.914062 585.347656 436.851562 589.804688 436.089844 594.34375 C 435.796875 596.109375 435.792969 597.441406 437.820312 598.433594 C 442.011719 600.480469 443.925781 604.21875 444.523438 608.726562 C 445.484375 615.925781 444.292969 623.066406 443.851562 630.21875 C 443.398438 637.527344 442.988281 644.871094 442.234375 652.125 C 441.359375 660.554688 439.820312 669.046875 435.867188 676.808594 C 433 682.433594 428.800781 686.386719 422.457031 687.574219 C 419.753906 688.082031 418.191406 689.40625 417.488281 692.105469 C 416.417969 696.238281 415.113281 700.3125 413.894531 704.410156 C 412.9375 707.628906 412.039062 710.867188 410.972656 714.046875 C 407.210938 725.292969 399.015625 730.941406 387.570312 732.457031 C 376.476562 733.929688 365.300781 733.964844 354.15625 733.941406 C 344.441406 733.921875 337.265625 729.210938 333.121094 720.289062 C 329.128906 711.6875 327.445312 702.558594 327.550781 693.132812 C 327.582031 690.34375 327.066406 688.757812 324.152344 687.714844 C 317.832031 685.445312 314.058594 680.558594 311.972656 674.289062 C 309.601562 667.164062 308.242188 659.808594 307.054688 652.414062 C 305.503906 642.753906 304.230469 633.058594 303.59375 623.292969 C 303.21875 617.59375 303.730469 612.019531 306.109375 606.699219 C 308.578125 601.199219 312.15625 597.5625 318.753906 598.445312 C 319.1875 598.503906 319.652344 598.347656 320.554688 598.238281 Z M 370.78125 367.617188 C 371.796875 366.9375 371.523438 365.941406 371.5625 365.085938 C 372.253906 349.964844 373.476562 334.886719 374.941406 319.824219 C 375.285156 316.257812 375.097656 316.09375 371.230469 316.023438 C 362.828125 315.863281 354.4375 315.839844 346.035156 315.210938 C 331.132812 314.097656 319.351562 307.175781 309.246094 296.757812 C 306.53125 293.957031 304.710938 290.609375 304.0625 286.722656 C 303.140625 281.234375 306.183594 276.683594 311.582031 275.367188 C 314.296875 274.703125 317.03125 274.8125 319.785156 275.089844 C 331.125 276.238281 341.910156 279.476562 352.484375 283.574219 C 361.566406 287.09375 369.050781 292.628906 374.660156 300.648438 C 375.085938 301.257812 375.3125 302.480469 376.820312 301.894531 C 378.589844 287.433594 381.449219 273.089844 385.710938 259.058594 C 386.351562 256.953125 385.507812 256.207031 383.992188 255.625 C 381.285156 254.589844 378.53125 253.679688 375.789062 252.742188 C 368.121094 250.117188 360.566406 247.234375 353.847656 242.5625 C 348.832031 239.074219 344.90625 234.636719 342.964844 228.769531 C 340.933594 222.648438 341.726562 216.816406 346.507812 212.265625 C 351.003906 207.988281 356.289062 208.851562 361.484375 211.160156 C 362.042969 211.410156 362.597656 211.65625 363.148438 211.925781 C 375.410156 217.910156 383.566406 227.660156 388.855469 240.027344 C 389.351562 241.1875 389.484375 242.546875 390.53125 243.421875 C 391.523438 242.75 391.632812 241.789062 391.988281 240.957031 C 394.726562 234.492188 397.304688 227.949219 400.292969 221.597656 C 402.019531 217.929688 403.320312 214.40625 402.703125 210.242188 C 402.394531 208.171875 402.660156 205.945312 403.035156 203.855469 C 405.753906 188.699219 412.273438 175.472656 423.3125 164.605469 C 427.042969 160.929688 431.265625 157.9375 436.070312 155.800781 C 438.898438 154.542969 441.847656 153.789062 444.960938 153.980469 C 454.863281 154.589844 461.542969 164.015625 459.363281 174.375 C 457.6875 182.320312 453.191406 188.59375 447.296875 193.945312 C 439.476562 201.042969 431.128906 207.484375 422.410156 213.4375 C 418.632812 216.015625 414.804688 218.714844 410.433594 220.078125 C 408.339844 220.730469 407.425781 221.820312 406.667969 223.519531 C 400.433594 237.46875 394.449219 251.507812 390.558594 266.335938 C 390.144531 267.902344 389.34375 269.4375 389.828125 271.40625 C 392.53125 270.230469 394.246094 268.015625 396.4375 266.460938 C 410.867188 256.230469 426.964844 249.921875 444.144531 246.191406 C 446.671875 245.644531 449.269531 245.363281 451.894531 245.679688 C 459.691406 246.632812 463.847656 251.511719 463.546875 259.382812 C 463.429688 262.546875 462.308594 265.34375 460.554688 267.914062 C 458.550781 270.839844 456.058594 273.292969 453.25 275.457031 C 447.632812 279.78125 441.246094 282.699219 434.90625 285.738281 C 420.046875 292.855469 404.589844 295.914062 388.167969 293.015625 C 384.960938 292.449219 384.917969 292.597656 384.4375 295.734375 C 382.417969 308.886719 381.429688 322.148438 380.191406 335.382812 C 380.140625 335.894531 379.945312 336.601562 380.738281 336.835938 C 381.035156 336.726562 381.359375 336.691406 381.5625 336.515625 C 397.398438 322.710938 416.328125 316.65625 436.804688 314.582031 C 439.988281 314.257812 443.238281 314.484375 446.25 315.851562 C 450.472656 317.769531 452.289062 321.566406 451.078125 326.015625 C 450.34375 328.722656 448.851562 331.023438 447.023438 333.121094 C 443.136719 337.582031 438.28125 340.714844 433.0625 343.347656 C 416.113281 351.890625 398.171875 355.109375 379.304688 353.320312 C 377.863281 361.027344 377.402344 383.683594 378.691406 387.953125 C 392.421875 375.730469 408.691406 369.367188 426.5625 366.75 C 432.320312 365.90625 438.160156 365.457031 443.824219 367.320312 C 451.9375 369.988281 453.53125 376.820312 447.523438 382.820312 C 444.4375 385.898438 440.679688 387.90625 436.648438 389.453125 C 426.316406 393.414062 415.621094 395.734375 404.605469 396.765625 C 396.980469 397.480469 389.335938 397.425781 381.707031 397.882812 C 378 398.105469 377.929688 398.21875 378 401.84375 C 378.25 414.679688 378.566406 427.519531 378.839844 440.355469 C 379.511719 472.304688 379.46875 504.257812 379.082031 536.210938 C 378.914062 550.121094 378.644531 564.023438 377.21875 577.882812 C 376.566406 584.246094 375.394531 590.507812 373.867188 596.597656 C 374.917969 597.375 375.832031 596.984375 376.722656 596.910156 C 385.867188 596.148438 395.015625 595.585938 404.203125 595.773438 C 411.691406 595.925781 419.183594 595.796875 426.671875 595.925781 C 428.578125 595.957031 429.328125 595.433594 429.558594 593.460938 C 430.183594 588.121094 431.65625 582.976562 433.996094 578.125 C 440.109375 565.457031 446.613281 553 454.882812 541.570312 C 473.875 515.3125 493.519531 489.535156 513.730469 464.21875 C 539.3125 432.171875 560.605469 397.523438 578.46875 360.695312 C 589.429688 338.105469 596.59375 314.421875 599.394531 289.398438 C 601.90625 266.96875 602.046875 244.542969 599.835938 222.117188 C 597.625 199.691406 591.46875 178.40625 580.820312 158.441406 C 571.042969 140.097656 558.402344 123.898438 544.710938 108.375 C 525.367188 86.4375 502.890625 68.761719 476.601562 55.78125 C 456.472656 45.847656 435.332031 40.921875 412.984375 40.789062 C 399.949219 40.714844 387.066406 42.371094 374.21875 44.34375 C 349.6875 48.117188 325.746094 54.109375 302.816406 63.757812 C 267.351562 78.683594 237 100.367188 213.660156 131.316406 C 175.753906 181.585938 164.246094 237.386719 179.070312 298.476562 C 185.375 324.449219 196.191406 348.726562 208.890625 372.167969 C 219.816406 392.339844 232.453125 411.464844 244.839844 430.742188 C 262.105469 457.617188 278.6875 484.875 291.71875 514.136719 C 296.875 525.714844 302.355469 537.144531 307.625 548.667969 C 314.730469 564.210938 322.4375 579.523438 326.53125 596.257812 C 326.980469 598.09375 327.929688 598.734375 329.71875 598.773438 C 341.335938 599.011719 352.949219 599.371094 364.554688 598.390625 C 366.402344 598.234375 366.914062 597.449219 367.523438 595.761719 C 369.515625 590.21875 370.210938 584.472656 370.726562 578.695312 C 371.96875 564.675781 372.179688 550.613281 372.453125 536.550781 C 373.378906 488.230469 371.972656 439.933594 371.210938 391.632812 C 371.183594 389.949219 371.191406 388.269531 371.144531 386.589844 C 371 381.535156 369.769531 380.097656 364.972656 379.402344 C 363.761719 379.226562 362.539062 379.152344 361.320312 379.042969 C 350.96875 378.089844 340.632812 376.984375 330.695312 373.699219 C 323.425781 371.296875 316.347656 368.40625 310.171875 363.773438 C 304.382812 359.429688 301.789062 353.226562 303.441406 348.410156 C 305.160156 343.40625 310.816406 339.984375 317.824219 339.636719 C 321.847656 339.4375 325.726562 340.082031 329.570312 341.207031 C 345.449219 345.859375 359.699219 353.046875 369.761719 366.820312 C 370.003906 367.152344 370.429688 367.351562 370.78125 367.617188 Z M 351.710938 659.101562 C 357.445312 658.085938 363.921875 658.667969 370.242188 657.847656 C 379.769531 656.605469 389.347656 656.230469 398.898438 655.574219 C 406.496094 655.050781 414.097656 654.773438 421.613281 653.496094 C 425.363281 652.859375 429.085938 652.078125 432.820312 651.351562 C 434.878906 650.949219 435.9375 649.898438 435.851562 647.582031 C 435.6875 643.160156 436.226562 638.765625 436.691406 634.363281 C 437.085938 630.652344 436.773438 630.503906 432.972656 630.546875 C 427.488281 630.601562 422.011719 630.949219 416.539062 631.230469 C 409.84375 631.578125 403.167969 632.25 396.46875 632.574219 C 392.078125 632.789062 387.644531 633.050781 383.261719 633.503906 C 373.550781 634.515625 363.804688 634.644531 354.070312 634.96875 C 350.296875 635.09375 346.515625 634.175781 342.683594 634.238281 C 335.359375 634.367188 328.101562 633.5 320.84375 632.585938 C 318.433594 632.28125 315.964844 632.425781 313.519531 632.34375 C 311.71875 632.285156 311.023438 633.175781 311.273438 634.902344 C 312.175781 641.070312 313.042969 647.246094 314.007812 653.402344 C 314.253906 654.988281 315.03125 655.992188 316.957031 656.300781 C 328.265625 658.109375 339.714844 657.984375 351.710938 659.101562 Z M 355.550781 627.867188 C 366.222656 628.328125 376.746094 627.503906 387.246094 626.691406 C 400.789062 625.644531 414.308594 624.285156 427.910156 624.042969 C 430.496094 623.996094 433.082031 623.632812 435.667969 623.441406 C 436.910156 623.351562 437.746094 622.804688 437.707031 621.492188 C 437.59375 617.6875 438.609375 613.933594 437.898438 610.085938 C 437.085938 605.671875 435.335938 603.632812 430.816406 603.113281 C 428.09375 602.796875 425.324219 602.828125 422.578125 602.796875 C 417.535156 602.738281 412.46875 603.074219 407.460938 602.671875 C 397.503906 601.867188 387.628906 602.738281 377.757812 603.648438 C 369.707031 604.394531 361.683594 605.539062 353.59375 605.660156 C 342.453125 605.828125 331.308594 605.820312 320.164062 605.167969 C 313.339844 604.765625 312.066406 607.277344 310.835938 611.71875 C 309.792969 615.488281 310.113281 619.289062 310.074219 623.097656 C 310.050781 625.277344 311.035156 625.933594 313.121094 626.03125 C 327.300781 626.707031 341.4375 628.3125 355.550781 627.867188 Z M 411.203125 689.484375 C 406.019531 689.164062 401.195312 689.546875 396.359375 689.90625 C 384.761719 690.769531 373.132812 690.082031 361.523438 690.601562 C 352.980469 690.984375 344.425781 691.734375 335.890625 690.46875 C 334.058594 690.195312 333.351562 690.878906 333.453125 692.664062 C 333.976562 701.730469 335.394531 710.582031 339.761719 718.714844 C 342.699219 724.175781 347.359375 727.1875 353.472656 727.171875 C 364.46875 727.140625 375.488281 727.34375 386.4375 725.921875 C 395.769531 724.710938 402.382812 720.199219 405.050781 710.785156 C 407.039062 703.761719 409.097656 696.757812 411.203125 689.484375 Z M 316.15625 662.988281 C 316.339844 666.34375 317.414062 669.015625 318.203125 671.769531 C 320.050781 678.210938 324.511719 681.675781 330.855469 682.914062 C 338.683594 684.441406 346.550781 684.554688 354.539062 684.152344 C 370.695312 683.339844 386.902344 684.003906 403.070312 682.9375 C 407.792969 682.625 412.527344 682.445312 417.21875 681.867188 C 420.707031 681.4375 424.375 680.855469 426.820312 678.070312 C 431.835938 672.359375 433.410156 665.351562 434.21875 657.703125 C 432.589844 657.949219 431.535156 658.039062 430.515625 658.269531 C 422.320312 660.109375 414.078125 661.445312 405.671875 662.074219 C 399.730469 662.523438 393.777344 662.492188 387.847656 663.042969 C 379.039062 663.863281 370.234375 664.820312 361.40625 665.261719 C 346.4375 666.015625 331.511719 665.238281 316.15625 662.988281 Z M 400.410156 287.40625 C 404.542969 287.769531 408.488281 286.964844 412.3125 286.179688 C 425.144531 283.558594 436.933594 278.25 447.773438 270.933594 C 451.449219 268.453125 454.742188 265.429688 456.375 261.089844 C 458.105469 256.503906 455.65625 252.679688 450.855469 252.523438 C 448.882812 252.460938 446.828125 252.375 444.929688 252.816406 C 427.101562 256.96875 410.335938 263.554688 395.828125 275.03125 C 392.964844 277.296875 390.304688 279.851562 388.34375 283.007812 C 387.015625 285.140625 387.324219 286.273438 389.648438 286.386719 C 393.304688 286.570312 396.835938 287.921875 400.410156 287.40625 Z M 408.558594 208.820312 C 408.464844 211.542969 408.558594 212.496094 409.082031 212.765625 C 410.480469 213.480469 411.363281 212.28125 412.347656 211.710938 C 424.289062 204.8125 435 196.261719 445.007812 186.832031 C 449.207031 182.878906 451.964844 177.941406 452.964844 172.203125 C 454.289062 164.609375 447.921875 159.035156 440.566406 161.257812 C 437.460938 162.199219 434.75 163.894531 432.171875 165.824219 C 424.535156 171.535156 419.222656 179.121094 414.996094 187.492188 C 411.542969 194.335938 409.34375 201.621094 408.558594 208.820312 Z M 372.535156 309.429688 C 368.292969 301.414062 362.75 295.933594 355.476562 292.308594 C 346.410156 287.789062 336.785156 284.851562 326.859375 282.886719 C 323.105469 282.144531 319.328125 281.628906 315.492188 281.765625 C 311.152344 281.917969 309.800781 283.964844 311.40625 288.042969 C 311.792969 289.023438 312.339844 290.007812 313.042969 290.78125 C 319.707031 298.125 327.1875 304.316406 337.066406 306.796875 C 348.441406 309.648438 360.054688 309.410156 372.535156 309.429688 Z M 390.523438 347.054688 C 395.621094 347.347656 401 346.195312 406.382812 345.253906 C 417.476562 343.3125 427.761719 339.183594 437.167969 333.007812 C 439.824219 331.261719 442.242188 329.027344 443.636719 326.035156 C 444.945312 323.234375 444.011719 321.578125 440.910156 321.414062 C 437.566406 321.242188 434.191406 321.101562 430.867188 321.714844 C 422.457031 323.265625 414.277344 325.632812 406.363281 328.878906 C 399.429688 331.726562 392.777344 335.082031 386.980469 339.917969 C 385.695312 340.988281 384.394531 342.105469 383.386719 343.417969 C 381.847656 345.425781 382.546875 346.855469 385.054688 347.035156 C 386.726562 347.152344 388.410156 347.054688 390.523438 347.054688 Z M 365.640625 372.503906 C 363.410156 368.636719 358.867188 363.683594 355.421875 361 C 345.960938 353.621094 335.042969 349.457031 323.574219 346.550781 C 320.097656 345.667969 316.59375 345.976562 313.257812 347.414062 C 310 348.820312 309.117188 351.316406 310.785156 354.457031 C 311.882812 356.527344 313.519531 358.109375 315.535156 359.292969 C 322 363.089844 328.710938 366.304688 336.007812 368.214844 C 345.601562 370.726562 355.410156 371.714844 365.640625 372.503906 Z M 348.683594 223.707031 C 348.585938 225.402344 349.273438 227.089844 350.128906 228.726562 C 352.164062 232.617188 355.167969 235.605469 358.859375 237.898438 C 365.914062 242.277344 373.605469 245.171875 381.519531 247.53125 C 382.371094 247.785156 383.332031 248.410156 384.085938 247.707031 C 385.015625 246.835938 384.414062 245.710938 384.042969 244.75 C 379.128906 232.105469 370.875 222.53125 358.273438 217.058594 C 352.453125 214.53125 348.671875 217.136719 348.683594 223.707031 Z M 384.496094 391.082031 C 394.921875 391.046875 404.183594 390.417969 413.34375 388.90625 C 421.460938 387.566406 429.433594 385.515625 436.9375 381.996094 C 439.289062 380.890625 441.59375 379.671875 443.261719 377.589844 C 444.601562 375.921875 444.40625 374.863281 442.519531 374.003906 C 440.5625 373.113281 438.460938 372.796875 436.292969 372.792969 C 424.996094 372.792969 414.296875 375.683594 403.882812 379.691406 C 397.195312 382.265625 391.019531 385.839844 384.496094 391.082031 Z M 370.78125 367.617188 C 370.429688 367.351562 370.003906 367.152344 369.761719 366.820312 C 359.699219 353.046875 345.449219 345.859375 329.570312 341.207031 C 325.726562 340.082031 321.847656 339.4375 317.824219 339.636719 C 310.816406 339.984375 305.160156 343.40625 303.441406 348.410156 C 301.789062 353.226562 304.382812 359.429688 310.171875 363.773438 C 316.347656 368.40625 323.425781 371.296875 330.695312 373.699219 C 340.632812 376.984375 350.96875 378.089844 361.320312 379.042969 C 362.539062 379.152344 363.761719 379.226562 364.972656 379.402344 C 369.769531 380.097656 371 381.535156 371.144531 386.589844 C 371.191406 388.269531 371.183594 389.949219 371.210938 391.632812 C 371.972656 439.933594 373.378906 488.230469 372.453125 536.550781 C 372.179688 550.613281 371.96875 564.675781 370.726562 578.695312 C 370.210938 584.472656 369.515625 590.21875 367.523438 595.761719 C 366.914062 597.449219 366.402344 598.234375 364.554688 598.390625 C 352.949219 599.371094 341.335938 599.011719 329.71875 598.773438 C 327.929688 598.734375 326.980469 598.09375 326.53125 596.257812 C 322.4375 579.523438 314.730469 564.210938 307.625 548.667969 C 302.355469 537.144531 296.875 525.714844 291.71875 514.136719 C 278.6875 484.875 262.105469 457.617188 244.839844 430.742188 C 232.453125 411.464844 219.816406 392.339844 208.890625 372.167969 C 196.191406 348.726562 185.375 324.449219 179.070312 298.476562 C 164.246094 237.386719 175.753906 181.585938 213.660156 131.316406 C 237 100.367188 267.351562 78.683594 302.816406 63.757812 C 325.746094 54.109375 349.6875 48.117188 374.21875 44.34375 C 387.066406 42.371094 399.949219 40.714844 412.984375 40.789062 C 435.332031 40.921875 456.472656 45.847656 476.601562 55.78125 C 502.890625 68.761719 525.367188 86.441406 544.710938 108.375 C 558.402344 123.898438 571.042969 140.097656 580.820312 158.441406 C 591.46875 178.40625 597.625 199.691406 599.835938 222.117188 C 602.046875 244.542969 601.90625 266.96875 599.394531 289.398438 C 596.59375 314.421875 589.429688 338.105469 578.46875 360.695312 C 560.605469 397.523438 539.3125 432.171875 513.730469 464.21875 C 493.519531 489.535156 473.875 515.3125 454.882812 541.570312 C 446.613281 553 440.109375 565.457031 433.996094 578.125 C 431.65625 582.976562 430.183594 588.121094 429.558594 593.460938 C 429.328125 595.433594 428.578125 595.957031 426.671875 595.925781 C 419.183594 595.796875 411.691406 595.925781 404.203125 595.773438 C 395.015625 595.585938 385.867188 596.148438 376.722656 596.910156 C 375.832031 596.984375 374.917969 597.375 373.867188 596.597656 C 375.394531 590.507812 376.566406 584.246094 377.21875 577.882812 C 378.644531 564.023438 378.914062 550.121094 379.082031 536.210938 C 379.46875 504.257812 379.511719 472.304688 378.839844 440.355469 C 378.566406 427.519531 378.25 414.679688 378 401.84375 C 377.929688 398.21875 378 398.105469 381.707031 397.882812 C 389.335938 397.425781 396.980469 397.480469 404.605469 396.765625 C 415.621094 395.734375 426.316406 393.414062 436.648438 389.453125 C 440.679688 387.90625 444.4375 385.898438 447.523438 382.820312 C 453.53125 376.820312 451.9375 369.988281 443.824219 367.320312 C 438.160156 365.457031 432.320312 365.90625 426.5625 366.75 C 408.691406 369.367188 392.421875 375.730469 378.691406 387.953125 C 377.402344 383.683594 377.863281 361.027344 379.304688 353.316406 C 398.171875 355.109375 416.113281 351.890625 433.0625 343.347656 C 438.28125 340.714844 443.136719 337.582031 447.023438 333.121094 C 448.851562 331.023438 450.34375 328.722656 451.078125 326.015625 C 452.289062 321.566406 450.472656 317.769531 446.25 315.851562 C 443.238281 314.484375 439.988281 314.257812 436.804688 314.582031 C 416.328125 316.65625 397.398438 322.710938 381.5625 336.515625 C 381.359375 336.691406 381.035156 336.726562 380.738281 336.835938 C 379.945312 336.601562 380.140625 335.894531 380.191406 335.382812 C 381.429688 322.148438 382.417969 308.886719 384.4375 295.734375 C 384.917969 292.597656 384.960938 292.449219 388.167969 293.015625 C 404.589844 295.914062 420.046875 292.855469 434.90625 285.738281 C 441.246094 282.699219 447.632812 279.78125 453.25 275.457031 C 456.058594 273.292969 458.550781 270.839844 460.554688 267.914062 C 462.308594 265.34375 463.429688 262.546875 463.546875 259.382812 C 463.847656 251.511719 459.691406 246.632812 451.894531 245.679688 C 449.269531 245.363281 446.671875 245.644531 444.144531 246.191406 C 426.964844 249.921875 410.867188 256.230469 396.4375 266.460938 C 394.246094 268.015625 392.53125 270.230469 389.828125 271.40625 C 389.34375 269.4375 390.144531 267.902344 390.558594 266.335938 C 394.449219 251.507812 400.433594 237.46875 406.667969 223.519531 C 407.425781 221.820312 408.339844 220.730469 410.433594 220.078125 C 414.804688 218.714844 418.632812 216.015625 422.410156 213.4375 C 431.128906 207.484375 439.476562 201.042969 447.296875 193.945312 C 453.191406 188.59375 457.6875 182.320312 459.363281 174.375 C 461.542969 164.015625 454.863281 154.589844 444.960938 153.980469 C 441.847656 153.789062 438.898438 154.542969 436.070312 155.800781 C 431.265625 157.9375 427.042969 160.929688 423.3125 164.605469 C 412.273438 175.472656 405.75 188.699219 403.035156 203.855469 C 402.660156 205.945312 402.394531 208.171875 402.703125 210.242188 C 403.320312 214.40625 402.019531 217.929688 400.292969 221.597656 C 397.304688 227.949219 394.726562 234.492188 391.988281 240.957031 C 391.632812 241.789062 391.523438 242.75 390.53125 243.421875 C 389.484375 242.546875 389.351562 241.1875 388.855469 240.027344 C 383.566406 227.660156 375.410156 217.910156 363.148438 211.925781 C 362.597656 211.65625 362.042969 211.410156 361.484375 211.160156 C 356.289062 208.851562 351.003906 207.988281 346.507812 212.265625 C 341.726562 216.816406 340.933594 222.648438 342.964844 228.769531 C 344.90625 234.636719 348.832031 239.074219 353.847656 242.5625 C 360.566406 247.234375 368.121094 250.117188 375.789062 252.742188 C 378.53125 253.679688 381.285156 254.589844 383.992188 255.625 C 385.507812 256.207031 386.351562 256.953125 385.710938 259.058594 C 381.449219 273.089844 378.589844 287.433594 376.820312 301.894531 C 375.3125 302.480469 375.085938 301.257812 374.660156 300.648438 C 369.050781 292.628906 361.566406 287.09375 352.484375 283.574219 C 341.910156 279.476562 331.125 276.238281 319.785156 275.089844 C 317.03125 274.8125 314.296875 274.703125 311.582031 275.367188 C 306.183594 276.683594 303.140625 281.234375 304.0625 286.722656 C 304.710938 290.609375 306.53125 293.957031 309.246094 296.757812 C 319.351562 307.175781 331.132812 314.097656 346.035156 315.210938 C 354.4375 315.839844 362.828125 315.863281 371.230469 316.023438 C 375.097656 316.09375 375.285156 316.257812 374.941406 319.824219 C 373.476562 334.886719 372.253906 349.964844 371.5625 365.085938 C 371.523438 365.941406 371.796875 366.9375 370.78125 367.617188 Z M 396.359375 689.90625 C 384.761719 690.769531 373.132812 690.082031 361.523438 690.601562 C 352.980469 690.984375 344.425781 691.734375 335.890625 690.46875 C 334.058594 690.195312 333.351562 690.878906 333.453125 692.664062 C 333.976562 701.730469 335.394531 710.582031 339.761719 718.714844 C 342.699219 724.175781 347.359375 727.1875 353.472656 727.171875 C 364.46875 727.140625 375.488281 727.34375 386.4375 725.921875 C 395.769531 724.710938 402.382812 720.199219 405.050781 710.785156 C 407.039062 703.761719 409.097656 696.757812 411.203125 689.484375 C 406.019531 689.164062 401.195312 689.546875 396.359375 689.90625 Z M 351.710938 659.101562 C 339.714844 657.984375 328.265625 658.109375 316.957031 656.300781 C 315.03125 655.992188 314.253906 654.988281 314.007812 653.402344 C 313.042969 647.246094 312.175781 641.070312 311.273438 634.902344 C 311.023438 633.175781 311.71875 632.285156 313.519531 632.34375 C 315.964844 632.425781 318.433594 632.28125 320.84375 632.585938 C 328.101562 633.5 335.359375 634.367188 342.683594 634.238281 C 346.515625 634.175781 350.296875 635.09375 354.070312 634.96875 C 363.804688 634.644531 373.550781 634.515625 383.261719 633.503906 C 387.644531 633.050781 392.078125 632.789062 396.46875 632.574219 C 403.167969 632.25 409.84375 631.578125 416.539062 631.230469 C 422.011719 630.949219 427.488281 630.601562 432.972656 630.546875 C 436.773438 630.503906 437.085938 630.652344 436.691406 634.363281 C 436.226562 638.765625 435.6875 643.160156 435.851562 647.582031 C 435.9375 649.898438 434.878906 650.949219 432.820312 651.351562 C 429.085938 652.078125 425.363281 652.859375 421.613281 653.496094 C 414.097656 654.773438 406.496094 655.050781 398.898438 655.574219 C 389.347656 656.230469 379.769531 656.605469 370.242188 657.847656 C 363.921875 658.667969 357.445312 658.085938 351.710938 659.101562 Z M 412.3125 286.179688 C 425.144531 283.558594 436.933594 278.25 447.773438 270.933594 C 451.449219 268.453125 454.742188 265.429688 456.375 261.089844 C 458.105469 256.503906 455.65625 252.679688 450.855469 252.523438 C 448.882812 252.460938 446.828125 252.375 444.929688 252.816406 C 427.101562 256.96875 410.335938 263.554688 395.828125 275.03125 C 392.964844 277.296875 390.304688 279.851562 388.34375 283.007812 C 387.015625 285.140625 387.324219 286.273438 389.648438 286.386719 C 393.304688 286.570312 396.835938 287.921875 400.410156 287.40625 C 404.542969 287.769531 408.488281 286.964844 412.3125 286.179688 Z M 406.382812 345.253906 C 417.476562 343.3125 427.761719 339.183594 437.167969 333.007812 C 439.824219 331.261719 442.242188 329.027344 443.636719 326.035156 C 444.945312 323.234375 444.011719 321.578125 440.910156 321.414062 C 437.566406 321.242188 434.191406 321.101562 430.867188 321.714844 C 422.457031 323.265625 414.277344 325.632812 406.363281 328.878906 C 399.429688 331.726562 392.777344 335.082031 386.980469 339.917969 C 385.695312 340.988281 384.394531 342.105469 383.386719 343.417969 C 381.847656 345.425781 382.546875 346.855469 385.054688 347.035156 C 386.726562 347.152344 388.410156 347.054688 390.523438 347.054688 C 395.621094 347.347656 401 346.195312 406.382812 345.253906 Z M 355.421875 361 C 345.960938 353.621094 335.042969 349.457031 323.574219 346.550781 C 320.097656 345.667969 316.59375 345.976562 313.257812 347.414062 C 310 348.820312 309.117188 351.316406 310.785156 354.457031 C 311.882812 356.527344 313.519531 358.109375 315.535156 359.292969 C 322 363.089844 328.710938 366.304688 336.007812 368.214844 C 345.601562 370.726562 355.410156 371.714844 365.640625 372.503906 C 363.410156 368.636719 358.867188 363.683594 355.421875 361 Z M 355.550781 627.867188 C 341.4375 628.3125 327.300781 626.707031 313.121094 626.03125 C 311.035156 625.933594 310.050781 625.277344 310.074219 623.097656 C 310.113281 619.289062 309.792969 615.488281 310.835938 611.71875 C 312.066406 607.277344 313.339844 604.765625 320.164062 605.167969 C 331.308594 605.820312 342.453125 605.828125 353.59375 605.660156 C 361.683594 605.539062 369.707031 604.394531 377.757812 603.648438 C 387.628906 602.738281 397.503906 601.867188 407.460938 602.671875 C 412.46875 603.074219 417.535156 602.738281 422.578125 602.796875 C 425.324219 602.828125 428.09375 602.796875 430.816406 603.113281 C 435.335938 603.632812 437.085938 605.671875 437.898438 610.085938 C 438.609375 613.933594 437.59375 617.6875 437.707031 621.492188 C 437.746094 622.804688 436.910156 623.351562 435.667969 623.441406 C 433.082031 623.632812 430.496094 623.996094 427.910156 624.042969 C 414.308594 624.285156 400.789062 625.644531 387.246094 626.691406 C 376.746094 627.503906 366.222656 628.328125 355.550781 627.867188 Z M 318.203125 671.769531 C 320.050781 678.210938 324.511719 681.675781 330.855469 682.914062 C 338.683594 684.441406 346.550781 684.554688 354.539062 684.152344 C 370.695312 683.339844 386.902344 684.003906 403.070312 682.9375 C 407.792969 682.625 412.527344 682.445312 417.21875 681.867188 C 420.707031 681.4375 424.375 680.855469 426.820312 678.070312 C 431.835938 672.359375 433.410156 665.351562 434.21875 657.703125 C 432.589844 657.949219 431.535156 658.039062 430.515625 658.269531 C 422.320312 660.109375 414.078125 661.445312 405.671875 662.074219 C 399.730469 662.523438 393.777344 662.492188 387.847656 663.042969 C 379.039062 663.863281 370.234375 664.820312 361.40625 665.261719 C 346.4375 666.015625 331.511719 665.238281 316.15625 662.988281 C 316.339844 666.34375 317.414062 669.015625 318.203125 671.769531 Z M 409.082031 212.765625 C 410.480469 213.480469 411.363281 212.28125 412.347656 211.710938 C 424.289062 204.8125 435 196.261719 445.007812 186.832031 C 449.207031 182.878906 451.964844 177.941406 452.964844 172.203125 C 454.289062 164.609375 447.921875 159.035156 440.566406 161.257812 C 437.460938 162.199219 434.75 163.894531 432.171875 165.824219 C 424.535156 171.535156 419.222656 179.121094 414.996094 187.492188 C 411.542969 194.335938 409.34375 201.621094 408.558594 208.820312 C 408.464844 211.542969 408.558594 212.496094 409.082031 212.765625 Z M 355.476562 292.308594 C 346.410156 287.789062 336.785156 284.851562 326.859375 282.886719 C 323.105469 282.144531 319.328125 281.628906 315.492188 281.765625 C 311.152344 281.917969 309.800781 283.964844 311.40625 288.042969 C 311.792969 289.023438 312.339844 290.007812 313.042969 290.78125 C 319.707031 298.125 327.1875 304.316406 337.066406 306.796875 C 348.441406 309.648438 360.054688 309.410156 372.535156 309.429688 C 368.292969 301.414062 362.75 295.933594 355.476562 292.308594 Z M 350.128906 228.726562 C 352.164062 232.617188 355.167969 235.605469 358.859375 237.898438 C 365.914062 242.277344 373.605469 245.171875 381.519531 247.53125 C 382.371094 247.785156 383.332031 248.410156 384.085938 247.707031 C 385.015625 246.835938 384.414062 245.710938 384.042969 244.75 C 379.128906 232.105469 370.875 222.53125 358.273438 217.058594 C 352.453125 214.53125 348.671875 217.136719 348.683594 223.707031 C 348.585938 225.402344 349.273438 227.089844 350.128906 228.726562 Z M 413.34375 388.90625 C 421.460938 387.566406 429.433594 385.515625 436.9375 381.996094 C 439.289062 380.890625 441.59375 379.671875 443.261719 377.589844 C 444.601562 375.921875 444.40625 374.863281 442.519531 374.003906 C 440.5625 373.113281 438.460938 372.796875 436.292969 372.792969 C 424.996094 372.792969 414.296875 375.683594 403.882812 379.691406 C 397.195312 382.265625 391.019531 385.839844 384.496094 391.082031 C 394.921875 391.046875 404.183594 390.417969 413.34375 388.90625 Z M 413.34375 388.90625 " fill-opacity="1" fill-rule="nonzero"/><path fill="#163172" d="M 320.554688 598.238281 C 319.890625 593.78125 318.414062 589.941406 316.914062 586.121094 C 311.613281 572.609375 305.34375 559.527344 299.1875 546.394531 C 290.25 527.324219 282.046875 507.894531 272.125 489.292969 C 259.964844 466.492188 245.992188 444.78125 231.992188 423.09375 C 218.738281 402.554688 205.6875 381.898438 195.03125 359.84375 C 184.507812 338.058594 175.457031 315.695312 170.664062 291.902344 C 159.175781 234.921875 169.71875 182.371094 203.015625 134.535156 C 228.898438 97.351562 263.824219 71.914062 305.632812 55.40625 C 327.03125 46.957031 349.234375 41.496094 371.921875 37.9375 C 386.125 35.710938 400.367188 33.96875 414.800781 34.183594 C 436.660156 34.507812 457.390625 39.246094 477.195312 48.667969 C 506.25 62.492188 530.757812 81.992188 551.714844 106.246094 C 562.726562 118.992188 573.144531 132.113281 581.828125 146.601562 C 595.394531 169.246094 603.535156 193.667969 606.328125 219.863281 C 608.75 242.585938 608.703125 265.328125 606.324219 288.0625 C 603.449219 315.5625 595.476562 341.542969 583.222656 366.28125 C 565.195312 402.675781 544.003906 437.015625 518.601562 468.800781 C 498.472656 493.988281 478.933594 519.648438 460.054688 545.796875 C 452.066406 556.859375 445.839844 568.945312 439.921875 581.191406 C 437.914062 585.347656 436.851562 589.804688 436.089844 594.34375 C 435.796875 596.109375 435.792969 597.441406 437.820312 598.433594 C 442.011719 600.480469 443.925781 604.21875 444.523438 608.726562 C 445.484375 615.925781 444.292969 623.066406 443.851562 630.21875 C 443.398438 637.527344 442.988281 644.871094 442.234375 652.125 C 441.359375 660.554688 439.820312 669.046875 435.867188 676.808594 C 433 682.433594 428.800781 686.386719 422.457031 687.574219 C 419.753906 688.082031 418.191406 689.40625 417.488281 692.105469 C 416.417969 696.238281 415.113281 700.3125 413.894531 704.410156 C 412.9375 707.628906 412.039062 710.867188 410.972656 714.046875 C 407.210938 725.292969 399.015625 730.941406 387.570312 732.457031 C 376.476562 733.929688 365.300781 733.964844 354.15625 733.941406 C 344.441406 733.921875 337.265625 729.210938 333.121094 720.289062 C 329.128906 711.6875 327.445312 702.558594 327.550781 693.132812 C 327.582031 690.34375 327.066406 688.757812 324.152344 687.714844 C 317.832031 685.445312 314.058594 680.558594 311.972656 674.289062 C 309.601562 667.164062 308.242188 659.808594 307.054688 652.414062 C 305.503906 642.753906 304.230469 633.058594 303.59375 623.292969 C 303.21875 617.59375 303.730469 612.019531 306.109375 606.699219 C 308.578125 601.199219 312.15625 597.5625 318.753906 598.445312 C 319.1875 598.503906 319.652344 598.347656 320.554688 598.238281 Z M 370.78125 367.617188 C 371.796875 366.9375 371.523438 365.941406 371.5625 365.085938 C 372.253906 349.964844 373.476562 334.886719 374.941406 319.824219 C 375.285156 316.257812 375.097656 316.09375 371.230469 316.023438 C 362.828125 315.863281 354.4375 315.839844 346.035156 315.210938 C 331.132812 314.097656 319.351562 307.175781 309.246094 296.757812 C 306.53125 293.957031 304.710938 290.609375 304.0625 286.722656 C 303.140625 281.234375 306.183594 276.683594 311.582031 275.367188 C 314.296875 274.703125 317.03125 274.8125 319.785156 275.089844 C 331.125 276.238281 341.910156 279.476562 352.484375 283.574219 C 361.566406 287.09375 369.050781 292.628906 374.660156 300.648438 C 375.085938 301.257812 375.3125 302.480469 376.820312 301.894531 C 378.589844 287.433594 381.449219 273.089844 385.710938 259.058594 C 386.351562 256.953125 385.507812 256.207031 383.992188 255.625 C 381.285156 254.589844 378.53125 253.679688 375.789062 252.742188 C 368.121094 250.117188 360.566406 247.234375 353.847656 242.5625 C 348.832031 239.074219 344.90625 234.636719 342.964844 228.769531 C 340.933594 222.648438 341.726562 216.816406 346.507812 212.265625 C 351.003906 207.988281 356.289062 208.851562 361.484375 211.160156 C 362.042969 211.410156 362.597656 211.65625 363.148438 211.925781 C 375.410156 217.910156 383.566406 227.660156 388.855469 240.027344 C 389.351562 241.1875 389.484375 242.546875 390.53125 243.421875 C 391.523438 242.75 391.632812 241.789062 391.988281 240.957031 C 394.726562 234.492188 397.304688 227.949219 400.292969 221.597656 C 402.019531 217.929688 403.320312 214.40625 402.703125 210.242188 C 402.394531 208.171875 402.660156 205.945312 403.035156 203.855469 C 405.753906 188.699219 412.273438 175.472656 423.3125 164.605469 C 427.042969 160.929688 431.265625 157.9375 436.070312 155.800781 C 438.898438 154.542969 441.847656 153.789062 444.960938 153.980469 C 454.863281 154.589844 461.542969 164.015625 459.363281 174.375 C 457.6875 182.320312 453.191406 188.59375 447.296875 193.945312 C 439.476562 201.042969 431.128906 207.484375 422.410156 213.4375 C 418.632812 216.015625 414.804688 218.714844 410.433594 220.078125 C 408.339844 220.730469 407.425781 221.820312 406.667969 223.519531 C 400.433594 237.46875 394.449219 251.507812 390.558594 266.335938 C 390.144531 267.902344 389.34375 269.4375 389.828125 271.40625 C 392.53125 270.230469 394.246094 268.015625 396.4375 266.460938 C 410.867188 256.230469 426.964844 249.921875 444.144531 246.191406 C 446.671875 245.644531 449.269531 245.363281 451.894531 245.679688 C 459.691406 246.632812 463.847656 251.511719 463.546875 259.382812 C 463.429688 262.546875 462.308594 265.34375 460.554688 267.914062 C 458.550781 270.839844 456.058594 273.292969 453.25 275.457031 C 447.632812 279.78125 441.246094 282.699219 434.90625 285.738281 C 420.046875 292.855469 404.589844 295.914062 388.167969 293.015625 C 384.960938 292.449219 384.917969 292.597656 384.4375 295.734375 C 382.417969 308.886719 381.429688 322.148438 380.191406 335.382812 C 380.140625 335.894531 379.945312 336.601562 380.738281 336.835938 C 381.035156 336.726562 381.359375 336.691406 381.5625 336.515625 C 397.398438 322.710938 416.328125 316.65625 436.804688 314.582031 C 439.988281 314.257812 443.238281 314.484375 446.25 315.851562 C 450.472656 317.769531 452.289062 321.566406 451.078125 326.015625 C 450.34375 328.722656 448.851562 331.023438 447.023438 333.121094 C 443.136719 337.582031 438.28125 340.714844 433.0625 343.347656 C 416.113281 351.890625 398.171875 355.109375 379.304688 353.320312 C 377.863281 361.027344 377.402344 383.683594 378.691406 387.953125 C 392.421875 375.730469 408.691406 369.367188 426.5625 366.75 C 432.320312 365.90625 438.160156 365.457031 443.824219 367.320312 C 451.9375 369.988281 453.53125 376.820312 447.523438 382.820312 C 444.4375 385.898438 440.679688 387.90625 436.648438 389.453125 C 426.316406 393.414062 415.621094 395.734375 404.605469 396.765625 C 396.980469 397.480469 389.335938 397.425781 381.707031 397.882812 C 378 398.105469 377.929688 398.21875 378 401.84375 C 378.25 414.679688 378.566406 427.519531 378.839844 440.355469 C 379.511719 472.304688 379.46875 504.257812 379.082031 536.210938 C 378.914062 550.121094 378.644531 564.023438 377.21875 577.882812 C 376.566406 584.246094 375.394531 590.507812 373.867188 596.597656 C 374.917969 597.375 375.832031 596.984375 376.722656 596.910156 C 385.867188 596.148438 395.015625 595.585938 404.203125 595.773438 C 411.691406 595.925781 419.183594 595.796875 426.671875 595.925781 C 428.578125 595.957031 429.328125 595.433594 429.558594 593.460938 C 430.183594 588.121094 431.65625 582.976562 433.996094 578.125 C 440.109375 565.457031 446.613281 553 454.882812 541.570312 C 473.875 515.3125 493.519531 489.535156 513.730469 464.21875 C 539.3125 432.171875 560.605469 397.523438 578.46875 360.695312 C 589.429688 338.105469 596.59375 314.421875 599.394531 289.398438 C 601.90625 266.96875 602.046875 244.542969 599.835938 222.117188 C 597.625 199.691406 591.46875 178.40625 580.820312 158.441406 C 571.042969 140.097656 558.402344 123.898438 544.710938 108.375 C 525.367188 86.4375 502.890625 68.761719 476.601562 55.78125 C 456.472656 45.847656 435.332031 40.921875 412.984375 40.789062 C 399.949219 40.714844 387.066406 42.371094 374.21875 44.34375 C 349.6875 48.117188 325.746094 54.109375 302.816406 63.757812 C 267.351562 78.683594 237 100.367188 213.660156 131.316406 C 175.753906 181.585938 164.246094 237.386719 179.070312 298.476562 C 185.375 324.449219 196.191406 348.726562 208.890625 372.167969 C 219.816406 392.339844 232.453125 411.464844 244.839844 430.742188 C 262.105469 457.617188 278.6875 484.875 291.71875 514.136719 C 296.875 525.714844 302.355469 537.144531 307.625 548.667969 C 314.730469 564.210938 322.4375 579.523438 326.53125 596.257812 C 326.980469 598.09375 327.929688 598.734375 329.71875 598.773438 C 341.335938 599.011719 352.949219 599.371094 364.554688 598.390625 C 366.402344 598.234375 366.914062 597.449219 367.523438 595.761719 C 369.515625 590.21875 370.210938 584.472656 370.726562 578.695312 C 371.96875 564.675781 372.179688 550.613281 372.453125 536.550781 C 373.378906 488.230469 371.972656 439.933594 371.210938 391.632812 C 371.183594 389.949219 371.191406 388.269531 371.144531 386.589844 C 371 381.535156 369.769531 380.097656 364.972656 379.402344 C 363.761719 379.226562 362.539062 379.152344 361.320312 379.042969 C 350.96875 378.089844 340.632812 376.984375 330.695312 373.699219 C 323.425781 371.296875 316.347656 368.40625 310.171875 363.773438 C 304.382812 359.429688 301.789062 353.226562 303.441406 348.410156 C 305.160156 343.40625 310.816406 339.984375 317.824219 339.636719 C 321.847656 339.4375 325.726562 340.082031 329.570312 341.207031 C 345.449219 345.859375 359.699219 353.046875 369.761719 366.820312 C 370.003906 367.152344 370.429688 367.351562 370.78125 367.617188 Z M 351.710938 659.101562 C 357.445312 658.085938 363.921875 658.667969 370.242188 657.847656 C 379.769531 656.605469 389.347656 656.230469 398.898438 655.574219 C 406.496094 655.050781 414.097656 654.773438 421.613281 653.496094 C 425.363281 652.859375 429.085938 652.078125 432.820312 651.351562 C 434.878906 650.949219 435.9375 649.898438 435.851562 647.582031 C 435.6875 643.160156 436.226562 638.765625 436.691406 634.363281 C 437.085938 630.652344 436.773438 630.503906 432.972656 630.546875 C 427.488281 630.601562 422.011719 630.949219 416.539062 631.230469 C 409.84375 631.578125 403.167969 632.25 396.46875 632.574219 C 392.078125 632.789062 387.644531 633.050781 383.261719 633.503906 C 373.550781 634.515625 363.804688 634.644531 354.070312 634.96875 C 350.296875 635.09375 346.515625 634.175781 342.683594 634.238281 C 335.359375 634.367188 328.101562 633.5 320.84375 632.585938 C 318.433594 632.28125 315.964844 632.425781 313.519531 632.34375 C 311.71875 632.285156 311.023438 633.175781 311.273438 634.902344 C 312.175781 641.070312 313.042969 647.246094 314.007812 653.402344 C 314.253906 654.988281 315.03125 655.992188 316.957031 656.300781 C 328.265625 658.109375 339.714844 657.984375 351.710938 659.101562 Z M 355.550781 627.867188 C 366.222656 628.328125 376.746094 627.503906 387.246094 626.691406 C 400.789062 625.644531 414.308594 624.285156 427.910156 624.042969 C 430.496094 623.996094 433.082031 623.632812 435.667969 623.441406 C 436.910156 623.351562 437.746094 622.804688 437.707031 621.492188 C 437.59375 617.6875 438.609375 613.933594 437.898438 610.085938 C 437.085938 605.671875 435.335938 603.632812 430.816406 603.113281 C 428.09375 602.796875 425.324219 602.828125 422.578125 602.796875 C 417.535156 602.738281 412.46875 603.074219 407.460938 602.671875 C 397.503906 601.867188 387.628906 602.738281 377.757812 603.648438 C 369.707031 604.394531 361.683594 605.539062 353.59375 605.660156 C 342.453125 605.828125 331.308594 605.820312 320.164062 605.167969 C 313.339844 604.765625 312.066406 607.277344 310.835938 611.71875 C 309.792969 615.488281 310.113281 619.289062 310.074219 623.097656 C 310.050781 625.277344 311.035156 625.933594 313.121094 626.03125 C 327.300781 626.707031 341.4375 628.3125 355.550781 627.867188 Z M 411.203125 689.484375 C 406.019531 689.164062 401.195312 689.546875 396.359375 689.90625 C 384.761719 690.769531 373.132812 690.082031 361.523438 690.601562 C 352.980469 690.984375 344.425781 691.734375 335.890625 690.46875 C 334.058594 690.195312 333.351562 690.878906 333.453125 692.664062 C 333.976562 701.730469 335.394531 710.582031 339.761719 718.714844 C 342.699219 724.175781 347.359375 727.1875 353.472656 727.171875 C 364.46875 727.140625 375.488281 727.34375 386.4375 725.921875 C 395.769531 724.710938 402.382812 720.199219 405.050781 710.785156 C 407.039062 703.761719 409.097656 696.757812 411.203125 689.484375 Z M 316.15625 662.988281 C 316.339844 666.34375 317.414062 669.015625 318.203125 671.769531 C 320.050781 678.210938 324.511719 681.675781 330.855469 682.914062 C 338.683594 684.441406 346.550781 684.554688 354.539062 684.152344 C 370.695312 683.339844 386.902344 684.003906 403.070312 682.9375 C 407.792969 682.625 412.527344 682.445312 417.21875 681.867188 C 420.707031 681.4375 424.375 680.855469 426.820312 678.070312 C 431.835938 672.359375 433.410156 665.351562 434.21875 657.703125 C 432.589844 657.949219 431.535156 658.039062 430.515625 658.269531 C 422.320312 660.109375 414.078125 661.445312 405.671875 662.074219 C 399.730469 662.523438 393.777344 662.492188 387.847656 663.042969 C 379.039062 663.863281 370.234375 664.820312 361.40625 665.261719 C 346.4375 666.015625 331.511719 665.238281 316.15625 662.988281 Z M 400.410156 287.40625 C 404.542969 287.769531 408.488281 286.964844 412.3125 286.179688 C 425.144531 283.558594 436.933594 278.25 447.773438 270.933594 C 451.449219 268.453125 454.742188 265.429688 456.375 261.089844 C 458.105469 256.503906 455.65625 252.679688 450.855469 252.523438 C 448.882812 252.460938 446.828125 252.375 444.929688 252.816406 C 427.101562 256.96875 410.335938 263.554688 395.828125 275.03125 C 392.964844 277.296875 390.304688 279.851562 388.34375 283.007812 C 387.015625 285.140625 387.324219 286.273438 389.648438 286.386719 C 393.304688 286.570312 396.835938 287.921875 400.410156 287.40625 Z M 408.558594 208.820312 C 408.464844 211.542969 408.558594 212.496094 409.082031 212.765625 C 410.480469 213.480469 411.363281 212.28125 412.347656 211.710938 C 424.289062 204.8125 435 196.261719 445.007812 186.832031 C 449.207031 182.878906 451.964844 177.941406 452.964844 172.203125 C 454.289062 164.609375 447.921875 159.035156 440.566406 161.257812 C 437.460938 162.199219 434.75 163.894531 432.171875 165.824219 C 424.535156 171.535156 419.222656 179.121094 414.996094 187.492188 C 411.542969 194.335938 409.34375 201.621094 408.558594 208.820312 Z M 372.535156 309.429688 C 368.292969 301.414062 362.75 295.933594 355.476562 292.308594 C 346.410156 287.789062 336.785156 284.851562 326.859375 282.886719 C 323.105469 282.144531 319.328125 281.628906 315.492188 281.765625 C 311.152344 281.917969 309.800781 283.964844 311.40625 288.042969 C 311.792969 289.023438 312.339844 290.007812 313.042969 290.78125 C 319.707031 298.125 327.1875 304.316406 337.066406 306.796875 C 348.441406 309.648438 360.054688 309.410156 372.535156 309.429688 Z M 390.523438 347.054688 C 395.621094 347.347656 401 346.195312 406.382812 345.253906 C 417.476562 343.3125 427.761719 339.183594 437.167969 333.007812 C 439.824219 331.261719 442.242188 329.027344 443.636719 326.035156 C 444.945312 323.234375 444.011719 321.578125 440.910156 321.414062 C 437.566406 321.242188 434.191406 321.101562 430.867188 321.714844 C 422.457031 323.265625 414.277344 325.632812 406.363281 328.878906 C 399.429688 331.726562 392.777344 335.082031 386.980469 339.917969 C 385.695312 340.988281 384.394531 342.105469 383.386719 343.417969 C 381.847656 345.425781 382.546875 346.855469 385.054688 347.035156 C 386.726562 347.152344 388.410156 347.054688 390.523438 347.054688 Z M 365.640625 372.503906 C 363.410156 368.636719 358.867188 363.683594 355.421875 361 C 345.960938 353.621094 335.042969 349.457031 323.574219 346.550781 C 320.097656 345.667969 316.59375 345.976562 313.257812 347.414062 C 310 348.820312 309.117188 351.316406 310.785156 354.457031 C 311.882812 356.527344 313.519531 358.109375 315.535156 359.292969 C 322 363.089844 328.710938 366.304688 336.007812 368.214844 C 345.601562 370.726562 355.410156 371.714844 365.640625 372.503906 Z M 348.683594 223.707031 C 348.585938 225.402344 349.273438 227.089844 350.128906 228.726562 C 352.164062 232.617188 355.167969 235.605469 358.859375 237.898438 C 365.914062 242.277344 373.605469 245.171875 381.519531 247.53125 C 382.371094 247.785156 383.332031 248.410156 384.085938 247.707031 C 385.015625 246.835938 384.414062 245.710938 384.042969 244.75 C 379.128906 232.105469 370.875 222.53125 358.273438 217.058594 C 352.453125 214.53125 348.671875 217.136719 348.683594 223.707031 Z M 384.496094 391.082031 C 394.921875 391.046875 404.183594 390.417969 413.34375 388.90625 C 421.460938 387.566406 429.433594 385.515625 436.9375 381.996094 C 439.289062 380.890625 441.59375 379.671875 443.261719 377.589844 C 444.601562 375.921875 444.40625 374.863281 442.519531 374.003906 C 440.5625 373.113281 438.460938 372.796875 436.292969 372.792969 C 424.996094 372.792969 414.296875 375.683594 403.882812 379.691406 C 397.195312 382.265625 391.019531 385.839844 384.496094 391.082031 Z M 384.496094 391.082031 " fill-opacity="1" fill-rule="nonzero"/></g><path fill="#eeffff" d="M 370.78125 367.617188 C 370.429688 367.351562 370.003906 367.152344 369.761719 366.820312 C 359.699219 353.046875 345.449219 345.859375 329.570312 341.207031 C 325.726562 340.082031 321.847656 339.4375 317.824219 339.636719 C 310.816406 339.984375 305.160156 343.40625 303.441406 348.410156 C 301.789062 353.226562 304.382812 359.429688 310.171875 363.773438 C 316.347656 368.40625 323.425781 371.296875 330.695312 373.699219 C 340.632812 376.984375 350.96875 378.089844 361.320312 379.042969 C 362.539062 379.152344 363.761719 379.226562 364.972656 379.402344 C 369.769531 380.097656 371 381.535156 371.144531 386.589844 C 371.191406 388.269531 371.183594 389.949219 371.210938 391.632812 C 371.972656 439.933594 373.378906 488.230469 372.453125 536.550781 C 372.179688 550.613281 371.96875 564.675781 370.726562 578.695312 C 370.210938 584.472656 369.515625 590.21875 367.523438 595.761719 C 366.914062 597.449219 366.402344 598.234375 364.554688 598.390625 C 352.949219 599.371094 341.335938 599.011719 329.71875 598.773438 C 327.929688 598.734375 326.980469 598.09375 326.53125 596.257812 C 322.4375 579.523438 314.730469 564.210938 307.625 548.667969 C 302.355469 537.144531 296.875 525.714844 291.71875 514.136719 C 278.6875 484.875 262.105469 457.617188 244.839844 430.742188 C 232.453125 411.464844 219.816406 392.339844 208.890625 372.167969 C 196.191406 348.726562 185.375 324.449219 179.070312 298.476562 C 164.246094 237.386719 175.753906 181.585938 213.660156 131.316406 C 237 100.367188 267.351562 78.683594 302.816406 63.757812 C 325.746094 54.109375 349.6875 48.117188 374.21875 44.34375 C 387.066406 42.371094 399.949219 40.714844 412.984375 40.789062 C 435.332031 40.921875 456.472656 45.847656 476.601562 55.78125 C 502.890625 68.761719 525.367188 86.441406 544.710938 108.375 C 558.402344 123.898438 571.042969 140.097656 580.820312 158.441406 C 591.46875 178.40625 597.625 199.691406 599.835938 222.117188 C 602.046875 244.542969 601.90625 266.96875 599.394531 289.398438 C 596.59375 314.421875 589.429688 338.105469 578.46875 360.695312 C 560.605469 397.523438 539.3125 432.171875 513.730469 464.21875 C 493.519531 489.535156 473.875 515.3125 454.882812 541.570312 C 446.613281 553 440.109375 565.457031 433.996094 578.125 C 431.65625 582.976562 430.183594 588.121094 429.558594 593.460938 C 429.328125 595.433594 428.578125 595.957031 426.671875 595.925781 C 419.183594 595.796875 411.691406 595.925781 404.203125 595.773438 C 395.015625 595.585938 385.867188 596.148438 376.722656 596.910156 C 375.832031 596.984375 374.917969 597.375 373.867188 596.597656 C 375.394531 590.507812 376.566406 584.246094 377.21875 577.882812 C 378.644531 564.023438 378.914062 550.121094 379.082031 536.210938 C 379.46875 504.257812 379.511719 472.304688 378.839844 440.355469 C 378.566406 427.519531 378.25 414.679688 378 401.84375 C 377.929688 398.21875 378 398.105469 381.707031 397.882812 C 389.335938 397.425781 396.980469 397.480469 404.605469 396.765625 C 415.621094 395.734375 426.316406 393.414062 436.648438 389.453125 C 440.679688 387.90625 444.4375 385.898438 447.523438 382.820312 C 453.53125 376.820312 451.9375 369.988281 443.824219 367.320312 C 438.160156 365.457031 432.320312 365.90625 426.5625 366.75 C 408.691406 369.367188 392.421875 375.730469 378.691406 387.953125 C 377.402344 383.683594 377.863281 361.027344 379.304688 353.316406 C 398.171875 355.109375 416.113281 351.890625 433.0625 343.347656 C 438.28125 340.714844 443.136719 337.582031 447.023438 333.121094 C 448.851562 331.023438 450.34375 328.722656 451.078125 326.015625 C 452.289062 321.566406 450.472656 317.769531 446.25 315.851562 C 443.238281 314.484375 439.988281 314.257812 436.804688 314.582031 C 416.328125 316.65625 397.398438 322.710938 381.5625 336.515625 C 381.359375 336.691406 381.035156 336.726562 380.738281 336.835938 C 379.945312 336.601562 380.140625 335.894531 380.191406 335.382812 C 381.429688 322.148438 382.417969 308.886719 384.4375 295.734375 C 384.917969 292.597656 384.960938 292.449219 388.167969 293.015625 C 404.589844 295.914062 420.046875 292.855469 434.90625 285.738281 C 441.246094 282.699219 447.632812 279.78125 453.25 275.457031 C 456.058594 273.292969 458.550781 270.839844 460.554688 267.914062 C 462.308594 265.34375 463.429688 262.546875 463.546875 259.382812 C 463.847656 251.511719 459.691406 246.632812 451.894531 245.679688 C 449.269531 245.363281 446.671875 245.644531 444.144531 246.191406 C 426.964844 249.921875 410.867188 256.230469 396.4375 266.460938 C 394.246094 268.015625 392.53125 270.230469 389.828125 271.40625 C 389.34375 269.4375 390.144531 267.902344 390.558594 266.335938 C 394.449219 251.507812 400.433594 237.46875 406.667969 223.519531 C 407.425781 221.820312 408.339844 220.730469 410.433594 220.078125 C 414.804688 218.714844 418.632812 216.015625 422.410156 213.4375 C 431.128906 207.484375 439.476562 201.042969 447.296875 193.945312 C 453.191406 188.59375 457.6875 182.320312 459.363281 174.375 C 461.542969 164.015625 454.863281 154.589844 444.960938 153.980469 C 441.847656 153.789062 438.898438 154.542969 436.070312 155.800781 C 431.265625 157.9375 427.042969 160.929688 423.3125 164.605469 C 412.273438 175.472656 405.75 188.699219 403.035156 203.855469 C 402.660156 205.945312 402.394531 208.171875 402.703125 210.242188 C 403.320312 214.40625 402.019531 217.929688 400.292969 221.597656 C 397.304688 227.949219 394.726562 234.492188 391.988281 240.957031 C 391.632812 241.789062 391.523438 242.75 390.53125 243.421875 C 389.484375 242.546875 389.351562 241.1875 388.855469 240.027344 C 383.566406 227.660156 375.410156 217.910156 363.148438 211.925781 C 362.597656 211.65625 362.042969 211.410156 361.484375 211.160156 C 356.289062 208.851562 351.003906 207.988281 346.507812 212.265625 C 341.726562 216.816406 340.933594 222.648438 342.964844 228.769531 C 344.90625 234.636719 348.832031 239.074219 353.847656 242.5625 C 360.566406 247.234375 368.121094 250.117188 375.789062 252.742188 C 378.53125 253.679688 381.285156 254.589844 383.992188 255.625 C 385.507812 256.207031 386.351562 256.953125 385.710938 259.058594 C 381.449219 273.089844 378.589844 287.433594 376.820312 301.894531 C 375.3125 302.480469 375.085938 301.257812 374.660156 300.648438 C 369.050781 292.628906 361.566406 287.09375 352.484375 283.574219 C 341.910156 279.476562 331.125 276.238281 319.785156 275.089844 C 317.03125 274.8125 314.296875 274.703125 311.582031 275.367188 C 306.183594 276.683594 303.140625 281.234375 304.0625 286.722656 C 304.710938 290.609375 306.53125 293.957031 309.246094 296.757812 C 319.351562 307.175781 331.132812 314.097656 346.035156 315.210938 C 354.4375 315.839844 362.828125 315.863281 371.230469 316.023438 C 375.097656 316.09375 375.285156 316.257812 374.941406 319.824219 C 373.476562 334.886719 372.253906 349.964844 371.5625 365.085938 C 371.523438 365.941406 371.796875 366.9375 370.78125 367.617188 Z M 396.359375 689.90625 C 384.761719 690.769531 373.132812 690.082031 361.523438 690.601562 C 352.980469 690.984375 344.425781 691.734375 335.890625 690.46875 C 334.058594 690.195312 333.351562 690.878906 333.453125 692.664062 C 333.976562 701.730469 335.394531 710.582031 339.761719 718.714844 C 342.699219 724.175781 347.359375 727.1875 353.472656 727.171875 C 364.46875 727.140625 375.488281 727.34375 386.4375 725.921875 C 395.769531 724.710938 402.382812 720.199219 405.050781 710.785156 C 407.039062 703.761719 409.097656 696.757812 411.203125 689.484375 C 406.019531 689.164062 401.195312 689.546875 396.359375 689.90625 Z M 396.359375 689.90625 " fill-opacity="1" fill-rule="nonzero"/><path fill="#163172" d="M 351.710938 659.101562 C 339.714844 657.984375 328.265625 658.109375 316.957031 656.300781 C 315.03125 655.992188 314.253906 654.988281 314.007812 653.402344 C 313.042969 647.246094 312.175781 641.070312 311.273438 634.902344 C 311.023438 633.175781 311.71875 632.285156 313.519531 632.34375 C 315.964844 632.425781 318.433594 632.28125 320.84375 632.585938 C 328.101562 633.5 335.359375 634.367188 342.683594 634.238281 C 346.515625 634.175781 350.296875 635.09375 354.070312 634.96875 C 363.804688 634.644531 373.550781 634.515625 383.261719 633.503906 C 387.644531 633.050781 392.078125 632.789062 396.46875 632.574219 C 403.167969 632.25 409.84375 631.578125 416.539062 631.230469 C 422.011719 630.949219 427.488281 630.601562 432.972656 630.546875 C 436.773438 630.503906 437.085938 630.652344 436.691406 634.363281 C 436.226562 638.765625 435.6875 643.160156 435.851562 647.582031 C 435.9375 649.898438 434.878906 650.949219 432.820312 651.351562 C 429.085938 652.078125 425.363281 652.859375 421.613281 653.496094 C 414.097656 654.773438 406.496094 655.050781 398.898438 655.574219 C 389.347656 656.230469 379.769531 656.605469 370.242188 657.847656 C 363.921875 658.667969 357.445312 658.085938 351.710938 659.101562 Z M 412.3125 286.179688 C 425.144531 283.558594 436.933594 278.25 447.773438 270.933594 C 451.449219 268.453125 454.742188 265.429688 456.375 261.089844 C 458.105469 256.503906 455.65625 252.679688 450.855469 252.523438 C 448.882812 252.460938 446.828125 252.375 444.929688 252.816406 C 427.101562 256.96875 410.335938 263.554688 395.828125 275.03125 C 392.964844 277.296875 390.304688 279.851562 388.34375 283.007812 C 387.015625 285.140625 387.324219 286.273438 389.648438 286.386719 C 393.304688 286.570312 396.835938 287.921875 400.410156 287.40625 C 404.542969 287.769531 408.488281 286.964844 412.3125 286.179688 Z M 406.382812 345.253906 C 417.476562 343.3125 427.761719 339.183594 437.167969 333.007812 C 439.824219 331.261719 442.242188 329.027344 443.636719 326.035156 C 444.945312 323.234375 444.011719 321.578125 440.910156 321.414062 C 437.566406 321.242188 434.191406 321.101562 430.867188 321.714844 C 422.457031 323.265625 414.277344 325.632812 406.363281 328.878906 C 399.429688 331.726562 392.777344 335.082031 386.980469 339.917969 C 385.695312 340.988281 384.394531 342.105469 383.386719 343.417969 C 381.847656 345.425781 382.546875 346.855469 385.054688 347.035156 C 386.726562 347.152344 388.410156 347.054688 390.523438 347.054688 C 395.621094 347.347656 401 346.195312 406.382812 345.253906 Z M 355.421875 361 C 345.960938 353.621094 335.042969 349.457031 323.574219 346.550781 C 320.097656 345.667969 316.59375 345.976562 313.257812 347.414062 C 310 348.820312 309.117188 351.316406 310.785156 354.457031 C 311.882812 356.527344 313.519531 358.109375 315.535156 359.292969 C 322 363.089844 328.710938 366.304688 336.007812 368.214844 C 345.601562 370.726562 355.410156 371.714844 365.640625 372.503906 C 363.410156 368.636719 358.867188 363.683594 355.421875 361 Z M 355.421875 361 " fill-opacity="1" fill-rule="nonzero"/><path fill="#163172" d="M 355.550781 627.867188 C 341.4375 628.3125 327.300781 626.707031 313.121094 626.03125 C 311.035156 625.933594 310.050781 625.277344 310.074219 623.097656 C 310.113281 619.289062 309.792969 615.488281 310.835938 611.71875 C 312.066406 607.277344 313.339844 604.765625 320.164062 605.167969 C 331.308594 605.820312 342.453125 605.828125 353.59375 605.660156 C 361.683594 605.539062 369.707031 604.394531 377.757812 603.648438 C 387.628906 602.738281 397.503906 601.867188 407.460938 602.671875 C 412.46875 603.074219 417.535156 602.738281 422.578125 602.796875 C 425.324219 602.828125 428.09375 602.796875 430.816406 603.113281 C 435.335938 603.632812 437.085938 605.671875 437.898438 610.085938 C 438.609375 613.933594 437.59375 617.6875 437.707031 621.492188 C 437.746094 622.804688 436.910156 623.351562 435.667969 623.441406 C 433.082031 623.632812 430.496094 623.996094 427.910156 624.042969 C 414.308594 624.285156 400.789062 625.644531 387.246094 626.691406 C 376.746094 627.503906 366.222656 628.328125 355.550781 627.867188 Z M 318.203125 671.769531 C 320.050781 678.210938 324.511719 681.675781 330.855469 682.914062 C 338.683594 684.441406 346.550781 684.554688 354.539062 684.152344 C 370.695312 683.339844 386.902344 684.003906 403.070312 682.9375 C 407.792969 682.625 412.527344 682.445312 417.21875 681.867188 C 420.707031 681.4375 424.375 680.855469 426.820312 678.070312 C 431.835938 672.359375 433.410156 665.351562 434.21875 657.703125 C 432.589844 657.949219 431.535156 658.039062 430.515625 658.269531 C 422.320312 660.109375 414.078125 661.445312 405.671875 662.074219 C 399.730469 662.523438 393.777344 662.492188 387.847656 663.042969 C 379.039062 663.863281 370.234375 664.820312 361.40625 665.261719 C 346.4375 666.015625 331.511719 665.238281 316.15625 662.988281 C 316.339844 666.34375 317.414062 669.015625 318.203125 671.769531 Z M 409.082031 212.765625 C 410.480469 213.480469 411.363281 212.28125 412.347656 211.710938 C 424.289062 204.8125 435 196.261719 445.007812 186.832031 C 449.207031 182.878906 451.964844 177.941406 452.964844 172.203125 C 454.289062 164.609375 447.921875 159.035156 440.566406 161.257812 C 437.460938 162.199219 434.75 163.894531 432.171875 165.824219 C 424.535156 171.535156 419.222656 179.121094 414.996094 187.492188 C 411.542969 194.335938 409.34375 201.621094 408.558594 208.820312 C 408.464844 211.542969 408.558594 212.496094 409.082031 212.765625 Z M 355.476562 292.308594 C 346.410156 287.789062 336.785156 284.851562 326.859375 282.886719 C 323.105469 282.144531 319.328125 281.628906 315.492188 281.765625 C 311.152344 281.917969 309.800781 283.964844 311.40625 288.042969 C 311.792969 289.023438 312.339844 290.007812 313.042969 290.78125 C 319.707031 298.125 327.1875 304.316406 337.066406 306.796875 C 348.441406 309.648438 360.054688 309.410156 372.535156 309.429688 C 368.292969 301.414062 362.75 295.933594 355.476562 292.308594 Z M 350.128906 228.726562 C 352.164062 232.617188 355.167969 235.605469 358.859375 237.898438 C 365.914062 242.277344 373.605469 245.171875 381.519531 247.53125 C 382.371094 247.785156 383.332031 248.410156 384.085938 247.707031 C 385.015625 246.835938 384.414062 245.710938 384.042969 244.75 C 379.128906 232.105469 370.875 222.53125 358.273438 217.058594 C 352.453125 214.53125 348.671875 217.136719 348.683594 223.707031 C 348.585938 225.402344 349.273438 227.089844 350.128906 228.726562 Z M 413.34375 388.90625 C 421.460938 387.566406 429.433594 385.515625 436.9375 381.996094 C 439.289062 380.890625 441.59375 379.671875 443.261719 377.589844 C 444.601562 375.921875 444.40625 374.863281 442.519531 374.003906 C 440.5625 373.113281 438.460938 372.796875 436.292969 372.792969 C 424.996094 372.792969 414.296875 375.683594 403.882812 379.691406 C 397.195312 382.265625 391.019531 385.839844 384.496094 391.082031 C 394.921875 391.046875 404.183594 390.417969 413.34375 388.90625 Z M 413.34375 388.90625 " fill-opacity="1" fill-rule="nonzero"/></svg>