<svg xmlns="http://www.w3.org/2000/svg" xmlns:xlink="http://www.w3.org/1999/xlink" width="1024" zoomAndPan="magnify" viewBox="0 0 768 767.999994" height="1024" preserveAspectRatio="xMidYMid meet" version="1.0"><defs><clipPath id="9a8a74c957"><path d="M 24 313 L 449 313 L 449 743.554688 L 24 743.554688 Z M 24 313 " clip-rule="nonzero"/></clipPath></defs><path fill="#163172" d="M 739.988281 337.839844 L 737.222656 313.59375 L 715.121094 313.59375 C 579.574219 313.59375 482.960938 346.117188 420.773438 408.296875 C 418.519531 410.550781 416.519531 413.621094 414.351562 415.882812 C 436.226562 444.042969 452.601562 473.519531 464.8125 503.875 C 503.425781 444.050781 568.421875 388.394531 671.507812 357.648438 C 563.300781 428.058594 512.085938 531.886719 492.128906 613.101562 C 496.308594 645.945312 497.824219 680.335938 497.824219 716.515625 C 497.824219 719.636719 497.550781 722.722656 497.15625 725.75 C 549.507812 708.269531 597.496094 678.046875 637.5625 637.953125 C 716.523438 559.019531 753.921875 448.914062 739.988281 337.839844 Z M 739.988281 337.839844 " fill-opacity="1" fill-rule="nonzero"/><g clip-path="url(#9a8a74c957)"><path fill="#163172" d="M 448.296875 716.539062 C 448.296875 595.621094 431.613281 495.023438 344.894531 408.296875 C 282.722656 346.117188 187.714844 313.59375 52.15625 313.59375 L 30.066406 313.59375 L 27.308594 337.839844 C 13.355469 448.914062 50.625 559.035156 129.566406 637.945312 C 197.332031 705.726562 287.496094 743.652344 383.445312 743.652344 C 398.476562 743.652344 412.542969 742.976562 427.457031 741.117188 L 448.289062 738.636719 L 448.289062 716.539062 Z M 181.953125 586.742188 C 129.601562 534.40625 100.484375 466.589844 98.59375 393.75 C 187.914062 399.566406 253.464844 422.808594 293.636719 462.988281 C 346.871094 516.238281 370.003906 573.863281 375.25 670.078125 C 302.222656 668.082031 233.84375 638.664062 181.953125 586.742188 Z M 181.953125 586.742188 " fill-opacity="1" fill-rule="nonzero"/></g><path fill="#163172" d="M 718.152344 225.925781 L 662.253906 95.644531 C 655.695312 80.417969 641.347656 79.578125 630.40625 93.804688 L 614.859375 114.003906 C 552.214844 60.84375 471.292969 25.085938 382.886719 25.085938 C 225.949219 25.09375 92.25 126.808594 43.464844 263.304688 L 52.15625 263.304688 C 78.832031 263.304688 104.113281 267.976562 128.144531 270.222656 C 171.886719 172.957031 269.492188 106.679688 382.886719 106.679688 C 452.980469 106.679688 517.09375 133.554688 566.179688 176.371094 L 565.921875 177.148438 L 549.996094 198.074219 C 539.023438 212.3125 543.515625 226.050781 559.9375 228.457031 L 700.179688 249.21875 C 716.636719 251.644531 724.71875 241.1875 718.152344 225.925781 Z M 718.152344 225.925781 " fill-opacity="1" fill-rule="nonzero"/></svg>