<svg xmlns="http://www.w3.org/2000/svg" xmlns:xlink="http://www.w3.org/1999/xlink" width="1024" zoomAndPan="magnify" viewBox="0 0 768 767.999994" height="1024" preserveAspectRatio="xMidYMid meet" version="1.0"><defs><clipPath id="54c49026d0"><path d="M 266 29.6875 L 528 29.6875 L 528 342 L 266 342 Z M 266 29.6875 " clip-rule="nonzero"/></clipPath><clipPath id="43c2a059f4"><path d="M 399 347 L 590 347 L 590 758.6875 L 399 758.6875 Z M 399 347 " clip-rule="nonzero"/></clipPath></defs><path fill="#163172" d="M 527.320312 560.179688 C 527.320312 610.257812 493.367188 650.855469 451.480469 650.855469 C 430.070312 650.855469 402.597656 627.21875 396.179688 597.554688 C 388.992188 628.1875 363.902344 650.855469 342.492188 650.855469 C 300.605469 650.855469 267.332031 610.257812 266.652344 560.179688 C 265.589844 482.308594 396.179688 339.078125 396.179688 339.078125 C 396.179688 339.078125 527.355469 479.761719 527.320312 560.179688 " fill-opacity="1" fill-rule="nonzero"/><g clip-path="url(#54c49026d0)"><path fill="#163172" d="M 266.652344 120.167969 C 266.652344 70.121094 300.605469 29.527344 342.492188 29.527344 C 363.902344 29.527344 391.375 53.160156 397.792969 82.828125 C 405.015625 52.195312 430.070312 29.527344 451.480469 29.527344 C 493.367188 29.527344 526.644531 70.121094 527.320312 120.167969 C 528.417969 198.070312 397.792969 341.300781 397.792969 341.300781 C 397.792969 341.300781 266.652344 200.617188 266.652344 120.167969 " fill-opacity="1" fill-rule="nonzero"/></g><path fill="#163172" d="M 176.980469 484.761719 C 126.902344 484.761719 86.339844 447.097656 86.339844 400.632812 C 86.339844 376.902344 109.941406 346.398438 139.640625 339.304688 C 109.007812 331.304688 86.339844 303.480469 86.339844 279.746094 C 86.339844 233.28125 126.9375 196.359375 176.980469 195.621094 C 254.851562 194.425781 398.117188 339.304688 398.117188 339.304688 C 398.117188 339.304688 257.398438 484.761719 176.980469 484.761719 " fill-opacity="1" fill-rule="nonzero"/><path fill="#163172" d="M 616.996094 195.585938 C 667.070312 195.585938 707.636719 233.28125 707.636719 279.746094 C 707.636719 303.480469 684.03125 333.949219 654.335938 341.078125 C 684.96875 349.074219 707.636719 376.902344 707.636719 400.632812 C 707.636719 447.097656 667.070312 484.019531 616.996094 484.761719 C 539.125 485.953125 395.859375 341.078125 395.859375 341.078125 C 395.859375 341.078125 536.574219 195.585938 616.996094 195.585938 " fill-opacity="1" fill-rule="nonzero"/><g clip-path="url(#43c2a059f4)"><path fill="#050a30" d="M 400.761719 347.816406 C 400.761719 347.816406 406.691406 352.136719 416.59375 360.359375 C 426.460938 368.582031 440.164062 380.867188 455.671875 396.601562 C 463.410156 404.4375 471.570312 413.207031 479.921875 422.722656 C 488.273438 432.265625 496.6875 442.648438 505.039062 453.707031 C 513.390625 464.734375 521.550781 476.539062 529.289062 488.886719 C 537.089844 501.203125 544.378906 514.136719 551.085938 527.386719 C 557.761719 540.640625 563.917969 554.214844 569.238281 567.886719 C 574.59375 581.558594 579.011719 595.390625 582.300781 609.03125 C 585.523438 622.703125 587.652344 636.148438 588.8125 648.953125 C 589.167969 652.144531 589.296875 655.335938 589.488281 658.464844 C 589.714844 661.558594 589.78125 664.65625 589.875 667.6875 C 589.910156 669.203125 589.941406 670.683594 589.972656 672.167969 C 589.972656 673.652344 589.941406 675.132812 589.941406 676.585938 C 589.875 679.488281 589.941406 682.355469 589.78125 685.164062 C 589.652344 687.96875 589.554688 690.707031 589.394531 693.386719 C 589.167969 696.027344 588.910156 698.640625 588.683594 701.1875 C 588.488281 703.734375 588.199219 706.1875 587.910156 708.574219 C 587.585938 710.992188 587.328125 713.3125 586.972656 715.539062 C 586.167969 720.019531 585.589844 724.179688 584.78125 728.046875 C 583.945312 731.851562 583.265625 735.367188 582.429688 738.527344 C 581.652344 741.65625 580.914062 744.460938 580.269531 746.878906 C 579.558594 749.296875 578.914062 751.328125 578.398438 753.007812 C 577.332031 756.296875 576.785156 758.035156 576.785156 758.035156 C 576.625 758.457031 576.203125 758.679688 575.816406 758.550781 C 575.464844 758.457031 575.238281 758.101562 575.269531 757.746094 L 575.269531 757.714844 C 575.269531 757.714844 575.464844 755.875 575.753906 752.457031 C 575.914062 750.75 576.140625 748.652344 576.367188 746.171875 C 576.558594 743.6875 576.753906 740.847656 577.042969 737.65625 C 577.460938 731.304688 577.882812 723.597656 578.105469 714.796875 C 578.203125 705.960938 578.203125 696.027344 577.589844 685.257812 C 577.496094 682.550781 577.203125 679.808594 577.011719 677.035156 C 576.914062 675.648438 576.785156 674.199219 576.6875 672.8125 C 576.558594 671.394531 576.398438 669.941406 576.238281 668.492188 C 575.980469 665.621094 575.6875 662.6875 575.269531 659.722656 C 574.882812 656.753906 574.59375 653.722656 574.078125 650.691406 C 572.304688 638.503906 569.917969 625.734375 566.855469 612.675781 C 563.824219 599.617188 560.179688 586.171875 555.792969 572.722656 C 551.410156 559.246094 546.152344 545.800781 540.089844 532.675781 C 534.027344 519.550781 527.355469 506.71875 520.164062 494.367188 C 512.972656 482.050781 505.492188 470.152344 497.753906 458.933594 C 482.273438 436.523438 466.25 416.625 451.707031 400.308594 C 437.164062 383.929688 424.105469 371.160156 414.785156 362.390625 C 405.46875 353.652344 399.824219 349.042969 399.824219 349.042969 C 399.503906 348.75 399.4375 348.265625 399.695312 347.945312 C 399.953125 347.621094 400.40625 347.589844 400.761719 347.816406 " fill-opacity="1" fill-rule="nonzero"/></g><path fill="#1c2143" d="M 448.320312 636.085938 C 437.679688 636.085938 425.332031 629.570312 415.496094 619.253906 C 416.851562 619.542969 418.238281 619.769531 419.625 619.964844 C 421.492188 620.1875 423.300781 620.316406 425.074219 620.316406 C 452.191406 620.316406 468.863281 592.492188 475.988281 569.015625 C 488.175781 528.804688 471.054688 489.144531 453.867188 453.417969 C 444.453125 433.878906 434.132812 414.757812 423.621094 395.765625 C 418.753906 386.960938 413.367188 378.320312 408.917969 369.257812 C 408.113281 367.710938 407.339844 366.164062 406.5625 364.648438 C 433.003906 394.539062 516.519531 493.757812 516.519531 554.601562 C 516.519531 599.617188 485.984375 636.085938 448.320312 636.085938 " fill-opacity="1" fill-rule="nonzero"/><path fill="#1c2143" d="M 341.074219 641.148438 C 340.140625 641.148438 339.203125 641.117188 338.300781 641.050781 C 336.882812 640.988281 335.527344 640.730469 334.238281 640.535156 C 332.917969 640.246094 331.691406 639.988281 330.5 639.632812 C 328.175781 638.957031 326.082031 638.117188 324.308594 637.246094 C 322.566406 636.40625 321.082031 635.503906 319.921875 634.730469 C 317.601562 633.183594 316.472656 632.023438 316.472656 632.023438 L 316.472656 631.699219 L 316.730469 631.636719 C 316.730469 631.636719 318.117188 632.34375 320.664062 633.28125 C 321.921875 633.730469 323.46875 634.28125 325.273438 634.765625 C 327.046875 635.28125 329.113281 635.699219 331.304688 636.054688 C 333.527344 636.441406 335.949219 636.601562 338.496094 636.601562 C 341.042969 636.601562 343.6875 636.410156 346.394531 635.925781 C 349.101562 635.503906 351.875 634.699219 354.585938 633.730469 L 356.648438 632.894531 C 357.324219 632.601562 357.972656 632.214844 358.648438 631.894531 C 360.003906 631.28125 361.261719 630.441406 362.515625 629.667969 C 363.808594 628.894531 365 627.929688 366.226562 627.058594 C 367.386719 626.089844 368.546875 625.121094 369.675781 624.15625 C 370.738281 623.089844 371.835938 622.058594 372.867188 621.027344 C 373.867188 619.929688 374.835938 618.835938 375.835938 617.769531 C 377.640625 615.546875 379.414062 613.386719 380.898438 611.191406 C 382.507812 609.066406 383.832031 606.902344 385.089844 604.9375 C 386.378906 603.003906 387.347656 601.101562 388.3125 599.457031 C 389.28125 597.84375 390.023438 596.359375 390.667969 595.132812 C 391.890625 592.714844 392.632812 591.328125 392.632812 591.328125 L 392.957031 591.234375 L 393.054688 591.523438 C 393.054688 591.523438 392.441406 592.972656 391.375 595.488281 C 390.859375 596.746094 390.214844 598.292969 389.378906 600.003906 C 388.507812 601.710938 387.667969 603.710938 386.507812 605.777344 C 385.378906 607.839844 384.1875 610.097656 382.703125 612.386719 C 381.347656 614.738281 379.605469 617.027344 377.898438 619.449219 C 376.929688 620.609375 375.996094 621.769531 375.027344 622.960938 C 373.996094 624.121094 372.933594 625.25 371.867188 626.414062 L 368.386719 629.703125 C 367.128906 630.667969 365.933594 631.765625 364.613281 632.699219 C 363.257812 633.601562 362 634.601562 360.550781 635.375 C 359.875 635.761719 359.164062 636.214844 358.453125 636.601562 C 357.714844 636.957031 357.003906 637.3125 356.261719 637.664062 C 353.328125 639.019531 350.296875 640.082031 347.199219 640.601562 C 345.136719 640.988281 343.074219 641.148438 341.074219 641.148438 " fill-opacity="1" fill-rule="nonzero"/><path fill="#050a30" d="M 285.96875 589.332031 L 285.644531 589.265625 C 285.644531 589.265625 285.128906 588.425781 284.324219 586.75 C 283.550781 585.074219 282.421875 582.589844 281.355469 579.300781 C 280.777344 577.691406 280.324219 575.851562 279.777344 573.851562 C 279.519531 572.820312 279.324219 571.757812 279.066406 570.660156 C 278.808594 569.597656 278.617188 568.4375 278.453125 567.242188 C 277.648438 562.503906 277.328125 557.054688 277.585938 551.121094 C 277.714844 549.636719 277.777344 548.121094 277.875 546.574219 C 278.101562 545.058594 278.324219 543.511719 278.550781 541.898438 C 278.746094 540.316406 279.132812 538.738281 279.488281 537.125 C 279.875 535.511719 280.132812 533.835938 280.679688 532.226562 C 281.195312 530.613281 281.710938 528.96875 282.226562 527.292969 C 282.679688 525.582031 283.484375 524.003906 284.128906 522.359375 C 284.839844 520.714844 285.417969 519.003906 286.289062 517.359375 C 287.097656 515.746094 287.902344 514.101562 288.707031 512.457031 C 292.0625 505.914062 295.835938 499.207031 299.738281 492.5625 C 303.636719 485.886719 307.699219 479.183594 311.859375 472.507812 C 315.921875 465.832031 320.148438 459.191406 324.242188 452.644531 C 328.371094 446.128906 332.53125 439.777344 336.558594 433.652344 C 340.6875 427.558594 344.6875 421.65625 348.554688 416.144531 C 352.425781 410.628906 356.132812 405.4375 359.582031 400.699219 C 363 395.925781 366.257812 391.636719 369.128906 387.800781 C 371.964844 383.929688 374.480469 380.609375 376.574219 377.933594 C 380.769531 372.484375 383.25 369.417969 383.25 369.417969 L 383.574219 369.386719 L 383.605469 369.710938 C 383.605469 369.710938 381.574219 373.0625 377.898438 378.835938 C 376.09375 381.769531 373.867188 385.285156 371.253906 389.28125 C 368.675781 393.28125 365.773438 397.828125 362.613281 402.761719 C 359.390625 407.664062 355.90625 413.015625 352.199219 418.625 C 348.585938 424.300781 344.558594 430.136719 340.527344 436.296875 C 336.429688 442.359375 332.175781 448.644531 327.855469 455.03125 C 323.566406 461.414062 319.210938 467.894531 314.925781 474.472656 C 310.636719 481.019531 306.476562 487.628906 302.414062 494.175781 C 298.382812 500.753906 294.546875 507.203125 291.0625 513.652344 C 290.222656 515.265625 289.386719 516.875 288.546875 518.488281 C 287.675781 520.003906 287.097656 521.710938 286.355469 523.292969 C 284.839844 526.453125 283.839844 529.710938 282.742188 532.835938 C 282.164062 534.417969 281.871094 536.03125 281.453125 537.578125 C 281.035156 539.15625 280.617188 540.671875 280.390625 542.21875 C 280.132812 543.800781 279.875 545.285156 279.617188 546.800781 C 279.453125 548.28125 279.324219 549.765625 279.195312 551.21875 C 278.777344 557.019531 278.90625 562.375 279.582031 567.082031 C 279.710938 568.242188 279.839844 569.402344 280.097656 570.46875 C 280.292969 571.5625 280.453125 572.628906 280.679688 573.628906 C 281.164062 575.625 281.582031 577.464844 282.097656 579.078125 C 283.066406 582.367188 284.097656 584.847656 284.808594 586.523438 C 285.546875 588.167969 286.03125 589.039062 286.03125 589.039062 L 285.96875 589.332031 " fill-opacity="1" fill-rule="nonzero"/><path fill="#050a30" d="M 395.117188 522.261719 L 394.890625 522.035156 C 394.890625 522.035156 393.890625 512.554688 393.375 498.304688 C 393.246094 494.722656 393.117188 490.855469 393.019531 486.792969 C 392.925781 482.695312 392.890625 478.40625 392.925781 473.957031 C 392.988281 469.507812 393.019531 464.898438 393.183594 460.222656 C 393.3125 455.546875 393.441406 450.804688 393.570312 446.066406 C 393.761719 436.554688 393.957031 427.074219 394.148438 418.140625 C 394.3125 409.242188 394.570312 400.921875 394.761719 393.796875 C 395.148438 379.578125 395.40625 370.066406 395.40625 370.066406 L 395.632812 369.839844 L 395.859375 370.066406 C 395.859375 370.066406 396.050781 379.578125 396.34375 393.828125 C 396.503906 400.921875 396.695312 409.242188 396.792969 418.140625 C 396.921875 427.074219 397.050781 436.554688 397.214844 446.066406 C 397.308594 450.804688 397.40625 455.578125 397.472656 460.222656 C 397.601562 464.898438 397.632812 469.507812 397.664062 473.957031 C 397.664062 478.441406 397.601562 482.730469 397.472656 486.792969 C 397.34375 490.886719 397.214844 494.722656 397.019531 498.304688 C 396.40625 512.554688 395.34375 522.035156 395.34375 522.035156 L 395.117188 522.261719 " fill-opacity="1" fill-rule="nonzero"/><path fill="#1c2143" d="M 415.207031 339.691406 C 444.289062 310.832031 540.992188 219.382812 603.742188 215.257812 C 606.03125 215.128906 608.320312 215.03125 610.578125 215.03125 C 653.980469 215.03125 689.933594 242.566406 692.320312 278.875 C 693.027344 289.679688 687.160156 302.640625 677.132812 313.347656 C 677.355469 311.925781 677.519531 310.507812 677.613281 309.089844 C 679.710938 278.039062 647.59375 261.367188 621.316406 255.402344 C 613.800781 253.660156 606.320312 252.886719 598.96875 252.886719 C 565.015625 252.886719 532.933594 269.363281 503.589844 285.679688 C 484.082031 296.546875 465.054688 308.316406 446.191406 320.277344 C 437.421875 325.824219 428.878906 331.886719 419.847656 337.011719 C 418.269531 337.917969 416.722656 338.789062 415.207031 339.691406 " fill-opacity="1" fill-rule="nonzero"/><path fill="#1c2143" d="M 689.351562 420.140625 L 689.320312 419.882812 C 689.320312 419.882812 690.03125 418.433594 690.964844 415.851562 C 691.417969 414.53125 691.933594 412.949219 692.382812 411.113281 C 692.898438 409.308594 693.320312 407.242188 693.671875 404.953125 C 693.996094 402.730469 694.1875 400.246094 694.125 397.667969 C 694.09375 395.085938 693.835938 392.410156 693.253906 389.636719 C 692.800781 386.898438 691.964844 384.125 690.867188 381.351562 L 689.996094 379.285156 C 689.707031 378.578125 689.320312 377.933594 688.964844 377.253906 C 688.289062 375.902344 687.386719 374.644531 686.578125 373.355469 C 685.742188 372.0625 684.742188 370.871094 683.839844 369.613281 C 682.808594 368.453125 681.773438 367.292969 680.773438 366.164062 L 677.488281 362.96875 C 676.324219 361.972656 675.195312 361.003906 674.101562 360.035156 C 671.746094 358.199219 669.488281 356.457031 667.199219 354.941406 C 664.976562 353.363281 662.75 352.039062 660.71875 350.78125 C 658.6875 349.523438 656.6875 348.558594 654.980469 347.589844 C 653.300781 346.621094 651.753906 345.914062 650.496094 345.300781 C 647.949219 344.042969 646.5 343.367188 646.5 343.367188 L 646.5 343.332031 L 646.402344 343.011719 L 646.691406 342.914062 C 646.691406 342.914062 648.207031 343.527344 650.820312 344.558594 C 652.140625 345.074219 653.753906 345.6875 655.527344 346.527344 C 657.300781 347.363281 659.398438 348.203125 661.523438 349.332031 C 663.683594 350.460938 666.039062 351.652344 668.425781 353.105469 C 670.875 354.457031 673.261719 356.167969 675.777344 357.90625 C 677.003906 358.84375 678.226562 359.777344 679.484375 360.746094 C 680.644531 361.777344 681.871094 362.839844 683.066406 363.90625 C 684.226562 365.066406 685.355469 366.226562 686.515625 367.386719 C 687.546875 368.644531 688.675781 369.839844 689.675781 371.191406 C 690.640625 372.515625 691.675781 373.804688 692.511719 375.257812 C 692.929688 375.964844 693.382812 376.675781 693.769531 377.382812 C 694.1875 378.125 694.542969 378.867188 694.929688 379.578125 C 696.382812 382.542969 697.542969 385.640625 698.089844 388.734375 C 698.734375 391.828125 698.929688 394.894531 698.703125 397.796875 C 698.640625 399.214844 698.414062 400.601562 698.21875 401.953125 C 697.960938 403.277344 697.703125 404.535156 697.347656 405.726562 C 696.703125 408.144531 695.867188 410.242188 694.996094 412.046875 C 694.125 413.886719 693.253906 415.367188 692.449219 416.5625 C 690.898438 418.949219 689.707031 420.140625 689.707031 420.140625 L 689.351562 420.140625 " fill-opacity="1" fill-rule="nonzero"/><path fill="#050a30" d="M 609.417969 460.929688 C 608.515625 460.929688 607.644531 460.898438 606.707031 460.867188 C 605.160156 460.800781 603.613281 460.738281 602.03125 460.640625 C 600.453125 460.449219 598.839844 460.253906 597.195312 460.058594 C 595.550781 459.898438 593.875 459.511719 592.199219 459.191406 C 590.554688 458.804688 588.8125 458.542969 587.136719 458.0625 C 585.460938 457.546875 583.75 457.0625 582.007812 456.546875 C 580.269531 456.09375 578.625 455.289062 576.882812 454.675781 C 575.171875 453.964844 573.398438 453.417969 571.691406 452.578125 C 570.015625 451.773438 568.304688 450.96875 566.597656 450.160156 C 559.761719 446.871094 552.796875 443.132812 545.863281 439.261719 C 538.929688 435.394531 531.933594 431.394531 524.96875 427.265625 C 518.003906 423.203125 511.070312 419.042969 504.265625 414.980469 C 497.496094 410.855469 490.820312 406.757812 484.4375 402.730469 C 478.082031 398.632812 471.957031 394.699219 466.183594 390.832031 C 460.445312 386.960938 455.027344 383.316406 450.0625 379.867188 C 445.066406 376.449219 440.582031 373.191406 436.585938 370.355469 C 432.554688 367.550781 429.101562 365.035156 426.265625 362.9375 C 420.589844 358.746094 417.398438 356.296875 417.398438 356.296875 L 417.335938 355.972656 L 417.65625 355.910156 C 417.65625 355.910156 421.140625 357.910156 427.199219 361.550781 C 430.230469 363.359375 433.90625 365.582031 438.066406 368.164062 C 442.257812 370.710938 447 373.613281 452.160156 376.773438 C 457.285156 379.964844 462.832031 383.414062 468.699219 387.058594 C 474.601562 390.703125 480.695312 394.699219 487.113281 398.664062 C 493.464844 402.761719 500.011719 406.984375 506.652344 411.273438 C 513.328125 415.53125 520.097656 419.882812 526.96875 424.105469 C 533.769531 428.363281 540.671875 432.492188 547.507812 436.523438 C 554.34375 440.519531 561.082031 444.324219 567.789062 447.742188 C 569.5 448.582031 571.175781 449.417969 572.820312 450.257812 C 574.433594 451.097656 576.171875 451.675781 577.816406 452.386719 C 581.105469 453.902344 584.492188 454.867188 587.75 455.933594 C 589.394531 456.480469 591.039062 456.769531 592.648438 457.191406 C 594.292969 457.578125 595.875 457.996094 597.488281 458.15625 C 599.097656 458.414062 600.679688 458.675781 602.195312 458.898438 C 603.773438 459.027344 605.289062 459.125 606.773438 459.253906 C 608.609375 459.351562 610.417969 459.414062 612.125 459.414062 C 616.09375 459.414062 619.800781 459.15625 623.152344 458.609375 C 624.378906 458.480469 625.539062 458.285156 626.667969 458.0625 C 627.796875 457.835938 628.894531 457.640625 629.925781 457.382812 C 631.957031 456.867188 633.859375 456.417969 635.535156 455.867188 C 638.890625 454.835938 641.4375 453.742188 643.179688 453 C 644.886719 452.226562 645.757812 451.707031 645.757812 451.707031 L 646.078125 451.773438 L 645.984375 452.097656 C 645.984375 452.097656 645.113281 452.644531 643.402344 453.484375 C 641.695312 454.320312 639.148438 455.480469 635.792969 456.609375 C 634.117188 457.222656 632.214844 457.738281 630.152344 458.320312 C 629.117188 458.578125 628.023438 458.804688 626.894531 459.09375 C 625.765625 459.351562 624.574219 459.578125 623.347656 459.769531 C 619.1875 460.511719 614.480469 460.929688 609.417969 460.929688 " fill-opacity="1" fill-rule="nonzero"/><path fill="#050a30" d="M 525.257812 344.882812 C 520.648438 344.847656 515.875 344.882812 511.070312 344.785156 C 506.234375 344.71875 501.300781 344.6875 496.398438 344.625 C 486.597656 344.589844 476.761719 344.527344 467.570312 344.460938 C 458.382812 344.429688 449.773438 344.300781 442.421875 344.203125 C 427.683594 344.042969 417.882812 343.914062 417.882812 343.914062 L 417.625 343.6875 L 417.851562 343.460938 C 417.851562 343.460938 427.683594 343.109375 442.386719 342.59375 C 449.738281 342.332031 458.347656 342.011719 467.539062 341.753906 C 476.730469 341.496094 486.5625 341.207031 496.367188 340.914062 C 501.269531 340.753906 506.167969 340.59375 511.003906 340.429688 C 515.84375 340.238281 520.582031 340.140625 525.191406 340.011719 C 527.417969 340.011719 529.644531 339.980469 531.804688 339.980469 C 534.0625 339.980469 536.285156 340.011719 538.445312 340.042969 C 542.671875 340.078125 546.667969 340.171875 550.34375 340.300781 C 565.082031 340.722656 574.882812 341.625 574.882812 341.625 L 575.109375 341.882812 L 574.882812 342.109375 C 574.882812 342.109375 565.082031 343.238281 550.375 344.011719 C 546.699219 344.203125 542.734375 344.398438 538.511719 344.527344 C 534.285156 344.71875 529.835938 344.816406 525.257812 344.882812 " fill-opacity="1" fill-rule="nonzero"/><path fill="#1c2143" d="M 394.019531 319.988281 C 365.902344 290.195312 276.90625 191.234375 274.359375 128.390625 C 272.457031 81.921875 301.929688 43.003906 340.171875 41.425781 C 340.527344 41.425781 340.914062 41.390625 341.269531 41.390625 C 351.84375 41.390625 364.128906 47.550781 374.253906 57.480469 C 372.835938 57.222656 371.417969 57.0625 370 56.902344 C 368.675781 56.773438 367.355469 56.707031 366.097656 56.707031 C 337.527344 56.707031 321.277344 86.855469 314.890625 111.816406 C 304.21875 153.863281 323.242188 194.105469 342.234375 230.28125 C 352.617188 250.082031 363.902344 269.363281 375.382812 288.550781 C 380.703125 297.417969 386.539062 306.15625 391.472656 315.28125 C 392.3125 316.859375 393.148438 318.441406 394.019531 319.988281 " fill-opacity="1" fill-rule="nonzero"/><path fill="#1c2143" d="M 403.144531 88.953125 L 403.050781 88.664062 C 403.050781 88.664062 403.695312 87.179688 404.789062 84.566406 C 405.339844 83.246094 405.984375 81.664062 406.855469 79.925781 C 407.757812 78.152344 408.628906 76.121094 409.851562 73.992188 C 411.015625 71.863281 412.269531 69.542969 413.785156 67.1875 C 415.171875 64.769531 416.980469 62.414062 418.785156 59.964844 C 419.71875 58.773438 420.6875 57.578125 421.6875 56.320312 C 422.75 55.160156 423.847656 54 424.945312 52.804688 C 426.136719 51.710938 427.296875 50.613281 428.492188 49.453125 C 429.78125 48.453125 431.039062 47.355469 432.359375 46.421875 C 433.746094 45.488281 435.070312 44.457031 436.519531 43.679688 C 437.261719 43.261719 437.9375 42.84375 438.679688 42.457031 C 439.453125 42.101562 440.164062 41.714844 440.90625 41.359375 C 443.902344 39.972656 447 38.910156 450.160156 38.394531 C 452.160156 38.070312 454.125 37.878906 456.058594 37.878906 C 457.125 37.878906 458.1875 37.941406 459.1875 38.039062 C 460.640625 38.136719 462.023438 38.394531 463.347656 38.617188 C 464.667969 38.910156 465.925781 39.199219 467.121094 39.585938 C 469.507812 40.296875 471.601562 41.199219 473.375 42.101562 C 475.179688 43.003906 476.664062 43.9375 477.824219 44.746094 C 480.179688 46.390625 481.308594 47.582031 481.308594 47.582031 L 481.308594 47.9375 L 481.050781 47.96875 C 481.050781 47.96875 479.632812 47.261719 477.050781 46.261719 C 475.761719 45.777344 474.214844 45.195312 472.375 44.679688 C 470.601562 44.132812 468.507812 43.648438 466.28125 43.261719 C 464.023438 42.875 461.542969 42.648438 458.960938 42.617188 L 458.476562 42.617188 C 456.058594 42.617188 453.511719 42.8125 450.933594 43.261719 C 448.191406 43.679688 445.355469 44.457031 442.550781 45.453125 L 440.484375 46.292969 C 439.808594 46.582031 439.132812 46.9375 438.453125 47.261719 C 437.066406 47.90625 435.777344 48.777344 434.457031 49.550781 C 433.167969 50.355469 431.941406 51.324219 430.683594 52.195312 C 429.488281 53.195312 428.296875 54.191406 427.136719 55.191406 L 423.847656 58.386719 C 422.847656 59.511719 421.816406 60.609375 420.847656 61.707031 C 418.945312 63.996094 417.140625 66.21875 415.59375 68.445312 C 413.949219 70.636719 412.5625 72.832031 411.273438 74.863281 C 409.917969 76.863281 408.949219 78.828125 407.949219 80.503906 C 406.949219 82.183594 406.175781 83.699219 405.53125 84.921875 C 404.210938 87.4375 403.46875 88.855469 403.46875 88.855469 L 403.144531 88.953125 " fill-opacity="1" fill-rule="nonzero"/><path fill="#050a30" d="M 410.335938 318.246094 L 410.304688 317.957031 C 410.304688 317.957031 412.402344 314.507812 416.171875 308.574219 C 418.042969 305.574219 420.363281 301.964844 423.042969 297.835938 C 425.71875 293.707031 428.714844 289.066406 432.003906 284.003906 C 435.328125 278.941406 438.9375 273.492188 442.710938 267.6875 C 446.484375 261.882812 450.644531 255.886719 454.769531 249.597656 C 459.027344 243.34375 463.410156 236.894531 467.863281 230.378906 C 472.28125 223.800781 476.824219 217.125 481.210938 210.386719 C 485.628906 203.679688 489.949219 196.878906 494.109375 190.171875 C 498.300781 183.429688 502.265625 176.789062 505.878906 170.179688 C 506.75 168.5 507.621094 166.855469 508.492188 165.179688 C 509.359375 163.632812 510.007812 161.890625 510.78125 160.277344 C 512.328125 157.023438 513.390625 153.667969 514.550781 150.445312 C 515.132812 148.800781 515.457031 147.15625 515.90625 145.542969 C 516.324219 143.929688 516.808594 142.351562 517.035156 140.738281 C 517.292969 139.160156 517.582031 137.578125 517.875 136.0625 C 518.035156 134.484375 518.195312 132.96875 518.324219 131.484375 C 518.839844 125.488281 518.746094 119.941406 518.097656 115.070312 C 518.003906 113.847656 517.875 112.683594 517.648438 111.558594 C 517.421875 110.429688 517.261719 109.332031 517.066406 108.300781 C 516.582031 106.238281 516.195312 104.332031 515.679688 102.65625 C 514.746094 99.269531 513.714844 96.691406 512.972656 94.949219 C 512.261719 93.210938 511.78125 92.339844 511.78125 92.339844 L 511.875 92.015625 L 512.167969 92.113281 C 512.167969 92.113281 512.683594 92.984375 513.488281 94.726562 C 514.292969 96.433594 515.390625 99.011719 516.421875 102.429688 C 517.003906 104.109375 517.453125 106.011719 518.003906 108.074219 C 518.230469 109.136719 518.453125 110.234375 518.679688 111.363281 C 518.90625 112.523438 519.097656 113.683594 519.261719 114.941406 C 520.035156 119.84375 520.292969 125.453125 519.96875 131.582031 C 519.839844 133.128906 519.742188 134.675781 519.613281 136.289062 C 519.390625 137.835938 519.132812 139.449219 518.90625 141.09375 C 518.710938 142.738281 518.292969 144.382812 517.90625 146.027344 C 517.488281 147.703125 517.195312 149.414062 516.648438 151.089844 C 516.101562 152.765625 515.550781 154.441406 515.003906 156.152344 C 514.519531 157.925781 513.683594 159.539062 513.039062 161.246094 C 512.261719 162.957031 511.683594 164.695312 510.78125 166.40625 C 509.941406 168.082031 509.101562 169.726562 508.265625 171.4375 C 504.78125 178.175781 500.878906 185.042969 496.851562 191.878906 C 492.789062 198.714844 488.628906 205.617188 484.339844 212.453125 C 480.113281 219.320312 475.761719 226.125 471.503906 232.863281 C 467.21875 239.539062 462.960938 246.082031 458.769531 252.371094 C 454.511719 258.625 450.417969 264.65625 446.417969 270.300781 C 442.421875 275.972656 438.617188 281.292969 435.035156 286.164062 C 431.523438 291.066406 428.167969 295.449219 425.234375 299.417969 C 422.300781 303.351562 419.6875 306.734375 417.527344 309.507812 C 413.207031 315.085938 410.660156 318.214844 410.660156 318.214844 L 410.335938 318.246094 " fill-opacity="1" fill-rule="nonzero"/><path fill="#050a30" d="M 398.082031 317.667969 L 397.859375 317.441406 C 397.859375 317.441406 397.761719 307.605469 397.601562 292.902344 C 397.535156 285.519531 397.40625 276.941406 397.40625 267.75 C 397.375 258.53125 397.308594 248.695312 397.277344 238.890625 C 397.246094 233.992188 397.179688 229.089844 397.148438 224.253906 C 397.085938 219.417969 397.117188 214.644531 397.117188 210.066406 C 397.179688 205.453125 397.277344 201.003906 397.472656 196.8125 C 397.632812 192.589844 397.792969 188.589844 398.019531 184.914062 C 398.792969 170.210938 399.953125 160.40625 399.953125 160.40625 L 400.242188 160.183594 L 400.4375 160.40625 C 400.4375 160.40625 401.339844 170.242188 401.726562 184.980469 C 401.855469 188.65625 401.921875 192.652344 401.953125 196.878906 C 402.019531 201.070312 402.019531 205.519531 401.953125 210.128906 C 401.824219 214.707031 401.726562 219.480469 401.5 224.316406 C 401.339844 229.121094 401.179688 234.054688 400.984375 238.957031 C 400.695312 248.757812 400.375 258.5625 400.082031 267.785156 C 399.824219 276.972656 399.503906 285.550781 399.246094 292.902344 C 398.664062 307.636719 398.308594 317.441406 398.308594 317.441406 L 398.082031 317.667969 " fill-opacity="1" fill-rule="nonzero"/><path fill="#1c2143" d="M 181.785156 464.960938 C 137.222656 464.960938 100.589844 436.132812 99.074219 399.054688 C 98.625 388.21875 104.847656 375.449219 115.101562 365.003906 C 114.875 366.390625 114.683594 367.808594 114.554688 369.226562 C 111.652344 400.214844 143.347656 417.691406 169.46875 424.300781 C 177.851562 426.460938 186.203125 427.394531 194.425781 427.394531 C 227.410156 427.394531 258.980469 412.175781 287.902344 396.988281 C 307.699219 386.605469 327.015625 375.320312 346.167969 363.839844 C 355.070312 358.519531 363.773438 352.683594 372.933594 347.785156 C 374.511719 346.914062 376.09375 346.074219 377.609375 345.203125 C 347.847656 373.320312 248.855469 462.316406 186.039062 464.863281 C 184.621094 464.929688 183.203125 464.960938 181.785156 464.960938 " fill-opacity="1" fill-rule="nonzero"/><path fill="#1c2143" d="M 146.28125 336.175781 C 146.28125 336.175781 144.800781 335.53125 142.21875 334.433594 C 140.898438 333.886719 139.316406 333.242188 137.542969 332.339844 C 135.804688 331.46875 133.738281 330.597656 131.644531 329.371094 C 129.484375 328.210938 127.195312 326.984375 124.839844 325.4375 C 122.421875 324.050781 120.066406 322.277344 117.585938 320.472656 C 116.425781 319.503906 115.199219 318.539062 113.972656 317.539062 C 112.8125 316.472656 111.652344 315.378906 110.457031 314.28125 C 109.332031 313.121094 108.234375 311.925781 107.105469 310.734375 C 106.105469 309.445312 104.976562 308.21875 104.042969 306.832031 C 103.105469 305.476562 102.105469 304.15625 101.300781 302.703125 C 100.914062 301.964844 100.460938 301.253906 100.074219 300.542969 C 99.722656 299.804688 99.367188 299.0625 98.980469 298.320312 C 97.625 295.320312 96.5625 292.226562 96.046875 289.097656 C 95.496094 285.96875 95.367188 282.875 95.691406 280.003906 C 95.789062 278.585938 96.046875 277.199219 96.269531 275.878906 C 96.5625 274.554688 96.851562 273.296875 97.238281 272.105469 C 97.949219 269.71875 98.851562 267.621094 99.722656 265.847656 C 100.65625 264.042969 101.558594 262.558594 102.398438 261.398438 C 104.007812 259.046875 105.234375 257.917969 105.234375 257.917969 L 105.589844 257.917969 L 105.621094 258.175781 C 105.621094 258.175781 104.878906 259.59375 103.878906 262.171875 C 103.398438 263.460938 102.847656 265.042969 102.300781 266.847656 C 101.753906 268.652344 101.269531 270.71875 100.914062 272.976562 C 100.496094 275.230469 100.269531 277.683594 100.238281 280.230469 C 100.238281 282.84375 100.398438 285.550781 100.882812 288.292969 C 101.300781 291.066406 102.074219 293.871094 103.074219 296.644531 L 103.914062 298.738281 C 104.203125 299.449219 104.558594 300.09375 104.914062 300.769531 C 105.523438 302.15625 106.394531 303.445312 107.167969 304.769531 C 107.976562 306.058594 108.941406 307.285156 109.847656 308.542969 C 110.84375 309.734375 111.8125 310.925781 112.8125 312.089844 C 113.875 313.183594 114.972656 314.28125 116.003906 315.378906 C 117.132812 316.410156 118.230469 317.375 119.324219 318.375 C 121.617188 320.246094 123.839844 322.085938 126.097656 323.632812 C 128.289062 325.277344 130.484375 326.664062 132.480469 327.953125 C 134.480469 329.308594 136.449219 330.273438 138.125 331.304688 C 139.800781 332.304688 141.316406 333.046875 142.574219 333.691406 C 145.058594 335.015625 146.476562 335.757812 146.476562 335.757812 L 146.605469 336.078125 L 146.28125 336.175781 " fill-opacity="1" fill-rule="nonzero"/><path fill="#050a30" d="M 375.578125 328.953125 C 375.578125 328.953125 372.125 326.824219 366.195312 323.019531 C 363.195312 321.179688 359.582031 318.859375 355.488281 316.183594 C 351.359375 313.507812 346.71875 310.507812 341.621094 307.21875 C 336.59375 303.898438 331.109375 300.320312 325.339844 296.515625 C 319.535156 292.742188 313.539062 288.582031 307.21875 284.453125 C 300.992188 280.199219 294.546875 275.8125 288 271.363281 C 281.421875 266.945312 274.777344 262.429688 268.039062 258.011719 C 261.300781 253.597656 254.527344 249.273438 247.820312 245.117188 C 241.050781 240.921875 234.441406 236.957031 227.796875 233.378906 C 226.121094 232.476562 224.476562 231.605469 222.832031 230.734375 C 221.253906 229.863281 219.511719 229.21875 217.898438 228.445312 C 214.640625 226.898438 211.289062 225.832031 208.0625 224.671875 C 206.453125 224.089844 204.773438 223.769531 203.164062 223.316406 C 201.550781 222.898438 199.96875 222.445312 198.390625 222.1875 C 196.777344 221.898438 195.199219 221.609375 193.683594 221.351562 C 192.136719 221.191406 190.585938 221.027344 189.105469 220.867188 C 186.523438 220.671875 184.042969 220.578125 181.625 220.578125 C 178.464844 220.578125 175.464844 220.769531 172.722656 221.09375 C 171.5 221.222656 170.304688 221.382812 169.207031 221.578125 C 168.082031 221.800781 166.984375 221.964844 165.953125 222.15625 C 163.886719 222.640625 161.953125 223.027344 160.277344 223.542969 C 156.890625 224.480469 154.3125 225.511719 152.570312 226.21875 C 150.863281 226.960938 149.957031 227.445312 149.957031 227.445312 L 149.636719 227.347656 L 149.734375 227.058594 L 149.765625 227.027344 C 149.765625 227.027344 150.636719 226.511719 152.34375 225.734375 C 154.085938 224.960938 156.664062 223.832031 160.050781 222.800781 C 161.726562 222.222656 163.628906 221.769531 165.726562 221.222656 C 166.757812 220.996094 167.886719 220.769531 169.015625 220.542969 C 170.144531 220.285156 171.335938 220.125 172.5625 219.964844 C 176.078125 219.417969 179.980469 219.125 184.136719 219.125 C 185.816406 219.125 187.492188 219.160156 189.234375 219.253906 C 190.75 219.382812 192.296875 219.480469 193.910156 219.609375 C 195.488281 219.835938 197.101562 220.09375 198.714844 220.320312 C 200.359375 220.511719 202.003906 220.933594 203.648438 221.320312 C 205.324219 221.738281 207.0625 222.027344 208.707031 222.578125 C 210.386719 223.125 212.09375 223.671875 213.804688 224.222656 C 215.542969 224.703125 217.1875 225.542969 218.898438 226.21875 C 220.574219 226.960938 222.347656 227.542969 224.023438 228.445312 L 229.054688 230.960938 C 235.792969 234.441406 242.664062 238.34375 249.5 242.375 C 256.335938 246.4375 263.265625 250.597656 270.101562 254.917969 C 276.972656 259.109375 283.773438 263.460938 290.480469 267.71875 C 297.15625 272.007812 303.703125 276.265625 309.992188 280.457031 C 316.246094 284.710938 322.277344 288.808594 327.949219 292.804688 C 333.59375 296.804688 338.914062 300.609375 343.816406 304.1875 C 348.683594 307.703125 353.101562 311.089844 357.035156 313.992188 C 360.96875 316.925781 364.386719 319.535156 367.160156 321.695312 C 372.738281 326.019531 375.867188 328.566406 375.867188 328.566406 L 375.898438 328.886719 L 375.578125 328.953125 " fill-opacity="1" fill-rule="nonzero"/><path fill="#050a30" d="M 273.457031 342.109375 L 267.683594 342.109375 C 263.074219 342.042969 258.65625 341.945312 254.433594 341.753906 C 250.242188 341.625 246.242188 341.429688 242.566406 341.207031 C 227.832031 340.429688 218.058594 339.269531 218.058594 339.269531 L 217.835938 338.980469 L 218.058594 338.789062 C 218.058594 338.789062 227.863281 337.882812 242.597656 337.496094 C 246.273438 337.367188 250.273438 337.304688 254.496094 337.273438 C 256.367188 337.238281 258.300781 337.238281 260.238281 337.238281 C 262.6875 337.238281 265.203125 337.238281 267.75 337.273438 C 272.359375 337.402344 277.132812 337.496094 281.9375 337.691406 C 286.773438 337.882812 291.675781 338.046875 296.578125 338.238281 C 306.378906 338.527344 316.214844 338.851562 325.402344 339.140625 C 334.59375 339.398438 343.171875 339.722656 350.554688 340.011719 C 365.257812 340.5625 375.0625 340.914062 375.0625 340.914062 L 375.285156 341.140625 L 375.0625 341.398438 C 375.0625 341.398438 365.257812 341.464844 350.523438 341.625 C 343.171875 341.6875 334.5625 341.785156 325.371094 341.816406 C 316.179688 341.851562 306.347656 341.914062 296.542969 341.945312 C 291.644531 341.980469 286.710938 342.011719 281.871094 342.074219 C 279.035156 342.109375 276.199219 342.109375 273.457031 342.109375 " fill-opacity="1" fill-rule="nonzero"/></svg>