<svg xmlns="http://www.w3.org/2000/svg" xmlns:xlink="http://www.w3.org/1999/xlink" width="1024" zoomAndPan="magnify" viewBox="0 0 768 767.999994" height="1024" preserveAspectRatio="xMidYMid meet" version="1.0"><path fill="#1c2143" d="M 645.828125 421.019531 C 645.050781 411.929688 643.503906 403.078125 641.085938 394.433594 C 632.242188 362.796875 618.527344 333.550781 597.992188 307.707031 C 594.082031 302.789062 589.675781 298.351562 585.042969 294.125 C 583.917969 293.097656 582.734375 292.101562 581.777344 290.925781 C 579.257812 287.839844 579.742188 284.957031 583.210938 282.925781 C 586.914062 280.757812 590.988281 279.425781 595.058594 278.113281 C 598.246094 277.082031 601.449219 276.085938 604.605469 274.953125 C 605.992188 274.457031 607.25 273.90625 608.203125 272.417969 C 609.808594 269.914062 613.773438 269.949219 614.960938 272.628906 C 617.371094 278.070312 621.667969 282.046875 625.039062 286.71875 C 640.113281 307.613281 650.539062 330.703125 658.53125 355.085938 C 666.273438 378.714844 671.078125 402.878906 673.320312 427.601562 C 673.445312 428.945312 673.320312 430.371094 674.351562 431.792969 C 679.785156 430.164062 685.316406 428.519531 691.0625 427.816406 C 702.777344 426.386719 713.933594 427.617188 723.898438 434.597656 C 727.957031 437.4375 731.207031 441.0625 733.929688 445.171875 C 742.351562 457.882812 747.398438 471.910156 749.136719 486.964844 C 754.058594 529.566406 744.976562 568.933594 720.761719 604.507812 C 706.136719 625.992188 687.167969 643.144531 666.066406 658.078125 C 631.628906 682.453125 593.425781 697.855469 552.121094 705.789062 C 537.246094 708.648438 522.152344 709.699219 507.054688 710.527344 C 479.585938 712.035156 452.085938 711.679688 424.597656 711.867188 C 422.746094 711.882812 420.851562 711.984375 419.726562 710.078125 C 418.5 707.996094 419.570312 706.257812 420.679688 704.578125 C 433.265625 685.605469 439.542969 664.34375 443.019531 642.140625 C 447.644531 612.578125 452.605469 583.109375 460.398438 554.148438 C 470.90625 515.082031 488.90625 479.878906 513.914062 448.25 C 526.574219 432.242188 542.214844 419.644531 560.503906 410.429688 C 570.054688 405.621094 580.140625 402.964844 590.824219 402.527344 C 601.28125 402.09375 611.035156 405.210938 620.695312 408.582031 C 629.480469 411.648438 637.96875 415.40625 645.828125 421.019531 Z M 428.066406 704.878906 C 429.671875 705.949219 430.921875 705.660156 432.117188 705.664062 C 450.90625 705.734375 469.699219 705.753906 488.476562 705.140625 C 503.894531 704.636719 519.316406 703.980469 534.65625 702.214844 C 557.382812 699.597656 579.355469 693.871094 600.710938 685.78125 C 639.453125 671.109375 673.816406 649.589844 701.640625 618.699219 C 735.621094 580.976562 748.925781 536.410156 742.796875 486.125 C 741.078125 472 736.078125 458.882812 727.835938 447.140625 C 723.351562 440.753906 717.265625 436.597656 709.714844 434.726562 C 698.519531 431.953125 687.589844 433.550781 676.785156 436.941406 C 674.789062 437.570312 674.320312 438.769531 674.4375 440.722656 C 674.800781 446.824219 675.089844 452.929688 675.253906 459.035156 C 675.808594 479.398438 674.980469 499.648438 670.410156 519.613281 C 666.21875 537.917969 660.003906 555.375 649.394531 571.039062 C 630.425781 599.058594 606.074219 620.992188 575.71875 636.140625 C 560.003906 643.984375 544.191406 651.605469 527.484375 657.183594 C 522.175781 658.953125 516.847656 659.828125 511.289062 658.472656 C 509.515625 658.039062 507.335938 658.105469 506.785156 655.980469 C 506.222656 653.8125 507.1875 651.730469 508.675781 650.148438 C 509.582031 649.183594 510.878906 648.496094 512.117188 647.945312 C 516.015625 646.195312 519.894531 644.367188 523.914062 642.9375 C 533.003906 639.707031 541.734375 635.71875 550.191406 631.097656 C 562.394531 624.433594 574.578125 617.746094 585.460938 608.976562 C 595.125 601.1875 603.726562 592.292969 612.203125 583.273438 C 625.734375 568.875 635.273438 552.183594 640.671875 533.164062 C 643.800781 522.132812 645.851562 510.867188 647.597656 499.542969 C 650.882812 478.246094 650.191406 456.910156 648.292969 435.550781 C 648.046875 432.789062 646.972656 430.726562 644.863281 428.898438 C 631.199219 417.046875 614.742188 411.589844 597.351562 409.03125 C 584.757812 407.175781 572.820312 410.835938 561.632812 416.710938 C 542.632812 426.683594 527.019531 440.574219 514.214844 457.734375 C 490.238281 489.867188 473.59375 525.375 464.007812 564.339844 C 457.761719 589.742188 453.410156 615.457031 449.371094 641.253906 C 446.835938 657.4375 443.15625 673.328125 436.421875 688.375 C 433.9375 693.925781 431.054688 699.277344 428.066406 704.878906 Z M 517.367188 653.058594 C 521.921875 653.039062 525.304688 651.5625 528.6875 650.273438 C 543.257812 644.738281 557.375 638.183594 571.359375 631.3125 C 592.890625 620.734375 611.621094 606.515625 627.628906 588.695312 C 639.859375 575.078125 650.199219 560.265625 656.800781 543.007812 C 665.65625 519.863281 669.050781 495.804688 669.152344 471.195312 C 669.222656 453.316406 667.917969 435.519531 665.902344 417.746094 C 662.34375 386.375 653.847656 356.386719 641.257812 327.535156 C 633.953125 310.792969 624.390625 295.367188 612.78125 281.226562 C 611.292969 279.410156 610.125 278.789062 607.859375 279.894531 C 604.300781 281.636719 600.480469 282.785156 596.703125 284.003906 C 593.734375 284.960938 590.65625 285.808594 588.25 287.605469 C 588.273438 288.6875 588.796875 289.066406 589.242188 289.449219 C 598.957031 297.796875 606.625 307.890625 613.65625 318.46875 C 640.113281 358.265625 653.296875 402.34375 655.789062 449.847656 C 657.101562 474.859375 655.195312 499.566406 649.539062 524 C 646.277344 538.074219 642.007812 551.800781 634.367188 564.09375 C 619.980469 587.238281 601.132812 606.335938 578.644531 621.585938 C 561.554688 633.175781 543.417969 643 523.765625 649.742188 C 521.792969 650.417969 519.699219 651 517.367188 653.058594 Z M 184.984375 628.347656 C 185.695312 629.960938 187.207031 630.613281 188.410156 631.558594 C 218.039062 654.816406 251.632812 669.746094 287.96875 678.949219 C 297.324219 681.320312 306.691406 682.753906 316.386719 681.863281 C 321.648438 681.382812 323.710938 683.550781 323.28125 688.808594 C 322.707031 695.851562 321.835938 702.871094 321.082031 709.898438 C 320.847656 712.074219 319.632812 712.738281 317.457031 713.347656 C 309.140625 715.675781 300.980469 713.796875 292.8125 712.9375 C 271.1875 710.660156 250.066406 706.179688 229.789062 698.066406 C 207.289062 689.066406 186.597656 677.128906 168.566406 660.828125 C 166.800781 659.234375 165.691406 659.171875 163.84375 660.621094 C 156.382812 666.484375 148.367188 671.429688 139.007812 673.621094 C 123.488281 677.257812 107.851562 677.5625 92.3125 673.9375 C 81.230469 671.347656 71.773438 665.441406 63.355469 657.894531 C 47.71875 643.878906 36.941406 626.5 28.824219 607.351562 C 21.617188 590.347656 16.523438 572.742188 15.011719 554.257812 C 13.816406 539.628906 14.730469 525.074219 16.996094 510.578125 C 22.800781 473.398438 35.652344 438.707031 53.59375 405.761719 C 60.050781 393.902344 66.367188 381.972656 73.335938 370.40625 C 79.90625 359.507812 85.929688 348.316406 91.800781 337.039062 C 92.234375 336.203125 92.621094 335.339844 93.078125 334.519531 C 95.96875 329.328125 99.472656 329.015625 102.457031 334.277344 C 112.058594 351.183594 126.117188 363.8125 140.972656 375.828125 C 157.46875 389.164062 173.382812 403.183594 188.917969 417.640625 C 213.421875 440.449219 227.324219 468.863281 233.378906 501.421875 C 235.914062 515.035156 237.515625 528.773438 237.070312 542.652344 C 236.648438 555.875 235.605469 569.097656 230.722656 581.527344 C 223.675781 599.460938 212.449219 613.964844 194.792969 622.792969 C 191.441406 624.46875 188.035156 626.101562 184.984375 628.347656 Z M 161.609375 654.367188 C 160.292969 652.824219 159.207031 651.527344 158.101562 650.25 C 156.867188 648.824219 155.570312 647.453125 154.382812 645.992188 C 130.21875 616.367188 113.429688 582.878906 102.386719 546.414062 C 97.808594 531.3125 95.800781 515.726562 94.382812 500.070312 C 92.765625 482.222656 91.902344 464.335938 93.046875 446.414062 C 93.300781 442.488281 93.9375 438.585938 95.144531 434.847656 C 96.582031 430.386719 99.878906 429.347656 104.039062 431.523438 C 107.234375 433.191406 107.589844 436.117188 107.84375 439.105469 C 108.859375 451.15625 109.730469 463.21875 110.800781 475.265625 C 111.664062 484.960938 112.109375 494.726562 114.128906 504.273438 C 121.453125 538.847656 134.949219 570.6875 156.402344 598.976562 C 162.015625 606.375 167.871094 613.539062 174.550781 620.003906 C 177.851562 623.195312 179.109375 623.371094 183.292969 621.183594 C 187.464844 619 191.617188 616.773438 195.78125 614.570312 C 198.992188 612.867188 201.875 610.722656 204.519531 608.222656 C 218.410156 595.089844 226.601562 579.183594 228.839844 560.074219 C 230.777344 543.5625 230.265625 527.195312 227.957031 510.769531 C 222.699219 473.382812 206.863281 441.828125 178.105469 416.816406 C 160.558594 401.554688 142.972656 386.355469 125.113281 371.46875 C 115.277344 363.269531 106.617188 354.003906 99.953125 342.984375 C 99.449219 342.152344 99.191406 340.933594 97.667969 340.832031 C 94.394531 346.921875 91.257812 353.074219 87.832031 359.058594 C 77.609375 376.914062 67.0625 394.582031 57.660156 412.894531 C 46.878906 433.890625 37.089844 455.253906 31.113281 478.210938 C 26.160156 497.253906 22.023438 516.421875 21.414062 536.164062 C 20.464844 567.007812 29.035156 595.425781 43.824219 622.167969 C 49.867188 633.089844 57.308594 642.996094 66.515625 651.496094 C 75.574219 659.863281 85.820312 666.089844 98.152344 668.179688 C 111.792969 670.492188 125.414062 670.046875 138.828125 666.664062 C 147.300781 664.527344 154.640625 660.058594 161.609375 654.367188 Z M 100.992188 443.625 C 99.664062 447.609375 99.746094 451.210938 99.679688 454.769531 C 99.40625 469.546875 100.117188 484.285156 101.445312 499.007812 C 102.773438 513.722656 104.675781 528.34375 108.710938 542.59375 C 117.164062 572.480469 130.570312 600.0625 147.890625 625.769531 C 155.195312 636.613281 163.40625 646.785156 173.15625 655.523438 C 194.914062 675.027344 220.175781 688.335938 248 696.921875 C 267.585938 702.96875 287.78125 705.882812 308.089844 707.902344 C 315.871094 708.675781 314.875 708.898438 315.417969 701.5625 C 315.554688 699.683594 315.878906 697.820312 315.980469 695.941406 C 316.109375 693.636719 316.769531 691.308594 315.96875 688.925781 C 308.417969 689.90625 301.09375 689.164062 293.882812 687.574219 C 267.371094 681.726562 242.042969 672.613281 218.191406 659.558594 C 198.660156 648.867188 180.550781 636.199219 164.90625 620.273438 C 154.730469 609.917969 146.773438 597.804688 138.667969 585.832031 C 130.949219 574.429688 125.703125 561.789062 120.414062 549.203125 C 112.84375 531.183594 107.304688 512.523438 105.277344 493.019531 C 103.585938 476.785156 102.433594 460.492188 100.992188 443.625 Z M 259.902344 183.765625 C 259.339844 183.683594 258.820312 184.011719 258.324219 184.394531 C 239.800781 198.703125 221.136719 212.832031 204.003906 228.847656 C 197.191406 235.21875 191.308594 242.320312 186.238281 250.136719 C 183.160156 254.878906 180.050781 259.609375 176.71875 264.171875 C 173.128906 269.097656 170.414062 269.421875 165.742188 265.660156 C 160.578125 261.503906 155.175781 257.824219 148.902344 255.503906 C 146.351562 254.5625 145.414062 250 147.039062 246.960938 C 147.550781 246 148.300781 245.164062 148.960938 244.28125 C 158.964844 230.878906 170.671875 219.042969 182.90625 207.722656 C 199.164062 192.675781 215.296875 177.472656 233.359375 164.539062 C 237.445312 161.617188 241.605469 158.792969 245.824219 156.070312 C 247.4375 155.03125 247.804688 154.25 246.882812 152.367188 C 244.628906 147.765625 245.3125 142.847656 246.140625 138.027344 C 248.597656 123.75 255.914062 111.984375 265.457031 101.464844 C 287.597656 77.046875 315.070312 62.496094 347.597656 57.394531 C 378.65625 52.523438 408.171875 58.128906 436.84375 70.148438 C 460.855469 80.210938 482.003906 94.71875 501.949219 111.167969 C 511.40625 118.96875 520.339844 127.367188 529.273438 135.753906 C 539.46875 145.332031 549.839844 154.703125 560.71875 163.503906 C 561.691406 164.292969 562.699219 165.074219 563.542969 165.992188 C 565.9375 168.605469 565.664062 171.035156 562.8125 173.179688 C 562.4375 173.460938 562.003906 173.660156 561.59375 173.890625 C 539.5 186.402344 519.582031 201.980469 499.921875 217.878906 C 485.96875 229.160156 471.441406 239.546875 456.074219 248.804688 C 433.425781 262.453125 409.136719 271.320312 382.796875 274.0625 C 350.648438 277.410156 321.042969 270.4375 294.445312 251.632812 C 282.230469 242.992188 274.074219 231.300781 268.46875 217.683594 C 264.210938 207.34375 260.574219 196.8125 260.664062 185.402344 C 260.667969 184.796875 260.710938 184.121094 259.902344 183.765625 Z M 555.652344 169.039062 C 555.453125 167.644531 554.5 167.242188 553.808594 166.6875 C 540.667969 156.160156 528.5625 144.476562 516.261719 133.015625 C 497.929688 115.9375 478.671875 100.019531 456.765625 87.714844 C 431.570312 73.5625 404.960938 63.679688 375.617188 62.738281 C 339.652344 61.585938 307.785156 72.109375 280.640625 95.976562 C 270.78125 104.648438 262.289062 114.515625 256.691406 126.574219 C 253.886719 132.609375 251.945312 138.910156 251.847656 145.617188 C 251.773438 150.828125 252.953125 151.453125 257.394531 149.09375 C 290.796875 131.386719 326.476562 121.84375 364.109375 119.171875 C 390.488281 117.300781 415.644531 122.964844 440.347656 131.390625 C 443.894531 132.601562 447.28125 134.339844 450.648438 136.023438 C 453.214844 137.308594 454.710938 139.417969 454.488281 142.484375 C 453.972656 149.445312 450.375 152.417969 443.53125 151.484375 C 443.066406 151.421875 442.613281 151.28125 442.148438 151.207031 C 430.058594 149.238281 418.140625 146.304688 405.992188 144.683594 C 395.707031 143.3125 385.386719 142.160156 374.996094 142.671875 C 366.523438 143.089844 358.089844 143.984375 349.6875 145.222656 C 337.859375 146.964844 326.148438 149.074219 315.035156 153.773438 C 299.96875 160.148438 285.378906 167.453125 271.230469 175.652344 C 270.144531 176.28125 269.097656 176.984375 268.058594 177.6875 C 267.214844 178.261719 267.011719 179.035156 267.03125 180.101562 C 267.28125 194.179688 270.96875 207.371094 277.035156 219.996094 C 282.683594 231.75 290.816406 241.207031 301.796875 248.378906 C 325.039062 263.554688 350.527344 269.828125 378.03125 267.59375 C 401.492188 265.6875 423.605469 258.957031 444.285156 247.5625 C 463.207031 237.132812 480.785156 224.792969 497.417969 211.035156 C 512.566406 198.507812 528.503906 187.023438 544.722656 175.929688 C 548.308594 173.476562 552.078125 171.285156 555.652344 169.039062 Z M 152.921875 249.933594 C 158.734375 252.859375 164.054688 255.550781 168.65625 259.390625 C 170.113281 260.609375 171.113281 260.257812 172.082031 258.773438 C 174.90625 254.429688 177.8125 250.140625 180.640625 245.796875 C 185.800781 237.859375 191.753906 230.582031 198.675781 224.121094 C 209.707031 213.824219 221.285156 204.167969 233.207031 194.933594 C 242.511719 187.71875 251.527344 180.109375 261.324219 173.554688 C 273.097656 165.683594 285.765625 159.402344 298.527344 153.339844 C 309.59375 148.085938 320.828125 143.203125 332.941406 140.828125 C 340.640625 139.320312 348.417969 138.320312 356.183594 137.226562 C 374.0625 134.707031 391.859375 135.207031 409.640625 138.035156 C 420.019531 139.6875 430.324219 141.742188 440.617188 143.84375 C 441.992188 144.125 443.421875 144.15625 444.828125 144.21875 C 445.683594 144.253906 446.425781 143.757812 446.683594 143.003906 C 447 142.074219 446.195312 141.667969 445.464844 141.328125 C 444.324219 140.800781 443.207031 140.230469 442.0625 139.714844 C 435.015625 136.550781 427.5625 134.644531 420.136719 132.664062 C 407.839844 129.386719 395.464844 126.730469 382.65625 126.273438 C 360.03125 125.464844 337.890625 128.429688 316.039062 134.066406 C 287.960938 141.308594 261.644531 152.398438 238.210938 169.753906 C 211.878906 189.257812 188.175781 211.710938 165.316406 235.078125 C 160.949219 239.542969 156.738281 244.207031 152.921875 249.933594 Z M 428.066406 704.878906 C 431.054688 699.277344 433.9375 693.925781 436.421875 688.375 C 443.15625 673.328125 446.835938 657.4375 449.371094 641.253906 C 453.410156 615.457031 457.761719 589.742188 464.007812 564.339844 C 473.59375 525.375 490.238281 489.867188 514.214844 457.734375 C 527.019531 440.574219 542.632812 426.683594 561.632812 416.710938 C 572.820312 410.835938 584.757812 407.175781 597.351562 409.03125 C 614.742188 411.589844 631.199219 417.046875 644.863281 428.898438 C 646.972656 430.726562 648.046875 432.789062 648.292969 435.550781 C 650.191406 456.910156 650.882812 478.246094 647.597656 499.542969 C 645.851562 510.867188 643.800781 522.132812 640.671875 533.164062 C 635.273438 552.183594 625.734375 568.875 612.203125 583.273438 C 603.726562 592.292969 595.125 601.1875 585.460938 608.976562 C 574.578125 617.746094 562.394531 624.433594 550.191406 631.097656 C 541.734375 635.71875 533.003906 639.707031 523.914062 642.9375 C 519.894531 644.367188 516.015625 646.195312 512.117188 647.945312 C 510.878906 648.496094 509.582031 649.183594 508.675781 650.148438 C 507.1875 651.730469 506.222656 653.8125 506.785156 655.980469 C 507.335938 658.105469 509.515625 658.039062 511.289062 658.472656 C 516.847656 659.828125 522.175781 658.953125 527.484375 657.183594 C 544.191406 651.605469 560.003906 643.984375 575.71875 636.140625 C 606.074219 620.992188 630.425781 599.058594 649.394531 571.039062 C 660.003906 555.375 666.21875 537.917969 670.410156 519.613281 C 674.980469 499.648438 675.808594 479.398438 675.253906 459.035156 C 675.089844 452.929688 674.800781 446.824219 674.4375 440.722656 C 674.320312 438.769531 674.789062 437.570312 676.785156 436.941406 C 687.589844 433.550781 698.519531 431.953125 709.714844 434.726562 C 717.265625 436.597656 723.351562 440.753906 727.835938 447.140625 C 736.078125 458.882812 741.078125 472 742.796875 486.125 C 748.925781 536.410156 735.621094 580.976562 701.640625 618.699219 C 673.816406 649.589844 639.453125 671.109375 600.710938 685.78125 C 579.355469 693.871094 557.382812 699.597656 534.65625 702.214844 C 519.316406 703.980469 503.894531 704.636719 488.476562 705.140625 C 469.699219 705.753906 450.90625 705.734375 432.117188 705.664062 C 430.921875 705.660156 429.671875 705.949219 428.066406 704.878906 Z M 158.101562 650.25 C 156.867188 648.824219 155.570312 647.453125 154.382812 645.992188 C 130.21875 616.367188 113.429688 582.878906 102.386719 546.414062 C 97.808594 531.3125 95.800781 515.726562 94.382812 500.070312 C 92.765625 482.222656 91.902344 464.335938 93.046875 446.414062 C 93.300781 442.488281 93.9375 438.585938 95.144531 434.847656 C 96.582031 430.386719 99.878906 429.347656 104.039062 431.523438 C 107.234375 433.191406 107.589844 436.117188 107.84375 439.105469 C 108.859375 451.15625 109.730469 463.21875 110.800781 475.265625 C 111.664062 484.960938 112.109375 494.726562 114.128906 504.273438 C 121.453125 538.847656 134.949219 570.6875 156.402344 598.976562 C 162.015625 606.375 167.871094 613.539062 174.550781 620.003906 C 177.851562 623.195312 179.109375 623.371094 183.292969 621.183594 C 187.464844 619 191.617188 616.773438 195.78125 614.570312 C 198.992188 612.867188 201.875 610.722656 204.519531 608.222656 C 218.410156 595.089844 226.601562 579.183594 228.839844 560.074219 C 230.777344 543.5625 230.265625 527.195312 227.957031 510.769531 C 222.699219 473.382812 206.863281 441.828125 178.105469 416.816406 C 160.558594 401.554688 142.972656 386.355469 125.113281 371.46875 C 115.277344 363.269531 106.617188 354.003906 99.953125 342.984375 C 99.449219 342.152344 99.191406 340.933594 97.667969 340.832031 C 94.394531 346.921875 91.257812 353.074219 87.832031 359.058594 C 77.609375 376.914062 67.0625 394.582031 57.660156 412.894531 C 46.878906 433.890625 37.089844 455.253906 31.113281 478.210938 C 26.160156 497.253906 22.023438 516.421875 21.414062 536.164062 C 20.464844 567.007812 29.035156 595.425781 43.824219 622.167969 C 49.867188 633.089844 57.308594 642.996094 66.515625 651.496094 C 75.574219 659.863281 85.820312 666.089844 98.152344 668.179688 C 111.792969 670.492188 125.414062 670.046875 138.828125 666.664062 C 147.300781 664.527344 154.640625 660.058594 161.609375 654.367188 C 160.292969 652.824219 159.207031 651.527344 158.101562 650.25 Z M 553.808594 166.6875 C 540.667969 156.160156 528.5625 144.476562 516.261719 133.015625 C 497.929688 115.9375 478.671875 100.019531 456.765625 87.714844 C 431.570312 73.5625 404.960938 63.679688 375.617188 62.738281 C 339.652344 61.585938 307.785156 72.109375 280.640625 95.976562 C 270.78125 104.648438 262.289062 114.515625 256.691406 126.574219 C 253.886719 132.609375 251.945312 138.910156 251.847656 145.617188 C 251.773438 150.828125 252.953125 151.453125 257.394531 149.09375 C 290.796875 131.386719 326.476562 121.84375 364.109375 119.171875 C 390.488281 117.300781 415.644531 122.964844 440.347656 131.390625 C 443.894531 132.601562 447.28125 134.339844 450.648438 136.023438 C 453.214844 137.308594 454.710938 139.417969 454.488281 142.484375 C 453.972656 149.445312 450.375 152.417969 443.53125 151.484375 C 443.066406 151.421875 442.613281 151.28125 442.148438 151.207031 C 430.058594 149.238281 418.140625 146.304688 405.992188 144.683594 C 395.707031 143.3125 385.386719 142.160156 374.996094 142.671875 C 366.523438 143.089844 358.089844 143.984375 349.6875 145.222656 C 337.859375 146.964844 326.148438 149.074219 315.035156 153.773438 C 299.96875 160.148438 285.378906 167.453125 271.230469 175.652344 C 270.144531 176.28125 269.097656 176.984375 268.058594 177.6875 C 267.214844 178.261719 267.011719 179.035156 267.03125 180.101562 C 267.28125 194.179688 270.96875 207.371094 277.035156 219.996094 C 282.683594 231.75 290.816406 241.207031 301.796875 248.378906 C 325.039062 263.554688 350.527344 269.828125 378.03125 267.59375 C 401.492188 265.6875 423.605469 258.957031 444.285156 247.5625 C 463.207031 237.132812 480.785156 224.792969 497.417969 211.035156 C 512.566406 198.507812 528.503906 187.023438 544.722656 175.929688 C 548.308594 173.476562 552.078125 171.285156 555.652344 169.039062 C 555.453125 167.644531 554.5 167.242188 553.808594 166.6875 Z M 517.367188 653.058594 C 519.699219 651 521.792969 650.417969 523.765625 649.742188 C 543.417969 643 561.554688 633.175781 578.644531 621.585938 C 601.132812 606.335938 619.980469 587.238281 634.367188 564.09375 C 642.007812 551.800781 646.277344 538.074219 649.539062 524 C 655.195312 499.566406 657.101562 474.859375 655.789062 449.847656 C 653.296875 402.34375 640.113281 358.265625 613.65625 318.46875 C 606.625 307.890625 598.957031 297.796875 589.242188 289.449219 C 588.796875 289.066406 588.273438 288.6875 588.25 287.605469 C 590.65625 285.808594 593.734375 284.960938 596.703125 284.003906 C 600.480469 282.785156 604.300781 281.636719 607.859375 279.894531 C 610.125 278.789062 611.292969 279.410156 612.78125 281.226562 C 624.390625 295.367188 633.953125 310.792969 641.257812 327.535156 C 653.847656 356.386719 662.34375 386.375 665.902344 417.746094 C 667.917969 435.519531 669.222656 453.316406 669.152344 471.195312 C 669.050781 495.804688 665.65625 519.863281 656.800781 543.007812 C 650.199219 560.265625 639.859375 575.078125 627.628906 588.695312 C 611.621094 606.515625 592.890625 620.734375 571.359375 631.3125 C 557.375 638.183594 543.257812 644.738281 528.6875 650.273438 C 525.304688 651.5625 521.921875 653.039062 517.367188 653.058594 Z M 99.679688 454.769531 C 99.40625 469.546875 100.117188 484.285156 101.445312 499.007812 C 102.773438 513.722656 104.675781 528.34375 108.710938 542.59375 C 117.164062 572.480469 130.570312 600.0625 147.890625 625.769531 C 155.195312 636.613281 163.40625 646.785156 173.15625 655.523438 C 194.914062 675.027344 220.175781 688.335938 248 696.921875 C 267.585938 702.96875 287.78125 705.882812 308.089844 707.902344 C 315.871094 708.675781 314.875 708.898438 315.417969 701.5625 C 315.554688 699.683594 315.878906 697.820312 315.980469 695.941406 C 316.109375 693.636719 316.769531 691.308594 315.96875 688.925781 C 308.417969 689.90625 301.09375 689.164062 293.882812 687.574219 C 267.371094 681.726562 242.042969 672.613281 218.191406 659.558594 C 198.660156 648.867188 180.550781 636.199219 164.90625 620.273438 C 154.730469 609.917969 146.773438 597.804688 138.667969 585.832031 C 130.949219 574.429688 125.703125 561.789062 120.414062 549.203125 C 112.84375 531.183594 107.304688 512.523438 105.277344 493.019531 C 103.585938 476.785156 102.433594 460.492188 100.992188 443.625 C 99.664062 447.609375 99.746094 451.210938 99.679688 454.769531 Z M 168.65625 259.390625 C 170.113281 260.609375 171.113281 260.257812 172.082031 258.773438 C 174.90625 254.429688 177.8125 250.140625 180.640625 245.796875 C 185.800781 237.859375 191.753906 230.582031 198.675781 224.121094 C 209.707031 213.824219 221.285156 204.167969 233.207031 194.933594 C 242.511719 187.71875 251.527344 180.109375 261.324219 173.554688 C 273.097656 165.683594 285.765625 159.402344 298.527344 153.339844 C 309.59375 148.085938 320.828125 143.203125 332.941406 140.828125 C 340.640625 139.320312 348.417969 138.320312 356.183594 137.226562 C 374.0625 134.707031 391.859375 135.207031 409.640625 138.035156 C 420.019531 139.6875 430.324219 141.742188 440.617188 143.84375 C 441.992188 144.125 443.421875 144.15625 444.828125 144.21875 C 445.683594 144.253906 446.425781 143.757812 446.683594 143.003906 C 447 142.074219 446.195312 141.667969 445.464844 141.328125 C 444.324219 140.800781 443.207031 140.230469 442.0625 139.714844 C 435.015625 136.550781 427.5625 134.644531 420.136719 132.664062 C 407.839844 129.386719 395.464844 126.730469 382.65625 126.273438 C 360.03125 125.464844 337.890625 128.429688 316.039062 134.066406 C 287.960938 141.308594 261.644531 152.398438 238.210938 169.753906 C 211.878906 189.257812 188.175781 211.710938 165.316406 235.078125 C 160.949219 239.542969 156.738281 244.207031 152.921875 249.933594 C 158.734375 252.859375 164.054688 255.550781 168.65625 259.390625 Z M 168.65625 259.390625 " fill-opacity="1" fill-rule="nonzero"/><path fill="#1c2143" d="M 645.828125 421.019531 C 645.050781 411.929688 643.503906 403.078125 641.085938 394.433594 C 632.242188 362.796875 618.527344 333.550781 597.992188 307.707031 C 594.082031 302.789062 589.675781 298.351562 585.042969 294.125 C 583.917969 293.097656 582.734375 292.101562 581.777344 290.925781 C 579.257812 287.839844 579.742188 284.957031 583.210938 282.925781 C 586.914062 280.757812 590.988281 279.425781 595.058594 278.113281 C 598.246094 277.082031 601.449219 276.085938 604.605469 274.953125 C 605.992188 274.457031 607.25 273.90625 608.203125 272.417969 C 609.808594 269.914062 613.773438 269.949219 614.960938 272.628906 C 617.371094 278.070312 621.667969 282.046875 625.039062 286.71875 C 640.113281 307.613281 650.539062 330.703125 658.53125 355.085938 C 666.273438 378.714844 671.078125 402.878906 673.320312 427.601562 C 673.445312 428.945312 673.320312 430.371094 674.351562 431.792969 C 679.785156 430.164062 685.316406 428.519531 691.0625 427.816406 C 702.777344 426.386719 713.933594 427.617188 723.898438 434.597656 C 727.957031 437.4375 731.207031 441.0625 733.929688 445.171875 C 742.351562 457.882812 747.398438 471.910156 749.136719 486.964844 C 754.058594 529.566406 744.976562 568.933594 720.761719 604.507812 C 706.136719 625.992188 687.167969 643.144531 666.066406 658.078125 C 631.628906 682.453125 593.425781 697.855469 552.121094 705.789062 C 537.246094 708.648438 522.152344 709.699219 507.054688 710.527344 C 479.585938 712.035156 452.085938 711.679688 424.597656 711.867188 C 422.746094 711.882812 420.851562 711.984375 419.726562 710.078125 C 418.5 707.996094 419.570312 706.257812 420.679688 704.578125 C 433.265625 685.605469 439.542969 664.34375 443.019531 642.140625 C 447.644531 612.578125 452.605469 583.109375 460.398438 554.148438 C 470.90625 515.082031 488.90625 479.878906 513.914062 448.25 C 526.574219 432.242188 542.214844 419.644531 560.503906 410.429688 C 570.054688 405.621094 580.140625 402.964844 590.824219 402.527344 C 601.28125 402.09375 611.035156 405.210938 620.695312 408.582031 C 629.480469 411.648438 637.96875 415.40625 645.828125 421.019531 Z M 428.066406 704.878906 C 429.671875 705.949219 430.921875 705.660156 432.117188 705.664062 C 450.90625 705.734375 469.699219 705.753906 488.476562 705.140625 C 503.894531 704.636719 519.316406 703.980469 534.65625 702.214844 C 557.382812 699.597656 579.355469 693.871094 600.710938 685.78125 C 639.453125 671.109375 673.816406 649.589844 701.640625 618.699219 C 735.621094 580.976562 748.925781 536.410156 742.796875 486.125 C 741.078125 472 736.078125 458.882812 727.835938 447.140625 C 723.351562 440.753906 717.265625 436.597656 709.714844 434.726562 C 698.519531 431.953125 687.589844 433.550781 676.785156 436.941406 C 674.789062 437.570312 674.320312 438.769531 674.4375 440.722656 C 674.800781 446.824219 675.089844 452.929688 675.253906 459.035156 C 675.808594 479.398438 674.980469 499.648438 670.410156 519.613281 C 666.21875 537.917969 660.003906 555.375 649.394531 571.039062 C 630.425781 599.058594 606.074219 620.992188 575.71875 636.140625 C 560.003906 643.984375 544.191406 651.605469 527.484375 657.183594 C 522.175781 658.953125 516.847656 659.828125 511.289062 658.472656 C 509.515625 658.039062 507.335938 658.105469 506.785156 655.980469 C 506.222656 653.8125 507.1875 651.730469 508.675781 650.148438 C 509.582031 649.183594 510.878906 648.496094 512.117188 647.945312 C 516.015625 646.195312 519.894531 644.367188 523.914062 642.9375 C 533.003906 639.707031 541.734375 635.71875 550.191406 631.097656 C 562.394531 624.433594 574.578125 617.746094 585.460938 608.976562 C 595.125 601.1875 603.726562 592.292969 612.203125 583.273438 C 625.734375 568.875 635.273438 552.183594 640.671875 533.164062 C 643.800781 522.132812 645.851562 510.867188 647.597656 499.542969 C 650.882812 478.246094 650.191406 456.910156 648.292969 435.550781 C 648.046875 432.789062 646.972656 430.726562 644.863281 428.898438 C 631.199219 417.046875 614.742188 411.589844 597.351562 409.03125 C 584.757812 407.175781 572.820312 410.835938 561.632812 416.710938 C 542.632812 426.683594 527.019531 440.574219 514.214844 457.734375 C 490.238281 489.867188 473.59375 525.375 464.007812 564.339844 C 457.761719 589.742188 453.410156 615.457031 449.371094 641.253906 C 446.835938 657.4375 443.15625 673.328125 436.421875 688.375 C 433.9375 693.925781 431.054688 699.277344 428.066406 704.878906 Z M 517.367188 653.058594 C 521.921875 653.039062 525.304688 651.5625 528.6875 650.273438 C 543.257812 644.738281 557.375 638.183594 571.359375 631.3125 C 592.890625 620.734375 611.621094 606.515625 627.628906 588.695312 C 639.859375 575.078125 650.199219 560.265625 656.800781 543.007812 C 665.65625 519.863281 669.050781 495.804688 669.152344 471.195312 C 669.222656 453.316406 667.917969 435.519531 665.902344 417.746094 C 662.34375 386.375 653.847656 356.386719 641.257812 327.535156 C 633.953125 310.792969 624.390625 295.367188 612.78125 281.226562 C 611.292969 279.410156 610.125 278.789062 607.859375 279.894531 C 604.300781 281.636719 600.480469 282.785156 596.703125 284.003906 C 593.734375 284.960938 590.65625 285.808594 588.25 287.605469 C 588.273438 288.6875 588.796875 289.066406 589.242188 289.449219 C 598.957031 297.796875 606.625 307.890625 613.65625 318.46875 C 640.113281 358.265625 653.296875 402.34375 655.789062 449.847656 C 657.101562 474.859375 655.195312 499.566406 649.539062 524 C 646.277344 538.074219 642.007812 551.800781 634.367188 564.09375 C 619.980469 587.238281 601.132812 606.335938 578.644531 621.585938 C 561.554688 633.175781 543.417969 643 523.765625 649.742188 C 521.792969 650.417969 519.699219 651 517.367188 653.058594 Z M 184.984375 628.347656 C 185.695312 629.960938 187.207031 630.613281 188.410156 631.558594 C 218.039062 654.816406 251.632812 669.746094 287.96875 678.949219 C 297.324219 681.320312 306.691406 682.753906 316.386719 681.863281 C 321.648438 681.382812 323.710938 683.550781 323.28125 688.808594 C 322.707031 695.851562 321.835938 702.871094 321.082031 709.898438 C 320.847656 712.074219 319.632812 712.738281 317.457031 713.347656 C 309.140625 715.675781 300.980469 713.796875 292.8125 712.9375 C 271.1875 710.660156 250.066406 706.179688 229.789062 698.066406 C 207.289062 689.066406 186.597656 677.128906 168.566406 660.828125 C 166.800781 659.234375 165.691406 659.171875 163.84375 660.621094 C 156.382812 666.484375 148.367188 671.429688 139.007812 673.621094 C 123.488281 677.257812 107.851562 677.5625 92.3125 673.9375 C 81.230469 671.347656 71.773438 665.441406 63.355469 657.894531 C 47.71875 643.878906 36.941406 626.5 28.824219 607.351562 C 21.617188 590.347656 16.523438 572.742188 15.011719 554.257812 C 13.816406 539.628906 14.730469 525.074219 16.996094 510.578125 C 22.800781 473.398438 35.652344 438.707031 53.59375 405.761719 C 60.050781 393.902344 66.367188 381.972656 73.335938 370.40625 C 79.90625 359.507812 85.929688 348.316406 91.800781 337.039062 C 92.234375 336.203125 92.621094 335.339844 93.078125 334.519531 C 95.96875 329.328125 99.472656 329.015625 102.457031 334.277344 C 112.058594 351.183594 126.117188 363.8125 140.972656 375.828125 C 157.46875 389.164062 173.382812 403.183594 188.917969 417.640625 C 213.421875 440.449219 227.324219 468.863281 233.378906 501.421875 C 235.914062 515.035156 237.515625 528.773438 237.070312 542.652344 C 236.648438 555.875 235.605469 569.097656 230.722656 581.527344 C 223.675781 599.460938 212.449219 613.964844 194.792969 622.792969 C 191.441406 624.46875 188.035156 626.101562 184.984375 628.347656 Z M 161.609375 654.367188 C 160.292969 652.824219 159.207031 651.527344 158.101562 650.25 C 156.867188 648.824219 155.570312 647.453125 154.382812 645.992188 C 130.21875 616.367188 113.429688 582.878906 102.386719 546.414062 C 97.808594 531.3125 95.800781 515.726562 94.382812 500.070312 C 92.765625 482.222656 91.902344 464.335938 93.046875 446.414062 C 93.300781 442.488281 93.9375 438.585938 95.144531 434.847656 C 96.582031 430.386719 99.878906 429.347656 104.039062 431.523438 C 107.234375 433.191406 107.589844 436.117188 107.84375 439.105469 C 108.859375 451.15625 109.730469 463.21875 110.800781 475.265625 C 111.664062 484.960938 112.109375 494.726562 114.128906 504.273438 C 121.453125 538.847656 134.949219 570.6875 156.402344 598.976562 C 162.015625 606.375 167.871094 613.539062 174.550781 620.003906 C 177.851562 623.195312 179.109375 623.371094 183.292969 621.183594 C 187.464844 619 191.617188 616.773438 195.78125 614.570312 C 198.992188 612.867188 201.875 610.722656 204.519531 608.222656 C 218.410156 595.089844 226.601562 579.183594 228.839844 560.074219 C 230.777344 543.5625 230.265625 527.195312 227.957031 510.769531 C 222.699219 473.382812 206.863281 441.828125 178.105469 416.816406 C 160.558594 401.554688 142.972656 386.355469 125.113281 371.46875 C 115.277344 363.269531 106.617188 354.003906 99.953125 342.984375 C 99.449219 342.152344 99.191406 340.933594 97.667969 340.832031 C 94.394531 346.921875 91.257812 353.074219 87.832031 359.058594 C 77.609375 376.914062 67.0625 394.582031 57.660156 412.894531 C 46.878906 433.890625 37.089844 455.253906 31.113281 478.210938 C 26.160156 497.253906 22.023438 516.421875 21.414062 536.164062 C 20.464844 567.007812 29.035156 595.425781 43.824219 622.167969 C 49.867188 633.089844 57.308594 642.996094 66.515625 651.496094 C 75.574219 659.863281 85.820312 666.089844 98.152344 668.179688 C 111.792969 670.492188 125.414062 670.046875 138.828125 666.664062 C 147.300781 664.527344 154.640625 660.058594 161.609375 654.367188 Z M 100.992188 443.625 C 99.664062 447.609375 99.746094 451.210938 99.679688 454.769531 C 99.40625 469.546875 100.117188 484.285156 101.445312 499.007812 C 102.773438 513.722656 104.675781 528.34375 108.710938 542.59375 C 117.164062 572.480469 130.570312 600.0625 147.890625 625.769531 C 155.195312 636.613281 163.40625 646.785156 173.15625 655.523438 C 194.914062 675.027344 220.175781 688.335938 248 696.921875 C 267.585938 702.96875 287.78125 705.882812 308.089844 707.902344 C 315.871094 708.675781 314.875 708.898438 315.417969 701.5625 C 315.554688 699.683594 315.878906 697.820312 315.980469 695.941406 C 316.109375 693.636719 316.769531 691.308594 315.96875 688.925781 C 308.417969 689.90625 301.09375 689.164062 293.882812 687.574219 C 267.371094 681.726562 242.042969 672.613281 218.191406 659.558594 C 198.660156 648.867188 180.550781 636.199219 164.90625 620.273438 C 154.730469 609.917969 146.773438 597.804688 138.667969 585.832031 C 130.949219 574.429688 125.703125 561.789062 120.414062 549.203125 C 112.84375 531.183594 107.304688 512.523438 105.277344 493.019531 C 103.585938 476.785156 102.433594 460.492188 100.992188 443.625 Z M 259.902344 183.765625 C 259.339844 183.683594 258.820312 184.011719 258.324219 184.394531 C 239.800781 198.703125 221.136719 212.832031 204.003906 228.847656 C 197.191406 235.21875 191.308594 242.320312 186.238281 250.136719 C 183.160156 254.878906 180.050781 259.609375 176.71875 264.171875 C 173.128906 269.097656 170.414062 269.421875 165.742188 265.660156 C 160.578125 261.503906 155.175781 257.824219 148.902344 255.503906 C 146.351562 254.5625 145.414062 250 147.039062 246.960938 C 147.550781 246 148.300781 245.164062 148.960938 244.28125 C 158.964844 230.878906 170.671875 219.042969 182.90625 207.722656 C 199.164062 192.675781 215.296875 177.472656 233.359375 164.539062 C 237.445312 161.617188 241.605469 158.792969 245.824219 156.070312 C 247.4375 155.03125 247.804688 154.25 246.882812 152.367188 C 244.628906 147.765625 245.3125 142.847656 246.140625 138.027344 C 248.597656 123.75 255.914062 111.984375 265.457031 101.464844 C 287.597656 77.046875 315.070312 62.496094 347.597656 57.394531 C 378.65625 52.523438 408.171875 58.128906 436.84375 70.148438 C 460.855469 80.210938 482.003906 94.71875 501.949219 111.167969 C 511.40625 118.96875 520.339844 127.367188 529.273438 135.753906 C 539.46875 145.332031 549.839844 154.703125 560.71875 163.503906 C 561.691406 164.292969 562.699219 165.074219 563.542969 165.992188 C 565.9375 168.605469 565.664062 171.035156 562.8125 173.179688 C 562.4375 173.460938 562.003906 173.660156 561.59375 173.890625 C 539.5 186.402344 519.582031 201.980469 499.921875 217.878906 C 485.96875 229.160156 471.441406 239.546875 456.074219 248.804688 C 433.425781 262.453125 409.136719 271.320312 382.796875 274.0625 C 350.648438 277.410156 321.042969 270.4375 294.445312 251.632812 C 282.230469 242.992188 274.074219 231.300781 268.46875 217.683594 C 264.210938 207.34375 260.574219 196.8125 260.664062 185.402344 C 260.667969 184.796875 260.710938 184.121094 259.902344 183.765625 Z M 555.652344 169.039062 C 555.453125 167.644531 554.5 167.242188 553.808594 166.6875 C 540.667969 156.160156 528.5625 144.476562 516.261719 133.015625 C 497.929688 115.9375 478.671875 100.019531 456.765625 87.714844 C 431.570312 73.5625 404.960938 63.679688 375.617188 62.738281 C 339.652344 61.585938 307.785156 72.109375 280.640625 95.976562 C 270.78125 104.648438 262.289062 114.515625 256.691406 126.574219 C 253.886719 132.609375 251.945312 138.910156 251.847656 145.617188 C 251.773438 150.828125 252.953125 151.453125 257.394531 149.09375 C 290.796875 131.386719 326.476562 121.84375 364.109375 119.171875 C 390.488281 117.300781 415.644531 122.964844 440.347656 131.390625 C 443.894531 132.601562 447.28125 134.339844 450.648438 136.023438 C 453.214844 137.308594 454.710938 139.417969 454.488281 142.484375 C 453.972656 149.445312 450.375 152.417969 443.53125 151.484375 C 443.066406 151.421875 442.613281 151.28125 442.148438 151.207031 C 430.058594 149.238281 418.140625 146.304688 405.992188 144.683594 C 395.707031 143.3125 385.386719 142.160156 374.996094 142.671875 C 366.523438 143.089844 358.089844 143.984375 349.6875 145.222656 C 337.859375 146.964844 326.148438 149.074219 315.035156 153.773438 C 299.96875 160.148438 285.378906 167.453125 271.230469 175.652344 C 270.144531 176.28125 269.097656 176.984375 268.058594 177.6875 C 267.214844 178.261719 267.011719 179.035156 267.03125 180.101562 C 267.28125 194.179688 270.96875 207.371094 277.035156 219.996094 C 282.683594 231.75 290.816406 241.207031 301.796875 248.378906 C 325.039062 263.554688 350.527344 269.828125 378.03125 267.59375 C 401.492188 265.6875 423.605469 258.957031 444.285156 247.5625 C 463.207031 237.132812 480.785156 224.792969 497.417969 211.035156 C 512.566406 198.507812 528.503906 187.023438 544.722656 175.929688 C 548.308594 173.476562 552.078125 171.285156 555.652344 169.039062 Z M 152.921875 249.933594 C 158.734375 252.859375 164.054688 255.550781 168.65625 259.390625 C 170.113281 260.609375 171.113281 260.257812 172.082031 258.773438 C 174.90625 254.429688 177.8125 250.140625 180.640625 245.796875 C 185.800781 237.859375 191.753906 230.582031 198.675781 224.121094 C 209.707031 213.824219 221.285156 204.167969 233.207031 194.933594 C 242.511719 187.71875 251.527344 180.109375 261.324219 173.554688 C 273.097656 165.683594 285.765625 159.402344 298.527344 153.339844 C 309.59375 148.085938 320.828125 143.203125 332.941406 140.828125 C 340.640625 139.320312 348.417969 138.320312 356.183594 137.226562 C 374.0625 134.707031 391.859375 135.207031 409.640625 138.035156 C 420.019531 139.6875 430.324219 141.742188 440.617188 143.84375 C 441.992188 144.125 443.421875 144.15625 444.828125 144.21875 C 445.683594 144.253906 446.425781 143.757812 446.683594 143.003906 C 447 142.074219 446.195312 141.667969 445.464844 141.328125 C 444.324219 140.800781 443.207031 140.230469 442.0625 139.714844 C 435.015625 136.550781 427.5625 134.644531 420.136719 132.664062 C 407.839844 129.386719 395.464844 126.730469 382.65625 126.273438 C 360.03125 125.464844 337.890625 128.429688 316.039062 134.066406 C 287.960938 141.308594 261.644531 152.398438 238.210938 169.753906 C 211.878906 189.257812 188.175781 211.710938 165.316406 235.078125 C 160.949219 239.542969 156.738281 244.207031 152.921875 249.933594 Z M 152.921875 249.933594 " fill-opacity="1" fill-rule="nonzero"/><path fill="#163172" d="M 428.066406 704.878906 C 431.054688 699.277344 433.9375 693.925781 436.421875 688.375 C 443.15625 673.328125 446.835938 657.4375 449.371094 641.253906 C 453.410156 615.457031 457.761719 589.742188 464.007812 564.339844 C 473.59375 525.375 490.238281 489.867188 514.214844 457.734375 C 527.019531 440.574219 542.632812 426.683594 561.632812 416.710938 C 572.820312 410.835938 584.757812 407.175781 597.351562 409.03125 C 614.742188 411.589844 631.199219 417.046875 644.863281 428.898438 C 646.972656 430.726562 648.046875 432.789062 648.292969 435.550781 C 650.191406 456.910156 650.882812 478.246094 647.597656 499.542969 C 645.851562 510.867188 643.800781 522.132812 640.671875 533.164062 C 635.273438 552.183594 625.734375 568.875 612.203125 583.273438 C 603.726562 592.292969 595.125 601.1875 585.460938 608.976562 C 574.578125 617.746094 562.394531 624.433594 550.191406 631.097656 C 541.734375 635.71875 533.003906 639.707031 523.914062 642.9375 C 519.894531 644.367188 516.015625 646.195312 512.117188 647.945312 C 510.878906 648.496094 509.582031 649.183594 508.675781 650.148438 C 507.1875 651.730469 506.222656 653.8125 506.785156 655.980469 C 507.335938 658.105469 509.515625 658.039062 511.289062 658.472656 C 516.847656 659.828125 522.175781 658.953125 527.484375 657.183594 C 544.191406 651.605469 560.003906 643.984375 575.71875 636.140625 C 606.074219 620.992188 630.425781 599.058594 649.394531 571.039062 C 660.003906 555.375 666.21875 537.917969 670.410156 519.613281 C 674.980469 499.648438 675.808594 479.398438 675.253906 459.035156 C 675.089844 452.929688 674.800781 446.824219 674.4375 440.722656 C 674.320312 438.769531 674.789062 437.570312 676.785156 436.941406 C 687.589844 433.550781 698.519531 431.953125 709.714844 434.726562 C 717.265625 436.597656 723.351562 440.753906 727.835938 447.140625 C 736.078125 458.882812 741.078125 472 742.796875 486.125 C 748.925781 536.410156 735.621094 580.976562 701.640625 618.699219 C 673.816406 649.589844 639.453125 671.109375 600.710938 685.78125 C 579.355469 693.871094 557.382812 699.597656 534.65625 702.214844 C 519.316406 703.980469 503.894531 704.636719 488.476562 705.140625 C 469.699219 705.753906 450.90625 705.734375 432.117188 705.664062 C 430.921875 705.660156 429.671875 705.949219 428.066406 704.878906 Z M 158.101562 650.25 C 156.867188 648.824219 155.570312 647.453125 154.382812 645.992188 C 130.21875 616.367188 113.429688 582.878906 102.386719 546.414062 C 97.808594 531.3125 95.800781 515.726562 94.382812 500.070312 C 92.765625 482.222656 91.902344 464.335938 93.046875 446.414062 C 93.300781 442.488281 93.9375 438.585938 95.144531 434.847656 C 96.582031 430.386719 99.878906 429.347656 104.039062 431.523438 C 107.234375 433.191406 107.589844 436.117188 107.84375 439.105469 C 108.859375 451.15625 109.730469 463.21875 110.800781 475.265625 C 111.664062 484.960938 112.109375 494.726562 114.128906 504.273438 C 121.453125 538.847656 134.949219 570.6875 156.402344 598.976562 C 162.015625 606.375 167.871094 613.539062 174.550781 620.003906 C 177.851562 623.195312 179.109375 623.371094 183.292969 621.183594 C 187.464844 619 191.617188 616.773438 195.78125 614.570312 C 198.992188 612.867188 201.875 610.722656 204.519531 608.222656 C 218.410156 595.089844 226.601562 579.183594 228.839844 560.074219 C 230.777344 543.5625 230.265625 527.195312 227.957031 510.769531 C 222.699219 473.382812 206.863281 441.828125 178.105469 416.816406 C 160.558594 401.554688 142.972656 386.355469 125.113281 371.46875 C 115.277344 363.269531 106.617188 354.003906 99.953125 342.984375 C 99.449219 342.152344 99.191406 340.933594 97.667969 340.832031 C 94.394531 346.921875 91.257812 353.074219 87.832031 359.058594 C 77.609375 376.914062 67.0625 394.582031 57.660156 412.894531 C 46.878906 433.890625 37.089844 455.253906 31.113281 478.210938 C 26.160156 497.253906 22.023438 516.421875 21.414062 536.164062 C 20.464844 567.007812 29.035156 595.425781 43.824219 622.167969 C 49.867188 633.089844 57.308594 642.996094 66.515625 651.496094 C 75.574219 659.863281 85.820312 666.089844 98.152344 668.179688 C 111.792969 670.492188 125.414062 670.046875 138.828125 666.664062 C 147.300781 664.527344 154.640625 660.058594 161.609375 654.367188 C 160.292969 652.824219 159.207031 651.527344 158.101562 650.25 Z M 553.808594 166.6875 C 540.667969 156.160156 528.5625 144.476562 516.261719 133.015625 C 497.929688 115.9375 478.671875 100.019531 456.765625 87.714844 C 431.570312 73.5625 404.960938 63.679688 375.617188 62.738281 C 339.652344 61.585938 307.785156 72.109375 280.640625 95.976562 C 270.78125 104.648438 262.289062 114.515625 256.691406 126.574219 C 253.886719 132.609375 251.945312 138.910156 251.847656 145.617188 C 251.773438 150.828125 252.953125 151.453125 257.394531 149.09375 C 290.796875 131.386719 326.476562 121.84375 364.109375 119.171875 C 390.488281 117.300781 415.644531 122.964844 440.347656 131.390625 C 443.894531 132.601562 447.28125 134.339844 450.648438 136.023438 C 453.214844 137.308594 454.710938 139.417969 454.488281 142.484375 C 453.972656 149.445312 450.375 152.417969 443.53125 151.484375 C 443.066406 151.421875 442.613281 151.28125 442.148438 151.207031 C 430.058594 149.238281 418.140625 146.304688 405.992188 144.683594 C 395.707031 143.3125 385.386719 142.160156 374.996094 142.671875 C 366.523438 143.089844 358.089844 143.984375 349.6875 145.222656 C 337.859375 146.964844 326.148438 149.074219 315.035156 153.773438 C 299.96875 160.148438 285.378906 167.453125 271.230469 175.652344 C 270.144531 176.28125 269.097656 176.984375 268.058594 177.6875 C 267.214844 178.261719 267.011719 179.035156 267.03125 180.101562 C 267.28125 194.179688 270.96875 207.371094 277.035156 219.996094 C 282.683594 231.75 290.816406 241.207031 301.796875 248.378906 C 325.039062 263.554688 350.527344 269.828125 378.03125 267.59375 C 401.492188 265.6875 423.605469 258.957031 444.285156 247.5625 C 463.207031 237.132812 480.785156 224.792969 497.417969 211.035156 C 512.566406 198.507812 528.503906 187.023438 544.722656 175.929688 C 548.308594 173.476562 552.078125 171.285156 555.652344 169.039062 C 555.453125 167.644531 554.5 167.242188 553.808594 166.6875 Z M 553.808594 166.6875 " fill-opacity="1" fill-rule="nonzero"/><path fill="#163172" d="M 517.367188 653.058594 C 519.699219 651 521.792969 650.417969 523.765625 649.742188 C 543.417969 643 561.554688 633.175781 578.644531 621.585938 C 601.132812 606.335938 619.980469 587.238281 634.367188 564.09375 C 642.007812 551.800781 646.277344 538.074219 649.539062 524 C 655.195312 499.566406 657.101562 474.859375 655.789062 449.847656 C 653.296875 402.34375 640.113281 358.265625 613.65625 318.46875 C 606.625 307.890625 598.957031 297.796875 589.242188 289.449219 C 588.796875 289.066406 588.273438 288.6875 588.25 287.605469 C 590.65625 285.808594 593.734375 284.960938 596.703125 284.003906 C 600.480469 282.785156 604.300781 281.636719 607.859375 279.894531 C 610.125 278.789062 611.292969 279.410156 612.78125 281.226562 C 624.390625 295.367188 633.953125 310.792969 641.257812 327.535156 C 653.847656 356.386719 662.34375 386.375 665.902344 417.746094 C 667.917969 435.519531 669.222656 453.316406 669.152344 471.195312 C 669.050781 495.804688 665.65625 519.863281 656.800781 543.007812 C 650.199219 560.265625 639.859375 575.078125 627.628906 588.695312 C 611.621094 606.515625 592.890625 620.734375 571.359375 631.3125 C 557.375 638.183594 543.257812 644.738281 528.6875 650.273438 C 525.304688 651.5625 521.921875 653.039062 517.367188 653.058594 Z M 99.679688 454.769531 C 99.40625 469.546875 100.117188 484.285156 101.445312 499.007812 C 102.773438 513.722656 104.675781 528.34375 108.710938 542.59375 C 117.164062 572.480469 130.570312 600.0625 147.890625 625.769531 C 155.195312 636.613281 163.40625 646.785156 173.15625 655.523438 C 194.914062 675.027344 220.175781 688.335938 248 696.921875 C 267.585938 702.96875 287.78125 705.882812 308.089844 707.902344 C 315.871094 708.675781 314.875 708.898438 315.417969 701.5625 C 315.554688 699.683594 315.878906 697.820312 315.980469 695.941406 C 316.109375 693.636719 316.769531 691.308594 315.96875 688.925781 C 308.417969 689.90625 301.09375 689.164062 293.882812 687.574219 C 267.371094 681.726562 242.042969 672.613281 218.191406 659.558594 C 198.660156 648.867188 180.550781 636.199219 164.90625 620.273438 C 154.730469 609.917969 146.773438 597.804688 138.667969 585.832031 C 130.949219 574.429688 125.703125 561.789062 120.414062 549.203125 C 112.84375 531.183594 107.304688 512.523438 105.277344 493.019531 C 103.585938 476.785156 102.433594 460.492188 100.992188 443.625 C 99.664062 447.609375 99.746094 451.210938 99.679688 454.769531 Z M 168.65625 259.390625 C 170.113281 260.609375 171.113281 260.257812 172.082031 258.773438 C 174.90625 254.429688 177.8125 250.140625 180.640625 245.796875 C 185.800781 237.859375 191.753906 230.582031 198.675781 224.121094 C 209.707031 213.824219 221.285156 204.167969 233.207031 194.933594 C 242.511719 187.71875 251.527344 180.109375 261.324219 173.554688 C 273.097656 165.683594 285.765625 159.402344 298.527344 153.339844 C 309.59375 148.085938 320.828125 143.203125 332.941406 140.828125 C 340.640625 139.320312 348.417969 138.320312 356.183594 137.226562 C 374.0625 134.707031 391.859375 135.207031 409.640625 138.035156 C 420.019531 139.6875 430.324219 141.742188 440.617188 143.84375 C 441.992188 144.125 443.421875 144.15625 444.828125 144.21875 C 445.683594 144.253906 446.425781 143.757812 446.683594 143.003906 C 447 142.074219 446.195312 141.667969 445.464844 141.328125 C 444.324219 140.800781 443.207031 140.230469 442.0625 139.714844 C 435.015625 136.550781 427.5625 134.644531 420.136719 132.664062 C 407.839844 129.386719 395.464844 126.730469 382.65625 126.273438 C 360.03125 125.464844 337.890625 128.429688 316.039062 134.066406 C 287.960938 141.308594 261.644531 152.398438 238.210938 169.753906 C 211.878906 189.257812 188.175781 211.710938 165.316406 235.078125 C 160.949219 239.542969 156.738281 244.207031 152.921875 249.933594 C 158.734375 252.859375 164.054688 255.550781 168.65625 259.390625 Z M 168.65625 259.390625 " fill-opacity="1" fill-rule="nonzero"/></svg>