<svg xmlns="http://www.w3.org/2000/svg" xmlns:xlink="http://www.w3.org/1999/xlink" width="500" zoomAndPan="magnify" viewBox="0 0 375 74.999997" height="100" preserveAspectRatio="xMidYMid meet" version="1.0"><defs><g/></defs><g fill="#ffffff" fill-opacity="1"><g transform="translate(17.648852, 60.374994)"><g><path d="M 5.53125 -45.71875 L 12.140625 -45.71875 L 27.671875 -7.765625 L 28.21875 -7.765625 L 43.75 -45.71875 L 50.359375 -45.71875 L 50.359375 0 L 45.1875 0 L 45.1875 -34.734375 L 44.734375 -34.734375 L 30.453125 0 L 25.453125 0 L 11.15625 -34.734375 L 10.71875 -34.734375 L 10.71875 0 L 5.53125 0 Z M 5.53125 -45.71875 "/></g></g></g><g fill="#ffffff" fill-opacity="1"><g transform="translate(74.972349, 60.374994)"><g><path d="M 8.03125 13.296875 C 7.144531 13.296875 6.347656 13.222656 5.640625 13.078125 C 4.941406 12.941406 4.460938 12.804688 4.203125 12.671875 L 5.53125 8.03125 C 7.457031 8.519531 9.0625 8.507812 10.34375 8 C 11.632812 7.488281 12.738281 5.953125 13.65625 3.390625 L 14.828125 0.171875 L 2.140625 -34.28125 L 7.859375 -34.28125 L 17.328125 -6.96875 L 17.671875 -6.96875 L 27.140625 -34.28125 L 32.859375 -34.28125 L 18.125 5.53125 C 16.1875 10.707031 12.820312 13.296875 8.03125 13.296875 Z M 8.03125 13.296875 "/></g></g></g><g fill="#ffffff" fill-opacity="1"><g transform="translate(109.973619, 60.374994)"><g><path d="M 13.84375 0 L 1.34375 -45.71875 L 6.96875 -45.71875 L 16.515625 -8.484375 L 16.96875 -8.484375 L 26.703125 -45.71875 L 32.953125 -45.71875 L 42.6875 -8.484375 L 43.125 -8.484375 L 52.6875 -45.71875 L 58.3125 -45.71875 L 45.8125 0 L 40.09375 0 L 30 -36.4375 L 29.640625 -36.4375 L 19.546875 0 Z M 13.84375 0 "/></g></g></g><g fill="#ffffff" fill-opacity="1"><g transform="translate(169.618631, 60.374994)"><g><path d="M 19.203125 0.71875 C 15.890625 0.71875 13.039062 -0.015625 10.65625 -1.484375 C 8.269531 -2.953125 6.429688 -5.003906 5.140625 -7.640625 C 3.859375 -10.285156 3.21875 -13.363281 3.21875 -16.875 C 3.21875 -20.382812 3.859375 -23.484375 5.140625 -26.171875 C 6.429688 -28.859375 8.234375 -30.957031 10.546875 -32.46875 C 12.859375 -33.976562 15.5625 -34.734375 18.65625 -34.734375 C 20.445312 -34.734375 22.210938 -34.4375 23.953125 -33.84375 C 25.691406 -33.25 27.273438 -32.285156 28.703125 -30.953125 C 30.128906 -29.617188 31.265625 -27.859375 32.109375 -25.671875 C 32.960938 -23.484375 33.390625 -20.789062 33.390625 -17.59375 L 33.390625 -15.359375 L 8.5 -15.359375 C 8.625 -11.691406 9.660156 -8.882812 11.609375 -6.9375 C 13.566406 -4.988281 16.097656 -4.015625 19.203125 -4.015625 C 21.265625 -4.015625 23.039062 -4.460938 24.53125 -5.359375 C 26.019531 -6.253906 27.097656 -7.59375 27.765625 -9.375 L 32.859375 -7.953125 C 32.054688 -5.359375 30.445312 -3.265625 28.03125 -1.671875 C 25.625 -0.078125 22.679688 0.71875 19.203125 0.71875 Z M 8.5 -19.90625 L 28.03125 -19.90625 C 28.03125 -22.8125 27.179688 -25.21875 25.484375 -27.125 C 23.796875 -29.039062 21.519531 -30 18.65625 -30 C 16.644531 -30 14.90625 -29.53125 13.4375 -28.59375 C 11.96875 -27.65625 10.804688 -26.414062 9.953125 -24.875 C 9.109375 -23.332031 8.625 -21.675781 8.5 -19.90625 Z M 8.5 -19.90625 "/></g></g></g><g fill="#ffffff" fill-opacity="1"><g transform="translate(206.227099, 60.374994)"><g><path d="M 5.53125 0 L 5.53125 -45.71875 L 10.796875 -45.71875 L 10.796875 -28.84375 L 11.25 -28.84375 C 11.632812 -29.4375 12.171875 -30.195312 12.859375 -31.125 C 13.554688 -32.050781 14.554688 -32.882812 15.859375 -33.625 C 17.160156 -34.363281 18.925781 -34.734375 21.15625 -34.734375 C 24.039062 -34.734375 26.582031 -34.007812 28.78125 -32.5625 C 30.988281 -31.125 32.710938 -29.078125 33.953125 -26.421875 C 35.191406 -23.773438 35.8125 -20.648438 35.8125 -17.046875 C 35.8125 -13.421875 35.191406 -10.28125 33.953125 -7.625 C 32.710938 -4.96875 31 -2.910156 28.8125 -1.453125 C 26.625 -0.00390625 24.101562 0.71875 21.25 0.71875 C 19.050781 0.71875 17.285156 0.347656 15.953125 -0.390625 C 14.628906 -1.128906 13.609375 -1.96875 12.890625 -2.90625 C 12.179688 -3.851562 11.632812 -4.640625 11.25 -5.265625 L 10.625 -5.265625 L 10.625 0 Z M 10.71875 -17.140625 C 10.71875 -13.253906 11.5625 -10.09375 13.25 -7.65625 C 14.9375 -5.226562 17.363281 -4.015625 20.53125 -4.015625 C 22.738281 -4.015625 24.582031 -4.597656 26.0625 -5.765625 C 27.539062 -6.929688 28.65625 -8.507812 29.40625 -10.5 C 30.15625 -12.488281 30.53125 -14.703125 30.53125 -17.140625 C 30.53125 -19.554688 30.160156 -21.734375 29.421875 -23.671875 C 28.691406 -25.609375 27.585938 -27.144531 26.109375 -28.28125 C 24.628906 -29.425781 22.769531 -30 20.53125 -30 C 17.320312 -30 14.882812 -28.816406 13.21875 -26.453125 C 11.550781 -24.085938 10.71875 -20.984375 10.71875 -17.140625 Z M 10.71875 -17.140625 "/></g></g></g><g fill="#ffffff" fill-opacity="1"><g transform="translate(245.246368, 60.374994)"><g><path d="M 29.109375 -26.609375 L 24.375 -25.265625 C 23.914062 -26.453125 23.140625 -27.566406 22.046875 -28.609375 C 20.960938 -29.648438 19.269531 -30.171875 16.96875 -30.171875 C 14.863281 -30.171875 13.113281 -29.691406 11.71875 -28.734375 C 10.332031 -27.773438 9.640625 -26.5625 9.640625 -25.09375 C 9.640625 -23.78125 10.113281 -22.742188 11.0625 -21.984375 C 12.019531 -21.222656 13.507812 -20.59375 15.53125 -20.09375 L 20.625 -18.84375 C 26.695312 -17.351562 29.734375 -14.253906 29.734375 -9.546875 C 29.734375 -7.585938 29.171875 -5.832031 28.046875 -4.28125 C 26.921875 -2.738281 25.351562 -1.519531 23.34375 -0.625 C 21.332031 0.269531 19 0.71875 16.34375 0.71875 C 12.84375 0.71875 9.945312 -0.0390625 7.65625 -1.5625 C 5.363281 -3.082031 3.910156 -5.300781 3.296875 -8.21875 L 8.296875 -9.46875 C 9.234375 -5.769531 11.882812 -3.921875 16.25 -3.921875 C 18.707031 -3.921875 20.660156 -4.445312 22.109375 -5.5 C 23.554688 -6.550781 24.28125 -7.8125 24.28125 -9.28125 C 24.28125 -11.707031 22.585938 -13.316406 19.203125 -14.109375 L 13.484375 -15.453125 C 10.335938 -16.191406 8.03125 -17.34375 6.5625 -18.90625 C 5.101562 -20.476562 4.375 -22.453125 4.375 -24.828125 C 4.375 -26.753906 4.921875 -28.460938 6.015625 -29.953125 C 7.109375 -31.441406 8.601562 -32.609375 10.5 -33.453125 C 12.394531 -34.304688 14.550781 -34.734375 16.96875 -34.734375 C 20.351562 -34.734375 23.015625 -33.988281 24.953125 -32.5 C 26.898438 -31.007812 28.285156 -29.046875 29.109375 -26.609375 Z M 29.109375 -26.609375 "/></g></g></g><g fill="#ffffff" fill-opacity="1"><g transform="translate(278.104687, 60.374994)"><g><path d="M 4.828125 0 L 4.828125 -34.28125 L 10.09375 -34.28125 L 10.09375 0 Z M 7.5 -40 C 6.46875 -40 5.582031 -40.347656 4.84375 -41.046875 C 4.113281 -41.742188 3.75 -42.585938 3.75 -43.578125 C 3.75 -44.554688 4.113281 -45.394531 4.84375 -46.09375 C 5.582031 -46.789062 6.46875 -47.140625 7.5 -47.140625 C 8.53125 -47.140625 9.410156 -46.789062 10.140625 -46.09375 C 10.878906 -45.394531 11.25 -44.554688 11.25 -43.578125 C 11.25 -42.585938 10.878906 -41.742188 10.140625 -41.046875 C 9.410156 -40.347656 8.53125 -40 7.5 -40 Z M 7.5 -40 "/></g></g></g><g fill="#ffffff" fill-opacity="1"><g transform="translate(293.015925, 60.374994)"><g><path d="M 19.734375 -34.28125 L 19.734375 -29.828125 L 12.40625 -29.828125 L 12.40625 -9.828125 C 12.40625 -8.335938 12.625 -7.222656 13.0625 -6.484375 C 13.507812 -5.742188 14.078125 -5.25 14.765625 -5 C 15.453125 -4.757812 16.1875 -4.640625 16.96875 -4.640625 C 17.539062 -4.640625 18.015625 -4.671875 18.390625 -4.734375 C 18.765625 -4.804688 19.0625 -4.863281 19.28125 -4.90625 L 20.359375 -0.171875 C 20.003906 -0.046875 19.503906 0.0859375 18.859375 0.234375 C 18.222656 0.378906 17.410156 0.453125 16.421875 0.453125 C 14.941406 0.453125 13.488281 0.132812 12.0625 -0.5 C 10.644531 -1.144531 9.46875 -2.125 8.53125 -3.4375 C 7.601562 -4.75 7.140625 -6.398438 7.140625 -8.390625 L 7.140625 -29.828125 L 1.96875 -29.828125 L 1.96875 -34.28125 L 7.140625 -34.28125 L 7.140625 -42.5 L 12.40625 -42.5 L 12.40625 -34.28125 Z M 19.734375 -34.28125 "/></g></g></g><g fill="#ffffff" fill-opacity="1"><g transform="translate(315.873895, 60.374994)"><g><path d="M 19.203125 0.71875 C 15.890625 0.71875 13.039062 -0.015625 10.65625 -1.484375 C 8.269531 -2.953125 6.429688 -5.003906 5.140625 -7.640625 C 3.859375 -10.285156 3.21875 -13.363281 3.21875 -16.875 C 3.21875 -20.382812 3.859375 -23.484375 5.140625 -26.171875 C 6.429688 -28.859375 8.234375 -30.957031 10.546875 -32.46875 C 12.859375 -33.976562 15.5625 -34.734375 18.65625 -34.734375 C 20.445312 -34.734375 22.210938 -34.4375 23.953125 -33.84375 C 25.691406 -33.25 27.273438 -32.285156 28.703125 -30.953125 C 30.128906 -29.617188 31.265625 -27.859375 32.109375 -25.671875 C 32.960938 -23.484375 33.390625 -20.789062 33.390625 -17.59375 L 33.390625 -15.359375 L 8.5 -15.359375 C 8.625 -11.691406 9.660156 -8.882812 11.609375 -6.9375 C 13.566406 -4.988281 16.097656 -4.015625 19.203125 -4.015625 C 21.265625 -4.015625 23.039062 -4.460938 24.53125 -5.359375 C 26.019531 -6.253906 27.097656 -7.59375 27.765625 -9.375 L 32.859375 -7.953125 C 32.054688 -5.359375 30.445312 -3.265625 28.03125 -1.671875 C 25.625 -0.078125 22.679688 0.71875 19.203125 0.71875 Z M 8.5 -19.90625 L 28.03125 -19.90625 C 28.03125 -22.8125 27.179688 -25.21875 25.484375 -27.125 C 23.796875 -29.039062 21.519531 -30 18.65625 -30 C 16.644531 -30 14.90625 -29.53125 13.4375 -28.59375 C 11.96875 -27.65625 10.804688 -26.414062 9.953125 -24.875 C 9.109375 -23.332031 8.625 -21.675781 8.5 -19.90625 Z M 8.5 -19.90625 "/></g></g></g></svg>