<svg xmlns="http://www.w3.org/2000/svg" xmlns:xlink="http://www.w3.org/1999/xlink" width="500" zoomAndPan="magnify" viewBox="0 0 375 74.999997" height="100" preserveAspectRatio="xMidYMid meet" version="1.0"><defs><g/></defs><path stroke-linecap="butt" transform="matrix(0.875796, 0, 0, 0.875796, -4.022216, -1.596343)" fill="none" stroke-linejoin="miter" d="M 40.140648 65.001849 L 42.825704 57.548809 L 71.8261 34.850714 L 51.068204 34.850714 L 54.551641 25.270147 L 107.097575 25.270147 L 104.416979 32.705345 L 75.117748 55.416821 L 96.174479 55.416821 L 92.704423 65.001849 Z M 123.149932 59.935031 C 122.744051 60.947502 122.070557 61.723582 121.138369 62.258809 L 116.682603 64.506763 C 116.156296 64.83682 115.563086 65.001849 114.907432 65.001849 L 97.994252 65.001849 L 110.572092 30.323584 C 110.977972 29.27097 111.669308 28.499351 112.641637 28.013186 L 117.039421 25.747391 C 117.574648 25.430715 118.167858 25.270147 118.814591 25.270147 L 135.727772 25.270147 Z M 153.729248 65.001849 L 126.860841 65.001849 L 141.271834 25.270147 L 168.12686 25.270147 L 161.539105 43.392049 L 182.105212 25.270147 L 208.425011 25.270147 L 208.286744 25.626965 L 186.262143 44.98435 L 194.129984 64.627189 L 194.014018 65.001849 L 167.707599 65.001849 L 160.379446 46.683696 Z M 258.343871 39.725742 L 253.397479 53.405258 C 253.071883 54.301764 252.567877 55.113525 251.894383 55.849463 C 251.225349 56.57648 250.449269 57.205372 249.552764 57.740599 L 238.255009 64.091962 C 237.728702 64.408638 237.189015 64.64057 236.631486 64.792218 C 236.087339 64.930485 235.52981 65.001849 234.963361 65.001849 L 196.319955 65.001849 L 199.794472 55.416821 L 225.860038 55.416821 C 226.711941 55.416821 227.528163 55.126906 228.304242 54.538156 C 229.075862 53.940486 229.606629 53.23577 229.896543 52.424008 L 230.628021 50.528412 L 201.569642 50.528412 L 206.516034 36.862277 C 207.251971 34.948839 208.590039 33.441283 210.539159 32.348527 L 221.716487 26.180033 C 222.282936 25.849976 222.836004 25.618044 223.384612 25.479777 C 223.942141 25.34151 224.481828 25.270147 225.008135 25.270147 L 263.589098 25.270147 L 260.105661 34.850714 L 234.231884 34.850714 C 233.379981 34.850714 232.554839 35.136169 231.760918 35.702618 C 230.966998 36.269066 230.405009 36.978243 230.074953 37.834606 L 229.405919 39.725742 Z M 314.984293 39.725742 L 310.033441 53.405258 C 309.707845 54.301764 309.203839 55.113525 308.530345 55.849463 C 307.865771 56.57648 307.085231 57.205372 306.188726 57.740599 L 294.895431 64.091962 C 294.369124 64.408638 293.824976 64.64057 293.271908 64.792218 C 292.7233 64.930485 292.165772 65.001849 291.599323 65.001849 L 252.960377 65.001849 L 256.430434 55.416821 L 282.496 55.416821 C 283.347903 55.416821 284.164125 55.126906 284.940204 54.538156 C 285.716284 53.940486 286.247051 53.23577 286.532505 52.424008 L 287.263983 50.528412 L 258.205604 50.528412 L 263.151996 36.862277 C 263.887933 34.948839 265.230461 33.441283 267.17512 32.348527 L 278.352449 26.180033 C 278.918898 25.849976 279.476426 25.618044 280.020574 25.479777 C 280.578102 25.34151 281.11779 25.270147 281.644097 25.270147 L 320.22952 25.270147 L 316.741623 34.850714 L 290.872306 34.850714 C 290.015943 34.850714 289.190801 35.136169 288.39688 35.702618 C 287.60296 36.269066 287.040971 36.978243 286.710914 37.834606 L 286.04188 39.725742 Z M 371.620255 39.725742 L 366.673863 53.405258 C 366.343807 54.301764 365.844261 55.113525 365.166307 55.849463 C 364.501733 56.57648 363.721193 57.205372 362.829148 57.740599 L 351.531393 64.091962 C 351.005086 64.408638 350.465399 64.64057 349.90787 64.792218 C 349.359262 64.930485 348.806194 65.001849 348.239745 65.001849 L 309.596339 65.001849 L 313.066396 55.416821 L 339.131962 55.416821 C 339.988325 55.416821 340.800087 55.126906 341.576166 54.538156 C 342.352246 53.940486 342.883013 53.23577 343.172927 52.424008 L 343.899944 50.528412 L 314.841566 50.528412 L 319.787958 36.862277 C 320.523895 34.948839 321.866423 33.441283 323.811082 32.348527 L 334.988411 26.180033 C 335.55486 25.849976 336.112388 25.618044 336.656536 25.479777 C 337.214064 25.34151 337.758212 25.270147 338.284519 25.270147 L 376.865482 25.270147 L 373.377584 34.850714 L 347.508268 34.850714 C 346.651905 34.850714 345.826763 35.136169 345.032842 35.702618 C 344.238922 36.269066 343.676933 36.978243 343.351337 37.834606 L 342.677842 39.725742 Z M 373.921732 42.169947 L 387.351476 25.270147 L 407.618747 25.270147 L 407.319912 26.180033 L 390.522697 43.271623 L 373.48909 43.271623 Z M 373.921732 42.169947 " stroke="#1e1411" stroke-width="16.024445" stroke-opacity="1" stroke-miterlimit="4"/><g fill="#f6f6f6" fill-opacity="1"><g transform="translate(29.47699, 55.330412)"><g><path d="M 1.65625 0 L 4.015625 -6.515625 L 29.40625 -26.40625 L 11.21875 -26.40625 L 14.265625 -34.796875 L 60.296875 -34.796875 L 57.9375 -28.28125 L 32.28125 -8.390625 L 50.734375 -8.390625 L 47.6875 0 Z M 1.65625 0 "/></g></g></g><g fill="#f6f6f6" fill-opacity="1"><g transform="translate(78.812277, 55.330412)"><g><path d="M 25.015625 -4.4375 C 24.660156 -3.539062 24.070312 -2.863281 23.25 -2.40625 L 19.34375 -0.421875 C 18.882812 -0.140625 18.367188 0 17.796875 0 L 3 0 L 14 -30.359375 C 14.363281 -31.285156 14.972656 -31.960938 15.828125 -32.390625 L 19.671875 -34.375 C 20.128906 -34.65625 20.644531 -34.796875 21.21875 -34.796875 L 36.03125 -34.796875 Z M 25.015625 -4.4375 "/></g></g></g><g fill="#f6f6f6" fill-opacity="1"><g transform="translate(105.217087, 55.330412)"><g><path d="M 25.390625 0 L 1.875 0 L 14.484375 -34.796875 L 38 -34.796875 L 32.234375 -18.921875 L 50.25 -34.796875 L 73.28125 -34.796875 L 73.171875 -34.484375 L 53.875 -17.53125 L 60.78125 -0.328125 L 60.671875 0 L 37.625 0 L 31.21875 -16.03125 Z M 25.390625 0 "/></g></g></g><g fill="#f6f6f6" fill-opacity="1"><g transform="translate(166.258159, 55.330412)"><g><path d="M 55.96875 -22.125 L 51.640625 -10.15625 C 51.347656 -9.375 50.90625 -8.660156 50.3125 -8.015625 C 49.726562 -7.378906 49.046875 -6.828125 48.265625 -6.359375 L 38.375 -0.796875 C 37.914062 -0.515625 37.441406 -0.3125 36.953125 -0.1875 C 36.472656 -0.0625 35.988281 0 35.5 0 L 1.65625 0 L 4.703125 -8.390625 L 27.53125 -8.390625 C 28.28125 -8.390625 28.992188 -8.644531 29.671875 -9.15625 C 30.347656 -9.675781 30.8125 -10.296875 31.0625 -11.015625 L 31.703125 -12.671875 L 6.25 -12.671875 L 10.578125 -24.640625 C 11.222656 -26.316406 12.398438 -27.632812 14.109375 -28.59375 L 23.890625 -34 C 24.390625 -34.28125 24.878906 -34.484375 25.359375 -34.609375 C 25.835938 -34.734375 26.3125 -34.796875 26.78125 -34.796875 L 60.5625 -34.796875 L 57.515625 -26.40625 L 34.84375 -26.40625 C 34.101562 -26.40625 33.382812 -26.15625 32.6875 -25.65625 C 31.988281 -25.15625 31.5 -24.53125 31.21875 -23.78125 L 30.625 -22.125 Z M 55.96875 -22.125 "/></g></g></g><g fill="#f6f6f6" fill-opacity="1"><g transform="translate(215.860705, 55.330412)"><g><path d="M 55.96875 -22.125 L 51.640625 -10.15625 C 51.347656 -9.375 50.90625 -8.660156 50.3125 -8.015625 C 49.726562 -7.378906 49.046875 -6.828125 48.265625 -6.359375 L 38.375 -0.796875 C 37.914062 -0.515625 37.441406 -0.3125 36.953125 -0.1875 C 36.472656 -0.0625 35.988281 0 35.5 0 L 1.65625 0 L 4.703125 -8.390625 L 27.53125 -8.390625 C 28.28125 -8.390625 28.992188 -8.644531 29.671875 -9.15625 C 30.347656 -9.675781 30.8125 -10.296875 31.0625 -11.015625 L 31.703125 -12.671875 L 6.25 -12.671875 L 10.578125 -24.640625 C 11.222656 -26.316406 12.398438 -27.632812 14.109375 -28.59375 L 23.890625 -34 C 24.390625 -34.28125 24.878906 -34.484375 25.359375 -34.609375 C 25.835938 -34.734375 26.3125 -34.796875 26.78125 -34.796875 L 60.5625 -34.796875 L 57.515625 -26.40625 L 34.84375 -26.40625 C 34.101562 -26.40625 33.382812 -26.15625 32.6875 -25.65625 C 31.988281 -25.15625 31.5 -24.53125 31.21875 -23.78125 L 30.625 -22.125 Z M 55.96875 -22.125 "/></g></g></g><g fill="#f6f6f6" fill-opacity="1"><g transform="translate(265.463238, 55.330412)"><g><path d="M 55.96875 -22.125 L 51.640625 -10.15625 C 51.347656 -9.375 50.90625 -8.660156 50.3125 -8.015625 C 49.726562 -7.378906 49.046875 -6.828125 48.265625 -6.359375 L 38.375 -0.796875 C 37.914062 -0.515625 37.441406 -0.3125 36.953125 -0.1875 C 36.472656 -0.0625 35.988281 0 35.5 0 L 1.65625 0 L 4.703125 -8.390625 L 27.53125 -8.390625 C 28.28125 -8.390625 28.992188 -8.644531 29.671875 -9.15625 C 30.347656 -9.675781 30.8125 -10.296875 31.0625 -11.015625 L 31.703125 -12.671875 L 6.25 -12.671875 L 10.578125 -24.640625 C 11.222656 -26.316406 12.398438 -27.632812 14.109375 -28.59375 L 23.890625 -34 C 24.390625 -34.28125 24.878906 -34.484375 25.359375 -34.609375 C 25.835938 -34.734375 26.3125 -34.796875 26.78125 -34.796875 L 60.5625 -34.796875 L 57.515625 -26.40625 L 34.84375 -26.40625 C 34.101562 -26.40625 33.382812 -26.15625 32.6875 -25.65625 C 31.988281 -25.15625 31.5 -24.53125 31.21875 -23.78125 L 30.625 -22.125 Z M 55.96875 -22.125 "/></g></g></g><g fill="#f6f6f6" fill-opacity="1"><g transform="translate(315.065784, 55.330412)"><g><path d="M 8.390625 -19.984375 L 20.15625 -34.796875 L 37.890625 -34.796875 L 37.625 -34 L 22.9375 -19.03125 L 8.015625 -19.03125 Z M 8.390625 -19.984375 "/></g></g></g></svg>