<svg xmlns="http://www.w3.org/2000/svg" xmlns:xlink="http://www.w3.org/1999/xlink" width="1024" zoomAndPan="magnify" viewBox="0 0 768 767.999994" height="1024" preserveAspectRatio="xMidYMid meet" version="1.0"><path fill="#eeffff" d="M 127.300781 290.734375 C 127.300781 286.535156 127.402344 282.335938 127.609375 278.140625 C 127.816406 273.945312 128.125 269.757812 128.535156 265.574219 C 128.949219 261.394531 129.460938 257.226562 130.078125 253.070312 C 130.695312 248.914062 131.414062 244.777344 132.234375 240.65625 C 133.050781 236.535156 133.972656 232.4375 134.992188 228.363281 C 136.015625 224.289062 137.132812 220.242188 138.355469 216.222656 C 139.574219 212.199219 140.890625 208.214844 142.304688 204.257812 C 143.722656 200.300781 145.234375 196.382812 146.839844 192.503906 C 148.449219 188.621094 150.148438 184.78125 151.945312 180.984375 C 153.742188 177.1875 155.628906 173.433594 157.609375 169.730469 C 159.589844 166.023438 161.660156 162.371094 163.820312 158.769531 C 165.980469 155.164062 168.226562 151.617188 170.5625 148.125 C 172.894531 144.628906 175.3125 141.195312 177.816406 137.820312 C 180.320312 134.449219 182.902344 131.136719 185.566406 127.890625 C 188.234375 124.640625 190.976562 121.460938 193.796875 118.347656 C 196.617188 115.238281 199.515625 112.195312 202.484375 109.222656 C 205.457031 106.253906 208.496094 103.359375 211.609375 100.535156 C 214.722656 97.714844 217.902344 94.972656 221.152344 92.308594 C 224.398438 89.640625 227.707031 87.058594 231.082031 84.554688 C 234.457031 82.054688 237.890625 79.636719 241.382812 77.300781 C 244.878906 74.96875 248.425781 72.71875 252.027344 70.558594 C 255.632812 68.402344 259.285156 66.332031 262.992188 64.351562 C 266.695312 62.371094 270.449219 60.480469 274.246094 58.683594 C 278.042969 56.890625 281.882812 55.1875 285.761719 53.578125 C 289.644531 51.972656 293.5625 50.460938 297.519531 49.046875 C 301.472656 47.628906 305.460938 46.3125 309.480469 45.09375 C 313.503906 43.875 317.550781 42.753906 321.625 41.734375 C 325.699219 40.710938 329.796875 39.792969 333.917969 38.972656 C 338.039062 38.152344 342.175781 37.433594 346.332031 36.816406 C 350.488281 36.203125 354.65625 35.6875 358.835938 35.277344 C 363.015625 34.863281 367.207031 34.554688 371.402344 34.347656 C 375.597656 34.144531 379.796875 34.039062 383.996094 34.039062 C 388.199219 34.039062 392.398438 34.144531 396.59375 34.347656 C 400.789062 34.554688 404.976562 34.863281 409.15625 35.277344 C 413.339844 35.6875 417.507812 36.203125 421.664062 36.816406 C 425.816406 37.433594 429.957031 38.152344 434.074219 38.972656 C 438.195312 39.792969 442.292969 40.710938 446.367188 41.734375 C 450.445312 42.753906 454.492188 43.875 458.511719 45.09375 C 462.53125 46.3125 466.519531 47.628906 470.476562 49.046875 C 474.429688 50.460938 478.347656 51.972656 482.230469 53.578125 C 486.113281 55.1875 489.949219 56.890625 493.75 58.683594 C 497.546875 60.480469 501.296875 62.371094 505.003906 64.351562 C 508.707031 66.332031 512.363281 68.402344 515.964844 70.558594 C 519.570312 72.71875 523.117188 74.96875 526.609375 77.300781 C 530.101562 79.636719 533.535156 82.054688 536.910156 84.554688 C 540.285156 87.058594 543.597656 89.640625 546.84375 92.308594 C 550.089844 94.972656 553.269531 97.714844 556.382812 100.535156 C 559.496094 103.359375 562.539062 106.253906 565.507812 109.222656 C 568.480469 112.195312 571.375 115.238281 574.195312 118.347656 C 577.015625 121.460938 579.761719 124.640625 582.425781 127.890625 C 585.089844 131.136719 587.675781 134.449219 590.175781 137.820312 C 592.679688 141.195312 595.097656 144.628906 597.433594 148.125 C 599.765625 151.617188 602.011719 155.164062 604.171875 158.769531 C 606.332031 162.371094 608.402344 166.023438 610.382812 169.730469 C 612.363281 173.433594 614.25 177.1875 616.046875 180.984375 C 617.84375 184.78125 619.546875 188.621094 621.152344 192.503906 C 622.761719 196.382812 624.273438 200.300781 625.6875 204.257812 C 627.101562 208.214844 628.421875 212.199219 629.640625 216.222656 C 630.859375 220.242188 631.980469 224.289062 633 228.363281 C 634.019531 232.4375 634.941406 236.535156 635.761719 240.65625 C 636.582031 244.777344 637.296875 248.914062 637.914062 253.070312 C 638.53125 257.226562 639.046875 261.394531 639.457031 265.574219 C 639.867188 269.757812 640.179688 273.945312 640.382812 278.140625 C 640.589844 282.335938 640.691406 286.535156 640.691406 290.734375 L 640.691406 328.691406 C 702.886719 337.601562 750.707031 391.105469 750.707031 455.753906 L 750.707031 464.921875 C 750.707031 466.902344 750.65625 468.882812 750.554688 470.863281 C 750.457031 472.84375 750.308594 474.816406 750.109375 476.789062 C 749.914062 478.761719 749.664062 480.726562 749.371094 482.683594 C 749.074219 484.644531 748.730469 486.59375 748.335938 488.539062 C 747.941406 490.480469 747.5 492.410156 747.011719 494.332031 C 746.523438 496.25 745.984375 498.15625 745.402344 500.050781 C 744.816406 501.945312 744.183594 503.820312 743.507812 505.683594 C 742.828125 507.542969 742.105469 509.386719 741.332031 511.214844 C 740.5625 513.039062 739.75 514.84375 738.886719 516.628906 C 738.027344 518.414062 737.125 520.175781 736.175781 521.917969 C 735.226562 523.65625 734.234375 525.371094 733.203125 527.0625 C 732.167969 528.753906 731.09375 530.417969 729.976562 532.054688 C 728.859375 533.691406 727.703125 535.296875 726.507812 536.878906 C 725.308594 538.457031 724.074219 540.003906 722.800781 541.523438 C 721.527344 543.039062 720.214844 544.523438 718.867188 545.976562 C 717.519531 547.429688 716.136719 548.847656 714.714844 550.230469 C 713.296875 551.613281 711.84375 552.960938 710.359375 554.269531 C 708.871094 555.582031 707.355469 556.855469 705.804688 558.089844 C 704.257812 559.324219 702.675781 560.519531 701.066406 561.675781 C 699.457031 562.832031 697.820312 563.945312 696.15625 565.019531 C 694.492188 566.097656 692.800781 567.128906 691.085938 568.117188 C 689.367188 569.109375 687.628906 570.054688 685.867188 570.960938 C 684.101562 571.863281 682.316406 572.722656 680.511719 573.535156 C 678.703125 574.351562 676.878906 575.117188 675.035156 575.84375 C 673.1875 576.566406 671.328125 577.242188 669.449219 577.875 C 667.570312 578.503906 665.675781 579.085938 663.769531 579.625 C 661.863281 580.160156 659.941406 580.648438 658.011719 581.085938 C 656.078125 581.527344 654.136719 581.921875 652.1875 582.261719 C 650.234375 582.605469 648.277344 582.902344 646.308594 583.148438 C 644.34375 583.394531 642.371094 583.589844 640.394531 583.738281 C 638.421875 583.882812 636.441406 583.984375 634.460938 584.03125 C 632.480469 584.082031 630.5 584.078125 628.519531 584.03125 C 601.382812 661.773438 532.367188 714.175781 457.890625 727.449219 C 440.652344 733.757812 420.265625 730.785156 402.332031 730.785156 C 400.53125 730.785156 398.734375 730.699219 396.941406 730.523438 C 395.148438 730.34375 393.367188 730.082031 391.601562 729.730469 C 389.835938 729.378906 388.089844 728.941406 386.363281 728.417969 C 384.640625 727.894531 382.945312 727.289062 381.28125 726.597656 C 379.617188 725.910156 377.992188 725.140625 376.402344 724.292969 C 374.8125 723.441406 373.269531 722.515625 371.773438 721.515625 C 370.273438 720.515625 368.828125 719.445312 367.4375 718.300781 C 366.042969 717.15625 364.710938 715.949219 363.4375 714.675781 C 362.164062 713.402344 360.953125 712.070312 359.8125 710.675781 C 358.667969 709.285156 357.597656 707.839844 356.597656 706.339844 C 355.59375 704.84375 354.671875 703.300781 353.820312 701.710938 C 352.972656 700.121094 352.203125 698.496094 351.511719 696.832031 C 350.824219 695.167969 350.21875 693.472656 349.695312 691.746094 C 349.171875 690.023438 348.734375 688.277344 348.382812 686.511719 C 348.03125 684.746094 347.769531 682.964844 347.589844 681.171875 C 347.414062 679.378906 347.328125 677.582031 347.328125 675.78125 C 347.328125 673.980469 347.414062 672.183594 347.589844 670.390625 C 347.769531 668.597656 348.03125 666.816406 348.382812 665.050781 C 348.734375 663.28125 349.171875 661.535156 349.695312 659.8125 C 350.21875 658.089844 350.824219 656.394531 351.511719 654.730469 C 352.203125 653.066406 352.972656 651.4375 353.820312 649.851562 C 354.671875 648.261719 355.59375 646.71875 356.597656 645.21875 C 357.597656 643.722656 358.667969 642.277344 359.8125 640.886719 C 360.953125 639.492188 362.164062 638.160156 363.4375 636.886719 C 364.710938 635.609375 366.042969 634.402344 367.4375 633.261719 C 368.828125 632.117188 370.273438 631.046875 371.773438 630.042969 C 373.269531 629.042969 374.8125 628.117188 376.402344 627.269531 C 377.992188 626.417969 379.617188 625.652344 381.28125 624.960938 C 382.945312 624.273438 384.640625 623.664062 386.363281 623.144531 C 388.089844 622.621094 389.835938 622.183594 391.601562 621.832031 C 393.367188 621.480469 395.148438 621.214844 396.941406 621.039062 C 398.734375 620.863281 400.53125 620.773438 402.332031 620.773438 L 439.003906 620.773438 C 457.15625 620.773438 473.21875 629.574219 483.265625 643.105469 C 530.789062 620.480469 567.351562 572.699219 567.351562 510.761719 L 567.351562 290.734375 C 567.351562 287.734375 567.277344 284.738281 567.128906 281.738281 C 566.984375 278.742188 566.761719 275.75 566.46875 272.765625 C 566.175781 269.777344 565.808594 266.800781 565.367188 263.832031 C 564.925781 260.863281 564.414062 257.910156 563.828125 254.964844 C 563.242188 252.023438 562.585938 249.09375 561.855469 246.183594 C 561.128906 243.273438 560.328125 240.382812 559.457031 237.511719 C 558.585938 234.640625 557.644531 231.792969 556.632812 228.964844 C 555.621094 226.140625 554.542969 223.339844 553.394531 220.570312 C 552.246094 217.796875 551.03125 215.054688 549.746094 212.34375 C 548.464844 209.628906 547.117188 206.949219 545.703125 204.304688 C 544.285156 201.65625 542.808594 199.046875 541.265625 196.472656 C 539.722656 193.898438 538.117188 191.363281 536.449219 188.871094 C 534.785156 186.375 533.054688 183.921875 531.269531 181.511719 C 529.480469 179.101562 527.636719 176.738281 525.730469 174.417969 C 523.828125 172.097656 521.867188 169.824219 519.855469 167.601562 C 517.839844 165.378906 515.769531 163.207031 513.648438 161.085938 C 511.527344 158.964844 509.355469 156.894531 507.128906 154.878906 C 504.90625 152.863281 502.636719 150.90625 500.316406 149 C 497.996094 147.097656 495.632812 145.25 493.222656 143.464844 C 490.8125 141.675781 488.359375 139.949219 485.863281 138.28125 C 483.367188 136.617188 480.832031 135.011719 478.261719 133.46875 C 475.6875 131.925781 473.074219 130.445312 470.429688 129.03125 C 467.785156 127.617188 465.105469 126.269531 462.390625 124.984375 C 459.679688 123.703125 456.9375 122.488281 454.164062 121.339844 C 451.390625 120.191406 448.59375 119.109375 445.765625 118.101562 C 442.941406 117.089844 440.09375 116.148438 437.222656 115.277344 C 434.351562 114.40625 431.460938 113.605469 428.546875 112.875 C 425.636719 112.148438 422.710938 111.488281 419.769531 110.90625 C 416.824219 110.320312 413.867188 109.804688 410.902344 109.367188 C 407.933594 108.925781 404.957031 108.558594 401.96875 108.265625 C 398.984375 107.96875 395.992188 107.75 392.992188 107.601562 C 389.996094 107.457031 386.996094 107.382812 383.996094 107.382812 C 380.996094 107.382812 377.996094 107.457031 375 107.601562 C 372.003906 107.75 369.011719 107.96875 366.023438 108.265625 C 363.039062 108.558594 360.0625 108.925781 357.09375 109.367188 C 354.125 109.804688 351.167969 110.320312 348.226562 110.90625 C 345.285156 111.488281 342.355469 112.148438 339.445312 112.875 C 336.535156 113.605469 333.644531 114.40625 330.773438 115.277344 C 327.902344 116.148438 325.050781 117.089844 322.226562 118.101562 C 319.402344 119.109375 316.601562 120.191406 313.832031 121.339844 C 311.058594 122.488281 308.316406 123.703125 305.601562 124.984375 C 302.890625 126.269531 300.210938 127.617188 297.5625 129.03125 C 294.917969 130.445312 292.308594 131.925781 289.734375 133.46875 C 287.160156 135.011719 284.625 136.617188 282.128906 138.28125 C 279.636719 139.949219 277.183594 141.675781 274.773438 143.464844 C 272.363281 145.25 269.996094 147.097656 267.679688 149 C 265.359375 150.90625 263.085938 152.863281 260.863281 154.878906 C 258.640625 156.894531 256.46875 158.964844 254.347656 161.085938 C 252.222656 163.207031 250.15625 165.378906 248.140625 167.601562 C 246.125 169.824219 244.164062 172.097656 242.261719 174.417969 C 240.359375 176.738281 238.511719 179.101562 236.726562 181.511719 C 234.9375 183.921875 233.210938 186.375 231.542969 188.871094 C 229.875 191.363281 228.269531 193.898438 226.730469 196.472656 C 225.1875 199.046875 223.707031 201.65625 222.292969 204.304688 C 220.878906 206.949219 219.53125 209.628906 218.246094 212.34375 C 216.964844 215.054688 215.746094 217.796875 214.597656 220.570312 C 213.453125 223.339844 212.371094 226.140625 211.359375 228.964844 C 210.351562 231.792969 209.410156 234.640625 208.539062 237.511719 C 207.667969 240.382812 206.867188 243.273438 206.136719 246.183594 C 205.410156 249.09375 204.75 252.023438 204.164062 254.964844 C 203.582031 257.910156 203.066406 260.863281 202.628906 263.832031 C 202.1875 266.800781 201.820312 269.777344 201.527344 272.765625 C 201.230469 275.75 201.011719 278.742188 200.863281 281.738281 C 200.714844 284.738281 200.640625 287.734375 200.644531 290.734375 L 200.644531 519.929688 C 200.640625 520.980469 200.617188 522.027344 200.566406 523.078125 C 200.515625 524.128906 200.4375 525.175781 200.332031 526.21875 C 200.230469 527.265625 200.101562 528.304688 199.949219 529.34375 C 199.792969 530.382812 199.613281 531.417969 199.410156 532.449219 C 199.203125 533.480469 198.972656 534.503906 198.71875 535.523438 C 198.464844 536.539062 198.183594 537.554688 197.878906 538.558594 C 197.574219 539.5625 197.246094 540.558594 196.890625 541.546875 C 196.539062 542.539062 196.160156 543.515625 195.757812 544.488281 C 195.355469 545.457031 194.929688 546.417969 194.480469 547.367188 C 194.03125 548.316406 193.558594 549.253906 193.066406 550.179688 C 192.570312 551.105469 192.050781 552.019531 191.511719 552.921875 C 190.972656 553.820312 190.410156 554.710938 189.828125 555.582031 C 189.242188 556.457031 188.640625 557.3125 188.011719 558.15625 C 187.386719 559 186.742188 559.828125 186.074219 560.640625 C 185.410156 561.453125 184.722656 562.246094 184.019531 563.027344 C 183.3125 563.804688 182.589844 564.5625 181.847656 565.308594 C 181.105469 566.050781 180.34375 566.773438 179.566406 567.480469 C 178.785156 568.183594 177.992188 568.871094 177.179688 569.535156 C 176.367188 570.203125 175.539062 570.847656 174.695312 571.472656 C 173.851562 572.101562 172.996094 572.703125 172.121094 573.289062 C 171.25 573.871094 170.363281 574.433594 169.460938 574.972656 C 168.558594 575.511719 167.644531 576.03125 166.71875 576.527344 C 165.792969 577.019531 164.855469 577.492188 163.90625 577.941406 C 162.957031 578.390625 161.996094 578.816406 161.027344 579.21875 C 160.054688 579.621094 159.078125 579.996094 158.089844 580.351562 C 157.097656 580.707031 156.101562 581.035156 155.097656 581.339844 C 154.09375 581.644531 153.082031 581.925781 152.0625 582.179688 C 151.042969 582.433594 150.019531 582.664062 148.988281 582.871094 C 147.957031 583.074219 146.921875 583.253906 145.886719 583.410156 C 144.847656 583.5625 143.804688 583.691406 142.757812 583.792969 C 141.714844 583.898438 140.667969 583.972656 139.617188 584.027344 C 138.570312 584.078125 137.519531 584.101562 136.46875 584.101562 C 134.519531 584.101562 132.570312 584.054688 130.621094 583.960938 C 128.671875 583.863281 126.726562 583.71875 124.785156 583.53125 C 122.84375 583.339844 120.910156 583.097656 118.980469 582.8125 C 117.050781 582.527344 115.128906 582.195312 113.21875 581.8125 C 111.304688 581.433594 109.402344 581.003906 107.511719 580.53125 C 105.617188 580.058594 103.738281 579.539062 101.871094 578.972656 C 100.003906 578.40625 98.15625 577.792969 96.316406 577.136719 C 94.480469 576.480469 92.664062 575.777344 90.859375 575.03125 C 89.058594 574.285156 87.277344 573.496094 85.511719 572.660156 C 83.75 571.828125 82.007812 570.949219 80.289062 570.03125 C 78.566406 569.109375 76.871094 568.148438 75.199219 567.148438 C 73.523438 566.144531 71.878906 565.101562 70.253906 564.019531 C 68.632812 562.933594 67.039062 561.8125 65.472656 560.648438 C 63.90625 559.488281 62.367188 558.289062 60.859375 557.050781 C 59.355469 555.8125 57.878906 554.539062 56.433594 553.230469 C 54.988281 551.917969 53.574219 550.574219 52.195312 549.195312 C 50.816406 547.816406 49.472656 546.40625 48.160156 544.960938 C 46.851562 543.515625 45.578125 542.039062 44.339844 540.53125 C 43.101562 539.023438 41.902344 537.484375 40.742188 535.917969 C 39.578125 534.351562 38.457031 532.757812 37.375 531.136719 C 36.289062 529.515625 35.246094 527.867188 34.242188 526.195312 C 33.242188 524.519531 32.28125 522.824219 31.359375 521.105469 C 30.441406 519.382812 29.566406 517.640625 28.730469 515.878906 C 27.898438 514.117188 27.105469 512.332031 26.359375 510.53125 C 25.613281 508.730469 24.910156 506.910156 24.253906 505.074219 C 23.597656 503.238281 22.984375 501.386719 22.421875 499.519531 C 21.855469 497.652344 21.332031 495.773438 20.859375 493.882812 C 20.386719 491.988281 19.957031 490.085938 19.578125 488.171875 C 19.199219 486.261719 18.863281 484.339844 18.578125 482.410156 C 18.292969 480.480469 18.054688 478.546875 17.863281 476.605469 C 17.671875 474.664062 17.527344 472.71875 17.433594 470.769531 C 17.335938 468.824219 17.289062 466.875 17.289062 464.921875 L 17.289062 455.753906 C 17.289062 453.847656 17.328125 451.9375 17.414062 450.03125 C 17.5 448.125 17.625 446.21875 17.796875 444.316406 C 17.964844 442.414062 18.175781 440.519531 18.433594 438.628906 C 18.6875 436.734375 18.980469 434.847656 19.320312 432.96875 C 19.660156 431.089844 20.039062 429.222656 20.460938 427.359375 C 20.882812 425.496094 21.347656 423.644531 21.851562 421.804688 C 22.355469 419.964844 22.902344 418.132812 23.488281 416.316406 C 24.074219 414.5 24.699219 412.699219 25.367188 410.910156 C 26.03125 409.121094 26.738281 407.347656 27.484375 405.589844 C 28.230469 403.832031 29.015625 402.089844 29.835938 400.371094 C 30.660156 398.648438 31.523438 396.945312 32.421875 395.257812 C 33.320312 393.574219 34.257812 391.914062 35.230469 390.269531 C 36.203125 388.628906 37.214844 387.007812 38.261719 385.410156 C 39.304688 383.8125 40.386719 382.242188 41.503906 380.691406 C 42.617188 379.144531 43.769531 377.621094 44.953125 376.121094 C 46.136719 374.625 47.355469 373.15625 48.601562 371.710938 C 49.851562 370.269531 51.132812 368.851562 52.445312 367.46875 C 53.757812 366.082031 55.101562 364.722656 56.476562 363.398438 C 57.847656 362.070312 59.25 360.777344 60.683594 359.511719 C 62.113281 358.25 63.570312 357.019531 65.058594 355.820312 C 66.542969 354.621094 68.054688 353.457031 69.59375 352.324219 C 71.132812 351.195312 72.695312 350.097656 74.28125 349.035156 C 75.867188 347.976562 77.476562 346.949219 79.109375 345.960938 C 80.742188 344.972656 82.398438 344.019531 84.070312 343.101562 C 85.746094 342.1875 87.441406 341.308594 89.15625 340.46875 C 90.871094 339.628906 92.601562 338.828125 94.351562 338.066406 C 96.101562 337.300781 97.867188 336.578125 99.652344 335.894531 C 101.433594 335.210938 103.230469 334.566406 105.042969 333.960938 C 106.851562 333.359375 108.675781 332.796875 110.511719 332.273438 C 112.347656 331.75 114.195312 331.269531 116.054688 330.828125 C 117.910156 330.390625 119.777344 329.992188 121.652344 329.632812 C 123.527344 329.277344 125.410156 328.964844 127.300781 328.691406 Z M 127.300781 403.867188 C 125.96875 404.335938 124.660156 404.859375 123.367188 405.429688 C 122.078125 406 120.808594 406.621094 119.566406 407.289062 C 118.324219 407.960938 117.105469 408.675781 115.917969 409.4375 C 114.730469 410.203125 113.574219 411.007812 112.449219 411.859375 C 111.320312 412.710938 110.230469 413.605469 109.171875 414.542969 C 108.117188 415.476562 107.097656 416.453125 106.113281 417.46875 C 105.132812 418.480469 104.191406 419.53125 103.289062 420.621094 C 102.386719 421.707031 101.53125 422.828125 100.714844 423.980469 C 99.902344 425.132812 99.132812 426.316406 98.40625 427.527344 C 97.683594 428.742188 97.007812 429.980469 96.378906 431.242188 C 95.75 432.507812 95.171875 433.792969 94.640625 435.101562 C 94.113281 436.410156 93.632812 437.738281 93.207031 439.085938 C 92.78125 440.429688 92.40625 441.792969 92.082031 443.164062 C 91.761719 444.539062 91.492188 445.925781 91.277344 447.320312 C 91.058594 448.714844 90.898438 450.117188 90.789062 451.527344 C 90.683594 452.933594 90.628906 454.34375 90.628906 455.753906 L 90.628906 464.921875 C 90.628906 487.109375 106.398438 505.628906 127.300781 509.84375 Z M 640.691406 403.867188 L 640.691406 509.84375 C 661.597656 505.589844 677.363281 487.109375 677.363281 464.921875 L 677.363281 455.753906 C 677.363281 454.34375 677.3125 452.933594 677.203125 451.527344 C 677.097656 450.117188 676.933594 448.714844 676.71875 447.320312 C 676.503906 445.925781 676.234375 444.539062 675.910156 443.164062 C 675.589844 441.792969 675.214844 440.429688 674.785156 439.085938 C 674.359375 437.738281 673.882812 436.410156 673.351562 435.101562 C 672.824219 433.792969 672.242188 432.507812 671.613281 431.242188 C 670.988281 429.980469 670.3125 428.742188 669.585938 427.527344 C 668.863281 426.316406 668.09375 425.132812 667.277344 423.980469 C 666.464844 422.828125 665.605469 421.707031 664.703125 420.621094 C 663.804688 419.53125 662.863281 418.480469 661.878906 417.46875 C 660.898438 416.453125 659.878906 415.476562 658.820312 414.542969 C 657.765625 413.605469 656.671875 412.710938 655.546875 411.859375 C 654.421875 411.007812 653.261719 410.203125 652.074219 409.4375 C 650.886719 408.675781 649.671875 407.960938 648.429688 407.289062 C 647.183594 406.621094 645.917969 406 644.625 405.429688 C 643.335938 404.859375 642.023438 404.335938 640.691406 403.867188 Z M 640.691406 403.867188 " fill-opacity="1" fill-rule="evenodd"/></svg>