<svg xmlns="http://www.w3.org/2000/svg" xmlns:xlink="http://www.w3.org/1999/xlink" width="1024" zoomAndPan="magnify" viewBox="0 0 768 767.999994" height="1024" preserveAspectRatio="xMidYMid meet" version="1.0"><path fill="#eeffff" d="M 217.621094 119.609375 C 125.734375 119.609375 51.246094 194.097656 51.246094 285.984375 C 51.246094 377.871094 125.734375 452.355469 217.621094 452.355469 C 309.507812 452.355469 383.996094 377.871094 383.996094 285.984375 C 383.996094 194.097656 309.507812 119.609375 217.621094 119.609375 Z M 151.074219 285.984375 C 151.074219 322.738281 180.867188 352.53125 217.621094 352.53125 C 254.375 352.53125 284.171875 322.738281 284.171875 285.984375 C 284.171875 249.230469 254.375 219.433594 217.621094 219.433594 C 180.867188 219.433594 151.074219 249.230469 151.074219 285.984375 Z M 151.074219 285.984375 " fill-opacity="1" fill-rule="evenodd"/><path fill="#eeffff" d="M 550.371094 236.070312 L 716.746094 236.070312 L 716.746094 335.894531 L 550.371094 335.894531 Z M 550.371094 236.070312 " fill-opacity="1" fill-rule="nonzero"/><path fill="#eeffff" d="M 369.03125 548.5625 C 406.578125 548.5625 440.488281 533.023438 464.683594 508.019531 C 464.179688 508.542969 463.667969 509.058594 463.152344 509.578125 L 533.738281 580.164062 C 491.585938 622.316406 433.355469 648.390625 369.03125 648.390625 C 304.714844 648.390625 246.484375 622.316406 204.332031 580.164062 L 274.917969 509.578125 C 299.003906 533.667969 332.28125 548.5625 369.03125 548.5625 Z M 369.03125 548.5625 " fill-opacity="1" fill-rule="nonzero"/></svg>