<svg xmlns="http://www.w3.org/2000/svg" xmlns:xlink="http://www.w3.org/1999/xlink" width="1024" zoomAndPan="magnify" viewBox="0 0 768 767.999994" height="1024" preserveAspectRatio="xMidYMid meet" version="1.0"><defs><clipPath id="8a4aa10ed9"><path d="M 15.945312 67 L 751.695312 67 L 751.695312 597 L 15.945312 597 Z M 15.945312 67 " clip-rule="nonzero"/></clipPath></defs><path fill="#eeffff" d="M 522.015625 550.816406 L 334.082031 550.816406 L 393.429688 491.238281 L 360.992188 458.804688 L 245.976562 573.820312 L 360.992188 688.835938 L 393.429688 656.402344 L 334.082031 596.824219 L 522.015625 596.824219 Z M 522.015625 550.816406 " fill-opacity="1" fill-rule="nonzero"/><path fill="#eeffff" d="M 268.980469 320.785156 L 456.917969 320.785156 L 397.570312 261.207031 L 430.003906 228.773438 L 545.019531 343.789062 L 430.003906 458.804688 L 397.570312 426.371094 L 456.917969 366.792969 L 268.980469 366.792969 Z M 268.980469 320.785156 " fill-opacity="1" fill-rule="nonzero"/><g clip-path="url(#8a4aa10ed9)"><path fill="#eeffff" d="M 579.523438 596.824219 L 568.023438 596.824219 L 568.023438 550.816406 L 579.523438 550.816406 C 581.546875 550.820312 583.574219 550.773438 585.59375 550.675781 C 587.617188 550.582031 589.636719 550.4375 591.652344 550.242188 C 593.667969 550.050781 595.675781 549.808594 597.679688 549.519531 C 599.683594 549.230469 601.679688 548.894531 603.667969 548.507812 C 605.65625 548.121094 607.632812 547.6875 609.601562 547.207031 C 611.566406 546.726562 613.523438 546.203125 615.464844 545.628906 C 617.40625 545.054688 619.332031 544.433594 621.242188 543.765625 C 623.15625 543.097656 625.050781 542.386719 626.925781 541.628906 C 628.804688 540.871094 630.664062 540.066406 632.503906 539.222656 C 634.339844 538.375 636.160156 537.484375 637.953125 536.550781 C 639.75 535.613281 641.523438 534.636719 643.273438 533.617188 C 645.023438 532.597656 646.746094 531.539062 648.445312 530.433594 C 650.144531 529.332031 651.8125 528.191406 653.457031 527.007812 C 655.101562 525.824219 656.714844 524.601562 658.300781 523.34375 C 659.882812 522.082031 661.4375 520.785156 662.960938 519.449219 C 664.480469 518.117188 665.972656 516.746094 667.429688 515.339844 C 668.882812 513.933594 670.304688 512.492188 671.695312 511.015625 C 673.082031 509.542969 674.433594 508.035156 675.746094 506.496094 C 677.0625 504.957031 678.339844 503.382812 679.578125 501.785156 C 680.816406 500.183594 682.019531 498.554688 683.179688 496.894531 C 684.339844 495.234375 685.460938 493.550781 686.542969 491.835938 C 687.621094 490.125 688.660156 488.386719 689.65625 486.625 C 690.652344 484.863281 691.605469 483.078125 692.519531 481.269531 C 693.429688 479.460938 694.296875 477.632812 695.117188 475.78125 C 695.941406 473.933594 696.71875 472.0625 697.453125 470.175781 C 698.1875 468.289062 698.875 466.382812 699.515625 464.464844 C 700.15625 462.542969 700.753906 460.609375 701.300781 458.660156 C 701.851562 456.710938 702.351562 454.75 702.808594 452.777344 C 703.261719 450.804688 703.667969 448.820312 704.027344 446.828125 C 704.386719 444.835938 704.699219 442.835938 704.960938 440.828125 C 705.226562 438.820312 705.441406 436.808594 705.605469 434.789062 C 705.773438 432.773438 705.890625 430.753906 705.960938 428.730469 C 706.03125 426.707031 706.050781 424.679688 706.023438 422.65625 C 705.996094 420.632812 705.917969 418.609375 705.792969 416.589844 C 705.667969 414.566406 705.496094 412.550781 705.273438 410.539062 C 705.050781 408.527344 704.78125 406.519531 704.464844 404.519531 C 704.144531 402.519531 703.78125 400.53125 703.367188 398.546875 C 702.953125 396.566406 702.492188 394.59375 701.980469 392.636719 C 701.472656 390.675781 700.917969 388.730469 700.316406 386.796875 C 699.714844 384.863281 699.066406 382.945312 698.371094 381.042969 C 697.675781 379.140625 696.9375 377.257812 696.152344 375.390625 C 695.367188 373.523438 694.539062 371.675781 693.667969 369.851562 C 692.792969 368.023438 691.875 366.21875 690.914062 364.4375 C 689.957031 362.65625 688.953125 360.894531 687.910156 359.160156 C 686.863281 357.425781 685.777344 355.71875 684.652344 354.035156 C 683.523438 352.355469 682.359375 350.699219 681.152344 349.074219 C 679.945312 347.449219 678.703125 345.851562 677.417969 344.285156 C 676.136719 342.71875 674.816406 341.183594 673.460938 339.679688 C 672.101562 338.175781 670.710938 336.707031 669.285156 335.273438 C 667.855469 333.835938 666.394531 332.433594 664.902344 331.070312 C 663.40625 329.703125 661.878906 328.375 660.320312 327.082031 C 658.761719 325.789062 657.175781 324.535156 655.554688 323.316406 C 653.9375 322.101562 652.289062 320.925781 650.617188 319.785156 C 648.941406 318.648438 647.238281 317.554688 645.511719 316.5 C 643.78125 315.441406 642.03125 314.429688 640.253906 313.457031 C 638.476562 312.488281 636.679688 311.558594 634.855469 310.675781 C 633.035156 309.789062 631.195312 308.949219 629.332031 308.152344 C 627.472656 307.355469 625.59375 306.605469 623.695312 305.898438 C 621.796875 305.191406 619.882812 304.53125 617.953125 303.917969 C 616.023438 303.304688 614.082031 302.738281 612.125 302.214844 C 610.167969 301.695312 608.199219 301.222656 606.222656 300.796875 C 604.242188 300.371094 602.253906 299.992188 600.257812 299.660156 C 598.257812 299.328125 596.253906 299.046875 594.242188 298.8125 C 592.230469 298.578125 590.214844 298.390625 588.195312 298.253906 L 568.953125 296.953125 L 566.882812 277.769531 C 566.578125 274.980469 566.210938 272.203125 565.78125 269.433594 C 565.351562 266.667969 564.855469 263.910156 564.300781 261.160156 C 563.742188 258.414062 563.125 255.683594 562.441406 252.964844 C 561.757812 250.246094 561.015625 247.542969 560.210938 244.859375 C 559.40625 242.175781 558.539062 239.511719 557.613281 236.867188 C 556.683594 234.222656 555.699219 231.601562 554.652344 229 C 553.605469 226.402344 552.5 223.828125 551.332031 221.277344 C 550.167969 218.726562 548.945312 216.207031 547.667969 213.714844 C 546.386719 211.21875 545.050781 208.757812 543.660156 206.324219 C 542.265625 203.894531 540.820312 201.496094 539.316406 199.128906 C 537.816406 196.761719 536.261719 194.433594 534.652344 192.136719 C 533.042969 189.84375 531.382812 187.585938 529.671875 185.367188 C 527.960938 183.148438 526.199219 180.96875 524.386719 178.828125 C 522.578125 176.691406 520.71875 174.59375 518.8125 172.539062 C 516.90625 170.488281 514.953125 168.476562 512.953125 166.511719 C 510.953125 164.550781 508.910156 162.632812 506.824219 160.761719 C 504.738281 158.890625 502.609375 157.066406 500.441406 155.292969 C 498.269531 153.519531 496.0625 151.796875 493.8125 150.121094 C 491.566406 148.449219 489.28125 146.828125 486.957031 145.261719 C 484.636719 143.691406 482.277344 142.175781 479.886719 140.714844 C 477.496094 139.257812 475.070312 137.851562 472.613281 136.5 C 470.160156 135.152344 467.671875 133.859375 465.160156 132.621094 C 462.644531 131.386719 460.101562 130.207031 457.53125 129.085938 C 454.964844 127.964844 452.371094 126.90625 449.753906 125.902344 C 447.136719 124.902344 444.496094 123.960938 441.835938 123.078125 C 439.175781 122.199219 436.496094 121.378906 433.800781 120.621094 C 431.101562 119.859375 428.386719 119.164062 425.65625 118.527344 C 422.929688 117.894531 420.1875 117.324219 417.429688 116.8125 C 414.675781 116.304688 411.90625 115.859375 409.132812 115.476562 C 406.355469 115.089844 403.570312 114.773438 400.78125 114.515625 C 397.992188 114.261719 395.195312 114.070312 392.394531 113.941406 C 389.597656 113.8125 386.796875 113.75 383.992188 113.75 C 381.191406 113.75 378.390625 113.8125 375.589844 113.941406 C 372.789062 114.070312 369.996094 114.261719 367.203125 114.515625 C 364.414062 114.773438 361.628906 115.089844 358.851562 115.476562 C 356.078125 115.859375 353.3125 116.304688 350.554688 116.8125 C 347.800781 117.324219 345.058594 117.894531 342.328125 118.527344 C 339.597656 119.164062 336.882812 119.859375 334.1875 120.621094 C 331.488281 121.378906 328.808594 122.199219 326.148438 123.078125 C 323.488281 123.960938 320.847656 124.902344 318.230469 125.902344 C 315.613281 126.90625 313.019531 127.964844 310.453125 129.085938 C 307.882812 130.207031 305.339844 131.386719 302.828125 132.621094 C 300.3125 133.859375 297.824219 135.152344 295.371094 136.5 C 292.914062 137.851562 290.492188 139.257812 288.097656 140.714844 C 285.707031 142.175781 283.351562 143.691406 281.027344 145.261719 C 278.703125 146.828125 276.417969 148.449219 274.171875 150.121094 C 271.921875 151.796875 269.714844 153.519531 267.542969 155.292969 C 265.375 157.066406 263.246094 158.890625 261.160156 160.761719 C 259.074219 162.632812 257.03125 164.550781 255.03125 166.511719 C 253.035156 168.476562 251.082031 170.488281 249.171875 172.539062 C 247.265625 174.59375 245.40625 176.691406 243.597656 178.828125 C 241.785156 180.96875 240.023438 183.148438 238.3125 185.367188 C 236.601562 187.585938 234.941406 189.84375 233.332031 192.136719 C 231.722656 194.433594 230.167969 196.761719 228.667969 199.128906 C 227.164062 201.496094 225.71875 203.894531 224.324219 206.324219 C 222.933594 208.757812 221.597656 211.21875 220.316406 213.714844 C 219.039062 216.207031 217.816406 218.726562 216.652344 221.277344 C 215.488281 223.828125 214.378906 226.402344 213.332031 229 C 212.285156 231.601562 211.300781 234.222656 210.371094 236.867188 C 209.445312 239.511719 208.578125 242.175781 207.773438 244.859375 C 206.96875 247.542969 206.226562 250.246094 205.542969 252.964844 C 204.863281 255.683594 204.242188 258.414062 203.683594 261.160156 C 203.128906 263.910156 202.632812 266.667969 202.203125 269.433594 C 201.773438 272.203125 201.40625 274.980469 201.101562 277.769531 L 199.03125 296.953125 L 179.789062 298.253906 C 177.769531 298.390625 175.753906 298.578125 173.742188 298.8125 C 171.730469 299.046875 169.726562 299.328125 167.730469 299.660156 C 165.730469 299.992188 163.742188 300.371094 161.761719 300.796875 C 159.785156 301.222656 157.816406 301.695312 155.859375 302.214844 C 153.902344 302.738281 151.960938 303.304688 150.03125 303.917969 C 148.101562 304.53125 146.1875 305.191406 144.289062 305.898438 C 142.390625 306.605469 140.511719 307.355469 138.652344 308.152344 C 136.789062 308.949219 134.949219 309.789062 133.125 310.675781 C 131.304688 311.558594 129.507812 312.488281 127.730469 313.457031 C 125.953125 314.429688 124.199219 315.441406 122.472656 316.5 C 120.746094 317.554688 119.042969 318.652344 117.367188 319.789062 C 115.691406 320.925781 114.046875 322.101562 112.425781 323.316406 C 110.808594 324.535156 109.21875 325.789062 107.660156 327.082031 C 106.101562 328.375 104.578125 329.703125 103.082031 331.070312 C 101.585938 332.4375 100.125 333.835938 98.699219 335.273438 C 97.273438 336.710938 95.878906 338.179688 94.523438 339.683594 C 93.167969 341.183594 91.847656 342.71875 90.566406 344.285156 C 89.28125 345.851562 88.039062 347.449219 86.832031 349.074219 C 85.625 350.703125 84.457031 352.355469 83.332031 354.039062 C 82.203125 355.722656 81.121094 357.429688 80.074219 359.164062 C 79.03125 360.898438 78.027344 362.65625 77.066406 364.441406 C 76.109375 366.222656 75.191406 368.027344 74.316406 369.855469 C 73.445312 371.679688 72.613281 373.527344 71.832031 375.394531 C 71.046875 377.261719 70.304688 379.144531 69.613281 381.046875 C 68.917969 382.949219 68.269531 384.867188 67.667969 386.800781 C 67.066406 388.734375 66.511719 390.679688 66 392.640625 C 65.492188 394.597656 65.03125 396.570312 64.617188 398.550781 C 64.203125 400.535156 63.839844 402.523438 63.519531 404.523438 C 63.203125 406.523438 62.933594 408.53125 62.710938 410.542969 C 62.488281 412.554688 62.316406 414.570312 62.191406 416.59375 C 62.066406 418.613281 61.988281 420.636719 61.960938 422.660156 C 61.933594 424.6875 61.953125 426.710938 62.023438 428.734375 C 62.09375 430.757812 62.210938 432.777344 62.378906 434.796875 C 62.546875 436.8125 62.761719 438.828125 63.023438 440.832031 C 63.285156 442.839844 63.597656 444.839844 63.957031 446.835938 C 64.316406 448.828125 64.722656 450.808594 65.179688 452.78125 C 65.632812 454.753906 66.136719 456.714844 66.683594 458.664062 C 67.234375 460.613281 67.828125 462.550781 68.472656 464.46875 C 69.113281 466.390625 69.800781 468.292969 70.535156 470.179688 C 71.265625 472.070312 72.046875 473.9375 72.867188 475.785156 C 73.691406 477.636719 74.558594 479.464844 75.46875 481.273438 C 76.378906 483.082031 77.335938 484.867188 78.332031 486.628906 C 79.328125 488.394531 80.367188 490.128906 81.445312 491.84375 C 82.527344 493.554688 83.648438 495.242188 84.808594 496.898438 C 85.96875 498.558594 87.171875 500.1875 88.410156 501.789062 C 89.648438 503.390625 90.925781 504.960938 92.242188 506.5 C 93.558594 508.039062 94.910156 509.546875 96.296875 511.019531 C 97.683594 512.496094 99.105469 513.9375 100.5625 515.34375 C 102.019531 516.75 103.507812 518.121094 105.03125 519.453125 C 106.554688 520.789062 108.105469 522.085938 109.691406 523.347656 C 111.277344 524.609375 112.890625 525.828125 114.535156 527.011719 C 116.175781 528.195312 117.847656 529.335938 119.546875 530.4375 C 121.246094 531.542969 122.96875 532.601562 124.71875 533.621094 C 126.46875 534.640625 128.242188 535.617188 130.035156 536.550781 C 131.832031 537.488281 133.652344 538.378906 135.488281 539.222656 C 137.328125 540.070312 139.1875 540.875 141.066406 541.632812 C 142.941406 542.390625 144.835938 543.101562 146.75 543.769531 C 148.660156 544.433594 150.589844 545.054688 152.53125 545.628906 C 154.472656 546.203125 156.425781 546.730469 158.394531 547.210938 C 160.359375 547.691406 162.335938 548.125 164.324219 548.507812 C 166.3125 548.894531 168.308594 549.230469 170.3125 549.519531 C 172.316406 549.808594 174.328125 550.050781 176.34375 550.242188 C 178.359375 550.4375 180.375 550.582031 182.398438 550.675781 C 184.421875 550.773438 186.445312 550.820312 188.46875 550.816406 L 199.972656 550.816406 L 199.972656 596.824219 L 188.46875 596.824219 C 185.804688 596.824219 183.144531 596.765625 180.484375 596.644531 C 177.820312 596.519531 175.164062 596.335938 172.511719 596.09375 C 169.859375 595.847656 167.214844 595.539062 164.578125 595.171875 C 161.9375 594.804688 159.3125 594.375 156.691406 593.886719 C 154.074219 593.398438 151.46875 592.847656 148.875 592.238281 C 146.28125 591.625 143.707031 590.957031 141.144531 590.226562 C 138.582031 589.496094 136.039062 588.707031 133.511719 587.859375 C 130.988281 587.011719 128.484375 586.109375 126 585.144531 C 123.515625 584.179688 121.058594 583.160156 118.621094 582.082031 C 116.183594 581.003906 113.773438 579.871094 111.390625 578.679688 C 109.007812 577.492188 106.652344 576.246094 104.328125 574.949219 C 102.003906 573.652344 99.707031 572.300781 97.445312 570.894531 C 95.179688 569.488281 92.953125 568.035156 90.757812 566.523438 C 88.558594 565.015625 86.402344 563.460938 84.277344 561.851562 C 82.152344 560.242188 80.070312 558.585938 78.023438 556.882812 C 75.976562 555.175781 73.96875 553.425781 72.003906 551.628906 C 70.039062 549.828125 68.113281 547.988281 66.234375 546.101562 C 64.355469 544.214844 62.519531 542.285156 60.730469 540.3125 C 58.9375 538.339844 57.195312 536.328125 55.496094 534.273438 C 53.796875 532.222656 52.148438 530.132812 50.550781 528.003906 C 48.949219 525.875 47.398438 523.707031 45.898438 521.507812 C 44.398438 519.304688 42.949219 517.070312 41.550781 514.804688 C 40.15625 512.535156 38.8125 510.234375 37.523438 507.90625 C 36.230469 505.574219 34.996094 503.214844 33.816406 500.828125 C 32.632812 498.441406 31.507812 496.027344 30.441406 493.585938 C 29.371094 491.148438 28.359375 488.683594 27.40625 486.195312 C 26.449219 483.710938 25.554688 481.203125 24.714844 478.675781 C 23.875 476.144531 23.097656 473.601562 22.375 471.035156 C 21.65625 468.472656 20.992188 465.890625 20.394531 463.296875 C 19.792969 460.703125 19.25 458.09375 18.769531 455.472656 C 18.289062 452.855469 17.871094 450.222656 17.511719 447.585938 C 17.15625 444.945312 16.855469 442.296875 16.621094 439.644531 C 16.386719 436.992188 16.210938 434.335938 16.097656 431.671875 C 15.988281 429.011719 15.933594 426.347656 15.945312 423.6875 C 15.957031 421.023438 16.03125 418.359375 16.164062 415.699219 C 16.296875 413.039062 16.492188 410.382812 16.75 407.730469 C 17.007812 405.082031 17.328125 402.4375 17.707031 399.800781 C 18.085938 397.164062 18.527344 394.539062 19.027344 391.921875 C 19.527344 389.304688 20.089844 386.703125 20.714844 384.113281 C 21.335938 381.523438 22.015625 378.949219 22.757812 376.390625 C 23.5 373.832031 24.300781 371.292969 25.160156 368.769531 C 26.019531 366.25 26.933594 363.75 27.910156 361.269531 C 28.886719 358.789062 29.917969 356.335938 31.003906 353.90625 C 32.09375 351.472656 33.238281 349.070312 34.4375 346.691406 C 35.640625 344.3125 36.894531 341.964844 38.203125 339.644531 C 39.511719 337.324219 40.875 335.035156 42.289062 332.777344 C 43.703125 330.523438 45.167969 328.300781 46.6875 326.109375 C 48.207031 323.921875 49.773438 321.769531 51.390625 319.652344 C 53.007812 317.535156 54.675781 315.460938 56.390625 313.421875 C 58.105469 311.382812 59.863281 309.382812 61.671875 307.425781 C 63.476562 305.46875 65.328125 303.554688 67.222656 301.683594 C 69.117188 299.808594 71.058594 297.984375 73.035156 296.203125 C 75.015625 294.421875 77.035156 292.683594 79.097656 290.996094 C 81.15625 289.308594 83.257812 287.667969 85.394531 286.078125 C 87.527344 284.488281 89.703125 282.945312 91.910156 281.457031 C 94.117188 279.964844 96.359375 278.527344 98.632812 277.140625 C 100.90625 275.753906 103.210938 274.421875 105.546875 273.140625 C 107.886719 271.863281 110.25 270.636719 112.644531 269.46875 C 115.035156 268.296875 117.453125 267.183594 119.898438 266.125 C 122.34375 265.066406 124.8125 264.066406 127.300781 263.125 C 129.792969 262.179688 132.304688 261.292969 134.835938 260.46875 C 137.367188 259.640625 139.917969 258.871094 142.488281 258.164062 C 145.054688 257.453125 147.636719 256.804688 150.234375 256.214844 C 152.832031 255.625 155.441406 255.097656 158.066406 254.628906 C 158.6875 251.375 159.375 248.136719 160.136719 244.914062 C 160.898438 241.691406 161.730469 238.484375 162.628906 235.296875 C 163.527344 232.109375 164.496094 228.941406 165.53125 225.796875 C 166.570312 222.652344 167.671875 219.527344 168.84375 216.429688 C 170.015625 213.332031 171.253906 210.261719 172.554688 207.21875 C 173.859375 204.171875 175.230469 201.15625 176.664062 198.171875 C 178.097656 195.1875 179.59375 192.234375 181.15625 189.3125 C 182.71875 186.390625 184.34375 183.503906 186.027344 180.65625 C 187.714844 177.804688 189.460938 174.992188 191.269531 172.214844 C 193.078125 169.441406 194.945312 166.707031 196.871094 164.011719 C 198.796875 161.316406 200.78125 158.664062 202.820312 156.054688 C 204.859375 153.449219 206.957031 150.882812 209.109375 148.367188 C 211.257812 145.847656 213.464844 143.375 215.722656 140.953125 C 217.980469 138.53125 220.289062 136.15625 222.648438 133.832031 C 225.011719 131.511719 227.417969 129.238281 229.878906 127.019531 C 232.335938 124.800781 234.84375 122.636719 237.394531 120.523438 C 239.945312 118.414062 242.542969 116.359375 245.183594 114.359375 C 247.824219 112.359375 250.507812 110.417969 253.234375 108.535156 C 255.957031 106.652344 258.722656 104.832031 261.527344 103.066406 C 264.328125 101.304688 267.167969 99.601562 270.046875 97.960938 C 272.921875 96.320312 275.835938 94.742188 278.78125 93.226562 C 281.726562 91.710938 284.703125 90.261719 287.710938 88.875 C 290.71875 87.488281 293.753906 86.167969 296.820312 84.910156 C 299.882812 83.65625 302.976562 82.46875 306.089844 81.347656 C 309.207031 80.222656 312.347656 79.171875 315.507812 78.183594 C 318.671875 77.199219 321.851562 76.28125 325.054688 75.429688 C 328.253906 74.582031 331.472656 73.804688 334.707031 73.09375 C 337.945312 72.382812 341.191406 71.746094 344.457031 71.175781 C 347.71875 70.605469 350.992188 70.105469 354.277344 69.679688 C 357.558594 69.25 360.851562 68.894531 364.152344 68.609375 C 367.453125 68.324219 370.757812 68.109375 374.066406 67.964844 C 377.375 67.820312 380.683594 67.75 383.996094 67.75 C 387.308594 67.75 390.621094 67.820312 393.929688 67.964844 C 397.238281 68.109375 400.542969 68.324219 403.84375 68.609375 C 407.140625 68.894531 410.433594 69.25 413.71875 69.679688 C 417.003906 70.105469 420.277344 70.605469 423.539062 71.175781 C 426.800781 71.746094 430.050781 72.382812 433.285156 73.09375 C 436.519531 73.804688 439.738281 74.582031 442.941406 75.429688 C 446.140625 76.28125 449.324219 77.199219 452.484375 78.183594 C 455.648438 79.171875 458.785156 80.222656 461.902344 81.347656 C 465.019531 82.46875 468.109375 83.65625 471.175781 84.910156 C 474.238281 86.167969 477.277344 87.488281 480.285156 88.875 C 483.292969 90.261719 486.269531 91.710938 489.214844 93.226562 C 492.160156 94.742188 495.070312 96.320312 497.949219 97.960938 C 500.824219 99.601562 503.664062 101.304688 506.46875 103.066406 C 509.273438 104.832031 512.035156 106.652344 514.761719 108.535156 C 517.484375 110.417969 520.167969 112.359375 522.808594 114.359375 C 525.449219 116.359375 528.046875 118.414062 530.597656 120.523438 C 533.152344 122.636719 535.65625 124.800781 538.117188 127.019531 C 540.574219 129.238281 542.984375 131.511719 545.34375 133.832031 C 547.707031 136.15625 550.015625 138.53125 552.273438 140.953125 C 554.53125 143.375 556.734375 145.847656 558.886719 148.367188 C 561.039062 150.882812 563.132812 153.449219 565.175781 156.054688 C 567.214844 158.664062 569.199219 161.316406 571.125 164.011719 C 573.050781 166.707031 574.917969 169.441406 576.722656 172.214844 C 578.53125 174.992188 580.28125 177.804688 581.964844 180.65625 C 583.652344 183.503906 585.277344 186.390625 586.835938 189.3125 C 588.398438 192.234375 589.898438 195.1875 591.332031 198.171875 C 592.765625 201.15625 594.132812 204.171875 595.4375 207.21875 C 596.742188 210.261719 597.980469 213.332031 599.152344 216.429688 C 600.320312 219.527344 601.425781 222.652344 602.460938 225.796875 C 603.5 228.941406 604.464844 232.109375 605.367188 235.296875 C 606.265625 238.484375 607.09375 241.691406 607.855469 244.914062 C 608.617188 248.136719 609.308594 251.375 609.929688 254.628906 C 612.550781 255.097656 615.160156 255.625 617.757812 256.214844 C 620.355469 256.804688 622.941406 257.453125 625.507812 258.164062 C 628.074219 258.871094 630.625 259.640625 633.15625 260.46875 C 635.6875 261.292969 638.199219 262.179688 640.691406 263.125 C 643.183594 264.066406 645.652344 265.066406 648.09375 266.125 C 650.539062 267.183594 652.957031 268.296875 655.351562 269.46875 C 657.746094 270.636719 660.109375 271.863281 662.445312 273.140625 C 664.78125 274.421875 667.085938 275.753906 669.363281 277.140625 C 671.636719 278.527344 673.878906 279.964844 676.085938 281.457031 C 678.292969 282.945312 680.464844 284.488281 682.601562 286.078125 C 684.738281 287.667969 686.835938 289.308594 688.898438 290.996094 C 690.957031 292.683594 692.976562 294.421875 694.957031 296.203125 C 696.9375 297.984375 698.875 299.808594 700.769531 301.683594 C 702.664062 303.554688 704.515625 305.46875 706.324219 307.425781 C 708.128906 309.382812 709.890625 311.382812 711.605469 313.421875 C 713.320312 315.460938 714.984375 317.535156 716.601562 319.652344 C 718.21875 321.769531 719.789062 323.921875 721.304688 326.109375 C 722.824219 328.300781 724.289062 330.523438 725.707031 332.777344 C 727.121094 335.035156 728.484375 337.324219 729.792969 339.644531 C 731.101562 341.964844 732.355469 344.3125 733.554688 346.691406 C 734.753906 349.070312 735.898438 351.472656 736.988281 353.90625 C 738.078125 356.335938 739.109375 358.789062 740.085938 361.269531 C 741.058594 363.75 741.976562 366.25 742.835938 368.769531 C 743.695312 371.292969 744.496094 373.832031 745.234375 376.390625 C 745.976562 378.949219 746.660156 381.523438 747.28125 384.113281 C 747.902344 386.703125 748.464844 389.304688 748.964844 391.921875 C 749.46875 394.539062 749.910156 397.164062 750.289062 399.800781 C 750.667969 402.4375 750.984375 405.082031 751.242188 407.730469 C 751.5 410.382812 751.695312 413.039062 751.832031 415.699219 C 751.964844 418.359375 752.035156 421.023438 752.046875 423.6875 C 752.058594 426.347656 752.007812 429.011719 751.894531 431.671875 C 751.78125 434.335938 751.609375 436.992188 751.371094 439.644531 C 751.136719 442.296875 750.839844 444.945312 750.480469 447.585938 C 750.121094 450.222656 749.703125 452.855469 749.222656 455.472656 C 748.742188 458.09375 748.203125 460.703125 747.601562 463.296875 C 747 465.890625 746.339844 468.472656 745.617188 471.035156 C 744.898438 473.601562 744.117188 476.144531 743.28125 478.675781 C 742.441406 481.203125 741.542969 483.710938 740.589844 486.195312 C 739.632812 488.683594 738.621094 491.148438 737.554688 493.585938 C 736.484375 496.027344 735.359375 498.441406 734.179688 500.828125 C 733 503.214844 731.761719 505.574219 730.472656 507.90625 C 729.183594 510.234375 727.839844 512.535156 726.441406 514.804688 C 725.046875 517.070312 723.597656 519.304688 722.097656 521.507812 C 720.597656 523.707031 719.046875 525.875 717.445312 528.003906 C 715.84375 530.132812 714.195312 532.222656 712.496094 534.273438 C 710.800781 536.328125 709.054688 538.339844 707.265625 540.3125 C 705.476562 542.285156 703.640625 544.214844 701.757812 546.101562 C 699.878906 547.988281 697.957031 549.828125 695.992188 551.628906 C 694.023438 553.425781 692.019531 555.175781 689.972656 556.882812 C 687.925781 558.585938 685.839844 560.242188 683.71875 561.851562 C 681.59375 563.460938 679.433594 565.015625 677.238281 566.523438 C 675.042969 568.035156 672.8125 569.488281 670.550781 570.894531 C 668.285156 572.300781 665.992188 573.652344 663.667969 574.949219 C 661.339844 576.246094 658.984375 577.492188 656.601562 578.679688 C 654.21875 579.871094 651.808594 581.003906 649.371094 582.082031 C 646.9375 583.160156 644.476562 584.179688 641.992188 585.144531 C 639.511719 586.109375 637.007812 587.011719 634.480469 587.859375 C 631.957031 588.707031 629.414062 589.496094 626.851562 590.226562 C 624.289062 590.957031 621.710938 591.625 619.117188 592.238281 C 616.527344 592.847656 613.921875 593.398438 611.300781 593.886719 C 608.683594 594.375 606.054688 594.804688 603.417969 595.171875 C 600.777344 595.539062 598.132812 595.847656 595.480469 596.09375 C 592.828125 596.335938 590.171875 596.519531 587.511719 596.644531 C 584.851562 596.765625 582.1875 596.824219 579.523438 596.824219 Z M 579.523438 596.824219 " fill-opacity="1" fill-rule="nonzero"/></g></svg>