<svg xmlns="http://www.w3.org/2000/svg" xmlns:xlink="http://www.w3.org/1999/xlink" width="1024" zoomAndPan="magnify" viewBox="0 0 768 767.999994" height="1024" preserveAspectRatio="xMidYMid meet" version="1.0"><defs><clipPath id="2ae482c2d7"><path d="M 21.179688 111 L 747 111 L 747 657 L 21.179688 657 Z M 21.179688 111 " clip-rule="nonzero"/></clipPath></defs><path fill="#eeffff" d="M 225.265625 247.941406 C 226.007812 247.941406 226.75 247.90625 227.488281 247.832031 C 228.226562 247.761719 228.960938 247.652344 229.691406 247.507812 C 230.417969 247.363281 231.136719 247.183594 231.847656 246.964844 C 232.558594 246.75 233.257812 246.5 233.945312 246.214844 C 234.628906 245.933594 235.300781 245.613281 235.957031 245.265625 C 236.609375 244.914062 237.246094 244.535156 237.863281 244.121094 C 238.480469 243.707031 239.078125 243.265625 239.652344 242.796875 C 240.226562 242.324219 240.777344 241.824219 241.300781 241.300781 C 241.824219 240.777344 242.324219 240.226562 242.796875 239.652344 C 243.265625 239.078125 243.707031 238.480469 244.121094 237.863281 C 244.535156 237.246094 244.914062 236.609375 245.265625 235.957031 C 245.613281 235.300781 245.933594 234.628906 246.214844 233.945312 C 246.5 233.257812 246.75 232.558594 246.964844 231.847656 C 247.183594 231.136719 247.363281 230.417969 247.507812 229.691406 C 247.652344 228.960938 247.761719 228.226562 247.832031 227.488281 C 247.90625 226.75 247.941406 226.007812 247.941406 225.265625 C 247.941406 224.523438 247.90625 223.78125 247.832031 223.042969 C 247.761719 222.304688 247.652344 221.570312 247.507812 220.84375 C 247.363281 220.113281 247.183594 219.394531 246.964844 218.683594 C 246.75 217.972656 246.5 217.273438 246.214844 216.589844 C 245.933594 215.902344 245.613281 215.230469 245.265625 214.578125 C 244.914062 213.921875 244.535156 213.285156 244.121094 212.667969 C 243.707031 212.050781 243.265625 211.453125 242.796875 210.882812 C 242.324219 210.308594 241.824219 209.757812 241.300781 209.230469 C 240.777344 208.707031 240.226562 208.207031 239.652344 207.738281 C 239.078125 207.265625 238.480469 206.824219 237.863281 206.410156 C 237.246094 206 236.609375 205.617188 235.957031 205.269531 C 235.300781 204.917969 234.628906 204.601562 233.945312 204.316406 C 233.257812 204.03125 232.558594 203.78125 231.847656 203.566406 C 231.136719 203.351562 230.417969 203.171875 229.691406 203.027344 C 228.960938 202.882812 228.226562 202.773438 227.488281 202.699219 C 226.75 202.625 226.007812 202.589844 225.265625 202.589844 C 224.523438 202.589844 223.78125 202.625 223.042969 202.699219 C 222.304688 202.773438 221.570312 202.882812 220.84375 203.027344 C 220.113281 203.171875 219.394531 203.351562 218.683594 203.566406 C 217.972656 203.78125 217.273438 204.03125 216.589844 204.316406 C 215.902344 204.601562 215.230469 204.917969 214.578125 205.269531 C 213.921875 205.617188 213.285156 206 212.667969 206.410156 C 212.050781 206.824219 211.453125 207.265625 210.882812 207.738281 C 210.308594 208.207031 209.757812 208.707031 209.230469 209.230469 C 208.707031 209.757812 208.207031 210.308594 207.738281 210.882812 C 207.265625 211.453125 206.824219 212.050781 206.410156 212.667969 C 206 213.285156 205.617188 213.921875 205.269531 214.578125 C 204.917969 215.230469 204.601562 215.902344 204.316406 216.589844 C 204.03125 217.273438 203.78125 217.972656 203.566406 218.683594 C 203.351562 219.394531 203.171875 220.113281 203.027344 220.84375 C 202.882812 221.570312 202.773438 222.304688 202.699219 223.042969 C 202.625 223.78125 202.589844 224.523438 202.589844 225.265625 C 202.589844 226.007812 202.625 226.75 202.699219 227.488281 C 202.773438 228.226562 202.882812 228.960938 203.027344 229.691406 C 203.171875 230.417969 203.351562 231.136719 203.566406 231.847656 C 203.78125 232.558594 204.03125 233.257812 204.316406 233.945312 C 204.601562 234.628906 204.917969 235.300781 205.269531 235.957031 C 205.617188 236.609375 206 237.246094 206.410156 237.863281 C 206.824219 238.480469 207.265625 239.078125 207.738281 239.652344 C 208.207031 240.226562 208.707031 240.777344 209.230469 241.300781 C 209.757812 241.824219 210.308594 242.324219 210.882812 242.796875 C 211.453125 243.265625 212.050781 243.707031 212.667969 244.121094 C 213.285156 244.535156 213.921875 244.914062 214.578125 245.265625 C 215.230469 245.613281 215.902344 245.933594 216.589844 246.214844 C 217.273438 246.5 217.972656 246.75 218.683594 246.964844 C 219.394531 247.183594 220.113281 247.363281 220.84375 247.507812 C 221.570312 247.652344 222.304688 247.761719 223.042969 247.832031 C 223.78125 247.90625 224.523438 247.941406 225.265625 247.941406 M 157.238281 225.265625 C 157.238281 226.007812 157.203125 226.75 157.128906 227.488281 C 157.054688 228.226562 156.945312 228.960938 156.800781 229.691406 C 156.65625 230.417969 156.476562 231.136719 156.261719 231.847656 C 156.046875 232.558594 155.796875 233.257812 155.511719 233.945312 C 155.226562 234.628906 154.910156 235.300781 154.558594 235.957031 C 154.210938 236.609375 153.828125 237.246094 153.417969 237.863281 C 153.003906 238.480469 152.5625 239.078125 152.089844 239.652344 C 151.621094 240.226562 151.121094 240.777344 150.597656 241.300781 C 150.070312 241.824219 149.523438 242.324219 148.949219 242.796875 C 148.375 243.265625 147.777344 243.707031 147.160156 244.121094 C 146.542969 244.535156 145.90625 244.914062 145.25 245.265625 C 144.597656 245.613281 143.925781 245.933594 143.238281 246.214844 C 142.554688 246.5 141.855469 246.75 141.144531 246.964844 C 140.433594 247.183594 139.714844 247.363281 138.984375 247.507812 C 138.257812 247.652344 137.523438 247.761719 136.785156 247.832031 C 136.046875 247.90625 135.304688 247.941406 134.5625 247.941406 C 133.820312 247.941406 133.078125 247.90625 132.339844 247.832031 C 131.601562 247.761719 130.867188 247.652344 130.136719 247.507812 C 129.410156 247.363281 128.691406 247.183594 127.980469 246.964844 C 127.269531 246.75 126.570312 246.5 125.882812 246.214844 C 125.199219 245.933594 124.527344 245.613281 123.871094 245.265625 C 123.21875 244.914062 122.582031 244.535156 121.964844 244.121094 C 121.347656 243.707031 120.75 243.265625 120.175781 242.796875 C 119.601562 242.324219 119.050781 241.824219 118.527344 241.300781 C 118.003906 240.777344 117.503906 240.226562 117.03125 239.652344 C 116.5625 239.078125 116.121094 238.480469 115.707031 237.863281 C 115.292969 237.246094 114.914062 236.609375 114.5625 235.957031 C 114.214844 235.300781 113.894531 234.628906 113.613281 233.945312 C 113.328125 233.257812 113.078125 232.558594 112.863281 231.847656 C 112.648438 231.136719 112.464844 230.417969 112.320312 229.691406 C 112.175781 228.960938 112.066406 228.226562 111.996094 227.488281 C 111.921875 226.75 111.886719 226.007812 111.886719 225.265625 C 111.886719 224.523438 111.921875 223.78125 111.996094 223.042969 C 112.066406 222.304688 112.175781 221.570312 112.320312 220.84375 C 112.464844 220.113281 112.648438 219.394531 112.863281 218.683594 C 113.078125 217.972656 113.328125 217.273438 113.613281 216.589844 C 113.894531 215.902344 114.214844 215.230469 114.5625 214.578125 C 114.914062 213.921875 115.292969 213.285156 115.707031 212.667969 C 116.121094 212.050781 116.5625 211.453125 117.03125 210.882812 C 117.503906 210.308594 118.003906 209.757812 118.527344 209.230469 C 119.050781 208.707031 119.601562 208.207031 120.175781 207.738281 C 120.75 207.265625 121.347656 206.824219 121.964844 206.410156 C 122.582031 206 123.21875 205.617188 123.871094 205.269531 C 124.527344 204.917969 125.199219 204.601562 125.882812 204.316406 C 126.570312 204.03125 127.269531 203.78125 127.980469 203.566406 C 128.691406 203.351562 129.410156 203.171875 130.136719 203.027344 C 130.867188 202.882812 131.601562 202.773438 132.339844 202.699219 C 133.078125 202.625 133.820312 202.589844 134.5625 202.589844 C 135.304688 202.589844 136.046875 202.625 136.785156 202.699219 C 137.523438 202.773438 138.257812 202.882812 138.984375 203.027344 C 139.714844 203.171875 140.433594 203.351562 141.144531 203.566406 C 141.855469 203.78125 142.554688 204.03125 143.238281 204.316406 C 143.925781 204.601562 144.597656 204.917969 145.25 205.269531 C 145.90625 205.617188 146.542969 206 147.160156 206.410156 C 147.777344 206.824219 148.375 207.265625 148.949219 207.738281 C 149.523438 208.207031 150.070312 208.707031 150.597656 209.230469 C 151.121094 209.757812 151.621094 210.308594 152.089844 210.882812 C 152.5625 211.453125 153.003906 212.050781 153.417969 212.667969 C 153.828125 213.285156 154.210938 213.921875 154.558594 214.578125 C 154.910156 215.230469 155.226562 215.902344 155.511719 216.589844 C 155.796875 217.273438 156.046875 217.972656 156.261719 218.683594 C 156.476562 219.394531 156.65625 220.113281 156.800781 220.84375 C 156.945312 221.570312 157.054688 222.304688 157.128906 223.042969 C 157.203125 223.78125 157.238281 224.523438 157.238281 225.265625 " fill-opacity="1" fill-rule="nonzero"/><g clip-path="url(#2ae482c2d7)"><path fill="#eeffff" d="M 21.179688 202.589844 C 21.179688 201.105469 21.21875 199.621094 21.289062 198.140625 C 21.363281 196.65625 21.472656 195.175781 21.617188 193.699219 C 21.761719 192.222656 21.945312 190.75 22.164062 189.28125 C 22.378906 187.8125 22.632812 186.351562 22.925781 184.894531 C 23.214844 183.4375 23.539062 181.992188 23.898438 180.550781 C 24.261719 179.109375 24.65625 177.679688 25.085938 176.261719 C 25.519531 174.839844 25.984375 173.429688 26.484375 172.03125 C 26.984375 170.636719 27.519531 169.25 28.085938 167.878906 C 28.652344 166.507812 29.253906 165.152344 29.890625 163.808594 C 30.523438 162.46875 31.191406 161.140625 31.890625 159.832031 C 32.589844 158.523438 33.324219 157.230469 34.085938 155.957031 C 34.847656 154.6875 35.644531 153.433594 36.46875 152.199219 C 37.292969 150.964844 38.148438 149.75 39.03125 148.558594 C 39.914062 147.367188 40.828125 146.195312 41.769531 145.046875 C 42.710938 143.902344 43.679688 142.777344 44.679688 141.675781 C 45.675781 140.578125 46.699219 139.503906 47.746094 138.453125 C 48.796875 137.402344 49.871094 136.378906 50.972656 135.382812 C 52.070312 134.386719 53.195312 133.417969 54.34375 132.476562 C 55.492188 131.53125 56.660156 130.621094 57.851562 129.734375 C 59.046875 128.851562 60.257812 127.996094 61.492188 127.171875 C 62.726562 126.347656 63.980469 125.554688 65.253906 124.789062 C 66.527344 124.027344 67.820312 123.296875 69.128906 122.597656 C 70.4375 121.894531 71.761719 121.230469 73.105469 120.59375 C 74.445312 119.960938 75.804688 119.359375 77.175781 118.789062 C 78.546875 118.222656 79.929688 117.6875 81.328125 117.1875 C 82.726562 116.6875 84.136719 116.222656 85.554688 115.792969 C 86.976562 115.359375 88.40625 114.964844 89.847656 114.605469 C 91.285156 114.242188 92.734375 113.917969 94.191406 113.628906 C 95.644531 113.339844 97.109375 113.085938 98.578125 112.867188 C 100.046875 112.648438 101.519531 112.46875 102.996094 112.324219 C 104.472656 112.175781 105.953125 112.066406 107.433594 111.996094 C 108.917969 111.921875 110.402344 111.886719 111.886719 111.886719 L 656.113281 111.886719 C 657.597656 111.886719 659.082031 111.921875 660.5625 111.996094 C 662.046875 112.066406 663.527344 112.175781 665.003906 112.324219 C 666.480469 112.46875 667.953125 112.648438 669.421875 112.867188 C 670.890625 113.085938 672.351562 113.339844 673.808594 113.628906 C 675.265625 113.917969 676.710938 114.242188 678.152344 114.605469 C 679.59375 114.964844 681.023438 115.359375 682.445312 115.792969 C 683.863281 116.222656 685.273438 116.6875 686.671875 117.1875 C 688.066406 117.6875 689.453125 118.222656 690.824219 118.789062 C 692.195312 119.359375 693.550781 119.960938 694.894531 120.59375 C 696.238281 121.230469 697.5625 121.894531 698.871094 122.597656 C 700.179688 123.296875 701.472656 124.027344 702.746094 124.789062 C 704.019531 125.554688 705.273438 126.347656 706.507812 127.171875 C 707.742188 127.996094 708.953125 128.851562 710.144531 129.734375 C 711.339844 130.621094 712.507812 131.53125 713.65625 132.476562 C 714.804688 133.417969 715.925781 134.386719 717.027344 135.382812 C 718.125 136.378906 719.203125 137.402344 720.25 138.453125 C 721.300781 139.503906 722.324219 140.578125 723.320312 141.675781 C 724.316406 142.777344 725.289062 143.902344 726.230469 145.046875 C 727.171875 146.195312 728.082031 147.367188 728.96875 148.558594 C 729.851562 149.75 730.707031 150.964844 731.53125 152.199219 C 732.355469 153.433594 733.148438 154.6875 733.914062 155.957031 C 734.675781 157.230469 735.40625 158.523438 736.109375 159.832031 C 736.808594 161.140625 737.472656 162.46875 738.109375 163.808594 C 738.742188 165.152344 739.34375 166.507812 739.914062 167.878906 C 740.480469 169.25 741.015625 170.636719 741.515625 172.03125 C 742.015625 173.429688 742.480469 174.839844 742.914062 176.261719 C 743.34375 177.679688 743.738281 179.109375 744.097656 180.550781 C 744.460938 181.992188 744.785156 183.4375 745.074219 184.894531 C 745.363281 186.351562 745.617188 187.8125 745.835938 189.28125 C 746.054688 190.75 746.234375 192.222656 746.382812 193.699219 C 746.527344 195.175781 746.636719 196.65625 746.707031 198.140625 C 746.78125 199.621094 746.816406 201.105469 746.816406 202.589844 L 746.816406 247.941406 C 746.816406 249.425781 746.78125 250.910156 746.707031 252.394531 C 746.636719 253.875 746.527344 255.355469 746.382812 256.832031 C 746.234375 258.3125 746.054688 259.785156 745.835938 261.25 C 745.617188 262.71875 745.363281 264.183594 745.074219 265.636719 C 744.785156 267.09375 744.460938 268.542969 744.097656 269.980469 C 743.738281 271.421875 743.34375 272.851562 742.914062 274.273438 C 742.480469 275.691406 742.015625 277.101562 741.515625 278.5 C 741.015625 279.898438 740.480469 281.28125 739.914062 282.652344 C 739.34375 284.023438 738.742188 285.382812 738.109375 286.722656 C 737.472656 288.066406 736.808594 289.390625 736.109375 290.699219 C 735.40625 292.007812 734.675781 293.300781 733.914062 294.574219 C 733.148438 295.847656 732.355469 297.101562 731.53125 298.335938 C 730.707031 299.570312 729.851562 300.78125 728.96875 301.976562 C 728.082031 303.167969 727.171875 304.335938 726.230469 305.484375 C 725.289062 306.632812 724.316406 307.757812 723.320312 308.855469 C 722.324219 309.957031 721.300781 311.03125 720.25 312.082031 C 719.203125 313.128906 718.125 314.152344 717.027344 315.148438 C 715.925781 316.148438 714.804688 317.117188 713.65625 318.058594 C 712.507812 319 711.339844 319.914062 710.144531 320.796875 C 708.953125 321.679688 707.742188 322.535156 706.507812 323.359375 C 705.273438 324.183594 704.019531 324.980469 702.746094 325.742188 C 701.472656 326.503906 700.179688 327.238281 698.871094 327.9375 C 697.5625 328.636719 696.238281 329.304688 694.894531 329.9375 C 693.550781 330.574219 692.195312 331.175781 690.824219 331.742188 C 689.453125 332.3125 688.066406 332.84375 686.671875 333.34375 C 685.273438 333.84375 683.863281 334.3125 682.445312 334.742188 C 681.023438 335.171875 679.59375 335.566406 678.152344 335.929688 C 676.710938 336.289062 675.265625 336.613281 673.808594 336.90625 C 672.351562 337.195312 670.890625 337.449219 669.421875 337.664062 C 667.953125 337.882812 666.480469 338.066406 665.003906 338.210938 C 663.527344 338.355469 662.046875 338.464844 660.5625 338.539062 C 659.082031 338.609375 657.597656 338.648438 656.113281 338.648438 L 406.675781 338.648438 L 406.675781 474.703125 C 407.789062 474.703125 408.902344 474.730469 410.015625 474.785156 C 411.125 474.839844 412.234375 474.921875 413.34375 475.03125 C 414.453125 475.140625 415.554688 475.277344 416.65625 475.441406 C 417.757812 475.605469 418.855469 475.792969 419.949219 476.011719 C 421.039062 476.226562 422.125 476.472656 423.207031 476.742188 C 424.285156 477.011719 425.359375 477.308594 426.421875 477.632812 C 427.488281 477.957031 428.546875 478.304688 429.59375 478.679688 C 430.640625 479.054688 431.679688 479.457031 432.710938 479.882812 C 433.738281 480.308594 434.753906 480.757812 435.761719 481.234375 C 436.769531 481.710938 437.761719 482.210938 438.742188 482.738281 C 439.726562 483.261719 440.695312 483.808594 441.648438 484.382812 C 442.605469 484.953125 443.542969 485.550781 444.46875 486.167969 C 445.394531 486.789062 446.304688 487.429688 447.199219 488.089844 C 448.09375 488.753906 448.972656 489.441406 449.832031 490.144531 C 450.691406 490.851562 451.535156 491.578125 452.359375 492.328125 C 453.1875 493.074219 453.992188 493.84375 454.777344 494.628906 C 455.566406 495.417969 456.332031 496.222656 457.082031 497.046875 C 457.828125 497.871094 458.554688 498.714844 459.261719 499.574219 C 459.96875 500.4375 460.652344 501.3125 461.316406 502.207031 C 461.980469 503.101562 462.621094 504.011719 463.238281 504.9375 C 463.859375 505.863281 464.453125 506.804688 465.027344 507.757812 C 465.597656 508.714844 466.148438 509.683594 466.671875 510.664062 C 467.195312 511.644531 467.695312 512.640625 468.171875 513.648438 C 468.648438 514.652344 469.101562 515.671875 469.527344 516.699219 C 469.953125 517.726562 470.351562 518.765625 470.726562 519.8125 C 471.101562 520.863281 471.453125 521.917969 471.773438 522.984375 C 472.097656 524.050781 472.394531 525.121094 472.664062 526.203125 C 472.9375 527.28125 473.179688 528.367188 473.398438 529.460938 C 473.613281 530.554688 473.804688 531.648438 473.96875 532.75 C 474.132812 533.851562 474.265625 534.957031 474.375 536.066406 C 474.484375 537.171875 474.566406 538.28125 474.621094 539.394531 C 474.675781 540.507812 474.703125 541.621094 474.703125 542.734375 L 724.140625 542.734375 C 724.882812 542.734375 725.625 542.769531 726.363281 542.839844 C 727.105469 542.914062 727.835938 543.023438 728.566406 543.167969 C 729.292969 543.3125 730.011719 543.492188 730.722656 543.707031 C 731.433594 543.925781 732.132812 544.175781 732.820312 544.457031 C 733.503906 544.742188 734.175781 545.058594 734.832031 545.410156 C 735.484375 545.761719 736.121094 546.140625 736.738281 546.554688 C 737.359375 546.96875 737.953125 547.410156 738.527344 547.878906 C 739.101562 548.351562 739.652344 548.847656 740.175781 549.375 C 740.703125 549.898438 741.199219 550.449219 741.671875 551.023438 C 742.140625 551.597656 742.582031 552.191406 742.996094 552.808594 C 743.410156 553.429688 743.789062 554.0625 744.140625 554.71875 C 744.492188 555.375 744.808594 556.042969 745.089844 556.730469 C 745.375 557.417969 745.625 558.117188 745.839844 558.824219 C 746.058594 559.535156 746.238281 560.257812 746.382812 560.984375 C 746.527344 561.714844 746.636719 562.445312 746.707031 563.1875 C 746.78125 563.925781 746.816406 564.667969 746.816406 565.410156 C 746.816406 566.152344 746.78125 566.890625 746.707031 567.632812 C 746.636719 568.371094 746.527344 569.105469 746.382812 569.832031 C 746.238281 570.5625 746.058594 571.28125 745.839844 571.992188 C 745.625 572.703125 745.375 573.398438 745.089844 574.085938 C 744.808594 574.773438 744.492188 575.441406 744.140625 576.097656 C 743.789062 576.753906 743.410156 577.390625 742.996094 578.007812 C 742.582031 578.625 742.140625 579.21875 741.671875 579.792969 C 741.199219 580.367188 740.703125 580.917969 740.175781 581.441406 C 739.652344 581.96875 739.101562 582.464844 738.527344 582.9375 C 737.953125 583.410156 737.359375 583.851562 736.738281 584.261719 C 736.121094 584.675781 735.484375 585.058594 734.832031 585.40625 C 734.175781 585.757812 733.503906 586.074219 732.820312 586.359375 C 732.132812 586.644531 731.433594 586.894531 730.722656 587.109375 C 730.011719 587.324219 729.292969 587.503906 728.566406 587.648438 C 727.835938 587.792969 727.105469 587.902344 726.363281 587.976562 C 725.625 588.046875 724.882812 588.085938 724.140625 588.085938 L 474.703125 588.085938 C 474.703125 589.199219 474.675781 590.3125 474.621094 591.421875 C 474.566406 592.535156 474.484375 593.644531 474.375 594.753906 C 474.265625 595.859375 474.132812 596.964844 473.96875 598.066406 C 473.804688 599.167969 473.613281 600.265625 473.398438 601.355469 C 473.179688 602.449219 472.9375 603.535156 472.664062 604.613281 C 472.394531 605.695312 472.097656 606.765625 471.773438 607.832031 C 471.453125 608.898438 471.101562 609.953125 470.726562 611.003906 C 470.351562 612.050781 469.953125 613.089844 469.527344 614.117188 C 469.101562 615.148438 468.648438 616.164062 468.171875 617.171875 C 467.695312 618.175781 467.195312 619.171875 466.671875 620.152344 C 466.148438 621.136719 465.597656 622.101562 465.027344 623.058594 C 464.453125 624.011719 463.859375 624.953125 463.238281 625.878906 C 462.621094 626.804688 461.980469 627.714844 461.316406 628.609375 C 460.652344 629.503906 459.96875 630.382812 459.261719 631.242188 C 458.554688 632.101562 457.828125 632.945312 457.082031 633.769531 C 456.332031 634.59375 455.566406 635.402344 454.777344 636.1875 C 453.992188 636.976562 453.1875 637.742188 452.359375 638.492188 C 451.535156 639.238281 450.691406 639.964844 449.832031 640.671875 C 448.972656 641.378906 448.09375 642.0625 447.199219 642.726562 C 446.304688 643.390625 445.394531 644.03125 444.46875 644.648438 C 443.542969 645.265625 442.605469 645.863281 441.648438 646.433594 C 440.695312 647.007812 439.726562 647.554688 438.742188 648.082031 C 437.761719 648.605469 436.769531 649.105469 435.761719 649.582031 C 434.753906 650.058594 433.738281 650.507812 432.710938 650.933594 C 431.679688 651.359375 430.640625 651.761719 429.59375 652.136719 C 428.546875 652.511719 427.488281 652.859375 426.421875 653.183594 C 425.359375 653.507812 424.285156 653.804688 423.207031 654.074219 C 422.125 654.34375 421.039062 654.589844 419.949219 654.804688 C 418.855469 655.023438 417.757812 655.214844 416.65625 655.375 C 415.554688 655.539062 414.453125 655.675781 413.34375 655.785156 C 412.234375 655.894531 411.125 655.976562 410.015625 656.03125 C 408.902344 656.085938 407.789062 656.113281 406.675781 656.113281 L 361.324219 656.113281 C 360.210938 656.113281 359.097656 656.085938 357.984375 656.03125 C 356.875 655.976562 355.761719 655.894531 354.65625 655.785156 C 353.546875 655.675781 352.441406 655.539062 351.339844 655.375 C 350.242188 655.214844 349.144531 655.023438 348.050781 654.804688 C 346.960938 654.589844 345.875 654.34375 344.792969 654.074219 C 343.714844 653.804688 342.640625 653.507812 341.574219 653.183594 C 340.511719 652.859375 339.453125 652.511719 338.40625 652.136719 C 337.355469 651.761719 336.320312 651.359375 335.289062 650.933594 C 334.261719 650.507812 333.242188 650.058594 332.238281 649.582031 C 331.230469 649.105469 330.238281 648.605469 329.253906 648.082031 C 328.273438 647.554688 327.304688 647.007812 326.351562 646.433594 C 325.394531 645.863281 324.453125 645.265625 323.527344 644.648438 C 322.601562 644.03125 321.691406 643.390625 320.800781 642.726562 C 319.90625 642.0625 319.027344 641.378906 318.167969 640.671875 C 317.304688 639.964844 316.464844 639.238281 315.636719 638.492188 C 314.8125 637.742188 314.007812 636.976562 313.21875 636.1875 C 312.433594 635.402344 311.664062 634.59375 310.917969 633.769531 C 310.171875 632.945312 309.441406 632.101562 308.738281 631.242188 C 308.03125 630.382812 307.34375 629.503906 306.683594 628.609375 C 306.019531 627.714844 305.378906 626.804688 304.761719 625.878906 C 304.140625 624.953125 303.546875 624.011719 302.972656 623.058594 C 302.402344 622.101562 301.851562 621.136719 301.328125 620.152344 C 300.804688 619.171875 300.300781 618.175781 299.828125 617.171875 C 299.351562 616.164062 298.898438 615.148438 298.472656 614.117188 C 298.046875 613.089844 297.648438 612.050781 297.273438 611.003906 C 296.898438 609.953125 296.546875 608.898438 296.222656 607.832031 C 295.902344 606.765625 295.605469 605.695312 295.332031 604.613281 C 295.0625 603.535156 294.820312 602.449219 294.601562 601.355469 C 294.386719 600.265625 294.195312 599.167969 294.03125 598.066406 C 293.867188 596.964844 293.730469 595.859375 293.621094 594.753906 C 293.511719 593.644531 293.429688 592.535156 293.375 591.421875 C 293.324219 590.3125 293.296875 589.199219 293.296875 588.085938 L 43.855469 588.085938 C 43.113281 588.085938 42.375 588.046875 41.632812 587.976562 C 40.894531 587.902344 40.160156 587.792969 39.433594 587.648438 C 38.703125 587.503906 37.984375 587.324219 37.273438 587.109375 C 36.5625 586.894531 35.867188 586.644531 35.179688 586.359375 C 34.492188 586.074219 33.824219 585.757812 33.167969 585.40625 C 32.511719 585.058594 31.875 584.675781 31.257812 584.261719 C 30.640625 583.851562 30.046875 583.410156 29.472656 582.9375 C 28.898438 582.464844 28.347656 581.96875 27.824219 581.441406 C 27.296875 580.917969 26.800781 580.367188 26.328125 579.792969 C 25.855469 579.21875 25.414062 578.625 25.003906 578.007812 C 24.589844 577.390625 24.207031 576.753906 23.859375 576.097656 C 23.507812 575.441406 23.191406 574.773438 22.90625 574.085938 C 22.625 573.398438 22.375 572.703125 22.15625 571.992188 C 21.941406 571.28125 21.761719 570.5625 21.617188 569.832031 C 21.472656 569.105469 21.363281 568.371094 21.289062 567.632812 C 21.21875 566.890625 21.179688 566.152344 21.179688 565.410156 C 21.179688 564.667969 21.21875 563.925781 21.289062 563.1875 C 21.363281 562.445312 21.472656 561.714844 21.617188 560.984375 C 21.761719 560.257812 21.941406 559.535156 22.15625 558.824219 C 22.375 558.117188 22.625 557.417969 22.90625 556.730469 C 23.191406 556.042969 23.507812 555.375 23.859375 554.71875 C 24.207031 554.0625 24.589844 553.429688 25.003906 552.808594 C 25.414062 552.191406 25.855469 551.597656 26.328125 551.023438 C 26.800781 550.449219 27.296875 549.898438 27.824219 549.375 C 28.347656 548.847656 28.898438 548.351562 29.472656 547.878906 C 30.046875 547.410156 30.640625 546.964844 31.257812 546.554688 C 31.875 546.140625 32.511719 545.761719 33.167969 545.410156 C 33.824219 545.058594 34.492188 544.742188 35.179688 544.457031 C 35.867188 544.175781 36.5625 543.925781 37.273438 543.710938 C 37.984375 543.492188 38.703125 543.3125 39.433594 543.167969 C 40.160156 543.023438 40.894531 542.914062 41.632812 542.84375 C 42.375 542.769531 43.113281 542.734375 43.855469 542.734375 L 293.296875 542.734375 C 293.296875 541.621094 293.324219 540.507812 293.375 539.394531 C 293.429688 538.28125 293.511719 537.171875 293.621094 536.066406 C 293.730469 534.957031 293.867188 533.851562 294.03125 532.75 C 294.195312 531.648438 294.386719 530.554688 294.601562 529.460938 C 294.820312 528.367188 295.0625 527.28125 295.332031 526.203125 C 295.605469 525.125 295.902344 524.050781 296.222656 522.984375 C 296.546875 521.917969 296.898438 520.863281 297.273438 519.816406 C 297.648438 518.765625 298.046875 517.726562 298.472656 516.699219 C 298.898438 515.671875 299.351562 514.652344 299.828125 513.648438 C 300.300781 512.640625 300.804688 511.644531 301.328125 510.664062 C 301.851562 509.683594 302.402344 508.714844 302.972656 507.757812 C 303.546875 506.804688 304.140625 505.863281 304.761719 504.9375 C 305.378906 504.011719 306.019531 503.101562 306.683594 502.207031 C 307.34375 501.3125 308.03125 500.4375 308.738281 499.574219 C 309.441406 498.714844 310.171875 497.871094 310.917969 497.046875 C 311.664062 496.222656 312.433594 495.417969 313.21875 494.628906 C 314.007812 493.84375 314.8125 493.074219 315.636719 492.328125 C 316.464844 491.578125 317.304688 490.851562 318.167969 490.144531 C 319.027344 489.441406 319.90625 488.753906 320.800781 488.089844 C 321.691406 487.429688 322.601562 486.789062 323.527344 486.167969 C 324.453125 485.550781 325.394531 484.953125 326.351562 484.382812 C 327.304688 483.808594 328.273438 483.261719 329.253906 482.738281 C 330.238281 482.210938 331.230469 481.710938 332.238281 481.234375 C 333.242188 480.757812 334.261719 480.308594 335.289062 479.882812 C 336.320312 479.457031 337.355469 479.054688 338.40625 478.679688 C 339.453125 478.304688 340.511719 477.957031 341.574219 477.632812 C 342.640625 477.308594 343.714844 477.011719 344.792969 476.742188 C 345.875 476.472656 346.960938 476.230469 348.050781 476.011719 C 349.144531 475.792969 350.242188 475.605469 351.339844 475.441406 C 352.441406 475.277344 353.546875 475.140625 354.65625 475.03125 C 355.761719 474.921875 356.875 474.839844 357.984375 474.785156 C 359.097656 474.730469 360.210938 474.703125 361.324219 474.703125 L 361.324219 338.648438 L 111.886719 338.648438 C 110.402344 338.648438 108.917969 338.609375 107.433594 338.539062 C 105.953125 338.464844 104.472656 338.355469 102.996094 338.210938 C 101.519531 338.066406 100.046875 337.882812 98.578125 337.664062 C 97.109375 337.449219 95.644531 337.195312 94.191406 336.90625 C 92.734375 336.613281 91.285156 336.289062 89.847656 335.929688 C 88.40625 335.566406 86.976562 335.171875 85.554688 334.742188 C 84.136719 334.3125 82.726562 333.84375 81.328125 333.34375 C 79.929688 332.84375 78.546875 332.3125 77.175781 331.742188 C 75.804688 331.175781 74.445312 330.574219 73.105469 329.9375 C 71.761719 329.304688 70.4375 328.636719 69.128906 327.9375 C 67.820312 327.238281 66.527344 326.503906 65.253906 325.742188 C 63.980469 324.980469 62.726562 324.183594 61.492188 323.359375 C 60.257812 322.535156 59.046875 321.679688 57.851562 320.796875 C 56.660156 319.914062 55.492188 319 54.34375 318.058594 C 53.195312 317.117188 52.070312 316.148438 50.972656 315.148438 C 49.871094 314.152344 48.796875 313.128906 47.746094 312.082031 C 46.699219 311.03125 45.675781 309.957031 44.679688 308.855469 C 43.679688 307.757812 42.710938 306.632812 41.769531 305.484375 C 40.828125 304.335938 39.914062 303.167969 39.03125 301.976562 C 38.148438 300.78125 37.292969 299.570312 36.46875 298.335938 C 35.644531 297.101562 34.847656 295.847656 34.085938 294.574219 C 33.324219 293.300781 32.589844 292.007812 31.890625 290.699219 C 31.191406 289.390625 30.523438 288.066406 29.890625 286.722656 C 29.253906 285.382812 28.652344 284.023438 28.085938 282.652344 C 27.519531 281.28125 26.984375 279.898438 26.484375 278.5 C 25.984375 277.101562 25.519531 275.691406 25.085938 274.273438 C 24.65625 272.851562 24.261719 271.421875 23.898438 269.980469 C 23.539062 268.542969 23.214844 267.09375 22.925781 265.636719 C 22.632812 264.183594 22.378906 262.71875 22.164062 261.25 C 21.945312 259.785156 21.761719 258.3125 21.617188 256.832031 C 21.472656 255.355469 21.363281 253.875 21.289062 252.394531 C 21.21875 250.910156 21.179688 249.425781 21.179688 247.941406 Z M 66.535156 202.589844 L 66.535156 247.941406 C 66.535156 249.429688 66.605469 250.910156 66.75 252.386719 C 66.898438 253.867188 67.113281 255.332031 67.40625 256.789062 C 67.695312 258.246094 68.054688 259.6875 68.488281 261.109375 C 68.917969 262.527344 69.417969 263.925781 69.984375 265.296875 C 70.554688 266.671875 71.1875 268.011719 71.886719 269.320312 C 72.589844 270.632812 73.351562 271.902344 74.175781 273.140625 C 75 274.375 75.886719 275.566406 76.828125 276.714844 C 77.769531 277.863281 78.765625 278.960938 79.816406 280.011719 C 80.867188 281.0625 81.964844 282.058594 83.113281 283 C 84.261719 283.941406 85.453125 284.828125 86.6875 285.652344 C 87.925781 286.476562 89.195312 287.238281 90.507812 287.941406 C 91.816406 288.640625 93.15625 289.273438 94.53125 289.84375 C 95.902344 290.410156 97.300781 290.910156 98.722656 291.34375 C 100.140625 291.773438 101.582031 292.132812 103.039062 292.421875 C 104.496094 292.714844 105.960938 292.929688 107.441406 293.078125 C 108.917969 293.222656 110.402344 293.296875 111.886719 293.296875 L 656.113281 293.296875 C 657.597656 293.296875 659.082031 293.222656 660.558594 293.078125 C 662.035156 292.929688 663.503906 292.714844 664.960938 292.421875 C 666.417969 292.132812 667.855469 291.773438 669.277344 291.34375 C 670.699219 290.910156 672.097656 290.410156 673.46875 289.84375 C 674.839844 289.273438 676.183594 288.640625 677.492188 287.941406 C 678.800781 287.238281 680.074219 286.476562 681.308594 285.652344 C 682.542969 284.828125 683.734375 283.941406 684.882812 283 C 686.03125 282.058594 687.132812 281.0625 688.183594 280.011719 C 689.234375 278.960938 690.230469 277.863281 691.171875 276.714844 C 692.113281 275.566406 692.996094 274.375 693.824219 273.140625 C 694.648438 271.902344 695.410156 270.632812 696.109375 269.320312 C 696.8125 268.011719 697.445312 266.671875 698.011719 265.296875 C 698.582031 263.925781 699.082031 262.527344 699.511719 261.109375 C 699.945312 259.6875 700.304688 258.246094 700.59375 256.789062 C 700.882812 255.332031 701.101562 253.867188 701.246094 252.386719 C 701.394531 250.910156 701.464844 249.429688 701.464844 247.941406 L 701.464844 202.589844 C 701.464844 201.105469 701.394531 199.625 701.246094 198.144531 C 701.101562 196.667969 700.882812 195.199219 700.59375 193.742188 C 700.304688 192.285156 699.945312 190.847656 699.511719 189.425781 C 699.082031 188.003906 698.582031 186.605469 698.011719 185.234375 C 697.445312 183.863281 696.8125 182.519531 696.109375 181.210938 C 695.410156 179.902344 694.648438 178.628906 693.824219 177.394531 C 692.996094 176.160156 692.113281 174.96875 691.171875 173.820312 C 690.230469 172.671875 689.234375 171.570312 688.183594 170.519531 C 687.132812 169.472656 686.03125 168.476562 684.882812 167.53125 C 683.734375 166.589844 682.542969 165.707031 681.308594 164.882812 C 680.074219 164.054688 678.800781 163.292969 677.492188 162.59375 C 676.183594 161.894531 674.839844 161.257812 673.46875 160.691406 C 672.097656 160.121094 670.699219 159.621094 669.277344 159.191406 C 667.855469 158.757812 666.417969 158.398438 664.960938 158.109375 C 663.503906 157.820312 662.035156 157.601562 660.558594 157.457031 C 659.082031 157.3125 657.597656 157.238281 656.113281 157.238281 L 111.886719 157.238281 C 110.402344 157.238281 108.917969 157.3125 107.441406 157.457031 C 105.960938 157.601562 104.496094 157.820312 103.039062 158.109375 C 101.582031 158.398438 100.140625 158.761719 98.722656 159.191406 C 97.300781 159.621094 95.902344 160.121094 94.53125 160.691406 C 93.15625 161.257812 91.816406 161.894531 90.507812 162.59375 C 89.195312 163.292969 87.925781 164.054688 86.6875 164.882812 C 85.453125 165.707031 84.261719 166.589844 83.113281 167.53125 C 81.964844 168.476562 80.867188 169.472656 79.816406 170.519531 C 78.765625 171.570312 77.769531 172.671875 76.828125 173.820312 C 75.886719 174.96875 75 176.160156 74.175781 177.394531 C 73.351562 178.628906 72.589844 179.902344 71.886719 181.210938 C 71.1875 182.519531 70.554688 183.863281 69.984375 185.234375 C 69.417969 186.605469 68.917969 188.003906 68.488281 189.425781 C 68.054688 190.847656 67.695312 192.285156 67.40625 193.742188 C 67.113281 195.199219 66.898438 196.667969 66.75 198.144531 C 66.605469 199.625 66.535156 201.105469 66.535156 202.589844 M 338.648438 542.734375 L 338.648438 588.085938 C 338.648438 588.828125 338.683594 589.570312 338.757812 590.308594 C 338.828125 591.046875 338.9375 591.78125 339.082031 592.507812 C 339.226562 593.238281 339.40625 593.957031 339.625 594.667969 C 339.839844 595.378906 340.089844 596.078125 340.375 596.761719 C 340.65625 597.449219 340.976562 598.121094 341.324219 598.773438 C 341.675781 599.429688 342.054688 600.066406 342.46875 600.683594 C 342.882812 601.300781 343.324219 601.894531 343.792969 602.46875 C 344.265625 603.042969 344.765625 603.59375 345.289062 604.121094 C 345.8125 604.644531 346.363281 605.140625 346.9375 605.613281 C 347.511719 606.085938 348.109375 606.527344 348.726562 606.9375 C 349.34375 607.351562 349.980469 607.734375 350.632812 608.082031 C 351.289062 608.433594 351.960938 608.75 352.644531 609.035156 C 353.332031 609.320312 354.03125 609.570312 354.742188 609.785156 C 355.453125 610 356.171875 610.179688 356.898438 610.324219 C 357.628906 610.46875 358.363281 610.578125 359.101562 610.652344 C 359.839844 610.722656 360.582031 610.761719 361.324219 610.761719 L 406.675781 610.761719 C 407.417969 610.761719 408.160156 610.722656 408.898438 610.652344 C 409.636719 610.578125 410.371094 610.46875 411.097656 610.324219 C 411.828125 610.179688 412.546875 610 413.257812 609.785156 C 413.96875 609.570312 414.667969 609.320312 415.351562 609.035156 C 416.039062 608.75 416.710938 608.433594 417.363281 608.082031 C 418.019531 607.734375 418.65625 607.351562 419.273438 606.9375 C 419.890625 606.527344 420.488281 606.085938 421.0625 605.613281 C 421.636719 605.140625 422.183594 604.644531 422.710938 604.121094 C 423.234375 603.59375 423.734375 603.042969 424.203125 602.46875 C 424.675781 601.894531 425.117188 601.300781 425.53125 600.683594 C 425.941406 600.066406 426.324219 599.429688 426.675781 598.773438 C 427.023438 598.121094 427.339844 597.449219 427.625 596.761719 C 427.910156 596.078125 428.160156 595.378906 428.375 594.667969 C 428.589844 593.957031 428.769531 593.238281 428.917969 592.507812 C 429.0625 591.78125 429.167969 591.046875 429.242188 590.308594 C 429.316406 589.570312 429.351562 588.828125 429.351562 588.085938 L 429.351562 542.734375 C 429.351562 541.988281 429.316406 541.25 429.242188 540.511719 C 429.167969 539.769531 429.0625 539.035156 428.917969 538.308594 C 428.769531 537.582031 428.589844 536.859375 428.375 536.148438 C 428.160156 535.4375 427.910156 534.742188 427.625 534.054688 C 427.339844 533.367188 427.023438 532.699219 426.675781 532.042969 C 426.324219 531.386719 425.941406 530.75 425.53125 530.132812 C 425.117188 529.515625 424.675781 528.921875 424.203125 528.347656 C 423.734375 527.773438 423.234375 527.222656 422.710938 526.699219 C 422.183594 526.171875 421.636719 525.675781 421.0625 525.203125 C 420.488281 524.734375 419.890625 524.289062 419.273438 523.878906 C 418.65625 523.464844 418.019531 523.085938 417.363281 522.734375 C 416.710938 522.382812 416.039062 522.066406 415.351562 521.78125 C 414.667969 521.5 413.96875 521.25 413.257812 521.03125 C 412.546875 520.816406 411.828125 520.636719 411.097656 520.492188 C 410.371094 520.347656 409.636719 520.238281 408.898438 520.164062 C 408.160156 520.09375 407.417969 520.054688 406.675781 520.054688 L 361.324219 520.054688 C 360.582031 520.054688 359.839844 520.09375 359.101562 520.164062 C 358.363281 520.238281 357.628906 520.347656 356.898438 520.492188 C 356.171875 520.636719 355.453125 520.816406 354.742188 521.03125 C 354.03125 521.25 353.332031 521.5 352.644531 521.78125 C 351.960938 522.066406 351.289062 522.382812 350.632812 522.734375 C 349.980469 523.085938 349.34375 523.464844 348.726562 523.878906 C 348.109375 524.289062 347.511719 524.734375 346.9375 525.203125 C 346.363281 525.675781 345.8125 526.171875 345.289062 526.699219 C 344.765625 527.222656 344.265625 527.773438 343.792969 528.347656 C 343.324219 528.921875 342.882812 529.515625 342.46875 530.132812 C 342.054688 530.75 341.675781 531.386719 341.324219 532.042969 C 340.976562 532.699219 340.65625 533.367188 340.375 534.054688 C 340.089844 534.742188 339.839844 535.4375 339.625 536.148438 C 339.40625 536.859375 339.226562 537.582031 339.082031 538.308594 C 338.9375 539.035156 338.828125 539.769531 338.757812 540.511719 C 338.683594 541.25 338.648438 541.988281 338.648438 542.734375 " fill-opacity="1" fill-rule="nonzero"/></g></svg>