<svg xmlns="http://www.w3.org/2000/svg" xmlns:xlink="http://www.w3.org/1999/xlink" width="1024" zoomAndPan="magnify" viewBox="0 0 768 767.999994" height="1024" preserveAspectRatio="xMidYMid meet" version="1.0"><path fill="#eeffff" d="M 292.789062 748.324219 L 214.71875 748.324219 L 214.71875 696.277344 L 292.789062 696.277344 L 292.789062 372.714844 L 201.328125 317.832031 L 228.113281 273.207031 L 319.574219 328.074219 C 321.488281 329.234375 323.320312 330.507812 325.070312 331.898438 C 326.824219 333.292969 328.476562 334.789062 330.035156 336.394531 C 331.59375 337.996094 333.042969 339.695312 334.382812 341.484375 C 335.726562 343.273438 336.945312 345.140625 338.046875 347.089844 C 339.148438 349.035156 340.121094 351.042969 340.964844 353.113281 C 341.808594 355.1875 342.519531 357.300781 343.089844 359.464844 C 343.664062 361.625 344.097656 363.816406 344.386719 366.03125 C 344.679688 368.25 344.828125 370.476562 344.835938 372.714844 L 344.835938 696.277344 C 344.835938 697.980469 344.75 699.679688 344.582031 701.375 C 344.410156 703.070312 344.160156 704.753906 343.828125 706.425781 C 343.492188 708.097656 343.078125 709.75 342.582031 711.378906 C 342.085938 713.007812 341.511719 714.609375 340.859375 716.183594 C 340.207031 717.757812 339.476562 719.296875 338.671875 720.800781 C 337.871094 722.300781 336.992188 723.761719 336.046875 725.179688 C 335.097656 726.59375 334.085938 727.960938 333.003906 729.277344 C 331.921875 730.597656 330.78125 731.855469 329.574219 733.0625 C 328.371094 734.265625 327.109375 735.410156 325.792969 736.492188 C 324.476562 737.574219 323.109375 738.585938 321.691406 739.535156 C 320.273438 740.480469 318.816406 741.355469 317.3125 742.160156 C 315.808594 742.964844 314.273438 743.691406 312.699219 744.34375 C 311.125 745 309.523438 745.574219 307.890625 746.070312 C 306.261719 746.566406 304.609375 746.980469 302.941406 747.3125 C 301.269531 747.648438 299.585938 747.898438 297.890625 748.066406 C 296.195312 748.234375 294.492188 748.320312 292.789062 748.324219 Z M 292.789062 748.324219 " fill-opacity="1" fill-rule="nonzero"/><path fill="#eeffff" d="M 553.023438 748.324219 L 474.953125 748.324219 C 473.25 748.320312 471.550781 748.234375 469.851562 748.066406 C 468.15625 747.898438 466.472656 747.648438 464.804688 747.3125 C 463.132812 746.980469 461.480469 746.5625 459.851562 746.070312 C 458.222656 745.574219 456.621094 745 455.046875 744.34375 C 453.472656 743.691406 451.933594 742.964844 450.429688 742.160156 C 448.929688 741.355469 447.46875 740.480469 446.050781 739.53125 C 444.636719 738.585938 443.269531 737.570312 441.953125 736.492188 C 440.632812 735.410156 439.375 734.265625 438.167969 733.0625 C 436.964844 731.855469 435.820312 730.59375 434.738281 729.277344 C 433.660156 727.960938 432.644531 726.59375 431.695312 725.179688 C 430.75 723.761719 429.875 722.300781 429.070312 720.800781 C 428.265625 719.296875 427.539062 717.757812 426.886719 716.183594 C 426.230469 714.609375 425.65625 713.007812 425.160156 711.378906 C 424.664062 709.746094 424.25 708.097656 423.917969 706.425781 C 423.582031 704.753906 423.332031 703.070312 423.164062 701.375 C 422.992188 699.679688 422.910156 697.980469 422.90625 696.277344 L 422.90625 410.019531 L 579.046875 410.019531 C 580.859375 410.019531 582.667969 409.972656 584.476562 409.878906 C 586.285156 409.785156 588.089844 409.640625 589.890625 409.453125 C 591.691406 409.265625 593.488281 409.027344 595.277344 408.746094 C 597.066406 408.464844 598.847656 408.136719 600.617188 407.761719 C 602.390625 407.382812 604.152344 406.964844 605.902344 406.496094 C 607.652344 406.027344 609.386719 405.515625 611.109375 404.957031 C 612.832031 404.398438 614.542969 403.796875 616.234375 403.152344 C 617.925781 402.503906 619.597656 401.8125 621.253906 401.078125 C 622.910156 400.34375 624.546875 399.566406 626.160156 398.746094 C 627.773438 397.925781 629.367188 397.066406 630.9375 396.164062 C 632.507812 395.261719 634.054688 394.316406 635.574219 393.335938 C 637.09375 392.351562 638.589844 391.328125 640.058594 390.265625 C 641.523438 389.207031 642.964844 388.105469 644.375 386.96875 C 645.785156 385.832031 647.164062 384.660156 648.511719 383.453125 C 649.863281 382.242188 651.179688 381 652.460938 379.722656 C 653.746094 378.445312 654.996094 377.136719 656.210938 375.792969 C 657.429688 374.449219 658.609375 373.078125 659.753906 371.671875 C 660.898438 370.269531 662.003906 368.835938 663.074219 367.375 C 664.140625 365.914062 665.171875 364.421875 666.164062 362.90625 C 667.15625 361.390625 668.105469 359.851562 669.019531 358.285156 C 669.929688 356.722656 670.800781 355.132812 671.628906 353.523438 C 672.457031 351.910156 673.242188 350.28125 673.984375 348.628906 C 674.726562 346.976562 675.429688 345.308594 676.082031 343.621094 C 676.738281 341.929688 677.351562 340.226562 677.917969 338.507812 C 678.484375 336.785156 679.007812 335.054688 679.484375 333.304688 C 679.960938 331.558594 680.390625 329.800781 680.777344 328.03125 C 681.160156 326.261719 681.5 324.480469 681.792969 322.695312 C 682.085938 320.90625 682.328125 319.113281 682.527344 317.3125 C 682.726562 315.511719 682.878906 313.707031 682.980469 311.898438 C 683.085938 310.089844 683.144531 308.28125 683.152344 306.46875 C 683.164062 304.660156 683.125 302.847656 683.039062 301.039062 C 682.957031 299.230469 682.824219 297.425781 682.644531 295.621094 C 682.429688 293.996094 682.175781 292.375 681.886719 290.757812 C 681.597656 289.140625 681.273438 287.535156 680.910156 285.933594 C 680.546875 284.332031 680.148438 282.738281 679.714844 281.15625 C 679.277344 279.574219 678.808594 278.003906 678.300781 276.441406 C 677.792969 274.878906 677.253906 273.332031 676.675781 271.796875 C 676.097656 270.257812 675.484375 268.734375 674.839844 267.226562 C 674.191406 265.71875 673.511719 264.226562 672.796875 262.75 C 672.082031 261.269531 671.332031 259.8125 670.550781 258.367188 C 669.769531 256.925781 668.953125 255.5 668.109375 254.09375 C 667.261719 252.6875 666.382812 251.300781 665.472656 249.933594 C 664.5625 248.570312 663.625 247.222656 662.652344 245.902344 C 661.679688 244.578125 660.679688 243.277344 659.648438 242 C 658.617188 240.722656 657.558594 239.46875 656.472656 238.238281 C 655.386719 237.007812 654.269531 235.804688 653.128906 234.625 C 651.984375 233.449219 650.816406 232.296875 649.621094 231.171875 C 648.425781 230.046875 647.207031 228.949219 645.960938 227.878906 C 644.714844 226.808594 643.445312 225.769531 642.152344 224.757812 C 640.863281 223.746094 639.546875 222.765625 638.210938 221.8125 C 636.871094 220.859375 635.511719 219.941406 634.132812 219.050781 C 632.753906 218.160156 631.355469 217.304688 629.9375 216.476562 C 628.519531 215.652344 627.082031 214.859375 625.628906 214.097656 C 624.171875 213.335938 622.703125 212.609375 621.214844 211.917969 C 619.726562 211.222656 618.222656 210.566406 616.707031 209.941406 C 615.1875 209.316406 613.65625 208.726562 612.113281 208.171875 C 610.566406 207.617188 609.011719 207.097656 607.441406 206.613281 C 605.875 206.128906 604.296875 205.679688 602.707031 205.269531 C 601.117188 204.855469 599.519531 204.480469 597.914062 204.140625 C 596.308594 203.800781 594.695312 203.5 593.074219 203.234375 C 591.457031 202.96875 589.832031 202.742188 588.199219 202.550781 C 586.570312 202.359375 584.9375 202.203125 583.300781 202.085938 C 581.660156 201.96875 580.023438 201.890625 578.382812 201.847656 C 576.742188 201.804688 575.101562 201.800781 573.460938 201.835938 L 532.246094 201.835938 L 527.648438 181.5625 C 512.738281 115.855469 449.730469 71.71875 370.859375 71.71875 C 367.160156 71.730469 363.464844 71.871094 359.777344 72.144531 C 356.085938 72.417969 352.410156 72.824219 348.75 73.355469 C 345.089844 73.890625 341.449219 74.554688 337.835938 75.34375 C 334.222656 76.136719 330.640625 77.054688 327.09375 78.101562 C 323.542969 79.144531 320.035156 80.316406 316.570312 81.609375 C 313.101562 82.902344 309.6875 84.320312 306.320312 85.855469 C 302.957031 87.390625 299.648438 89.042969 296.398438 90.8125 C 293.148438 92.585938 289.96875 94.46875 286.851562 96.464844 C 283.738281 98.457031 280.695312 100.5625 277.730469 102.773438 C 274.765625 104.984375 271.878906 107.296875 269.078125 109.714844 C 266.273438 112.128906 263.5625 114.640625 260.9375 117.25 C 258.3125 119.855469 255.785156 122.554688 253.351562 125.339844 C 250.917969 128.128906 248.585938 130.996094 246.355469 133.949219 C 244.125 136.902344 242 139.929688 239.988281 143.03125 C 237.972656 146.132812 236.066406 149.304688 234.277344 152.542969 C 232.484375 155.777344 230.8125 159.074219 229.253906 162.433594 L 221.226562 179.792969 L 198.769531 176.820312 C 195.433594 176.246094 192.078125 175.910156 188.695312 175.8125 C 186.992188 175.8125 185.289062 175.851562 183.589844 175.9375 C 181.886719 176.019531 180.1875 176.144531 178.492188 176.3125 C 176.796875 176.480469 175.109375 176.6875 173.421875 176.9375 C 171.738281 177.1875 170.058594 177.476562 168.390625 177.8125 C 166.71875 178.144531 165.054688 178.515625 163.402344 178.929688 C 161.75 179.34375 160.109375 179.796875 158.480469 180.292969 C 156.851562 180.789062 155.234375 181.320312 153.628906 181.894531 C 152.023438 182.46875 150.4375 183.082031 148.863281 183.734375 C 147.289062 184.386719 145.730469 185.078125 144.191406 185.804688 C 142.652344 186.53125 141.128906 187.296875 139.628906 188.101562 C 138.125 188.90625 136.644531 189.746094 135.183594 190.621094 C 133.722656 191.496094 132.28125 192.40625 130.867188 193.355469 C 129.449219 194.300781 128.054688 195.28125 126.6875 196.296875 C 125.320312 197.308594 123.976562 198.359375 122.660156 199.4375 C 121.34375 200.519531 120.054688 201.632812 118.792969 202.777344 C 117.53125 203.921875 116.296875 205.09375 115.089844 206.300781 C 113.886719 207.503906 112.710938 208.738281 111.570312 210 C 110.425781 211.261719 109.3125 212.550781 108.230469 213.867188 C 107.152344 215.183594 106.101562 216.527344 105.089844 217.894531 C 104.074219 219.265625 103.09375 220.65625 102.144531 222.074219 C 101.199219 223.488281 100.289062 224.929688 99.414062 226.390625 C 98.535156 227.851562 97.699219 229.332031 96.894531 230.835938 C 96.089844 232.335938 95.324219 233.859375 94.597656 235.398438 C 93.867188 236.9375 93.179688 238.496094 92.527344 240.070312 C 91.875 241.644531 91.261719 243.230469 90.6875 244.835938 C 90.113281 246.441406 89.578125 248.058594 89.085938 249.6875 C 88.589844 251.316406 88.136719 252.957031 87.722656 254.609375 C 87.308594 256.265625 86.9375 257.925781 86.601562 259.597656 C 86.269531 261.265625 85.980469 262.945312 85.730469 264.628906 C 85.480469 266.316406 85.273438 268.003906 85.105469 269.699219 C 84.9375 271.394531 84.8125 273.09375 84.730469 274.796875 C 84.644531 276.496094 84.601562 278.199219 84.601562 279.902344 C 84.601562 281.609375 84.644531 283.308594 84.730469 285.011719 C 84.8125 286.714844 84.9375 288.410156 85.105469 290.105469 C 85.273438 291.800781 85.480469 293.492188 85.730469 295.175781 C 85.980469 296.863281 86.269531 298.539062 86.601562 300.210938 C 86.9375 301.882812 87.308594 303.542969 87.722656 305.195312 C 88.136719 306.847656 88.589844 308.492188 89.085938 310.121094 C 89.578125 311.75 90.113281 313.367188 90.6875 314.972656 C 91.261719 316.574219 91.875 318.164062 92.527344 319.738281 C 93.179688 321.3125 93.867188 322.871094 94.597656 324.410156 C 95.324219 325.949219 96.089844 327.46875 96.894531 328.972656 C 97.699219 330.476562 98.535156 331.957031 99.414062 333.417969 C 100.289062 334.878906 101.199219 336.320312 102.144531 337.734375 C 103.09375 339.152344 104.074219 340.542969 105.089844 341.914062 C 106.101562 343.28125 107.152344 344.625 108.230469 345.941406 C 109.3125 347.257812 110.425781 348.546875 111.570312 349.808594 C 112.710938 351.070312 113.886719 352.304688 115.089844 353.507812 C 116.296875 354.714844 117.53125 355.886719 118.792969 357.03125 C 120.054688 358.175781 121.34375 359.289062 122.660156 360.367188 C 123.976562 361.449219 125.320312 362.496094 126.6875 363.511719 C 128.054688 364.527344 129.449219 365.507812 130.867188 366.453125 C 132.28125 367.402344 133.722656 368.3125 135.183594 369.1875 C 136.644531 370.0625 138.125 370.902344 139.628906 371.707031 C 141.128906 372.507812 142.652344 373.273438 144.191406 374.003906 C 145.730469 374.730469 147.289062 375.421875 148.863281 376.074219 C 150.4375 376.726562 152.023438 377.339844 153.628906 377.914062 C 155.234375 378.484375 156.851562 379.019531 158.480469 379.515625 C 160.109375 380.007812 161.75 380.464844 163.402344 380.878906 C 165.054688 381.292969 166.71875 381.664062 168.390625 381.996094 C 170.058594 382.328125 171.738281 382.621094 173.421875 382.871094 C 175.109375 383.121094 176.796875 383.328125 178.492188 383.496094 C 180.1875 383.664062 181.886719 383.789062 183.589844 383.871094 C 185.289062 383.957031 186.992188 383.996094 188.695312 383.996094 L 188.695312 436.042969 C 186.140625 436.042969 183.585938 435.980469 181.035156 435.855469 C 178.484375 435.730469 175.933594 435.542969 173.390625 435.292969 C 170.847656 435.042969 168.3125 434.730469 165.785156 434.355469 C 163.257812 433.980469 160.742188 433.542969 158.234375 433.042969 C 155.730469 432.546875 153.238281 431.984375 150.757812 431.363281 C 148.277344 430.742188 145.816406 430.0625 143.371094 429.320312 C 140.925781 428.578125 138.5 427.777344 136.09375 426.917969 C 133.6875 426.054688 131.304688 425.136719 128.945312 424.160156 C 126.582031 423.179688 124.25 422.144531 121.9375 421.050781 C 119.628906 419.960938 117.347656 418.8125 115.09375 417.605469 C 112.839844 416.402344 110.617188 415.144531 108.425781 413.828125 C 106.234375 412.515625 104.074219 411.148438 101.949219 409.730469 C 99.824219 408.308594 97.738281 406.839844 95.683594 405.316406 C 93.632812 403.792969 91.617188 402.222656 89.640625 400.601562 C 87.667969 398.980469 85.734375 397.3125 83.839844 395.597656 C 81.945312 393.878906 80.097656 392.117188 78.289062 390.3125 C 76.480469 388.503906 74.71875 386.65625 73.003906 384.761719 C 71.289062 382.867188 69.621094 380.933594 68 378.957031 C 66.378906 376.984375 64.804688 374.96875 63.285156 372.917969 C 61.761719 370.863281 60.289062 368.773438 58.871094 366.652344 C 57.453125 364.527344 56.085938 362.367188 54.769531 360.175781 C 53.457031 357.984375 52.199219 355.761719 50.992188 353.507812 C 49.789062 351.253906 48.640625 348.972656 47.546875 346.664062 C 46.457031 344.351562 45.421875 342.015625 44.441406 339.65625 C 43.464844 337.296875 42.542969 334.910156 41.683594 332.503906 C 40.824219 330.101562 40.023438 327.675781 39.28125 325.230469 C 38.539062 322.785156 37.855469 320.320312 37.234375 317.84375 C 36.613281 315.363281 36.054688 312.871094 35.558594 310.367188 C 35.058594 307.859375 34.621094 305.34375 34.246094 302.8125 C 33.871094 300.285156 33.558594 297.75 33.308594 295.207031 C 33.058594 292.664062 32.871094 290.117188 32.746094 287.566406 C 32.621094 285.011719 32.558594 282.460938 32.558594 279.902344 C 32.558594 277.347656 32.621094 274.792969 32.746094 272.242188 C 32.871094 269.691406 33.058594 267.144531 33.308594 264.597656 C 33.558594 262.054688 33.871094 259.519531 34.246094 256.992188 C 34.621094 254.464844 35.058594 251.949219 35.558594 249.441406 C 36.054688 246.9375 36.613281 244.445312 37.234375 241.964844 C 37.855469 239.484375 38.539062 237.023438 39.28125 234.578125 C 40.023438 232.132812 40.824219 229.707031 41.683594 227.300781 C 42.542969 224.894531 43.464844 222.511719 44.441406 220.152344 C 45.421875 217.789062 46.457031 215.457031 47.546875 213.144531 C 48.640625 210.835938 49.789062 208.554688 50.992188 206.300781 C 52.199219 204.046875 53.457031 201.824219 54.769531 199.632812 C 56.085938 197.441406 57.453125 195.28125 58.871094 193.15625 C 60.289062 191.03125 61.761719 188.945312 63.285156 186.890625 C 64.804688 184.839844 66.378906 182.824219 68 180.851562 C 69.621094 178.875 71.289062 176.941406 73.003906 175.046875 C 74.71875 173.152344 76.480469 171.304688 78.289062 169.496094 C 80.097656 167.6875 81.945312 165.929688 83.839844 164.210938 C 85.734375 162.496094 87.667969 160.828125 89.640625 159.207031 C 91.617188 157.585938 93.632812 156.011719 95.683594 154.492188 C 97.738281 152.96875 99.824219 151.496094 101.949219 150.078125 C 104.074219 148.660156 106.234375 147.292969 108.425781 145.976562 C 110.617188 144.664062 112.839844 143.40625 115.09375 142.199219 C 117.347656 140.996094 119.628906 139.847656 121.9375 138.753906 C 124.25 137.664062 126.582031 136.628906 128.945312 135.648438 C 131.304688 134.671875 133.6875 133.753906 136.09375 132.890625 C 138.5 132.03125 140.925781 131.230469 143.371094 130.488281 C 145.816406 129.746094 148.277344 129.0625 150.757812 128.441406 C 153.238281 127.824219 155.730469 127.261719 158.234375 126.765625 C 160.742188 126.265625 163.257812 125.828125 165.785156 125.453125 C 168.3125 125.078125 170.847656 124.765625 173.390625 124.515625 C 175.933594 124.265625 178.484375 124.078125 181.035156 123.953125 C 183.585938 123.828125 186.140625 123.765625 188.695312 123.765625 C 189.382812 123.765625 190.0625 123.765625 190.742188 123.789062 C 193.019531 119.863281 195.421875 116.015625 197.949219 112.246094 C 200.472656 108.476562 203.121094 104.792969 205.890625 101.195312 C 208.65625 97.597656 211.539062 94.09375 214.535156 90.683594 C 217.527344 87.273438 220.632812 83.964844 223.84375 80.757812 C 227.054688 77.550781 230.367188 74.453125 233.78125 71.460938 C 237.195312 68.46875 240.703125 65.59375 244.300781 62.832031 C 247.902344 60.066406 251.589844 57.425781 255.363281 54.902344 C 259.136719 52.378906 262.988281 49.984375 266.917969 47.710938 C 270.847656 45.441406 274.84375 43.300781 278.914062 41.289062 C 282.984375 39.277344 287.113281 37.402344 291.304688 35.660156 C 295.496094 33.917969 299.738281 32.316406 304.035156 30.851562 C 308.328125 29.386719 312.667969 28.0625 317.050781 26.878906 C 321.433594 25.699219 325.847656 24.660156 330.296875 23.765625 C 334.746094 22.871094 339.222656 22.121094 343.71875 21.519531 C 348.21875 20.917969 352.730469 20.460938 357.261719 20.152344 C 361.789062 19.84375 366.320312 19.683594 370.859375 19.671875 C 466.59375 19.671875 545.015625 71.132812 572.582031 149.789062 L 573.460938 149.789062 C 575.898438 149.761719 578.339844 149.789062 580.777344 149.871094 C 583.214844 149.957031 585.652344 150.097656 588.082031 150.292969 C 590.515625 150.488281 592.941406 150.738281 595.363281 151.042969 C 597.785156 151.347656 600.195312 151.710938 602.601562 152.125 C 605.003906 152.542969 607.398438 153.011719 609.78125 153.539062 C 612.164062 154.0625 614.535156 154.644531 616.890625 155.277344 C 619.246094 155.910156 621.585938 156.597656 623.914062 157.335938 C 626.238281 158.078125 628.546875 158.871094 630.835938 159.714844 C 633.121094 160.5625 635.390625 161.457031 637.640625 162.40625 C 639.886719 163.355469 642.113281 164.355469 644.316406 165.40625 C 646.515625 166.457031 648.695312 167.558594 650.847656 168.707031 C 653 169.855469 655.125 171.054688 657.222656 172.300781 C 659.320312 173.550781 661.386719 174.84375 663.425781 176.183594 C 665.464844 177.527344 667.46875 178.914062 669.445312 180.34375 C 671.421875 181.777344 673.363281 183.253906 675.269531 184.777344 C 677.175781 186.296875 679.046875 187.863281 680.886719 189.46875 C 682.722656 191.078125 684.519531 192.722656 686.28125 194.414062 C 688.042969 196.101562 689.765625 197.832031 691.445312 199.597656 C 693.128906 201.367188 694.769531 203.171875 696.371094 205.011719 C 697.96875 206.855469 699.527344 208.734375 701.039062 210.648438 C 702.554688 212.558594 704.023438 214.507812 705.449219 216.488281 C 706.875 218.46875 708.253906 220.480469 709.589844 222.523438 C 710.921875 224.566406 712.207031 226.640625 713.445312 228.742188 C 714.683594 230.84375 715.875 232.972656 717.019531 235.128906 C 718.160156 237.285156 719.25 239.46875 720.292969 241.675781 C 721.335938 243.878906 722.328125 246.109375 723.265625 248.359375 C 724.207031 250.613281 725.097656 252.882812 725.933594 255.175781 C 726.769531 257.46875 727.554688 259.777344 728.285156 262.105469 C 729.015625 264.433594 729.695312 266.777344 730.320312 269.136719 C 730.945312 271.496094 731.515625 273.867188 732.03125 276.253906 C 732.546875 278.636719 733.007812 281.03125 733.414062 283.4375 C 733.820312 285.84375 734.171875 288.257812 734.46875 290.679688 C 734.734375 293.382812 734.929688 296.089844 735.050781 298.800781 C 735.175781 301.511719 735.226562 304.226562 735.210938 306.941406 C 735.191406 309.65625 735.101562 312.367188 734.945312 315.078125 C 734.785156 317.789062 734.554688 320.492188 734.253906 323.191406 C 733.953125 325.886719 733.582031 328.574219 733.140625 331.253906 C 732.699219 333.933594 732.191406 336.597656 731.609375 339.25 C 731.03125 341.902344 730.382812 344.539062 729.664062 347.15625 C 728.949219 349.773438 728.164062 352.371094 727.308594 354.949219 C 726.457031 357.527344 725.539062 360.082031 724.554688 362.609375 C 723.566406 365.140625 722.515625 367.640625 721.398438 370.117188 C 720.285156 372.589844 719.101562 375.035156 717.859375 377.445312 C 716.617188 379.859375 715.308594 382.238281 713.941406 384.582031 C 712.574219 386.929688 711.148438 389.234375 709.660156 391.507812 C 708.171875 393.777344 706.625 396.007812 705.019531 398.195312 C 703.414062 400.386719 701.753906 402.535156 700.039062 404.636719 C 698.320312 406.738281 696.550781 408.796875 694.730469 410.808594 C 692.90625 412.820312 691.03125 414.78125 689.105469 416.695312 C 687.179688 418.605469 685.203125 420.46875 683.179688 422.277344 C 681.15625 424.089844 679.089844 425.84375 676.972656 427.546875 C 674.859375 429.25 672.703125 430.894531 670.5 432.484375 C 668.300781 434.074219 666.0625 435.605469 663.78125 437.082031 C 661.5 438.554688 659.183594 439.964844 656.828125 441.316406 C 654.476562 442.671875 652.085938 443.960938 649.664062 445.1875 C 647.246094 446.414062 644.792969 447.578125 642.3125 448.679688 C 639.828125 449.777344 637.320312 450.8125 634.785156 451.78125 C 632.25 452.75 629.6875 453.652344 627.105469 454.488281 C 624.523438 455.324219 621.921875 456.089844 619.296875 456.789062 C 616.675781 457.492188 614.035156 458.121094 611.378906 458.683594 C 608.722656 459.246094 606.054688 459.738281 603.375 460.160156 C 600.691406 460.582031 598 460.9375 595.300781 461.21875 C 592.601562 461.5 589.894531 461.714844 587.183594 461.855469 C 584.472656 461.996094 581.761719 462.066406 579.046875 462.066406 L 474.953125 462.066406 L 474.953125 696.277344 L 553.023438 696.277344 Z M 553.023438 748.324219 " fill-opacity="1" fill-rule="nonzero"/></svg>